# Original Techguns ModelChemLab; Techguns Mod License
mtllib chem_lab.mtl
o Shape1
usemtl gun
v 1.000000000 0.125000000 0.000000000
v 1.000000000 0.125000000 1.000000000
v 1.000000000 0.000000000 1.000000000
v 1.000000000 0.000000000 0.000000000
vt 0.375000000 0.250000000
vt 0.250000000 0.250000000
vt 0.250000000 0.281250000
vt 0.375000000 0.281250000
f 1/1 2/2 3/3 4/4
v 0.000000000 0.125000000 1.000000000
v 0.000000000 0.125000000 0.000000000
v 0.000000000 0.000000000 0.000000000
v 0.000000000 0.000000000 1.000000000
vt 0.125000000 0.250000000
vt 0.000000000 0.250000000
vt 0.000000000 0.281250000
vt 0.125000000 0.281250000
f 5/5 6/6 7/7 8/8
v 1.000000000 0.125000000 0.000000000
v 0.000000000 0.125000000 0.000000000
v 0.000000000 0.125000000 1.000000000
v 1.000000000 0.125000000 1.000000000
vt 0.250000000 0.000000000
vt 0.125000000 0.000000000
vt 0.125000000 0.250000000
vt 0.250000000 0.250000000
f 9/9 10/10 11/11 12/12
v 1.000000000 0.000000000 1.000000000
v 0.000000000 0.000000000 1.000000000
v 0.000000000 0.000000000 0.000000000
v 1.000000000 0.000000000 0.000000000
vt 0.375000000 0.250000000
vt 0.250000000 0.250000000
vt 0.250000000 0.000000000
vt 0.375000000 0.000000000
f 13/13 14/14 15/15 16/16
v 1.000000000 0.125000000 1.000000000
v 0.000000000 0.125000000 1.000000000
v 0.000000000 0.000000000 1.000000000
v 1.000000000 0.000000000 1.000000000
vt 0.250000000 0.250000000
vt 0.125000000 0.250000000
vt 0.125000000 0.281250000
vt 0.250000000 0.281250000
f 17/17 18/18 19/19 20/20
v 0.000000000 0.125000000 0.000000000
v 1.000000000 0.125000000 0.000000000
v 1.000000000 0.000000000 0.000000000
v 0.000000000 0.000000000 0.000000000
vt 0.500000000 0.250000000
vt 0.375000000 0.250000000
vt 0.375000000 0.281250000
vt 0.500000000 0.281250000
f 21/21 22/22 23/23 24/24
o Shape2
usemtl gun
v 0.687500000 0.687500000 0.937500000
v 0.687500000 0.687500000 1.000000000
v 0.687500000 0.312500000 1.000000000
v 0.687500000 0.312500000 0.937500000
vt 0.570312500 0.093750000
vt 0.562500000 0.093750000
vt 0.562500000 0.187500000
vt 0.570312500 0.187500000
f 25/25 26/26 27/27 28/28
v 0.312500000 0.687500000 1.000000000
v 0.312500000 0.687500000 0.937500000
v 0.312500000 0.312500000 0.937500000
v 0.312500000 0.312500000 1.000000000
vt 0.515625000 0.093750000
vt 0.507812500 0.093750000
vt 0.507812500 0.187500000
vt 0.515625000 0.187500000
f 29/29 30/30 31/31 32/32
v 0.687500000 0.687500000 0.937500000
v 0.312500000 0.687500000 0.937500000
v 0.312500000 0.687500000 1.000000000
v 0.687500000 0.687500000 1.000000000
vt 0.562500000 0.078125000
vt 0.515625000 0.078125000
vt 0.515625000 0.093750000
vt 0.562500000 0.093750000
f 33/33 34/34 35/35 36/36
v 0.687500000 0.312500000 1.000000000
v 0.312500000 0.312500000 1.000000000
v 0.312500000 0.312500000 0.937500000
v 0.687500000 0.312500000 0.937500000
vt 0.609375000 0.093750000
vt 0.562500000 0.093750000
vt 0.562500000 0.078125000
vt 0.609375000 0.078125000
f 37/37 38/38 39/39 40/40
v 0.687500000 0.687500000 1.000000000
v 0.312500000 0.687500000 1.000000000
v 0.312500000 0.312500000 1.000000000
v 0.687500000 0.312500000 1.000000000
vt 0.562500000 0.093750000
vt 0.515625000 0.093750000
vt 0.515625000 0.187500000
vt 0.562500000 0.187500000
f 41/41 42/42 43/43 44/44
v 0.312500000 0.687500000 0.937500000
v 0.687500000 0.687500000 0.937500000
v 0.687500000 0.312500000 0.937500000
v 0.312500000 0.312500000 0.937500000
vt 0.617187500 0.093750000
vt 0.570312500 0.093750000
vt 0.570312500 0.187500000
vt 0.617187500 0.187500000
f 45/45 46/46 47/47 48/48
o Shape3
usemtl gun
v 0.343750000 0.656250000 0.343750000
v 0.343750000 0.656250000 0.656250000
v 0.343750000 0.343750000 0.656250000
v 0.343750000 0.343750000 0.343750000
vt 0.117187500 0.359375000
vt 0.078125000 0.359375000
vt 0.078125000 0.437500000
vt 0.117187500 0.437500000
f 49/49 50/50 51/51 52/52
v 0.031250000 0.656250000 0.656250000
v 0.031250000 0.656250000 0.343750000
v 0.031250000 0.343750000 0.343750000
v 0.031250000 0.343750000 0.656250000
vt 0.039062500 0.359375000
vt 0.000000000 0.359375000
vt 0.000000000 0.437500000
vt 0.039062500 0.437500000
f 53/53 54/54 55/55 56/56
v 0.343750000 0.656250000 0.343750000
v 0.031250000 0.656250000 0.343750000
v 0.031250000 0.656250000 0.656250000
v 0.343750000 0.656250000 0.656250000
vt 0.078125000 0.281250000
vt 0.039062500 0.281250000
vt 0.039062500 0.359375000
vt 0.078125000 0.359375000
f 57/57 58/58 59/59 60/60
v 0.343750000 0.343750000 0.656250000
v 0.031250000 0.343750000 0.656250000
v 0.031250000 0.343750000 0.343750000
v 0.343750000 0.343750000 0.343750000
vt 0.117187500 0.359375000
vt 0.078125000 0.359375000
vt 0.078125000 0.281250000
vt 0.117187500 0.281250000
f 61/61 62/62 63/63 64/64
v 0.343750000 0.656250000 0.656250000
v 0.031250000 0.656250000 0.656250000
v 0.031250000 0.343750000 0.656250000
v 0.343750000 0.343750000 0.656250000
vt 0.078125000 0.359375000
vt 0.039062500 0.359375000
vt 0.039062500 0.437500000
vt 0.078125000 0.437500000
f 65/65 66/66 67/67 68/68
v 0.031250000 0.656250000 0.343750000
v 0.343750000 0.656250000 0.343750000
v 0.343750000 0.343750000 0.343750000
v 0.031250000 0.343750000 0.343750000
vt 0.156250000 0.359375000
vt 0.117187500 0.359375000
vt 0.117187500 0.437500000
vt 0.156250000 0.437500000
f 69/69 70/70 71/71 72/72
o G10
usemtl gun
v 0.312500000 0.750000000 0.687500000
v 0.312500000 0.750000000 0.937500000
v 0.312500000 0.187500000 0.937500000
v 0.312500000 0.187500000 0.687500000
vt 0.414062500 0.406250000
vt 0.382812500 0.406250000
vt 0.382812500 0.546875000
vt 0.414062500 0.546875000
f 73/73 74/74 75/75 76/76
v 0.062500000 0.750000000 0.937500000
v 0.062500000 0.750000000 0.687500000
v 0.062500000 0.187500000 0.687500000
v 0.062500000 0.187500000 0.937500000
vt 0.351562500 0.406250000
vt 0.320312500 0.406250000
vt 0.320312500 0.546875000
vt 0.351562500 0.546875000
f 77/77 78/78 79/79 80/80
v 0.312500000 0.750000000 0.687500000
v 0.062500000 0.750000000 0.687500000
v 0.062500000 0.750000000 0.937500000
v 0.312500000 0.750000000 0.937500000
vt 0.382812500 0.343750000
vt 0.351562500 0.343750000
vt 0.351562500 0.406250000
vt 0.382812500 0.406250000
f 81/81 82/82 83/83 84/84
v 0.312500000 0.187500000 0.937500000
v 0.062500000 0.187500000 0.937500000
v 0.062500000 0.187500000 0.687500000
v 0.312500000 0.187500000 0.687500000
vt 0.414062500 0.406250000
vt 0.382812500 0.406250000
vt 0.382812500 0.343750000
vt 0.414062500 0.343750000
f 85/85 86/86 87/87 88/88
v 0.312500000 0.750000000 0.937500000
v 0.062500000 0.750000000 0.937500000
v 0.062500000 0.187500000 0.937500000
v 0.312500000 0.187500000 0.937500000
vt 0.382812500 0.406250000
vt 0.351562500 0.406250000
vt 0.351562500 0.546875000
vt 0.382812500 0.546875000
f 89/89 90/90 91/91 92/92
v 0.062500000 0.750000000 0.687500000
v 0.312500000 0.750000000 0.687500000
v 0.312500000 0.187500000 0.687500000
v 0.062500000 0.187500000 0.687500000
vt 0.445312500 0.406250000
vt 0.414062500 0.406250000
vt 0.414062500 0.546875000
vt 0.445312500 0.546875000
f 93/93 94/94 95/95 96/96
o Shape4
usemtl gun
v 0.687500000 0.187500000 0.281250000
v 0.687500000 0.187500000 0.656250000
v 0.687500000 0.125000000 0.656250000
v 0.687500000 0.125000000 0.281250000
vt 0.140625000 0.546875000
vt 0.093750000 0.546875000
vt 0.093750000 0.562500000
vt 0.140625000 0.562500000
f 97/97 98/98 99/99 100/100
v 0.312500000 0.187500000 0.656250000
v 0.312500000 0.187500000 0.281250000
v 0.312500000 0.125000000 0.281250000
v 0.312500000 0.125000000 0.656250000
vt 0.046875000 0.546875000
vt 0.000000000 0.546875000
vt 0.000000000 0.562500000
vt 0.046875000 0.562500000
f 101/101 102/102 103/103 104/104
v 0.687500000 0.187500000 0.281250000
v 0.312500000 0.187500000 0.281250000
v 0.312500000 0.187500000 0.656250000
v 0.687500000 0.187500000 0.656250000
vt 0.093750000 0.453125000
vt 0.046875000 0.453125000
vt 0.046875000 0.546875000
vt 0.093750000 0.546875000
f 105/105 106/106 107/107 108/108
v 0.687500000 0.125000000 0.656250000
v 0.312500000 0.125000000 0.656250000
v 0.312500000 0.125000000 0.281250000
v 0.687500000 0.125000000 0.281250000
vt 0.140625000 0.546875000
vt 0.093750000 0.546875000
vt 0.093750000 0.453125000
vt 0.140625000 0.453125000
f 109/109 110/110 111/111 112/112
v 0.687500000 0.187500000 0.656250000
v 0.312500000 0.187500000 0.656250000
v 0.312500000 0.125000000 0.656250000
v 0.687500000 0.125000000 0.656250000
vt 0.093750000 0.546875000
vt 0.046875000 0.546875000
vt 0.046875000 0.562500000
vt 0.093750000 0.562500000
f 113/113 114/114 115/115 116/116
v 0.312500000 0.187500000 0.281250000
v 0.687500000 0.187500000 0.281250000
v 0.687500000 0.125000000 0.281250000
v 0.312500000 0.125000000 0.281250000
vt 0.187500000 0.546875000
vt 0.140625000 0.546875000
vt 0.140625000 0.562500000
vt 0.187500000 0.562500000
f 117/117 118/118 119/119 120/120
o Shape5
usemtl gun
v 0.343750000 0.187500000 0.656250000
v 0.343750000 0.187500000 0.968750000
v 0.343750000 0.125000000 0.968750000
v 0.343750000 0.125000000 0.656250000
vt 0.562500000 0.531250000
vt 0.523437500 0.531250000
vt 0.523437500 0.546875000
vt 0.562500000 0.546875000
f 121/121 122/122 123/123 124/124
v 0.031250000 0.187500000 0.968750000
v 0.031250000 0.187500000 0.656250000
v 0.031250000 0.125000000 0.656250000
v 0.031250000 0.125000000 0.968750000
vt 0.484375000 0.531250000
vt 0.445312500 0.531250000
vt 0.445312500 0.546875000
vt 0.484375000 0.546875000
f 125/125 126/126 127/127 128/128
v 0.343750000 0.187500000 0.656250000
v 0.031250000 0.187500000 0.656250000
v 0.031250000 0.187500000 0.968750000
v 0.343750000 0.187500000 0.968750000
vt 0.523437500 0.453125000
vt 0.484375000 0.453125000
vt 0.484375000 0.531250000
vt 0.523437500 0.531250000
f 129/129 130/130 131/131 132/132
v 0.343750000 0.125000000 0.968750000
v 0.031250000 0.125000000 0.968750000
v 0.031250000 0.125000000 0.656250000
v 0.343750000 0.125000000 0.656250000
vt 0.562500000 0.531250000
vt 0.523437500 0.531250000
vt 0.523437500 0.453125000
vt 0.562500000 0.453125000
f 133/133 134/134 135/135 136/136
v 0.343750000 0.187500000 0.968750000
v 0.031250000 0.187500000 0.968750000
v 0.031250000 0.125000000 0.968750000
v 0.343750000 0.125000000 0.968750000
vt 0.523437500 0.531250000
vt 0.484375000 0.531250000
vt 0.484375000 0.546875000
vt 0.523437500 0.546875000
f 137/137 138/138 139/139 140/140
v 0.031250000 0.187500000 0.656250000
v 0.343750000 0.187500000 0.656250000
v 0.343750000 0.125000000 0.656250000
v 0.031250000 0.125000000 0.656250000
vt 0.601562500 0.531250000
vt 0.562500000 0.531250000
vt 0.562500000 0.546875000
vt 0.601562500 0.546875000
f 141/141 142/142 143/143 144/144
o Shape6
usemtl gun
v 0.562500000 0.843750000 0.750000000
v 0.562500000 0.843750000 0.875000000
v 0.562500000 0.656250000 0.875000000
v 0.562500000 0.656250000 0.750000000
vt 0.664062500 0.390625000
vt 0.648437500 0.390625000
vt 0.648437500 0.437500000
vt 0.664062500 0.437500000
f 145/145 146/146 147/147 148/148
v 0.437500000 0.843750000 0.875000000
v 0.437500000 0.843750000 0.750000000
v 0.437500000 0.656250000 0.750000000
v 0.437500000 0.656250000 0.875000000
vt 0.632812500 0.390625000
vt 0.617187500 0.390625000
vt 0.617187500 0.437500000
vt 0.632812500 0.437500000
f 149/149 150/150 151/151 152/152
v 0.562500000 0.843750000 0.750000000
v 0.437500000 0.843750000 0.750000000
v 0.437500000 0.843750000 0.875000000
v 0.562500000 0.843750000 0.875000000
vt 0.648437500 0.359375000
vt 0.632812500 0.359375000
vt 0.632812500 0.390625000
vt 0.648437500 0.390625000
f 153/153 154/154 155/155 156/156
v 0.562500000 0.656250000 0.875000000
v 0.437500000 0.656250000 0.875000000
v 0.437500000 0.656250000 0.750000000
v 0.562500000 0.656250000 0.750000000
vt 0.664062500 0.390625000
vt 0.648437500 0.390625000
vt 0.648437500 0.359375000
vt 0.664062500 0.359375000
f 157/157 158/158 159/159 160/160
v 0.562500000 0.843750000 0.875000000
v 0.437500000 0.843750000 0.875000000
v 0.437500000 0.656250000 0.875000000
v 0.562500000 0.656250000 0.875000000
vt 0.648437500 0.390625000
vt 0.632812500 0.390625000
vt 0.632812500 0.437500000
vt 0.648437500 0.437500000
f 161/161 162/162 163/163 164/164
v 0.437500000 0.843750000 0.750000000
v 0.562500000 0.843750000 0.750000000
v 0.562500000 0.656250000 0.750000000
v 0.437500000 0.656250000 0.750000000
vt 0.679687500 0.390625000
vt 0.664062500 0.390625000
vt 0.664062500 0.437500000
vt 0.679687500 0.437500000
f 165/165 166/166 167/167 168/168
o Shape7
usemtl gun
v 0.062500000 0.687500000 0.312500000
v 0.062500000 0.687500000 0.687500000
v 0.062500000 0.312500000 0.687500000
v 0.062500000 0.312500000 0.312500000
vt 0.492187500 0.093750000
vt 0.445312500 0.093750000
vt 0.445312500 0.187500000
vt 0.492187500 0.187500000
f 169/169 170/170 171/171 172/172
v 0.000000000 0.687500000 0.687500000
v 0.000000000 0.687500000 0.312500000
v 0.000000000 0.312500000 0.312500000
v 0.000000000 0.312500000 0.687500000
vt 0.437500000 0.093750000
vt 0.390625000 0.093750000
vt 0.390625000 0.187500000
vt 0.437500000 0.187500000
f 173/173 174/174 175/175 176/176
v 0.062500000 0.687500000 0.312500000
v 0.000000000 0.687500000 0.312500000
v 0.000000000 0.687500000 0.687500000
v 0.062500000 0.687500000 0.687500000
vt 0.445312500 0.000000000
vt 0.437500000 0.000000000
vt 0.437500000 0.093750000
vt 0.445312500 0.093750000
f 177/177 178/178 179/179 180/180
v 0.062500000 0.312500000 0.687500000
v 0.000000000 0.312500000 0.687500000
v 0.000000000 0.312500000 0.312500000
v 0.062500000 0.312500000 0.312500000
vt 0.453125000 0.093750000
vt 0.445312500 0.093750000
vt 0.445312500 0.000000000
vt 0.453125000 0.000000000
f 181/181 182/182 183/183 184/184
v 0.062500000 0.687500000 0.687500000
v 0.000000000 0.687500000 0.687500000
v 0.000000000 0.312500000 0.687500000
v 0.062500000 0.312500000 0.687500000
vt 0.445312500 0.093750000
vt 0.437500000 0.093750000
vt 0.437500000 0.187500000
vt 0.445312500 0.187500000
f 185/185 186/186 187/187 188/188
v 0.000000000 0.687500000 0.312500000
v 0.062500000 0.687500000 0.312500000
v 0.062500000 0.312500000 0.312500000
v 0.000000000 0.312500000 0.312500000
vt 0.500000000 0.093750000
vt 0.492187500 0.093750000
vt 0.492187500 0.187500000
vt 0.500000000 0.187500000
f 189/189 190/190 191/191 192/192
o Shape8
usemtl gun
v 0.593750000 0.687500000 0.718750000
v 0.593750000 0.687500000 0.906250000
v 0.593750000 0.625000000 0.906250000
v 0.593750000 0.625000000 0.718750000
vt 0.390625000 0.328125000
vt 0.367187500 0.328125000
vt 0.367187500 0.343750000
vt 0.390625000 0.343750000
f 193/193 194/194 195/195 196/196
v 0.406250000 0.687500000 0.906250000
v 0.406250000 0.687500000 0.718750000
v 0.406250000 0.625000000 0.718750000
v 0.406250000 0.625000000 0.906250000
vt 0.343750000 0.328125000
vt 0.320312500 0.328125000
vt 0.320312500 0.343750000
vt 0.343750000 0.343750000
f 197/197 198/198 199/199 200/200
v 0.593750000 0.687500000 0.718750000
v 0.406250000 0.687500000 0.718750000
v 0.406250000 0.687500000 0.906250000
v 0.593750000 0.687500000 0.906250000
vt 0.367187500 0.281250000
vt 0.343750000 0.281250000
vt 0.343750000 0.328125000
vt 0.367187500 0.328125000
f 201/201 202/202 203/203 204/204
v 0.593750000 0.625000000 0.906250000
v 0.406250000 0.625000000 0.906250000
v 0.406250000 0.625000000 0.718750000
v 0.593750000 0.625000000 0.718750000
vt 0.390625000 0.328125000
vt 0.367187500 0.328125000
vt 0.367187500 0.281250000
vt 0.390625000 0.281250000
f 205/205 206/206 207/207 208/208
v 0.593750000 0.687500000 0.906250000
v 0.406250000 0.687500000 0.906250000
v 0.406250000 0.625000000 0.906250000
v 0.593750000 0.625000000 0.906250000
vt 0.367187500 0.328125000
vt 0.343750000 0.328125000
vt 0.343750000 0.343750000
vt 0.367187500 0.343750000
f 209/209 210/210 211/211 212/212
v 0.406250000 0.687500000 0.718750000
v 0.593750000 0.687500000 0.718750000
v 0.593750000 0.625000000 0.718750000
v 0.406250000 0.625000000 0.718750000
vt 0.414062500 0.328125000
vt 0.390625000 0.328125000
vt 0.390625000 0.343750000
vt 0.414062500 0.343750000
f 213/213 214/214 215/215 216/216
o Shape9
usemtl gun
v 0.656250000 0.656250000 0.625000000
v 0.656250000 0.656250000 0.937500000
v 0.656250000 0.093750000 0.937500000
v 0.656250000 0.093750000 0.625000000
vt 0.281250000 0.593750000
vt 0.242187500 0.593750000
vt 0.242187500 0.734375000
vt 0.281250000 0.734375000
f 217/217 218/218 219/219 220/220
v 0.343750000 0.656250000 0.937500000
v 0.343750000 0.656250000 0.625000000
v 0.343750000 0.093750000 0.625000000
v 0.343750000 0.093750000 0.937500000
vt 0.203125000 0.593750000
vt 0.164062500 0.593750000
vt 0.164062500 0.734375000
vt 0.203125000 0.734375000
f 221/221 222/222 223/223 224/224
v 0.656250000 0.656250000 0.625000000
v 0.343750000 0.656250000 0.625000000
v 0.343750000 0.656250000 0.937500000
v 0.656250000 0.656250000 0.937500000
vt 0.242187500 0.515625000
vt 0.203125000 0.515625000
vt 0.203125000 0.593750000
vt 0.242187500 0.593750000
f 225/225 226/226 227/227 228/228
v 0.656250000 0.093750000 0.937500000
v 0.343750000 0.093750000 0.937500000
v 0.343750000 0.093750000 0.625000000
v 0.656250000 0.093750000 0.625000000
vt 0.281250000 0.593750000
vt 0.242187500 0.593750000
vt 0.242187500 0.515625000
vt 0.281250000 0.515625000
f 229/229 230/230 231/231 232/232
v 0.656250000 0.656250000 0.937500000
v 0.343750000 0.656250000 0.937500000
v 0.343750000 0.093750000 0.937500000
v 0.656250000 0.093750000 0.937500000
vt 0.242187500 0.593750000
vt 0.203125000 0.593750000
vt 0.203125000 0.734375000
vt 0.242187500 0.734375000
f 233/233 234/234 235/235 236/236
v 0.343750000 0.656250000 0.625000000
v 0.656250000 0.656250000 0.625000000
v 0.656250000 0.093750000 0.625000000
v 0.343750000 0.093750000 0.625000000
vt 0.320312500 0.593750000
vt 0.281250000 0.593750000
vt 0.281250000 0.734375000
vt 0.320312500 0.734375000
f 237/237 238/238 239/239 240/240
o Shape10
usemtl gun
v 0.718750000 0.187500000 0.250000000
v 0.718750000 0.187500000 0.312500000
v 0.718750000 0.125000000 0.312500000
v 0.718750000 0.125000000 0.250000000
vt 0.023437500 0.609375000
vt 0.015625000 0.609375000
vt 0.015625000 0.625000000
vt 0.023437500 0.625000000
f 241/241 242/242 243/243 244/244
v 0.656250000 0.187500000 0.312500000
v 0.656250000 0.187500000 0.250000000
v 0.656250000 0.125000000 0.250000000
v 0.656250000 0.125000000 0.312500000
vt 0.007812500 0.609375000
vt 0.000000000 0.609375000
vt 0.000000000 0.625000000
vt 0.007812500 0.625000000
f 245/245 246/246 247/247 248/248
v 0.718750000 0.187500000 0.250000000
v 0.656250000 0.187500000 0.250000000
v 0.656250000 0.187500000 0.312500000
v 0.718750000 0.187500000 0.312500000
vt 0.015625000 0.593750000
vt 0.007812500 0.593750000
vt 0.007812500 0.609375000
vt 0.015625000 0.609375000
f 249/249 250/250 251/251 252/252
v 0.718750000 0.125000000 0.312500000
v 0.656250000 0.125000000 0.312500000
v 0.656250000 0.125000000 0.250000000
v 0.718750000 0.125000000 0.250000000
vt 0.023437500 0.609375000
vt 0.015625000 0.609375000
vt 0.015625000 0.593750000
vt 0.023437500 0.593750000
f 253/253 254/254 255/255 256/256
v 0.718750000 0.187500000 0.312500000
v 0.656250000 0.187500000 0.312500000
v 0.656250000 0.125000000 0.312500000
v 0.718750000 0.125000000 0.312500000
vt 0.015625000 0.609375000
vt 0.007812500 0.609375000
vt 0.007812500 0.625000000
vt 0.015625000 0.625000000
f 257/257 258/258 259/259 260/260
v 0.656250000 0.187500000 0.250000000
v 0.718750000 0.187500000 0.250000000
v 0.718750000 0.125000000 0.250000000
v 0.656250000 0.125000000 0.250000000
vt 0.031250000 0.609375000
vt 0.023437500 0.609375000
vt 0.023437500 0.625000000
vt 0.031250000 0.625000000
f 261/261 262/262 263/263 264/264
o Shape11
usemtl gun
v 0.968750000 0.187500000 0.656250000
v 0.968750000 0.187500000 0.968750000
v 0.968750000 0.125000000 0.968750000
v 0.968750000 0.125000000 0.656250000
vt 0.562500000 0.531250000
vt 0.523437500 0.531250000
vt 0.523437500 0.546875000
vt 0.562500000 0.546875000
f 265/265 266/266 267/267 268/268
v 0.656250000 0.187500000 0.968750000
v 0.656250000 0.187500000 0.656250000
v 0.656250000 0.125000000 0.656250000
v 0.656250000 0.125000000 0.968750000
vt 0.484375000 0.531250000
vt 0.445312500 0.531250000
vt 0.445312500 0.546875000
vt 0.484375000 0.546875000
f 269/269 270/270 271/271 272/272
v 0.968750000 0.187500000 0.656250000
v 0.656250000 0.187500000 0.656250000
v 0.656250000 0.187500000 0.968750000
v 0.968750000 0.187500000 0.968750000
vt 0.523437500 0.453125000
vt 0.484375000 0.453125000
vt 0.484375000 0.531250000
vt 0.523437500 0.531250000
f 273/273 274/274 275/275 276/276
v 0.968750000 0.125000000 0.968750000
v 0.656250000 0.125000000 0.968750000
v 0.656250000 0.125000000 0.656250000
v 0.968750000 0.125000000 0.656250000
vt 0.562500000 0.531250000
vt 0.523437500 0.531250000
vt 0.523437500 0.453125000
vt 0.562500000 0.453125000
f 277/277 278/278 279/279 280/280
v 0.968750000 0.187500000 0.968750000
v 0.656250000 0.187500000 0.968750000
v 0.656250000 0.125000000 0.968750000
v 0.968750000 0.125000000 0.968750000
vt 0.523437500 0.531250000
vt 0.484375000 0.531250000
vt 0.484375000 0.546875000
vt 0.523437500 0.546875000
f 281/281 282/282 283/283 284/284
v 0.656250000 0.187500000 0.656250000
v 0.968750000 0.187500000 0.656250000
v 0.968750000 0.125000000 0.656250000
v 0.656250000 0.125000000 0.656250000
vt 0.601562500 0.531250000
vt 0.562500000 0.531250000
vt 0.562500000 0.546875000
vt 0.601562500 0.546875000
f 285/285 286/286 287/287 288/288
o Shape12
usemtl gun
v 1.000000000 0.687500000 0.312500000
v 1.000000000 0.687500000 0.687500000
v 1.000000000 0.312500000 0.687500000
v 1.000000000 0.312500000 0.312500000
vt 0.492187500 0.093750000
vt 0.445312500 0.093750000
vt 0.445312500 0.187500000
vt 0.492187500 0.187500000
f 289/289 290/290 291/291 292/292
v 0.937500000 0.687500000 0.687500000
v 0.937500000 0.687500000 0.312500000
v 0.937500000 0.312500000 0.312500000
v 0.937500000 0.312500000 0.687500000
vt 0.437500000 0.093750000
vt 0.390625000 0.093750000
vt 0.390625000 0.187500000
vt 0.437500000 0.187500000
f 293/293 294/294 295/295 296/296
v 1.000000000 0.687500000 0.312500000
v 0.937500000 0.687500000 0.312500000
v 0.937500000 0.687500000 0.687500000
v 1.000000000 0.687500000 0.687500000
vt 0.445312500 0.000000000
vt 0.437500000 0.000000000
vt 0.437500000 0.093750000
vt 0.445312500 0.093750000
f 297/297 298/298 299/299 300/300
v 1.000000000 0.312500000 0.687500000
v 0.937500000 0.312500000 0.687500000
v 0.937500000 0.312500000 0.312500000
v 1.000000000 0.312500000 0.312500000
vt 0.453125000 0.093750000
vt 0.445312500 0.093750000
vt 0.445312500 0.000000000
vt 0.453125000 0.000000000
f 301/301 302/302 303/303 304/304
v 1.000000000 0.687500000 0.687500000
v 0.937500000 0.687500000 0.687500000
v 0.937500000 0.312500000 0.687500000
v 1.000000000 0.312500000 0.687500000
vt 0.445312500 0.093750000
vt 0.437500000 0.093750000
vt 0.437500000 0.187500000
vt 0.445312500 0.187500000
f 305/305 306/306 307/307 308/308
v 0.937500000 0.687500000 0.312500000
v 1.000000000 0.687500000 0.312500000
v 1.000000000 0.312500000 0.312500000
v 0.937500000 0.312500000 0.312500000
vt 0.500000000 0.093750000
vt 0.492187500 0.093750000
vt 0.492187500 0.187500000
vt 0.500000000 0.187500000
f 309/309 310/310 311/311 312/312
o Shape13
usemtl gun
v 0.968750000 0.656250000 0.343750000
v 0.968750000 0.656250000 0.656250000
v 0.968750000 0.343750000 0.656250000
v 0.968750000 0.343750000 0.343750000
vt 0.117187500 0.359375000
vt 0.078125000 0.359375000
vt 0.078125000 0.437500000
vt 0.117187500 0.437500000
f 313/313 314/314 315/315 316/316
v 0.656250000 0.656250000 0.656250000
v 0.656250000 0.656250000 0.343750000
v 0.656250000 0.343750000 0.343750000
v 0.656250000 0.343750000 0.656250000
vt 0.039062500 0.359375000
vt 0.000000000 0.359375000
vt 0.000000000 0.437500000
vt 0.039062500 0.437500000
f 317/317 318/318 319/319 320/320
v 0.968750000 0.656250000 0.343750000
v 0.656250000 0.656250000 0.343750000
v 0.656250000 0.656250000 0.656250000
v 0.968750000 0.656250000 0.656250000
vt 0.078125000 0.281250000
vt 0.039062500 0.281250000
vt 0.039062500 0.359375000
vt 0.078125000 0.359375000
f 321/321 322/322 323/323 324/324
v 0.968750000 0.343750000 0.656250000
v 0.656250000 0.343750000 0.656250000
v 0.656250000 0.343750000 0.343750000
v 0.968750000 0.343750000 0.343750000
vt 0.117187500 0.359375000
vt 0.078125000 0.359375000
vt 0.078125000 0.281250000
vt 0.117187500 0.281250000
f 325/325 326/326 327/327 328/328
v 0.968750000 0.656250000 0.656250000
v 0.656250000 0.656250000 0.656250000
v 0.656250000 0.343750000 0.656250000
v 0.968750000 0.343750000 0.656250000
vt 0.078125000 0.359375000
vt 0.039062500 0.359375000
vt 0.039062500 0.437500000
vt 0.078125000 0.437500000
f 329/329 330/330 331/331 332/332
v 0.656250000 0.656250000 0.343750000
v 0.968750000 0.656250000 0.343750000
v 0.968750000 0.343750000 0.343750000
v 0.656250000 0.343750000 0.343750000
vt 0.156250000 0.359375000
vt 0.117187500 0.359375000
vt 0.117187500 0.437500000
vt 0.156250000 0.437500000
f 333/333 334/334 335/335 336/336
o Shape14
usemtl gun
v 0.375000000 0.843750000 0.437500000
v 0.375000000 0.843750000 0.562500000
v 0.375000000 0.718750000 0.562500000
v 0.375000000 0.718750000 0.437500000
vt 0.437500000 0.312500000
vt 0.421875000 0.312500000
vt 0.421875000 0.343750000
vt 0.437500000 0.343750000
f 337/337 338/338 339/339 340/340
v 0.312500000 0.843750000 0.562500000
v 0.312500000 0.843750000 0.437500000
v 0.312500000 0.718750000 0.437500000
v 0.312500000 0.718750000 0.562500000
vt 0.414062500 0.312500000
vt 0.398437500 0.312500000
vt 0.398437500 0.343750000
vt 0.414062500 0.343750000
f 341/341 342/342 343/343 344/344
v 0.375000000 0.843750000 0.437500000
v 0.312500000 0.843750000 0.437500000
v 0.312500000 0.843750000 0.562500000
v 0.375000000 0.843750000 0.562500000
vt 0.421875000 0.281250000
vt 0.414062500 0.281250000
vt 0.414062500 0.312500000
vt 0.421875000 0.312500000
f 345/345 346/346 347/347 348/348
v 0.375000000 0.718750000 0.562500000
v 0.312500000 0.718750000 0.562500000
v 0.312500000 0.718750000 0.437500000
v 0.375000000 0.718750000 0.437500000
vt 0.429687500 0.312500000
vt 0.421875000 0.312500000
vt 0.421875000 0.281250000
vt 0.429687500 0.281250000
f 349/349 350/350 351/351 352/352
v 0.375000000 0.843750000 0.562500000
v 0.312500000 0.843750000 0.562500000
v 0.312500000 0.718750000 0.562500000
v 0.375000000 0.718750000 0.562500000
vt 0.421875000 0.312500000
vt 0.414062500 0.312500000
vt 0.414062500 0.343750000
vt 0.421875000 0.343750000
f 353/353 354/354 355/355 356/356
v 0.312500000 0.843750000 0.437500000
v 0.375000000 0.843750000 0.437500000
v 0.375000000 0.718750000 0.437500000
v 0.312500000 0.718750000 0.437500000
vt 0.445312500 0.312500000
vt 0.437500000 0.312500000
vt 0.437500000 0.343750000
vt 0.445312500 0.343750000
f 357/357 358/358 359/359 360/360
o Shape15
usemtl gun
v 0.875000000 0.968750000 0.750000000
v 0.875000000 0.968750000 0.875000000
v 0.875000000 0.843750000 0.875000000
v 0.875000000 0.843750000 0.750000000
vt 0.742187500 0.312500000
vt 0.726562500 0.312500000
vt 0.726562500 0.343750000
vt 0.742187500 0.343750000
f 361/361 362/362 363/363 364/364
v 0.125000000 0.968750000 0.875000000
v 0.125000000 0.968750000 0.750000000
v 0.125000000 0.843750000 0.750000000
v 0.125000000 0.843750000 0.875000000
vt 0.632812500 0.312500000
vt 0.617187500 0.312500000
vt 0.617187500 0.343750000
vt 0.632812500 0.343750000
f 365/365 366/366 367/367 368/368
v 0.875000000 0.968750000 0.750000000
v 0.125000000 0.968750000 0.750000000
v 0.125000000 0.968750000 0.875000000
v 0.875000000 0.968750000 0.875000000
vt 0.726562500 0.281250000
vt 0.632812500 0.281250000
vt 0.632812500 0.312500000
vt 0.726562500 0.312500000
f 369/369 370/370 371/371 372/372
v 0.875000000 0.843750000 0.875000000
v 0.125000000 0.843750000 0.875000000
v 0.125000000 0.843750000 0.750000000
v 0.875000000 0.843750000 0.750000000
vt 0.820312500 0.312500000
vt 0.726562500 0.312500000
vt 0.726562500 0.281250000
vt 0.820312500 0.281250000
f 373/373 374/374 375/375 376/376
v 0.875000000 0.968750000 0.875000000
v 0.125000000 0.968750000 0.875000000
v 0.125000000 0.843750000 0.875000000
v 0.875000000 0.843750000 0.875000000
vt 0.726562500 0.312500000
vt 0.632812500 0.312500000
vt 0.632812500 0.343750000
vt 0.726562500 0.343750000
f 377/377 378/378 379/379 380/380
v 0.125000000 0.968750000 0.750000000
v 0.875000000 0.968750000 0.750000000
v 0.875000000 0.843750000 0.750000000
v 0.125000000 0.843750000 0.750000000
vt 0.835937500 0.312500000
vt 0.742187500 0.312500000
vt 0.742187500 0.343750000
vt 0.835937500 0.343750000
f 381/381 382/382 383/383 384/384
o Shape16
usemtl gun
v 0.250000000 0.843750000 0.750000000
v 0.250000000 0.843750000 0.875000000
v 0.250000000 0.781250000 0.875000000
v 0.250000000 0.781250000 0.750000000
vt 0.734375000 0.390625000
vt 0.718750000 0.390625000
vt 0.718750000 0.406250000
vt 0.734375000 0.406250000
f 385/385 386/386 387/387 388/388
v 0.125000000 0.843750000 0.875000000
v 0.125000000 0.843750000 0.750000000
v 0.125000000 0.781250000 0.750000000
v 0.125000000 0.781250000 0.875000000
vt 0.703125000 0.390625000
vt 0.687500000 0.390625000
vt 0.687500000 0.406250000
vt 0.703125000 0.406250000
f 389/389 390/390 391/391 392/392
v 0.250000000 0.843750000 0.750000000
v 0.125000000 0.843750000 0.750000000
v 0.125000000 0.843750000 0.875000000
v 0.250000000 0.843750000 0.875000000
vt 0.718750000 0.359375000
vt 0.703125000 0.359375000
vt 0.703125000 0.390625000
vt 0.718750000 0.390625000
f 393/393 394/394 395/395 396/396
v 0.250000000 0.781250000 0.875000000
v 0.125000000 0.781250000 0.875000000
v 0.125000000 0.781250000 0.750000000
v 0.250000000 0.781250000 0.750000000
vt 0.734375000 0.390625000
vt 0.718750000 0.390625000
vt 0.718750000 0.359375000
vt 0.734375000 0.359375000
f 397/397 398/398 399/399 400/400
v 0.250000000 0.843750000 0.875000000
v 0.125000000 0.843750000 0.875000000
v 0.125000000 0.781250000 0.875000000
v 0.250000000 0.781250000 0.875000000
vt 0.718750000 0.390625000
vt 0.703125000 0.390625000
vt 0.703125000 0.406250000
vt 0.718750000 0.406250000
f 401/401 402/402 403/403 404/404
v 0.125000000 0.843750000 0.750000000
v 0.250000000 0.843750000 0.750000000
v 0.250000000 0.781250000 0.750000000
v 0.125000000 0.781250000 0.750000000
vt 0.750000000 0.390625000
vt 0.734375000 0.390625000
vt 0.734375000 0.406250000
vt 0.750000000 0.406250000
f 405/405 406/406 407/407 408/408
o Shape17
usemtl gun
v 0.906250000 0.812500000 0.718750000
v 0.906250000 0.812500000 0.906250000
v 0.906250000 0.750000000 0.906250000
v 0.906250000 0.750000000 0.718750000
vt 0.390625000 0.328125000
vt 0.367187500 0.328125000
vt 0.367187500 0.343750000
vt 0.390625000 0.343750000
f 409/409 410/410 411/411 412/412
v 0.718750000 0.812500000 0.906250000
v 0.718750000 0.812500000 0.718750000
v 0.718750000 0.750000000 0.718750000
v 0.718750000 0.750000000 0.906250000
vt 0.343750000 0.328125000
vt 0.320312500 0.328125000
vt 0.320312500 0.343750000
vt 0.343750000 0.343750000
f 413/413 414/414 415/415 416/416
v 0.906250000 0.812500000 0.718750000
v 0.718750000 0.812500000 0.718750000
v 0.718750000 0.812500000 0.906250000
v 0.906250000 0.812500000 0.906250000
vt 0.367187500 0.281250000
vt 0.343750000 0.281250000
vt 0.343750000 0.328125000
vt 0.367187500 0.328125000
f 417/417 418/418 419/419 420/420
v 0.906250000 0.750000000 0.906250000
v 0.718750000 0.750000000 0.906250000
v 0.718750000 0.750000000 0.718750000
v 0.906250000 0.750000000 0.718750000
vt 0.390625000 0.328125000
vt 0.367187500 0.328125000
vt 0.367187500 0.281250000
vt 0.390625000 0.281250000
f 421/421 422/422 423/423 424/424
v 0.906250000 0.812500000 0.906250000
v 0.718750000 0.812500000 0.906250000
v 0.718750000 0.750000000 0.906250000
v 0.906250000 0.750000000 0.906250000
vt 0.367187500 0.328125000
vt 0.343750000 0.328125000
vt 0.343750000 0.343750000
vt 0.367187500 0.343750000
f 425/425 426/426 427/427 428/428
v 0.718750000 0.812500000 0.718750000
v 0.906250000 0.812500000 0.718750000
v 0.906250000 0.750000000 0.718750000
v 0.718750000 0.750000000 0.718750000
vt 0.414062500 0.328125000
vt 0.390625000 0.328125000
vt 0.390625000 0.343750000
vt 0.414062500 0.343750000
f 429/429 430/430 431/431 432/432
o Shape18
usemtl gun
v 0.875000000 0.843750000 0.750000000
v 0.875000000 0.843750000 0.875000000
v 0.875000000 0.781250000 0.875000000
v 0.875000000 0.781250000 0.750000000
vt 0.734375000 0.390625000
vt 0.718750000 0.390625000
vt 0.718750000 0.406250000
vt 0.734375000 0.406250000
f 433/433 434/434 435/435 436/436
v 0.750000000 0.843750000 0.875000000
v 0.750000000 0.843750000 0.750000000
v 0.750000000 0.781250000 0.750000000
v 0.750000000 0.781250000 0.875000000
vt 0.703125000 0.390625000
vt 0.687500000 0.390625000
vt 0.687500000 0.406250000
vt 0.703125000 0.406250000
f 437/437 438/438 439/439 440/440
v 0.875000000 0.843750000 0.750000000
v 0.750000000 0.843750000 0.750000000
v 0.750000000 0.843750000 0.875000000
v 0.875000000 0.843750000 0.875000000
vt 0.718750000 0.359375000
vt 0.703125000 0.359375000
vt 0.703125000 0.390625000
vt 0.718750000 0.390625000
f 441/441 442/442 443/443 444/444
v 0.875000000 0.781250000 0.875000000
v 0.750000000 0.781250000 0.875000000
v 0.750000000 0.781250000 0.750000000
v 0.875000000 0.781250000 0.750000000
vt 0.734375000 0.390625000
vt 0.718750000 0.390625000
vt 0.718750000 0.359375000
vt 0.734375000 0.359375000
f 445/445 446/446 447/447 448/448
v 0.875000000 0.843750000 0.875000000
v 0.750000000 0.843750000 0.875000000
v 0.750000000 0.781250000 0.875000000
v 0.875000000 0.781250000 0.875000000
vt 0.718750000 0.390625000
vt 0.703125000 0.390625000
vt 0.703125000 0.406250000
vt 0.718750000 0.406250000
f 449/449 450/450 451/451 452/452
v 0.750000000 0.843750000 0.750000000
v 0.875000000 0.843750000 0.750000000
v 0.875000000 0.781250000 0.750000000
v 0.750000000 0.781250000 0.750000000
vt 0.750000000 0.390625000
vt 0.734375000 0.390625000
vt 0.734375000 0.406250000
vt 0.750000000 0.406250000
f 453/453 454/454 455/455 456/456
o Shape19
usemtl gun
v 0.406250000 0.343750000 0.343750000
v 0.406250000 0.343750000 0.406250000
v 0.406250000 0.156250000 0.406250000
v 0.406250000 0.156250000 0.343750000
vt 0.031250000 0.484375000
vt 0.023437500 0.484375000
vt 0.023437500 0.531250000
vt 0.031250000 0.531250000
f 457/457 458/458 459/459 460/460
v 0.343750000 0.343750000 0.406250000
v 0.343750000 0.343750000 0.343750000
v 0.343750000 0.156250000 0.343750000
v 0.343750000 0.156250000 0.406250000
vt 0.015625000 0.484375000
vt 0.007812500 0.484375000
vt 0.007812500 0.531250000
vt 0.015625000 0.531250000
f 461/461 462/462 463/463 464/464
v 0.406250000 0.343750000 0.343750000
v 0.343750000 0.343750000 0.343750000
v 0.343750000 0.343750000 0.406250000
v 0.406250000 0.343750000 0.406250000
vt 0.023437500 0.468750000
vt 0.015625000 0.468750000
vt 0.015625000 0.484375000
vt 0.023437500 0.484375000
f 465/465 466/466 467/467 468/468
v 0.406250000 0.156250000 0.406250000
v 0.343750000 0.156250000 0.406250000
v 0.343750000 0.156250000 0.343750000
v 0.406250000 0.156250000 0.343750000
vt 0.031250000 0.484375000
vt 0.023437500 0.484375000
vt 0.023437500 0.468750000
vt 0.031250000 0.468750000
f 469/469 470/470 471/471 472/472
v 0.406250000 0.343750000 0.406250000
v 0.343750000 0.343750000 0.406250000
v 0.343750000 0.156250000 0.406250000
v 0.406250000 0.156250000 0.406250000
vt 0.023437500 0.484375000
vt 0.015625000 0.484375000
vt 0.015625000 0.531250000
vt 0.023437500 0.531250000
f 473/473 474/474 475/475 476/476
v 0.343750000 0.343750000 0.343750000
v 0.406250000 0.343750000 0.343750000
v 0.406250000 0.156250000 0.343750000
v 0.343750000 0.156250000 0.343750000
vt 0.039062500 0.484375000
vt 0.031250000 0.484375000
vt 0.031250000 0.531250000
vt 0.039062500 0.531250000
f 477/477 478/478 479/479 480/480
o Shape20
usemtl gun
v 0.687500000 1.000000000 0.312500000
v 0.687500000 1.000000000 0.687500000
v 0.687500000 0.937500000 0.687500000
v 0.687500000 0.937500000 0.312500000
vt 0.765625000 0.171875000
vt 0.718750000 0.171875000
vt 0.718750000 0.187500000
vt 0.765625000 0.187500000
f 481/481 482/482 483/483 484/484
v 0.312500000 1.000000000 0.687500000
v 0.312500000 1.000000000 0.312500000
v 0.312500000 0.937500000 0.312500000
v 0.312500000 0.937500000 0.687500000
vt 0.671875000 0.171875000
vt 0.625000000 0.171875000
vt 0.625000000 0.187500000
vt 0.671875000 0.187500000
f 485/485 486/486 487/487 488/488
v 0.687500000 1.000000000 0.312500000
v 0.312500000 1.000000000 0.312500000
v 0.312500000 1.000000000 0.687500000
v 0.687500000 1.000000000 0.687500000
vt 0.718750000 0.078125000
vt 0.671875000 0.078125000
vt 0.671875000 0.171875000
vt 0.718750000 0.171875000
f 489/489 490/490 491/491 492/492
v 0.687500000 0.937500000 0.687500000
v 0.312500000 0.937500000 0.687500000
v 0.312500000 0.937500000 0.312500000
v 0.687500000 0.937500000 0.312500000
vt 0.765625000 0.171875000
vt 0.718750000 0.171875000
vt 0.718750000 0.078125000
vt 0.765625000 0.078125000
f 493/493 494/494 495/495 496/496
v 0.687500000 1.000000000 0.687500000
v 0.312500000 1.000000000 0.687500000
v 0.312500000 0.937500000 0.687500000
v 0.687500000 0.937500000 0.687500000
vt 0.718750000 0.171875000
vt 0.671875000 0.171875000
vt 0.671875000 0.187500000
vt 0.718750000 0.187500000
f 497/497 498/498 499/499 500/500
v 0.312500000 1.000000000 0.312500000
v 0.687500000 1.000000000 0.312500000
v 0.687500000 0.937500000 0.312500000
v 0.312500000 0.937500000 0.312500000
vt 0.812500000 0.171875000
vt 0.765625000 0.171875000
vt 0.765625000 0.187500000
vt 0.812500000 0.187500000
f 501/501 502/502 503/503 504/504
o Shape21
usemtl gun
v 0.656250000 0.968750000 0.343750000
v 0.656250000 0.968750000 0.656250000
v 0.656250000 0.343750000 0.656250000
v 0.656250000 0.343750000 0.343750000
vt 0.281250000 0.359375000
vt 0.242187500 0.359375000
vt 0.242187500 0.515625000
vt 0.281250000 0.515625000
f 505/505 506/506 507/507 508/508
v 0.343750000 0.968750000 0.656250000
v 0.343750000 0.968750000 0.343750000
v 0.343750000 0.343750000 0.343750000
v 0.343750000 0.343750000 0.656250000
vt 0.203125000 0.359375000
vt 0.164062500 0.359375000
vt 0.164062500 0.515625000
vt 0.203125000 0.515625000
f 509/509 510/510 511/511 512/512
v 0.656250000 0.968750000 0.343750000
v 0.343750000 0.968750000 0.343750000
v 0.343750000 0.968750000 0.656250000
v 0.656250000 0.968750000 0.656250000
vt 0.242187500 0.281250000
vt 0.203125000 0.281250000
vt 0.203125000 0.359375000
vt 0.242187500 0.359375000
f 513/513 514/514 515/515 516/516
v 0.656250000 0.343750000 0.656250000
v 0.343750000 0.343750000 0.656250000
v 0.343750000 0.343750000 0.343750000
v 0.656250000 0.343750000 0.343750000
vt 0.281250000 0.359375000
vt 0.242187500 0.359375000
vt 0.242187500 0.281250000
vt 0.281250000 0.281250000
f 517/517 518/518 519/519 520/520
v 0.656250000 0.968750000 0.656250000
v 0.343750000 0.968750000 0.656250000
v 0.343750000 0.343750000 0.656250000
v 0.656250000 0.343750000 0.656250000
vt 0.242187500 0.359375000
vt 0.203125000 0.359375000
vt 0.203125000 0.515625000
vt 0.242187500 0.515625000
f 521/521 522/522 523/523 524/524
v 0.343750000 0.968750000 0.343750000
v 0.656250000 0.968750000 0.343750000
v 0.656250000 0.343750000 0.343750000
v 0.343750000 0.343750000 0.343750000
vt 0.320312500 0.359375000
vt 0.281250000 0.359375000
vt 0.281250000 0.515625000
vt 0.320312500 0.515625000
f 525/525 526/526 527/527 528/528
o Shape22
usemtl gun
v 0.343750000 0.812500000 0.468750000
v 0.343750000 0.812500000 0.531250000
v 0.343750000 0.750000000 0.531250000
v 0.343750000 0.750000000 0.468750000
vt 0.867187500 0.015625000
vt 0.859375000 0.015625000
vt 0.859375000 0.031250000
vt 0.867187500 0.031250000
f 529/529 530/530 531/531 532/532
v 0.156250000 0.812500000 0.531250000
v 0.156250000 0.812500000 0.468750000
v 0.156250000 0.750000000 0.468750000
v 0.156250000 0.750000000 0.531250000
vt 0.835937500 0.015625000
vt 0.828125000 0.015625000
vt 0.828125000 0.031250000
vt 0.835937500 0.031250000
f 533/533 534/534 535/535 536/536
v 0.343750000 0.812500000 0.468750000
v 0.156250000 0.812500000 0.468750000
v 0.156250000 0.812500000 0.531250000
v 0.343750000 0.812500000 0.531250000
vt 0.859375000 0.000000000
vt 0.835937500 0.000000000
vt 0.835937500 0.015625000
vt 0.859375000 0.015625000
f 537/537 538/538 539/539 540/540
v 0.343750000 0.750000000 0.531250000
v 0.156250000 0.750000000 0.531250000
v 0.156250000 0.750000000 0.468750000
v 0.343750000 0.750000000 0.468750000
vt 0.882812500 0.015625000
vt 0.859375000 0.015625000
vt 0.859375000 0.000000000
vt 0.882812500 0.000000000
f 541/541 542/542 543/543 544/544
v 0.343750000 0.812500000 0.531250000
v 0.156250000 0.812500000 0.531250000
v 0.156250000 0.750000000 0.531250000
v 0.343750000 0.750000000 0.531250000
vt 0.859375000 0.015625000
vt 0.835937500 0.015625000
vt 0.835937500 0.031250000
vt 0.859375000 0.031250000
f 545/545 546/546 547/547 548/548
v 0.156250000 0.812500000 0.468750000
v 0.343750000 0.812500000 0.468750000
v 0.343750000 0.750000000 0.468750000
v 0.156250000 0.750000000 0.468750000
vt 0.890625000 0.015625000
vt 0.867187500 0.015625000
vt 0.867187500 0.031250000
vt 0.890625000 0.031250000
f 549/549 550/550 551/551 552/552
o Shape23
usemtl gun
v 0.968750000 0.250000000 0.000000000
v 0.968750000 0.250000000 0.312500000
v 0.968750000 0.187500000 0.312500000
v 0.968750000 0.187500000 0.000000000
vt 0.117187500 0.656250000
vt 0.078125000 0.656250000
vt 0.078125000 0.671875000
vt 0.117187500 0.671875000
f 553/553 554/554 555/555 556/556
v 0.656250000 0.250000000 0.312500000
v 0.656250000 0.250000000 0.000000000
v 0.656250000 0.187500000 0.000000000
v 0.656250000 0.187500000 0.312500000
vt 0.039062500 0.656250000
vt 0.000000000 0.656250000
vt 0.000000000 0.671875000
vt 0.039062500 0.671875000
f 557/557 558/558 559/559 560/560
v 0.968750000 0.250000000 0.000000000
v 0.656250000 0.250000000 0.000000000
v 0.656250000 0.250000000 0.312500000
v 0.968750000 0.250000000 0.312500000
vt 0.078125000 0.578125000
vt 0.039062500 0.578125000
vt 0.039062500 0.656250000
vt 0.078125000 0.656250000
f 561/561 562/562 563/563 564/564
v 0.968750000 0.187500000 0.312500000
v 0.656250000 0.187500000 0.312500000
v 0.656250000 0.187500000 0.000000000
v 0.968750000 0.187500000 0.000000000
vt 0.117187500 0.656250000
vt 0.078125000 0.656250000
vt 0.078125000 0.578125000
vt 0.117187500 0.578125000
f 565/565 566/566 567/567 568/568
v 0.968750000 0.250000000 0.312500000
v 0.656250000 0.250000000 0.312500000
v 0.656250000 0.187500000 0.312500000
v 0.968750000 0.187500000 0.312500000
vt 0.078125000 0.656250000
vt 0.039062500 0.656250000
vt 0.039062500 0.671875000
vt 0.078125000 0.671875000
f 569/569 570/570 571/571 572/572
v 0.656250000 0.250000000 0.000000000
v 0.968750000 0.250000000 0.000000000
v 0.968750000 0.187500000 0.000000000
v 0.656250000 0.187500000 0.000000000
vt 0.156250000 0.656250000
vt 0.117187500 0.656250000
vt 0.117187500 0.671875000
vt 0.156250000 0.671875000
f 573/573 574/574 575/575 576/576
o G3
usemtl gun
v 0.213388348 0.750000000 0.156250003
v 0.124999997 0.750000000 0.244638348
v 0.124999997 0.187500000 0.244638348
v 0.213388348 0.187500000 0.156250003
vt 0.726562500 0.671875000
vt 0.710937500 0.671875000
vt 0.710937500 0.812500000
vt 0.726562500 0.812500000
f 577/577 578/578 579/579 580/580
v 0.036611652 0.750000000 0.156249997
v 0.125000003 0.750000000 0.067861652
v 0.125000003 0.187500000 0.067861652
v 0.036611652 0.187500000 0.156249997
vt 0.695312500 0.671875000
vt 0.679687500 0.671875000
vt 0.679687500 0.812500000
vt 0.695312500 0.812500000
f 581/581 582/582 583/583 584/584
v 0.213388348 0.750000000 0.156250003
v 0.125000003 0.750000000 0.067861652
v 0.036611652 0.750000000 0.156249997
v 0.124999997 0.750000000 0.244638348
vt 0.710937500 0.640625000
vt 0.695312500 0.640625000
vt 0.695312500 0.671875000
vt 0.710937500 0.671875000
f 585/585 586/586 587/587 588/588
v 0.124999997 0.187500000 0.244638348
v 0.036611652 0.187500000 0.156249997
v 0.125000003 0.187500000 0.067861652
v 0.213388348 0.187500000 0.156250003
vt 0.726562500 0.671875000
vt 0.710937500 0.671875000
vt 0.710937500 0.640625000
vt 0.726562500 0.640625000
f 589/589 590/590 591/591 592/592
v 0.124999997 0.750000000 0.244638348
v 0.036611652 0.750000000 0.156249997
v 0.036611652 0.187500000 0.156249997
v 0.124999997 0.187500000 0.244638348
vt 0.710937500 0.671875000
vt 0.695312500 0.671875000
vt 0.695312500 0.812500000
vt 0.710937500 0.812500000
f 593/593 594/594 595/595 596/596
v 0.125000003 0.750000000 0.067861652
v 0.213388348 0.750000000 0.156250003
v 0.213388348 0.187500000 0.156250003
v 0.125000003 0.187500000 0.067861652
vt 0.742187500 0.671875000
vt 0.726562500 0.671875000
vt 0.726562500 0.812500000
vt 0.742187500 0.812500000
f 597/597 598/598 599/599 600/600
o G9
usemtl gun
v 0.906250000 0.312500000 0.062500000
v 0.906250000 0.312500000 0.250000000
v 0.906250000 0.250000000 0.250000000
v 0.906250000 0.250000000 0.062500000
vt 0.164062500 0.906250000
vt 0.140625000 0.906250000
vt 0.140625000 0.921875000
vt 0.164062500 0.921875000
f 601/601 602/602 603/603 604/604
v 0.718750000 0.312500000 0.250000000
v 0.718750000 0.312500000 0.062500000
v 0.718750000 0.250000000 0.062500000
v 0.718750000 0.250000000 0.250000000
vt 0.117187500 0.906250000
vt 0.093750000 0.906250000
vt 0.093750000 0.921875000
vt 0.117187500 0.921875000
f 605/605 606/606 607/607 608/608
v 0.906250000 0.312500000 0.062500000
v 0.718750000 0.312500000 0.062500000
v 0.718750000 0.312500000 0.250000000
v 0.906250000 0.312500000 0.250000000
vt 0.140625000 0.859375000
vt 0.117187500 0.859375000
vt 0.117187500 0.906250000
vt 0.140625000 0.906250000
f 609/609 610/610 611/611 612/612
v 0.906250000 0.250000000 0.250000000
v 0.718750000 0.250000000 0.250000000
v 0.718750000 0.250000000 0.062500000
v 0.906250000 0.250000000 0.062500000
vt 0.164062500 0.906250000
vt 0.140625000 0.906250000
vt 0.140625000 0.859375000
vt 0.164062500 0.859375000
f 613/613 614/614 615/615 616/616
v 0.906250000 0.312500000 0.250000000
v 0.718750000 0.312500000 0.250000000
v 0.718750000 0.250000000 0.250000000
v 0.906250000 0.250000000 0.250000000
vt 0.140625000 0.906250000
vt 0.117187500 0.906250000
vt 0.117187500 0.921875000
vt 0.140625000 0.921875000
f 617/617 618/618 619/619 620/620
v 0.718750000 0.312500000 0.062500000
v 0.906250000 0.312500000 0.062500000
v 0.906250000 0.250000000 0.062500000
v 0.718750000 0.250000000 0.062500000
vt 0.187500000 0.906250000
vt 0.164062500 0.906250000
vt 0.164062500 0.921875000
vt 0.187500000 0.921875000
f 621/621 622/622 623/623 624/624
o Shape24
usemtl gun
v 0.187500000 0.812500000 0.093750000
v 0.187500000 0.812500000 0.218750000
v 0.187500000 0.750000000 0.218750000
v 0.187500000 0.750000000 0.093750000
vt 0.679687500 0.625000000
vt 0.664062500 0.625000000
vt 0.664062500 0.640625000
vt 0.679687500 0.640625000
f 625/625 626/626 627/627 628/628
v 0.062500000 0.812500000 0.218750000
v 0.062500000 0.812500000 0.093750000
v 0.062500000 0.750000000 0.093750000
v 0.062500000 0.750000000 0.218750000
vt 0.648437500 0.625000000
vt 0.632812500 0.625000000
vt 0.632812500 0.640625000
vt 0.648437500 0.640625000
f 629/629 630/630 631/631 632/632
v 0.187500000 0.812500000 0.093750000
v 0.062500000 0.812500000 0.093750000
v 0.062500000 0.812500000 0.218750000
v 0.187500000 0.812500000 0.218750000
vt 0.664062500 0.593750000
vt 0.648437500 0.593750000
vt 0.648437500 0.625000000
vt 0.664062500 0.625000000
f 633/633 634/634 635/635 636/636
v 0.187500000 0.750000000 0.218750000
v 0.062500000 0.750000000 0.218750000
v 0.062500000 0.750000000 0.093750000
v 0.187500000 0.750000000 0.093750000
vt 0.679687500 0.625000000
vt 0.664062500 0.625000000
vt 0.664062500 0.593750000
vt 0.679687500 0.593750000
f 637/637 638/638 639/639 640/640
v 0.187500000 0.812500000 0.218750000
v 0.062500000 0.812500000 0.218750000
v 0.062500000 0.750000000 0.218750000
v 0.187500000 0.750000000 0.218750000
vt 0.664062500 0.625000000
vt 0.648437500 0.625000000
vt 0.648437500 0.640625000
vt 0.664062500 0.640625000
f 641/641 642/642 643/643 644/644
v 0.062500000 0.812500000 0.093750000
v 0.187500000 0.812500000 0.093750000
v 0.187500000 0.750000000 0.093750000
v 0.062500000 0.750000000 0.093750000
vt 0.695312500 0.625000000
vt 0.679687500 0.625000000
vt 0.679687500 0.640625000
vt 0.695312500 0.640625000
f 645/645 646/646 647/647 648/648
o Shape25
usemtl gun
v 0.843750000 0.875000000 0.125000000
v 0.843750000 0.875000000 0.187500000
v 0.843750000 0.750000000 0.187500000
v 0.843750000 0.750000000 0.125000000
vt 0.851562500 0.015625000
vt 0.843750000 0.015625000
vt 0.843750000 0.046875000
vt 0.851562500 0.046875000
f 649/649 650/650 651/651 652/652
v 0.781250000 0.875000000 0.187500000
v 0.781250000 0.875000000 0.125000000
v 0.781250000 0.750000000 0.125000000
v 0.781250000 0.750000000 0.187500000
vt 0.835937500 0.015625000
vt 0.828125000 0.015625000
vt 0.828125000 0.046875000
vt 0.835937500 0.046875000
f 653/653 654/654 655/655 656/656
v 0.843750000 0.875000000 0.125000000
v 0.781250000 0.875000000 0.125000000
v 0.781250000 0.875000000 0.187500000
v 0.843750000 0.875000000 0.187500000
vt 0.843750000 0.000000000
vt 0.835937500 0.000000000
vt 0.835937500 0.015625000
vt 0.843750000 0.015625000
f 657/657 658/658 659/659 660/660
v 0.843750000 0.750000000 0.187500000
v 0.781250000 0.750000000 0.187500000
v 0.781250000 0.750000000 0.125000000
v 0.843750000 0.750000000 0.125000000
vt 0.851562500 0.015625000
vt 0.843750000 0.015625000
vt 0.843750000 0.000000000
vt 0.851562500 0.000000000
f 661/661 662/662 663/663 664/664
v 0.843750000 0.875000000 0.187500000
v 0.781250000 0.875000000 0.187500000
v 0.781250000 0.750000000 0.187500000
v 0.843750000 0.750000000 0.187500000
vt 0.843750000 0.015625000
vt 0.835937500 0.015625000
vt 0.835937500 0.046875000
vt 0.843750000 0.046875000
f 665/665 666/666 667/667 668/668
v 0.781250000 0.875000000 0.125000000
v 0.843750000 0.875000000 0.125000000
v 0.843750000 0.750000000 0.125000000
v 0.781250000 0.750000000 0.125000000
vt 0.859375000 0.015625000
vt 0.851562500 0.015625000
vt 0.851562500 0.046875000
vt 0.859375000 0.046875000
f 669/669 670/670 671/671 672/672
o Shape26
usemtl gun
v 0.656250000 0.343750000 0.343750000
v 0.656250000 0.343750000 0.406250000
v 0.656250000 0.156250000 0.406250000
v 0.656250000 0.156250000 0.343750000
vt 0.031250000 0.484375000
vt 0.023437500 0.484375000
vt 0.023437500 0.531250000
vt 0.031250000 0.531250000
f 673/673 674/674 675/675 676/676
v 0.593750000 0.343750000 0.406250000
v 0.593750000 0.343750000 0.343750000
v 0.593750000 0.156250000 0.343750000
v 0.593750000 0.156250000 0.406250000
vt 0.015625000 0.484375000
vt 0.007812500 0.484375000
vt 0.007812500 0.531250000
vt 0.015625000 0.531250000
f 677/677 678/678 679/679 680/680
v 0.656250000 0.343750000 0.343750000
v 0.593750000 0.343750000 0.343750000
v 0.593750000 0.343750000 0.406250000
v 0.656250000 0.343750000 0.406250000
vt 0.023437500 0.468750000
vt 0.015625000 0.468750000
vt 0.015625000 0.484375000
vt 0.023437500 0.484375000
f 681/681 682/682 683/683 684/684
v 0.656250000 0.156250000 0.406250000
v 0.593750000 0.156250000 0.406250000
v 0.593750000 0.156250000 0.343750000
v 0.656250000 0.156250000 0.343750000
vt 0.031250000 0.484375000
vt 0.023437500 0.484375000
vt 0.023437500 0.468750000
vt 0.031250000 0.468750000
f 685/685 686/686 687/687 688/688
v 0.656250000 0.343750000 0.406250000
v 0.593750000 0.343750000 0.406250000
v 0.593750000 0.156250000 0.406250000
v 0.656250000 0.156250000 0.406250000
vt 0.023437500 0.484375000
vt 0.015625000 0.484375000
vt 0.015625000 0.531250000
vt 0.023437500 0.531250000
f 689/689 690/690 691/691 692/692
v 0.593750000 0.343750000 0.343750000
v 0.656250000 0.343750000 0.343750000
v 0.656250000 0.156250000 0.343750000
v 0.593750000 0.156250000 0.343750000
vt 0.039062500 0.484375000
vt 0.031250000 0.484375000
vt 0.031250000 0.531250000
vt 0.039062500 0.531250000
f 693/693 694/694 695/695 696/696
o G8
usemtl gun
v 0.937500000 0.437500000 0.031250000
v 0.937500000 0.437500000 0.281250000
v 0.937500000 0.312500000 0.281250000
v 0.937500000 0.312500000 0.031250000
vt 0.093750000 0.921875000
vt 0.062500000 0.921875000
vt 0.062500000 0.953125000
vt 0.093750000 0.953125000
f 697/697 698/698 699/699 700/700
v 0.687500000 0.437500000 0.281250000
v 0.687500000 0.437500000 0.031250000
v 0.687500000 0.312500000 0.031250000
v 0.687500000 0.312500000 0.281250000
vt 0.031250000 0.921875000
vt 0.000000000 0.921875000
vt 0.000000000 0.953125000
vt 0.031250000 0.953125000
f 701/701 702/702 703/703 704/704
v 0.937500000 0.437500000 0.031250000
v 0.687500000 0.437500000 0.031250000
v 0.687500000 0.437500000 0.281250000
v 0.937500000 0.437500000 0.281250000
vt 0.062500000 0.859375000
vt 0.031250000 0.859375000
vt 0.031250000 0.921875000
vt 0.062500000 0.921875000
f 705/705 706/706 707/707 708/708
v 0.937500000 0.312500000 0.281250000
v 0.687500000 0.312500000 0.281250000
v 0.687500000 0.312500000 0.031250000
v 0.937500000 0.312500000 0.031250000
vt 0.093750000 0.921875000
vt 0.062500000 0.921875000
vt 0.062500000 0.859375000
vt 0.093750000 0.859375000
f 709/709 710/710 711/711 712/712
v 0.937500000 0.437500000 0.281250000
v 0.687500000 0.437500000 0.281250000
v 0.687500000 0.312500000 0.281250000
v 0.937500000 0.312500000 0.281250000
vt 0.062500000 0.921875000
vt 0.031250000 0.921875000
vt 0.031250000 0.953125000
vt 0.062500000 0.953125000
f 713/713 714/714 715/715 716/716
v 0.687500000 0.437500000 0.031250000
v 0.937500000 0.437500000 0.031250000
v 0.937500000 0.312500000 0.031250000
v 0.687500000 0.312500000 0.031250000
vt 0.125000000 0.921875000
vt 0.093750000 0.921875000
vt 0.093750000 0.953125000
vt 0.125000000 0.953125000
f 717/717 718/718 719/719 720/720
o Shape27
usemtl gun
v 0.625000000 0.750000000 0.062500000
v 0.000000000 0.750000000 0.062500000
v 0.000000000 0.125000000 0.062500000
v 0.625000000 0.125000000 0.062500000
vt 0.468750000 0.640625000
vt 0.390625000 0.640625000
vt 0.390625000 0.796875000
vt 0.468750000 0.796875000
f 721/721 722/722 723/723 724/724
v 0.000000000 0.750000000 0.062500000
v 0.625000000 0.750000000 0.062500000
v 0.625000000 0.125000000 0.062500000
v 0.000000000 0.125000000 0.062500000
vt 0.546875000 0.640625000
vt 0.468750000 0.640625000
vt 0.468750000 0.796875000
vt 0.546875000 0.796875000
f 725/725 726/726 727/727 728/728
o Shape28
usemtl gun
v 0.968750000 0.187500000 0.250000000
v 0.968750000 0.187500000 0.312500000
v 0.968750000 0.125000000 0.312500000
v 0.968750000 0.125000000 0.250000000
vt 0.023437500 0.609375000
vt 0.015625000 0.609375000
vt 0.015625000 0.625000000
vt 0.023437500 0.625000000
f 729/729 730/730 731/731 732/732
v 0.906250000 0.187500000 0.312500000
v 0.906250000 0.187500000 0.250000000
v 0.906250000 0.125000000 0.250000000
v 0.906250000 0.125000000 0.312500000
vt 0.007812500 0.609375000
vt 0.000000000 0.609375000
vt 0.000000000 0.625000000
vt 0.007812500 0.625000000
f 733/733 734/734 735/735 736/736
v 0.968750000 0.187500000 0.250000000
v 0.906250000 0.187500000 0.250000000
v 0.906250000 0.187500000 0.312500000
v 0.968750000 0.187500000 0.312500000
vt 0.015625000 0.593750000
vt 0.007812500 0.593750000
vt 0.007812500 0.609375000
vt 0.015625000 0.609375000
f 737/737 738/738 739/739 740/740
v 0.968750000 0.125000000 0.312500000
v 0.906250000 0.125000000 0.312500000
v 0.906250000 0.125000000 0.250000000
v 0.968750000 0.125000000 0.250000000
vt 0.023437500 0.609375000
vt 0.015625000 0.609375000
vt 0.015625000 0.593750000
vt 0.023437500 0.593750000
f 741/741 742/742 743/743 744/744
v 0.968750000 0.187500000 0.312500000
v 0.906250000 0.187500000 0.312500000
v 0.906250000 0.125000000 0.312500000
v 0.968750000 0.125000000 0.312500000
vt 0.015625000 0.609375000
vt 0.007812500 0.609375000
vt 0.007812500 0.625000000
vt 0.015625000 0.625000000
f 745/745 746/746 747/747 748/748
v 0.906250000 0.187500000 0.250000000
v 0.968750000 0.187500000 0.250000000
v 0.968750000 0.125000000 0.250000000
v 0.906250000 0.125000000 0.250000000
vt 0.031250000 0.609375000
vt 0.023437500 0.609375000
vt 0.023437500 0.625000000
vt 0.031250000 0.625000000
f 749/749 750/750 751/751 752/752
o Shape29
usemtl gun
v 0.968750000 0.187500000 0.000000000
v 0.968750000 0.187500000 0.062500000
v 0.968750000 0.125000000 0.062500000
v 0.968750000 0.125000000 0.000000000
vt 0.023437500 0.609375000
vt 0.015625000 0.609375000
vt 0.015625000 0.625000000
vt 0.023437500 0.625000000
f 753/753 754/754 755/755 756/756
v 0.906250000 0.187500000 0.062500000
v 0.906250000 0.187500000 0.000000000
v 0.906250000 0.125000000 0.000000000
v 0.906250000 0.125000000 0.062500000
vt 0.007812500 0.609375000
vt 0.000000000 0.609375000
vt 0.000000000 0.625000000
vt 0.007812500 0.625000000
f 757/757 758/758 759/759 760/760
v 0.968750000 0.187500000 0.000000000
v 0.906250000 0.187500000 0.000000000
v 0.906250000 0.187500000 0.062500000
v 0.968750000 0.187500000 0.062500000
vt 0.015625000 0.593750000
vt 0.007812500 0.593750000
vt 0.007812500 0.609375000
vt 0.015625000 0.609375000
f 761/761 762/762 763/763 764/764
v 0.968750000 0.125000000 0.062500000
v 0.906250000 0.125000000 0.062500000
v 0.906250000 0.125000000 0.000000000
v 0.968750000 0.125000000 0.000000000
vt 0.023437500 0.609375000
vt 0.015625000 0.609375000
vt 0.015625000 0.593750000
vt 0.023437500 0.593750000
f 765/765 766/766 767/767 768/768
v 0.968750000 0.187500000 0.062500000
v 0.906250000 0.187500000 0.062500000
v 0.906250000 0.125000000 0.062500000
v 0.968750000 0.125000000 0.062500000
vt 0.015625000 0.609375000
vt 0.007812500 0.609375000
vt 0.007812500 0.625000000
vt 0.015625000 0.625000000
f 769/769 770/770 771/771 772/772
v 0.906250000 0.187500000 0.000000000
v 0.968750000 0.187500000 0.000000000
v 0.968750000 0.125000000 0.000000000
v 0.906250000 0.125000000 0.000000000
vt 0.031250000 0.609375000
vt 0.023437500 0.609375000
vt 0.023437500 0.625000000
vt 0.031250000 0.625000000
f 773/773 774/774 775/775 776/776
o Shape30
usemtl gun
v 0.718750000 0.187500000 0.000000000
v 0.718750000 0.187500000 0.062500000
v 0.718750000 0.125000000 0.062500000
v 0.718750000 0.125000000 0.000000000
vt 0.023437500 0.609375000
vt 0.015625000 0.609375000
vt 0.015625000 0.625000000
vt 0.023437500 0.625000000
f 777/777 778/778 779/779 780/780
v 0.656250000 0.187500000 0.062500000
v 0.656250000 0.187500000 0.000000000
v 0.656250000 0.125000000 0.000000000
v 0.656250000 0.125000000 0.062500000
vt 0.007812500 0.609375000
vt 0.000000000 0.609375000
vt 0.000000000 0.625000000
vt 0.007812500 0.625000000
f 781/781 782/782 783/783 784/784
v 0.718750000 0.187500000 0.000000000
v 0.656250000 0.187500000 0.000000000
v 0.656250000 0.187500000 0.062500000
v 0.718750000 0.187500000 0.062500000
vt 0.015625000 0.593750000
vt 0.007812500 0.593750000
vt 0.007812500 0.609375000
vt 0.015625000 0.609375000
f 785/785 786/786 787/787 788/788
v 0.718750000 0.125000000 0.062500000
v 0.656250000 0.125000000 0.062500000
v 0.656250000 0.125000000 0.000000000
v 0.718750000 0.125000000 0.000000000
vt 0.023437500 0.609375000
vt 0.015625000 0.609375000
vt 0.015625000 0.593750000
vt 0.023437500 0.593750000
f 789/789 790/790 791/791 792/792
v 0.718750000 0.187500000 0.062500000
v 0.656250000 0.187500000 0.062500000
v 0.656250000 0.125000000 0.062500000
v 0.718750000 0.125000000 0.062500000
vt 0.015625000 0.609375000
vt 0.007812500 0.609375000
vt 0.007812500 0.625000000
vt 0.015625000 0.625000000
f 793/793 794/794 795/795 796/796
v 0.656250000 0.187500000 0.000000000
v 0.718750000 0.187500000 0.000000000
v 0.718750000 0.125000000 0.000000000
v 0.656250000 0.125000000 0.000000000
vt 0.031250000 0.609375000
vt 0.023437500 0.609375000
vt 0.023437500 0.625000000
vt 0.031250000 0.625000000
f 797/797 798/798 799/799 800/800
o Shape31
usemtl gun
v 0.625000000 0.750000000 0.062500000
v 0.000000000 0.750000000 0.062500000
v 0.000000000 0.750000000 0.250000000
v 0.625000000 0.750000000 0.250000000
vt 0.492187500 0.578125000
vt 0.414062500 0.578125000
vt 0.414062500 0.625000000
vt 0.492187500 0.625000000
f 801/801 802/802 803/803 804/804
v 0.625000000 0.750000000 0.250000000
v 0.000000000 0.750000000 0.250000000
v 0.000000000 0.750000000 0.062500000
v 0.625000000 0.750000000 0.062500000
vt 0.570312500 0.625000000
vt 0.492187500 0.625000000
vt 0.492187500 0.578125000
vt 0.570312500 0.578125000
f 805/805 806/806 807/807 808/808
o Shape32
usemtl gun
v 0.625000000 0.750000000 0.062500000
v 0.625000000 0.750000000 0.250000000
v 0.625000000 0.125000000 0.250000000
v 0.625000000 0.125000000 0.062500000
vt 0.382812500 0.625000000
vt 0.359375000 0.625000000
vt 0.359375000 0.781250000
vt 0.382812500 0.781250000
f 809/809 810/810 811/811 812/812
v 0.625000000 0.750000000 0.250000000
v 0.625000000 0.750000000 0.062500000
v 0.625000000 0.125000000 0.062500000
v 0.625000000 0.125000000 0.250000000
vt 0.359375000 0.625000000
vt 0.335937500 0.625000000
vt 0.335937500 0.781250000
vt 0.359375000 0.781250000
f 813/813 814/814 815/815 816/816
o Shape33
usemtl gun
v 0.000000000 0.750000000 0.062500000
v 0.000000000 0.750000000 0.250000000
v 0.000000000 0.125000000 0.250000000
v 0.000000000 0.125000000 0.062500000
vt 0.382812500 0.625000000
vt 0.359375000 0.625000000
vt 0.359375000 0.781250000
vt 0.382812500 0.781250000
f 817/817 818/818 819/819 820/820
v 0.000000000 0.750000000 0.250000000
v 0.000000000 0.750000000 0.062500000
v 0.000000000 0.125000000 0.062500000
v 0.000000000 0.125000000 0.250000000
vt 0.359375000 0.625000000
vt 0.335937500 0.625000000
vt 0.335937500 0.781250000
vt 0.359375000 0.781250000
f 821/821 822/822 823/823 824/824
o G5
usemtl gun
v 0.856694174 0.687500000 0.156250002
v 0.812499998 0.687500000 0.200444174
v 0.812499998 0.625000000 0.200444174
v 0.856694174 0.625000000 0.156250002
vt 0.085937500 0.718750000
vt 0.078125000 0.718750000
vt 0.078125000 0.734375000
vt 0.085937500 0.734375000
f 825/825 826/826 827/827 828/828
v 0.768305826 0.687500000 0.156249998
v 0.812500002 0.687500000 0.112055826
v 0.812500002 0.625000000 0.112055826
v 0.768305826 0.625000000 0.156249998
vt 0.070312500 0.718750000
vt 0.062500000 0.718750000
vt 0.062500000 0.734375000
vt 0.070312500 0.734375000
f 829/829 830/830 831/831 832/832
v 0.856694174 0.687500000 0.156250002
v 0.812500002 0.687500000 0.112055826
v 0.768305826 0.687500000 0.156249998
v 0.812499998 0.687500000 0.200444174
vt 0.078125000 0.703125000
vt 0.070312500 0.703125000
vt 0.070312500 0.718750000
vt 0.078125000 0.718750000
f 833/833 834/834 835/835 836/836
v 0.812499998 0.625000000 0.200444174
v 0.768305826 0.625000000 0.156249998
v 0.812500002 0.625000000 0.112055826
v 0.856694174 0.625000000 0.156250002
vt 0.085937500 0.718750000
vt 0.078125000 0.718750000
vt 0.078125000 0.703125000
vt 0.085937500 0.703125000
f 837/837 838/838 839/839 840/840
v 0.812499998 0.687500000 0.200444174
v 0.768305826 0.687500000 0.156249998
v 0.768305826 0.625000000 0.156249998
v 0.812499998 0.625000000 0.200444174
vt 0.078125000 0.718750000
vt 0.070312500 0.718750000
vt 0.070312500 0.734375000
vt 0.078125000 0.734375000
f 841/841 842/842 843/843 844/844
v 0.812500002 0.687500000 0.112055826
v 0.856694174 0.687500000 0.156250002
v 0.856694174 0.625000000 0.156250002
v 0.812500002 0.625000000 0.112055826
vt 0.093750000 0.718750000
vt 0.085937500 0.718750000
vt 0.085937500 0.734375000
vt 0.093750000 0.734375000
f 845/845 846/846 847/847 848/848
o G4
usemtl gun
v 0.875000000 0.750000000 0.093750000
v 0.875000000 0.750000000 0.218750000
v 0.875000000 0.687500000 0.218750000
v 0.875000000 0.687500000 0.093750000
vt 0.046875000 0.718750000
vt 0.031250000 0.718750000
vt 0.031250000 0.734375000
vt 0.046875000 0.734375000
f 849/849 850/850 851/851 852/852
v 0.750000000 0.750000000 0.218750000
v 0.750000000 0.750000000 0.093750000
v 0.750000000 0.687500000 0.093750000
v 0.750000000 0.687500000 0.218750000
vt 0.015625000 0.718750000
vt 0.000000000 0.718750000
vt 0.000000000 0.734375000
vt 0.015625000 0.734375000
f 853/853 854/854 855/855 856/856
v 0.875000000 0.750000000 0.093750000
v 0.750000000 0.750000000 0.093750000
v 0.750000000 0.750000000 0.218750000
v 0.875000000 0.750000000 0.218750000
vt 0.031250000 0.687500000
vt 0.015625000 0.687500000
vt 0.015625000 0.718750000
vt 0.031250000 0.718750000
f 857/857 858/858 859/859 860/860
v 0.875000000 0.687500000 0.218750000
v 0.750000000 0.687500000 0.218750000
v 0.750000000 0.687500000 0.093750000
v 0.875000000 0.687500000 0.093750000
vt 0.046875000 0.718750000
vt 0.031250000 0.718750000
vt 0.031250000 0.687500000
vt 0.046875000 0.687500000
f 861/861 862/862 863/863 864/864
v 0.875000000 0.750000000 0.218750000
v 0.750000000 0.750000000 0.218750000
v 0.750000000 0.687500000 0.218750000
v 0.875000000 0.687500000 0.218750000
vt 0.031250000 0.718750000
vt 0.015625000 0.718750000
vt 0.015625000 0.734375000
vt 0.031250000 0.734375000
f 865/865 866/866 867/867 868/868
v 0.750000000 0.750000000 0.093750000
v 0.875000000 0.750000000 0.093750000
v 0.875000000 0.687500000 0.093750000
v 0.750000000 0.687500000 0.093750000
vt 0.062500000 0.718750000
vt 0.046875000 0.718750000
vt 0.046875000 0.734375000
vt 0.062500000 0.734375000
f 869/869 870/870 871/871 872/872
o G2
usemtl gun
v 0.400888348 0.750000000 0.156250003
v 0.312499997 0.750000000 0.244638348
v 0.312499997 0.187500000 0.244638348
v 0.400888348 0.187500000 0.156250003
vt 0.664062500 0.671875000
vt 0.648437500 0.671875000
vt 0.648437500 0.812500000
vt 0.664062500 0.812500000
f 873/873 874/874 875/875 876/876
v 0.224111652 0.750000000 0.156249997
v 0.312500003 0.750000000 0.067861652
v 0.312500003 0.187500000 0.067861652
v 0.224111652 0.187500000 0.156249997
vt 0.632812500 0.671875000
vt 0.617187500 0.671875000
vt 0.617187500 0.812500000
vt 0.632812500 0.812500000
f 877/877 878/878 879/879 880/880
v 0.400888348 0.750000000 0.156250003
v 0.312500003 0.750000000 0.067861652
v 0.224111652 0.750000000 0.156249997
v 0.312499997 0.750000000 0.244638348
vt 0.648437500 0.640625000
vt 0.632812500 0.640625000
vt 0.632812500 0.671875000
vt 0.648437500 0.671875000
f 881/881 882/882 883/883 884/884
v 0.312499997 0.187500000 0.244638348
v 0.224111652 0.187500000 0.156249997
v 0.312500003 0.187500000 0.067861652
v 0.400888348 0.187500000 0.156250003
vt 0.664062500 0.671875000
vt 0.648437500 0.671875000
vt 0.648437500 0.640625000
vt 0.664062500 0.640625000
f 885/885 886/886 887/887 888/888
v 0.312499997 0.750000000 0.244638348
v 0.224111652 0.750000000 0.156249997
v 0.224111652 0.187500000 0.156249997
v 0.312499997 0.187500000 0.244638348
vt 0.648437500 0.671875000
vt 0.632812500 0.671875000
vt 0.632812500 0.812500000
vt 0.648437500 0.812500000
f 889/889 890/890 891/891 892/892
v 0.312500003 0.750000000 0.067861652
v 0.400888348 0.750000000 0.156250003
v 0.400888348 0.187500000 0.156250003
v 0.312500003 0.187500000 0.067861652
vt 0.679687500 0.671875000
vt 0.664062500 0.671875000
vt 0.664062500 0.812500000
vt 0.679687500 0.812500000
f 893/893 894/894 895/895 896/896
o Shape34
usemtl gun
v 0.562500000 0.812500000 0.093750000
v 0.562500000 0.812500000 0.218750000
v 0.562500000 0.750000000 0.218750000
v 0.562500000 0.750000000 0.093750000
vt 0.679687500 0.531250000
vt 0.664062500 0.531250000
vt 0.664062500 0.546875000
vt 0.679687500 0.546875000
f 897/897 898/898 899/899 900/900
v 0.437500000 0.812500000 0.218750000
v 0.437500000 0.812500000 0.093750000
v 0.437500000 0.750000000 0.093750000
v 0.437500000 0.750000000 0.218750000
vt 0.648437500 0.531250000
vt 0.632812500 0.531250000
vt 0.632812500 0.546875000
vt 0.648437500 0.546875000
f 901/901 902/902 903/903 904/904
v 0.562500000 0.812500000 0.093750000
v 0.437500000 0.812500000 0.093750000
v 0.437500000 0.812500000 0.218750000
v 0.562500000 0.812500000 0.218750000
vt 0.664062500 0.500000000
vt 0.648437500 0.500000000
vt 0.648437500 0.531250000
vt 0.664062500 0.531250000
f 905/905 906/906 907/907 908/908
v 0.562500000 0.750000000 0.218750000
v 0.437500000 0.750000000 0.218750000
v 0.437500000 0.750000000 0.093750000
v 0.562500000 0.750000000 0.093750000
vt 0.679687500 0.531250000
vt 0.664062500 0.531250000
vt 0.664062500 0.500000000
vt 0.679687500 0.500000000
f 909/909 910/910 911/911 912/912
v 0.562500000 0.812500000 0.218750000
v 0.437500000 0.812500000 0.218750000
v 0.437500000 0.750000000 0.218750000
v 0.562500000 0.750000000 0.218750000
vt 0.664062500 0.531250000
vt 0.648437500 0.531250000
vt 0.648437500 0.546875000
vt 0.664062500 0.546875000
f 913/913 914/914 915/915 916/916
v 0.437500000 0.812500000 0.093750000
v 0.562500000 0.812500000 0.093750000
v 0.562500000 0.750000000 0.093750000
v 0.437500000 0.750000000 0.093750000
vt 0.695312500 0.531250000
vt 0.679687500 0.531250000
vt 0.679687500 0.546875000
vt 0.695312500 0.546875000
f 917/917 918/918 919/919 920/920
o Shape35
usemtl gun
v 0.375000000 0.812500000 0.093750000
v 0.375000000 0.812500000 0.218750000
v 0.375000000 0.750000000 0.218750000
v 0.375000000 0.750000000 0.093750000
vt 0.679687500 0.578125000
vt 0.664062500 0.578125000
vt 0.664062500 0.593750000
vt 0.679687500 0.593750000
f 921/921 922/922 923/923 924/924
v 0.250000000 0.812500000 0.218750000
v 0.250000000 0.812500000 0.093750000
v 0.250000000 0.750000000 0.093750000
v 0.250000000 0.750000000 0.218750000
vt 0.648437500 0.578125000
vt 0.632812500 0.578125000
vt 0.632812500 0.593750000
vt 0.648437500 0.593750000
f 925/925 926/926 927/927 928/928
v 0.375000000 0.812500000 0.093750000
v 0.250000000 0.812500000 0.093750000
v 0.250000000 0.812500000 0.218750000
v 0.375000000 0.812500000 0.218750000
vt 0.664062500 0.546875000
vt 0.648437500 0.546875000
vt 0.648437500 0.578125000
vt 0.664062500 0.578125000
f 929/929 930/930 931/931 932/932
v 0.375000000 0.750000000 0.218750000
v 0.250000000 0.750000000 0.218750000
v 0.250000000 0.750000000 0.093750000
v 0.375000000 0.750000000 0.093750000
vt 0.679687500 0.578125000
vt 0.664062500 0.578125000
vt 0.664062500 0.546875000
vt 0.679687500 0.546875000
f 933/933 934/934 935/935 936/936
v 0.375000000 0.812500000 0.218750000
v 0.250000000 0.812500000 0.218750000
v 0.250000000 0.750000000 0.218750000
v 0.375000000 0.750000000 0.218750000
vt 0.664062500 0.578125000
vt 0.648437500 0.578125000
vt 0.648437500 0.593750000
vt 0.664062500 0.593750000
f 937/937 938/938 939/939 940/940
v 0.250000000 0.812500000 0.093750000
v 0.375000000 0.812500000 0.093750000
v 0.375000000 0.750000000 0.093750000
v 0.250000000 0.750000000 0.093750000
vt 0.695312500 0.578125000
vt 0.679687500 0.578125000
vt 0.679687500 0.593750000
vt 0.695312500 0.593750000
f 941/941 942/942 943/943 944/944
o Shape36
usemtl gun
v 0.281250000 0.812500000 0.718750000
v 0.281250000 0.812500000 0.906250000
v 0.281250000 0.750000000 0.906250000
v 0.281250000 0.750000000 0.718750000
vt 0.390625000 0.328125000
vt 0.367187500 0.328125000
vt 0.367187500 0.343750000
vt 0.390625000 0.343750000
f 945/945 946/946 947/947 948/948
v 0.093750000 0.812500000 0.906250000
v 0.093750000 0.812500000 0.718750000
v 0.093750000 0.750000000 0.718750000
v 0.093750000 0.750000000 0.906250000
vt 0.343750000 0.328125000
vt 0.320312500 0.328125000
vt 0.320312500 0.343750000
vt 0.343750000 0.343750000
f 949/949 950/950 951/951 952/952
v 0.281250000 0.812500000 0.718750000
v 0.093750000 0.812500000 0.718750000
v 0.093750000 0.812500000 0.906250000
v 0.281250000 0.812500000 0.906250000
vt 0.367187500 0.281250000
vt 0.343750000 0.281250000
vt 0.343750000 0.328125000
vt 0.367187500 0.328125000
f 953/953 954/954 955/955 956/956
v 0.281250000 0.750000000 0.906250000
v 0.093750000 0.750000000 0.906250000
v 0.093750000 0.750000000 0.718750000
v 0.281250000 0.750000000 0.718750000
vt 0.390625000 0.328125000
vt 0.367187500 0.328125000
vt 0.367187500 0.281250000
vt 0.390625000 0.281250000
f 957/957 958/958 959/959 960/960
v 0.281250000 0.812500000 0.906250000
v 0.093750000 0.812500000 0.906250000
v 0.093750000 0.750000000 0.906250000
v 0.281250000 0.750000000 0.906250000
vt 0.367187500 0.328125000
vt 0.343750000 0.328125000
vt 0.343750000 0.343750000
vt 0.367187500 0.343750000
f 961/961 962/962 963/963 964/964
v 0.093750000 0.812500000 0.718750000
v 0.281250000 0.812500000 0.718750000
v 0.281250000 0.750000000 0.718750000
v 0.093750000 0.750000000 0.718750000
vt 0.414062500 0.328125000
vt 0.390625000 0.328125000
vt 0.390625000 0.343750000
vt 0.414062500 0.343750000
f 965/965 966/966 967/967 968/968
o Shape37
usemtl gun
v 0.843750000 0.937500000 0.125000000
v 0.843750000 0.937500000 0.750000000
v 0.843750000 0.875000000 0.750000000
v 0.843750000 0.875000000 0.125000000
vt 0.992187500 0.156250000
vt 0.914062500 0.156250000
vt 0.914062500 0.171875000
vt 0.992187500 0.171875000
f 969/969 970/970 971/971 972/972
v 0.781250000 0.937500000 0.750000000
v 0.781250000 0.937500000 0.125000000
v 0.781250000 0.875000000 0.125000000
v 0.781250000 0.875000000 0.750000000
vt 0.906250000 0.156250000
vt 0.828125000 0.156250000
vt 0.828125000 0.171875000
vt 0.906250000 0.171875000
f 973/973 974/974 975/975 976/976
v 0.843750000 0.937500000 0.125000000
v 0.781250000 0.937500000 0.125000000
v 0.781250000 0.937500000 0.750000000
v 0.843750000 0.937500000 0.750000000
vt 0.914062500 0.000000000
vt 0.906250000 0.000000000
vt 0.906250000 0.156250000
vt 0.914062500 0.156250000
f 977/977 978/978 979/979 980/980
v 0.843750000 0.875000000 0.750000000
v 0.781250000 0.875000000 0.750000000
v 0.781250000 0.875000000 0.125000000
v 0.843750000 0.875000000 0.125000000
vt 0.921875000 0.156250000
vt 0.914062500 0.156250000
vt 0.914062500 0.000000000
vt 0.921875000 0.000000000
f 981/981 982/982 983/983 984/984
v 0.843750000 0.937500000 0.750000000
v 0.781250000 0.937500000 0.750000000
v 0.781250000 0.875000000 0.750000000
v 0.843750000 0.875000000 0.750000000
vt 0.914062500 0.156250000
vt 0.906250000 0.156250000
vt 0.906250000 0.171875000
vt 0.914062500 0.171875000
f 985/985 986/986 987/987 988/988
v 0.781250000 0.937500000 0.125000000
v 0.843750000 0.937500000 0.125000000
v 0.843750000 0.875000000 0.125000000
v 0.781250000 0.875000000 0.125000000
vt 1.000000000 0.156250000
vt 0.992187500 0.156250000
vt 0.992187500 0.171875000
vt 1.000000000 0.171875000
f 989/989 990/990 991/991 992/992
o Shape38
usemtl gun
v 0.531250000 0.875000000 0.125000000
v 0.531250000 0.875000000 0.187500000
v 0.531250000 0.812500000 0.187500000
v 0.531250000 0.812500000 0.125000000
vt 0.851562500 0.015625000
vt 0.843750000 0.015625000
vt 0.843750000 0.031250000
vt 0.851562500 0.031250000
f 993/993 994/994 995/995 996/996
v 0.468750000 0.875000000 0.187500000
v 0.468750000 0.875000000 0.125000000
v 0.468750000 0.812500000 0.125000000
v 0.468750000 0.812500000 0.187500000
vt 0.835937500 0.015625000
vt 0.828125000 0.015625000
vt 0.828125000 0.031250000
vt 0.835937500 0.031250000
f 997/997 998/998 999/999 1000/1000
v 0.531250000 0.875000000 0.125000000
v 0.468750000 0.875000000 0.125000000
v 0.468750000 0.875000000 0.187500000
v 0.531250000 0.875000000 0.187500000
vt 0.843750000 0.000000000
vt 0.835937500 0.000000000
vt 0.835937500 0.015625000
vt 0.843750000 0.015625000
f 1001/1001 1002/1002 1003/1003 1004/1004
v 0.531250000 0.812500000 0.187500000
v 0.468750000 0.812500000 0.187500000
v 0.468750000 0.812500000 0.125000000
v 0.531250000 0.812500000 0.125000000
vt 0.851562500 0.015625000
vt 0.843750000 0.015625000
vt 0.843750000 0.000000000
vt 0.851562500 0.000000000
f 1005/1005 1006/1006 1007/1007 1008/1008
v 0.531250000 0.875000000 0.187500000
v 0.468750000 0.875000000 0.187500000
v 0.468750000 0.812500000 0.187500000
v 0.531250000 0.812500000 0.187500000
vt 0.843750000 0.015625000
vt 0.835937500 0.015625000
vt 0.835937500 0.031250000
vt 0.843750000 0.031250000
f 1009/1009 1010/1010 1011/1011 1012/1012
v 0.468750000 0.875000000 0.125000000
v 0.531250000 0.875000000 0.125000000
v 0.531250000 0.812500000 0.125000000
v 0.468750000 0.812500000 0.125000000
vt 0.859375000 0.015625000
vt 0.851562500 0.015625000
vt 0.851562500 0.031250000
vt 0.859375000 0.031250000
f 1013/1013 1014/1014 1015/1015 1016/1016
o Shape39
usemtl gun
v 0.218750000 0.875000000 0.468750000
v 0.218750000 0.875000000 0.531250000
v 0.218750000 0.812500000 0.531250000
v 0.218750000 0.812500000 0.468750000
vt 0.851562500 0.015625000
vt 0.843750000 0.015625000
vt 0.843750000 0.031250000
vt 0.851562500 0.031250000
f 1017/1017 1018/1018 1019/1019 1020/1020
v 0.156250000 0.875000000 0.531250000
v 0.156250000 0.875000000 0.468750000
v 0.156250000 0.812500000 0.468750000
v 0.156250000 0.812500000 0.531250000
vt 0.835937500 0.015625000
vt 0.828125000 0.015625000
vt 0.828125000 0.031250000
vt 0.835937500 0.031250000
f 1021/1021 1022/1022 1023/1023 1024/1024
v 0.218750000 0.875000000 0.468750000
v 0.156250000 0.875000000 0.468750000
v 0.156250000 0.875000000 0.531250000
v 0.218750000 0.875000000 0.531250000
vt 0.843750000 0.000000000
vt 0.835937500 0.000000000
vt 0.835937500 0.015625000
vt 0.843750000 0.015625000
f 1025/1025 1026/1026 1027/1027 1028/1028
v 0.218750000 0.812500000 0.531250000
v 0.156250000 0.812500000 0.531250000
v 0.156250000 0.812500000 0.468750000
v 0.218750000 0.812500000 0.468750000
vt 0.851562500 0.015625000
vt 0.843750000 0.015625000
vt 0.843750000 0.000000000
vt 0.851562500 0.000000000
f 1029/1029 1030/1030 1031/1031 1032/1032
v 0.218750000 0.875000000 0.531250000
v 0.156250000 0.875000000 0.531250000
v 0.156250000 0.812500000 0.531250000
v 0.218750000 0.812500000 0.531250000
vt 0.843750000 0.015625000
vt 0.835937500 0.015625000
vt 0.835937500 0.031250000
vt 0.843750000 0.031250000
f 1033/1033 1034/1034 1035/1035 1036/1036
v 0.156250000 0.875000000 0.468750000
v 0.218750000 0.875000000 0.468750000
v 0.218750000 0.812500000 0.468750000
v 0.156250000 0.812500000 0.468750000
vt 0.859375000 0.015625000
vt 0.851562500 0.015625000
vt 0.851562500 0.031250000
vt 0.859375000 0.031250000
f 1037/1037 1038/1038 1039/1039 1040/1040
o Shape40
usemtl gun
v 0.218750000 0.937500000 0.468750000
v 0.218750000 0.937500000 0.781250000
v 0.218750000 0.875000000 0.781250000
v 0.218750000 0.875000000 0.468750000
vt 0.914062500 0.078125000
vt 0.875000000 0.078125000
vt 0.875000000 0.093750000
vt 0.914062500 0.093750000
f 1041/1041 1042/1042 1043/1043 1044/1044
v 0.156250000 0.937500000 0.781250000
v 0.156250000 0.937500000 0.468750000
v 0.156250000 0.875000000 0.468750000
v 0.156250000 0.875000000 0.781250000
vt 0.867187500 0.078125000
vt 0.828125000 0.078125000
vt 0.828125000 0.093750000
vt 0.867187500 0.093750000
f 1045/1045 1046/1046 1047/1047 1048/1048
v 0.218750000 0.937500000 0.468750000
v 0.156250000 0.937500000 0.468750000
v 0.156250000 0.937500000 0.781250000
v 0.218750000 0.937500000 0.781250000
vt 0.875000000 0.000000000
vt 0.867187500 0.000000000
vt 0.867187500 0.078125000
vt 0.875000000 0.078125000
f 1049/1049 1050/1050 1051/1051 1052/1052
v 0.218750000 0.875000000 0.781250000
v 0.156250000 0.875000000 0.781250000
v 0.156250000 0.875000000 0.468750000
v 0.218750000 0.875000000 0.468750000
vt 0.882812500 0.078125000
vt 0.875000000 0.078125000
vt 0.875000000 0.000000000
vt 0.882812500 0.000000000
f 1053/1053 1054/1054 1055/1055 1056/1056
v 0.218750000 0.937500000 0.781250000
v 0.156250000 0.937500000 0.781250000
v 0.156250000 0.875000000 0.781250000
v 0.218750000 0.875000000 0.781250000
vt 0.875000000 0.078125000
vt 0.867187500 0.078125000
vt 0.867187500 0.093750000
vt 0.875000000 0.093750000
f 1057/1057 1058/1058 1059/1059 1060/1060
v 0.156250000 0.937500000 0.468750000
v 0.218750000 0.937500000 0.468750000
v 0.218750000 0.875000000 0.468750000
v 0.156250000 0.875000000 0.468750000
vt 0.921875000 0.078125000
vt 0.914062500 0.078125000
vt 0.914062500 0.093750000
vt 0.921875000 0.093750000
f 1061/1061 1062/1062 1063/1063 1064/1064
o Shape41
usemtl gun
v 0.156250000 0.937500000 0.468750000
v 0.156250000 0.937500000 0.531250000
v 0.156250000 0.875000000 0.531250000
v 0.156250000 0.875000000 0.468750000
vt 0.851562500 0.062500000
vt 0.843750000 0.062500000
vt 0.843750000 0.078125000
vt 0.851562500 0.078125000
f 1065/1065 1066/1066 1067/1067 1068/1068
v 0.031250000 0.937500000 0.531250000
v 0.031250000 0.937500000 0.468750000
v 0.031250000 0.875000000 0.468750000
v 0.031250000 0.875000000 0.531250000
vt 0.828125000 0.062500000
vt 0.820312500 0.062500000
vt 0.820312500 0.078125000
vt 0.828125000 0.078125000
f 1069/1069 1070/1070 1071/1071 1072/1072
v 0.156250000 0.937500000 0.468750000
v 0.031250000 0.937500000 0.468750000
v 0.031250000 0.937500000 0.531250000
v 0.156250000 0.937500000 0.531250000
vt 0.843750000 0.046875000
vt 0.828125000 0.046875000
vt 0.828125000 0.062500000
vt 0.843750000 0.062500000
f 1073/1073 1074/1074 1075/1075 1076/1076
v 0.156250000 0.875000000 0.531250000
v 0.031250000 0.875000000 0.531250000
v 0.031250000 0.875000000 0.468750000
v 0.156250000 0.875000000 0.468750000
vt 0.859375000 0.062500000
vt 0.843750000 0.062500000
vt 0.843750000 0.046875000
vt 0.859375000 0.046875000
f 1077/1077 1078/1078 1079/1079 1080/1080
v 0.156250000 0.937500000 0.531250000
v 0.031250000 0.937500000 0.531250000
v 0.031250000 0.875000000 0.531250000
v 0.156250000 0.875000000 0.531250000
vt 0.843750000 0.062500000
vt 0.828125000 0.062500000
vt 0.828125000 0.078125000
vt 0.843750000 0.078125000
f 1081/1081 1082/1082 1083/1083 1084/1084
v 0.031250000 0.937500000 0.468750000
v 0.156250000 0.937500000 0.468750000
v 0.156250000 0.875000000 0.468750000
v 0.031250000 0.875000000 0.468750000
vt 0.867187500 0.062500000
vt 0.851562500 0.062500000
vt 0.851562500 0.078125000
vt 0.867187500 0.078125000
f 1085/1085 1086/1086 1087/1087 1088/1088
o Shape42
usemtl gun
v 0.093750000 0.937500000 0.125000000
v 0.093750000 0.937500000 0.500000000
v 0.093750000 0.875000000 0.500000000
v 0.093750000 0.875000000 0.125000000
vt 0.929687500 0.093750000
vt 0.882812500 0.093750000
vt 0.882812500 0.109375000
vt 0.929687500 0.109375000
f 1089/1089 1090/1090 1091/1091 1092/1092
v 0.031250000 0.937500000 0.500000000
v 0.031250000 0.937500000 0.125000000
v 0.031250000 0.875000000 0.125000000
v 0.031250000 0.875000000 0.500000000
vt 0.875000000 0.093750000
vt 0.828125000 0.093750000
vt 0.828125000 0.109375000
vt 0.875000000 0.109375000
f 1093/1093 1094/1094 1095/1095 1096/1096
v 0.093750000 0.937500000 0.125000000
v 0.031250000 0.937500000 0.125000000
v 0.031250000 0.937500000 0.500000000
v 0.093750000 0.937500000 0.500000000
vt 0.882812500 0.000000000
vt 0.875000000 0.000000000
vt 0.875000000 0.093750000
vt 0.882812500 0.093750000
f 1097/1097 1098/1098 1099/1099 1100/1100
v 0.093750000 0.875000000 0.500000000
v 0.031250000 0.875000000 0.500000000
v 0.031250000 0.875000000 0.125000000
v 0.093750000 0.875000000 0.125000000
vt 0.890625000 0.093750000
vt 0.882812500 0.093750000
vt 0.882812500 0.000000000
vt 0.890625000 0.000000000
f 1101/1101 1102/1102 1103/1103 1104/1104
v 0.093750000 0.937500000 0.500000000
v 0.031250000 0.937500000 0.500000000
v 0.031250000 0.875000000 0.500000000
v 0.093750000 0.875000000 0.500000000
vt 0.882812500 0.093750000
vt 0.875000000 0.093750000
vt 0.875000000 0.109375000
vt 0.882812500 0.109375000
f 1105/1105 1106/1106 1107/1107 1108/1108
v 0.031250000 0.937500000 0.125000000
v 0.093750000 0.937500000 0.125000000
v 0.093750000 0.875000000 0.125000000
v 0.031250000 0.875000000 0.125000000
vt 0.937500000 0.093750000
vt 0.929687500 0.093750000
vt 0.929687500 0.109375000
vt 0.937500000 0.109375000
f 1109/1109 1110/1110 1111/1111 1112/1112
o Shape43
usemtl gun
v 0.531250000 0.937500000 0.125000000
v 0.531250000 0.937500000 0.187500000
v 0.531250000 0.875000000 0.187500000
v 0.531250000 0.875000000 0.125000000
vt 0.898437500 0.015625000
vt 0.890625000 0.015625000
vt 0.890625000 0.031250000
vt 0.898437500 0.031250000
f 1113/1113 1114/1114 1115/1115 1116/1116
v 0.093750000 0.937500000 0.187500000
v 0.093750000 0.937500000 0.125000000
v 0.093750000 0.875000000 0.125000000
v 0.093750000 0.875000000 0.187500000
vt 0.835937500 0.015625000
vt 0.828125000 0.015625000
vt 0.828125000 0.031250000
vt 0.835937500 0.031250000
f 1117/1117 1118/1118 1119/1119 1120/1120
v 0.531250000 0.937500000 0.125000000
v 0.093750000 0.937500000 0.125000000
v 0.093750000 0.937500000 0.187500000
v 0.531250000 0.937500000 0.187500000
vt 0.890625000 0.000000000
vt 0.835937500 0.000000000
vt 0.835937500 0.015625000
vt 0.890625000 0.015625000
f 1121/1121 1122/1122 1123/1123 1124/1124
v 0.531250000 0.875000000 0.187500000
v 0.093750000 0.875000000 0.187500000
v 0.093750000 0.875000000 0.125000000
v 0.531250000 0.875000000 0.125000000
vt 0.945312500 0.015625000
vt 0.890625000 0.015625000
vt 0.890625000 0.000000000
vt 0.945312500 0.000000000
f 1125/1125 1126/1126 1127/1127 1128/1128
v 0.531250000 0.937500000 0.187500000
v 0.093750000 0.937500000 0.187500000
v 0.093750000 0.875000000 0.187500000
v 0.531250000 0.875000000 0.187500000
vt 0.890625000 0.015625000
vt 0.835937500 0.015625000
vt 0.835937500 0.031250000
vt 0.890625000 0.031250000
f 1129/1129 1130/1130 1131/1131 1132/1132
v 0.093750000 0.937500000 0.125000000
v 0.531250000 0.937500000 0.125000000
v 0.531250000 0.875000000 0.125000000
v 0.093750000 0.875000000 0.125000000
vt 0.953125000 0.015625000
vt 0.898437500 0.015625000
vt 0.898437500 0.031250000
vt 0.953125000 0.031250000
f 1133/1133 1134/1134 1135/1135 1136/1136
o Shape44
usemtl gun
v 0.156250000 0.875000000 0.125000000
v 0.156250000 0.875000000 0.187500000
v 0.156250000 0.812500000 0.187500000
v 0.156250000 0.812500000 0.125000000
vt 0.851562500 0.015625000
vt 0.843750000 0.015625000
vt 0.843750000 0.031250000
vt 0.851562500 0.031250000
f 1137/1137 1138/1138 1139/1139 1140/1140
v 0.093750000 0.875000000 0.187500000
v 0.093750000 0.875000000 0.125000000
v 0.093750000 0.812500000 0.125000000
v 0.093750000 0.812500000 0.187500000
vt 0.835937500 0.015625000
vt 0.828125000 0.015625000
vt 0.828125000 0.031250000
vt 0.835937500 0.031250000
f 1141/1141 1142/1142 1143/1143 1144/1144
v 0.156250000 0.875000000 0.125000000
v 0.093750000 0.875000000 0.125000000
v 0.093750000 0.875000000 0.187500000
v 0.156250000 0.875000000 0.187500000
vt 0.843750000 0.000000000
vt 0.835937500 0.000000000
vt 0.835937500 0.015625000
vt 0.843750000 0.015625000
f 1145/1145 1146/1146 1147/1147 1148/1148
v 0.156250000 0.812500000 0.187500000
v 0.093750000 0.812500000 0.187500000
v 0.093750000 0.812500000 0.125000000
v 0.156250000 0.812500000 0.125000000
vt 0.851562500 0.015625000
vt 0.843750000 0.015625000
vt 0.843750000 0.000000000
vt 0.851562500 0.000000000
f 1149/1149 1150/1150 1151/1151 1152/1152
v 0.156250000 0.875000000 0.187500000
v 0.093750000 0.875000000 0.187500000
v 0.093750000 0.812500000 0.187500000
v 0.156250000 0.812500000 0.187500000
vt 0.843750000 0.015625000
vt 0.835937500 0.015625000
vt 0.835937500 0.031250000
vt 0.843750000 0.031250000
f 1153/1153 1154/1154 1155/1155 1156/1156
v 0.093750000 0.875000000 0.125000000
v 0.156250000 0.875000000 0.125000000
v 0.156250000 0.812500000 0.125000000
v 0.093750000 0.812500000 0.125000000
vt 0.859375000 0.015625000
vt 0.851562500 0.015625000
vt 0.851562500 0.031250000
vt 0.859375000 0.031250000
f 1157/1157 1158/1158 1159/1159 1160/1160
o Shape45
usemtl gun
v 0.343750000 0.875000000 0.125000000
v 0.343750000 0.875000000 0.187500000
v 0.343750000 0.812500000 0.187500000
v 0.343750000 0.812500000 0.125000000
vt 0.851562500 0.015625000
vt 0.843750000 0.015625000
vt 0.843750000 0.031250000
vt 0.851562500 0.031250000
f 1161/1161 1162/1162 1163/1163 1164/1164
v 0.281250000 0.875000000 0.187500000
v 0.281250000 0.875000000 0.125000000
v 0.281250000 0.812500000 0.125000000
v 0.281250000 0.812500000 0.187500000
vt 0.835937500 0.015625000
vt 0.828125000 0.015625000
vt 0.828125000 0.031250000
vt 0.835937500 0.031250000
f 1165/1165 1166/1166 1167/1167 1168/1168
v 0.343750000 0.875000000 0.125000000
v 0.281250000 0.875000000 0.125000000
v 0.281250000 0.875000000 0.187500000
v 0.343750000 0.875000000 0.187500000
vt 0.843750000 0.000000000
vt 0.835937500 0.000000000
vt 0.835937500 0.015625000
vt 0.843750000 0.015625000
f 1169/1169 1170/1170 1171/1171 1172/1172
v 0.343750000 0.812500000 0.187500000
v 0.281250000 0.812500000 0.187500000
v 0.281250000 0.812500000 0.125000000
v 0.343750000 0.812500000 0.125000000
vt 0.851562500 0.015625000
vt 0.843750000 0.015625000
vt 0.843750000 0.000000000
vt 0.851562500 0.000000000
f 1173/1173 1174/1174 1175/1175 1176/1176
v 0.343750000 0.875000000 0.187500000
v 0.281250000 0.875000000 0.187500000
v 0.281250000 0.812500000 0.187500000
v 0.343750000 0.812500000 0.187500000
vt 0.843750000 0.015625000
vt 0.835937500 0.015625000
vt 0.835937500 0.031250000
vt 0.843750000 0.031250000
f 1177/1177 1178/1178 1179/1179 1180/1180
v 0.281250000 0.875000000 0.125000000
v 0.343750000 0.875000000 0.125000000
v 0.343750000 0.812500000 0.125000000
v 0.281250000 0.812500000 0.125000000
vt 0.859375000 0.015625000
vt 0.851562500 0.015625000
vt 0.851562500 0.031250000
vt 0.859375000 0.031250000
f 1181/1181 1182/1182 1183/1183 1184/1184
o G1
usemtl gun
v 0.588388348 0.750000000 0.156250003
v 0.499999997 0.750000000 0.244638348
v 0.499999997 0.187500000 0.244638348
v 0.588388348 0.187500000 0.156250003
vt 0.601562500 0.671875000
vt 0.585937500 0.671875000
vt 0.585937500 0.812500000
vt 0.601562500 0.812500000
f 1185/1185 1186/1186 1187/1187 1188/1188
v 0.411611652 0.750000000 0.156249997
v 0.500000003 0.750000000 0.067861652
v 0.500000003 0.187500000 0.067861652
v 0.411611652 0.187500000 0.156249997
vt 0.570312500 0.671875000
vt 0.554687500 0.671875000
vt 0.554687500 0.812500000
vt 0.570312500 0.812500000
f 1189/1189 1190/1190 1191/1191 1192/1192
v 0.588388348 0.750000000 0.156250003
v 0.500000003 0.750000000 0.067861652
v 0.411611652 0.750000000 0.156249997
v 0.499999997 0.750000000 0.244638348
vt 0.585937500 0.640625000
vt 0.570312500 0.640625000
vt 0.570312500 0.671875000
vt 0.585937500 0.671875000
f 1193/1193 1194/1194 1195/1195 1196/1196
v 0.499999997 0.187500000 0.244638348
v 0.411611652 0.187500000 0.156249997
v 0.500000003 0.187500000 0.067861652
v 0.588388348 0.187500000 0.156250003
vt 0.601562500 0.671875000
vt 0.585937500 0.671875000
vt 0.585937500 0.640625000
vt 0.601562500 0.640625000
f 1197/1197 1198/1198 1199/1199 1200/1200
v 0.499999997 0.750000000 0.244638348
v 0.411611652 0.750000000 0.156249997
v 0.411611652 0.187500000 0.156249997
v 0.499999997 0.187500000 0.244638348
vt 0.585937500 0.671875000
vt 0.570312500 0.671875000
vt 0.570312500 0.812500000
vt 0.585937500 0.812500000
f 1201/1201 1202/1202 1203/1203 1204/1204
v 0.500000003 0.750000000 0.067861652
v 0.588388348 0.750000000 0.156250003
v 0.588388348 0.187500000 0.156250003
v 0.500000003 0.187500000 0.067861652
vt 0.617187500 0.671875000
vt 0.601562500 0.671875000
vt 0.601562500 0.812500000
vt 0.617187500 0.812500000
f 1205/1205 1206/1206 1207/1207 1208/1208
o G7
usemtl gun
v 0.906250000 0.562500000 0.062500000
v 0.906250000 0.562500000 0.250000000
v 0.906250000 0.437500000 0.250000000
v 0.906250000 0.437500000 0.062500000
vt 0.070312500 0.828125000
vt 0.046875000 0.828125000
vt 0.046875000 0.859375000
vt 0.070312500 0.859375000
f 1209/1209 1210/1210 1211/1211 1212/1212
v 0.718750000 0.562500000 0.250000000
v 0.718750000 0.562500000 0.062500000
v 0.718750000 0.437500000 0.062500000
v 0.718750000 0.437500000 0.250000000
vt 0.023437500 0.828125000
vt 0.000000000 0.828125000
vt 0.000000000 0.859375000
vt 0.023437500 0.859375000
f 1213/1213 1214/1214 1215/1215 1216/1216
v 0.906250000 0.562500000 0.062500000
v 0.718750000 0.562500000 0.062500000
v 0.718750000 0.562500000 0.250000000
v 0.906250000 0.562500000 0.250000000
vt 0.046875000 0.781250000
vt 0.023437500 0.781250000
vt 0.023437500 0.828125000
vt 0.046875000 0.828125000
f 1217/1217 1218/1218 1219/1219 1220/1220
v 0.906250000 0.437500000 0.250000000
v 0.718750000 0.437500000 0.250000000
v 0.718750000 0.437500000 0.062500000
v 0.906250000 0.437500000 0.062500000
vt 0.070312500 0.828125000
vt 0.046875000 0.828125000
vt 0.046875000 0.781250000
vt 0.070312500 0.781250000
f 1221/1221 1222/1222 1223/1223 1224/1224
v 0.906250000 0.562500000 0.250000000
v 0.718750000 0.562500000 0.250000000
v 0.718750000 0.437500000 0.250000000
v 0.906250000 0.437500000 0.250000000
vt 0.046875000 0.828125000
vt 0.023437500 0.828125000
vt 0.023437500 0.859375000
vt 0.046875000 0.859375000
f 1225/1225 1226/1226 1227/1227 1228/1228
v 0.718750000 0.562500000 0.062500000
v 0.906250000 0.562500000 0.062500000
v 0.906250000 0.437500000 0.062500000
v 0.718750000 0.437500000 0.062500000
vt 0.093750000 0.828125000
vt 0.070312500 0.828125000
vt 0.070312500 0.859375000
vt 0.093750000 0.859375000
f 1229/1229 1230/1230 1231/1231 1232/1232
o G6
usemtl gun
v 0.875000000 0.625000000 0.093750000
v 0.875000000 0.625000000 0.218750000
v 0.875000000 0.562500000 0.218750000
v 0.875000000 0.562500000 0.093750000
vt 0.046875000 0.765625000
vt 0.031250000 0.765625000
vt 0.031250000 0.781250000
vt 0.046875000 0.781250000
f 1233/1233 1234/1234 1235/1235 1236/1236
v 0.750000000 0.625000000 0.218750000
v 0.750000000 0.625000000 0.093750000
v 0.750000000 0.562500000 0.093750000
v 0.750000000 0.562500000 0.218750000
vt 0.015625000 0.765625000
vt 0.000000000 0.765625000
vt 0.000000000 0.781250000
vt 0.015625000 0.781250000
f 1237/1237 1238/1238 1239/1239 1240/1240
v 0.875000000 0.625000000 0.093750000
v 0.750000000 0.625000000 0.093750000
v 0.750000000 0.625000000 0.218750000
v 0.875000000 0.625000000 0.218750000
vt 0.031250000 0.734375000
vt 0.015625000 0.734375000
vt 0.015625000 0.765625000
vt 0.031250000 0.765625000
f 1241/1241 1242/1242 1243/1243 1244/1244
v 0.875000000 0.562500000 0.218750000
v 0.750000000 0.562500000 0.218750000
v 0.750000000 0.562500000 0.093750000
v 0.875000000 0.562500000 0.093750000
vt 0.046875000 0.765625000
vt 0.031250000 0.765625000
vt 0.031250000 0.734375000
vt 0.046875000 0.734375000
f 1245/1245 1246/1246 1247/1247 1248/1248
v 0.875000000 0.625000000 0.218750000
v 0.750000000 0.625000000 0.218750000
v 0.750000000 0.562500000 0.218750000
v 0.875000000 0.562500000 0.218750000
vt 0.031250000 0.765625000
vt 0.015625000 0.765625000
vt 0.015625000 0.781250000
vt 0.031250000 0.781250000
f 1249/1249 1250/1250 1251/1251 1252/1252
v 0.750000000 0.625000000 0.093750000
v 0.875000000 0.625000000 0.093750000
v 0.875000000 0.562500000 0.093750000
v 0.750000000 0.562500000 0.093750000
vt 0.062500000 0.765625000
vt 0.046875000 0.765625000
vt 0.046875000 0.781250000
vt 0.062500000 0.781250000
f 1253/1253 1254/1254 1255/1255 1256/1256
o G11
usemtl gun
v 0.937500000 0.750000000 0.687500000
v 0.937500000 0.750000000 0.937500000
v 0.937500000 0.187500000 0.937500000
v 0.937500000 0.187500000 0.687500000
vt 0.414062500 0.406250000
vt 0.382812500 0.406250000
vt 0.382812500 0.546875000
vt 0.414062500 0.546875000
f 1257/1257 1258/1258 1259/1259 1260/1260
v 0.687500000 0.750000000 0.937500000
v 0.687500000 0.750000000 0.687500000
v 0.687500000 0.187500000 0.687500000
v 0.687500000 0.187500000 0.937500000
vt 0.351562500 0.406250000
vt 0.320312500 0.406250000
vt 0.320312500 0.546875000
vt 0.351562500 0.546875000
f 1261/1261 1262/1262 1263/1263 1264/1264
v 0.937500000 0.750000000 0.687500000
v 0.687500000 0.750000000 0.687500000
v 0.687500000 0.750000000 0.937500000
v 0.937500000 0.750000000 0.937500000
vt 0.382812500 0.343750000
vt 0.351562500 0.343750000
vt 0.351562500 0.406250000
vt 0.382812500 0.406250000
f 1265/1265 1266/1266 1267/1267 1268/1268
v 0.937500000 0.187500000 0.937500000
v 0.687500000 0.187500000 0.937500000
v 0.687500000 0.187500000 0.687500000
v 0.937500000 0.187500000 0.687500000
vt 0.414062500 0.406250000
vt 0.382812500 0.406250000
vt 0.382812500 0.343750000
vt 0.414062500 0.343750000
f 1269/1269 1270/1270 1271/1271 1272/1272
v 0.937500000 0.750000000 0.937500000
v 0.687500000 0.750000000 0.937500000
v 0.687500000 0.187500000 0.937500000
v 0.937500000 0.187500000 0.937500000
vt 0.382812500 0.406250000
vt 0.351562500 0.406250000
vt 0.351562500 0.546875000
vt 0.382812500 0.546875000
f 1273/1273 1274/1274 1275/1275 1276/1276
v 0.687500000 0.750000000 0.687500000
v 0.937500000 0.750000000 0.687500000
v 0.937500000 0.187500000 0.687500000
v 0.687500000 0.187500000 0.687500000
vt 0.445312500 0.406250000
vt 0.414062500 0.406250000
vt 0.414062500 0.546875000
vt 0.445312500 0.546875000
f 1277/1277 1278/1278 1279/1279 1280/1280
o Shape46
usemtl gun
v 0.625000000 0.750000000 0.250000000
v 0.000000000 0.750000000 0.250000000
v 0.000000000 0.125000000 0.250000000
v 0.625000000 0.125000000 0.250000000
vt 0.468750000 0.640625000
vt 0.390625000 0.640625000
vt 0.390625000 0.796875000
vt 0.468750000 0.796875000
f 1281/1281 1282/1282 1283/1283 1284/1284
v 0.000000000 0.750000000 0.250000000
v 0.625000000 0.750000000 0.250000000
v 0.625000000 0.125000000 0.250000000
v 0.000000000 0.125000000 0.250000000
vt 0.546875000 0.640625000
vt 0.468750000 0.640625000
vt 0.468750000 0.796875000
vt 0.546875000 0.796875000
f 1285/1285 1286/1286 1287/1287 1288/1288
