# Original Techguns ModelAS50Mag; Techguns Mod License
mtllib as50magazine.mtl
o Magazine01
usemtl gun
v 0.531250002 0.393750000 0.687500000
v 0.531250002 0.393750000 0.656250000
v 0.531250002 0.331250000 0.656250000
v 0.531250002 0.331250000 0.687500000
vt 0.062500000 0.625000000
vt 0.046875000 0.625000000
vt 0.046875000 0.687500000
vt 0.062500000 0.687500000
f 4/4 3/3 2/2 1/1
v 0.468750002 0.393750000 0.656250000
v 0.468750002 0.393750000 0.687500000
v 0.468750002 0.331250000 0.687500000
v 0.468750002 0.331250000 0.656250000
vt 0.015625000 0.625000000
vt 0.000000000 0.625000000
vt 0.000000000 0.687500000
vt 0.015625000 0.687500000
f 8/8 7/7 6/6 5/5
v 0.531250002 0.393750000 0.687500000
v 0.468750002 0.393750000 0.687500000
v 0.468750002 0.393750000 0.656250000
v 0.531250002 0.393750000 0.656250000
vt 0.046875000 0.593750000
vt 0.015625000 0.593750000
vt 0.015625000 0.625000000
vt 0.046875000 0.625000000
f 12/12 11/11 10/10 9/9
v 0.531250002 0.331250000 0.656250000
v 0.468750002 0.331250000 0.656250000
v 0.468750002 0.331250000 0.687500000
v 0.531250002 0.331250000 0.687500000
vt 0.078125000 0.625000000
vt 0.046875000 0.625000000
vt 0.046875000 0.593750000
vt 0.078125000 0.593750000
f 16/16 15/15 14/14 13/13
v 0.531250002 0.393750000 0.656250000
v 0.468750002 0.393750000 0.656250000
v 0.468750002 0.331250000 0.656250000
v 0.531250002 0.331250000 0.656250000
vt 0.046875000 0.625000000
vt 0.015625000 0.625000000
vt 0.015625000 0.687500000
vt 0.046875000 0.687500000
f 20/20 19/19 18/18 17/17
v 0.468750002 0.393750000 0.687500000
v 0.531250002 0.393750000 0.687500000
v 0.531250002 0.331250000 0.687500000
v 0.468750002 0.331250000 0.687500000
vt 0.093750000 0.625000000
vt 0.062500000 0.625000000
vt 0.062500000 0.687500000
vt 0.093750000 0.687500000
f 24/24 23/23 22/22 21/21
o Magazine03
usemtl gun
v 0.531250002 0.393546314 0.670432943
v 0.531250002 0.425000000 0.328125000
v 0.531250002 0.362762192 0.322406148
v 0.531250002 0.331308506 0.664714091
vt 0.640625000 0.656250000
vt 0.468750000 0.656250000
vt 0.468750000 0.718750000
vt 0.640625000 0.718750000
f 28/28 27/27 26/26 25/25
v 0.468750002 0.425000000 0.328125000
v 0.468750002 0.393546314 0.670432943
v 0.468750002 0.331308506 0.664714091
v 0.468750002 0.362762192 0.322406148
vt 0.437500000 0.656250000
vt 0.265625000 0.656250000
vt 0.265625000 0.718750000
vt 0.437500000 0.718750000
f 32/32 31/31 30/30 29/29
v 0.531250002 0.393546314 0.670432943
v 0.468750002 0.393546314 0.670432943
v 0.468750002 0.425000000 0.328125000
v 0.531250002 0.425000000 0.328125000
vt 0.468750000 0.312500000
vt 0.437500000 0.312500000
vt 0.437500000 0.656250000
vt 0.468750000 0.656250000
f 36/36 35/35 34/34 33/33
v 0.531250002 0.362762192 0.322406148
v 0.468750002 0.362762192 0.322406148
v 0.468750002 0.331308506 0.664714091
v 0.531250002 0.331308506 0.664714091
vt 0.500000000 0.656250000
vt 0.468750000 0.656250000
vt 0.468750000 0.312500000
vt 0.500000000 0.312500000
f 40/40 39/39 38/38 37/37
v 0.531250002 0.425000000 0.328125000
v 0.468750002 0.425000000 0.328125000
v 0.468750002 0.362762192 0.322406148
v 0.531250002 0.362762192 0.322406148
vt 0.468750000 0.656250000
vt 0.437500000 0.656250000
vt 0.437500000 0.718750000
vt 0.468750000 0.718750000
f 44/44 43/43 42/42 41/41
v 0.468750002 0.393546314 0.670432943
v 0.531250002 0.393546314 0.670432943
v 0.531250002 0.331308506 0.664714091
v 0.468750002 0.331308506 0.664714091
vt 0.671875000 0.656250000
vt 0.640625000 0.656250000
vt 0.640625000 0.718750000
vt 0.671875000 0.718750000
f 48/48 47/47 46/46 45/45
o Bullet2
usemtl gun
v 0.522097088 0.624777912 0.484375000
v 0.522097088 0.624777912 0.328125000
v 0.500000000 0.602680826 0.328125000
v 0.500000000 0.602680826 0.484375000
vt 0.171875000 0.156250000
vt 0.093750000 0.156250000
vt 0.093750000 0.187500000
vt 0.171875000 0.187500000
f 52/52 51/51 50/50 49/49
v 0.500000002 0.646875000 0.328125000
v 0.500000002 0.646875000 0.484375000
v 0.477902914 0.624777914 0.484375000
v 0.477902914 0.624777914 0.328125000
vt 0.078125000 0.156250000
vt 0.000000000 0.156250000
vt 0.000000000 0.187500000
vt 0.078125000 0.187500000
f 56/56 55/55 54/54 53/53
v 0.522097088 0.624777912 0.484375000
v 0.500000002 0.646875000 0.484375000
v 0.500000002 0.646875000 0.328125000
v 0.522097088 0.624777912 0.328125000
vt 0.093750000 0.000000000
vt 0.078125000 0.000000000
vt 0.078125000 0.156250000
vt 0.093750000 0.156250000
f 60/60 59/59 58/58 57/57
v 0.500000000 0.602680826 0.328125000
v 0.477902914 0.624777914 0.328125000
v 0.477902914 0.624777914 0.484375000
v 0.500000000 0.602680826 0.484375000
vt 0.109375000 0.156250000
vt 0.093750000 0.156250000
vt 0.093750000 0.000000000
vt 0.109375000 0.000000000
f 64/64 63/63 62/62 61/61
v 0.522097088 0.624777912 0.328125000
v 0.500000002 0.646875000 0.328125000
v 0.477902914 0.624777914 0.328125000
v 0.500000000 0.602680826 0.328125000
vt 0.093750000 0.156250000
vt 0.078125000 0.156250000
vt 0.078125000 0.187500000
vt 0.093750000 0.187500000
f 68/68 67/67 66/66 65/65
v 0.500000002 0.646875000 0.484375000
v 0.522097088 0.624777912 0.484375000
v 0.500000000 0.602680826 0.484375000
v 0.477902914 0.624777914 0.484375000
vt 0.187500000 0.156250000
vt 0.171875000 0.156250000
vt 0.171875000 0.187500000
vt 0.187500000 0.187500000
f 72/72 71/71 70/70 69/69
o Magazine02
usemtl gun
v 0.531250002 0.612500000 0.687500000
v 0.531250002 0.612500000 0.312500000
v 0.531250002 0.362500000 0.312500000
v 0.531250002 0.362500000 0.687500000
vt 0.406250000 0.750000000
vt 0.218750000 0.750000000
vt 0.218750000 1.000000000
vt 0.406250000 1.000000000
f 76/76 75/75 74/74 73/73
v 0.468750002 0.612500000 0.312500000
v 0.468750002 0.612500000 0.687500000
v 0.468750002 0.362500000 0.687500000
v 0.468750002 0.362500000 0.312500000
vt 0.187500000 0.750000000
vt 0.000000000 0.750000000
vt 0.000000000 1.000000000
vt 0.187500000 1.000000000
f 80/80 79/79 78/78 77/77
v 0.531250002 0.612500000 0.687500000
v 0.468750002 0.612500000 0.687500000
v 0.468750002 0.612500000 0.312500000
v 0.531250002 0.612500000 0.312500000
vt 0.218750000 0.375000000
vt 0.187500000 0.375000000
vt 0.187500000 0.750000000
vt 0.218750000 0.750000000
f 84/84 83/83 82/82 81/81
v 0.531250002 0.362500000 0.312500000
v 0.468750002 0.362500000 0.312500000
v 0.468750002 0.362500000 0.687500000
v 0.531250002 0.362500000 0.687500000
vt 0.250000000 0.750000000
vt 0.218750000 0.750000000
vt 0.218750000 0.375000000
vt 0.250000000 0.375000000
f 88/88 87/87 86/86 85/85
v 0.531250002 0.612500000 0.312500000
v 0.468750002 0.612500000 0.312500000
v 0.468750002 0.362500000 0.312500000
v 0.531250002 0.362500000 0.312500000
vt 0.218750000 0.750000000
vt 0.187500000 0.750000000
vt 0.187500000 1.000000000
vt 0.218750000 1.000000000
f 92/92 91/91 90/90 89/89
v 0.468750002 0.612500000 0.687500000
v 0.531250002 0.612500000 0.687500000
v 0.531250002 0.362500000 0.687500000
v 0.468750002 0.362500000 0.687500000
vt 0.437500000 0.750000000
vt 0.406250000 0.750000000
vt 0.406250000 1.000000000
vt 0.437500000 1.000000000
f 96/96 95/95 94/94 93/93
o Bullet
usemtl gun
v 0.544194174 0.624555825 0.671875000
v 0.544194174 0.624555825 0.484375000
v 0.499999998 0.580361652 0.484375000
v 0.499999998 0.580361652 0.671875000
vt 0.421875000 0.187500000
vt 0.328125000 0.187500000
vt 0.328125000 0.250000000
vt 0.421875000 0.250000000
f 100/100 99/99 98/98 97/97
v 0.500000002 0.668750000 0.484375000
v 0.500000002 0.668750000 0.671875000
v 0.455805826 0.624555828 0.671875000
v 0.455805826 0.624555828 0.484375000
vt 0.296875000 0.187500000
vt 0.203125000 0.187500000
vt 0.203125000 0.250000000
vt 0.296875000 0.250000000
f 104/104 103/103 102/102 101/101
v 0.544194174 0.624555825 0.671875000
v 0.500000002 0.668750000 0.671875000
v 0.500000002 0.668750000 0.484375000
v 0.544194174 0.624555825 0.484375000
vt 0.328125000 0.000000000
vt 0.296875000 0.000000000
vt 0.296875000 0.187500000
vt 0.328125000 0.187500000
f 108/108 107/107 106/106 105/105
v 0.499999998 0.580361652 0.484375000
v 0.455805826 0.624555828 0.484375000
v 0.455805826 0.624555828 0.671875000
v 0.499999998 0.580361652 0.671875000
vt 0.359375000 0.187500000
vt 0.328125000 0.187500000
vt 0.328125000 0.000000000
vt 0.359375000 0.000000000
f 112/112 111/111 110/110 109/109
v 0.544194174 0.624555825 0.484375000
v 0.500000002 0.668750000 0.484375000
v 0.455805826 0.624555828 0.484375000
v 0.499999998 0.580361652 0.484375000
vt 0.328125000 0.187500000
vt 0.296875000 0.187500000
vt 0.296875000 0.250000000
vt 0.328125000 0.250000000
f 116/116 115/115 114/114 113/113
v 0.500000002 0.668750000 0.671875000
v 0.544194174 0.624555825 0.671875000
v 0.499999998 0.580361652 0.671875000
v 0.455805826 0.624555828 0.671875000
vt 0.453125000 0.187500000
vt 0.421875000 0.187500000
vt 0.421875000 0.250000000
vt 0.453125000 0.250000000
f 120/120 119/119 118/118 117/117
