# Original Techguns ModelAS50Mag; Techguns Mod License
mtllib as50magazineempty.mtl
o Magazine01
usemtl gun
v 0.531250000 0.421875000 0.687500000
v 0.531250000 0.421875000 0.656250000
v 0.531250000 0.359375000 0.656250000
v 0.531250000 0.359375000 0.687500000
vt 0.062500000 0.625000000
vt 0.046875000 0.625000000
vt 0.046875000 0.687500000
vt 0.062500000 0.687500000
f 4/4 3/3 2/2 1/1
v 0.468750000 0.421875000 0.656250000
v 0.468750000 0.421875000 0.687500000
v 0.468750000 0.359375000 0.687500000
v 0.468750000 0.359375000 0.656250000
vt 0.015625000 0.625000000
vt 0.000000000 0.625000000
vt 0.000000000 0.687500000
vt 0.015625000 0.687500000
f 8/8 7/7 6/6 5/5
v 0.531250000 0.421875000 0.687500000
v 0.468750000 0.421875000 0.687500000
v 0.468750000 0.421875000 0.656250000
v 0.531250000 0.421875000 0.656250000
vt 0.046875000 0.593750000
vt 0.015625000 0.593750000
vt 0.015625000 0.625000000
vt 0.046875000 0.625000000
f 12/12 11/11 10/10 9/9
v 0.531250000 0.359375000 0.656250000
v 0.468750000 0.359375000 0.656250000
v 0.468750000 0.359375000 0.687500000
v 0.531250000 0.359375000 0.687500000
vt 0.078125000 0.625000000
vt 0.046875000 0.625000000
vt 0.046875000 0.593750000
vt 0.078125000 0.593750000
f 16/16 15/15 14/14 13/13
v 0.531250000 0.421875000 0.656250000
v 0.468750000 0.421875000 0.656250000
v 0.468750000 0.359375000 0.656250000
v 0.531250000 0.359375000 0.656250000
vt 0.046875000 0.625000000
vt 0.015625000 0.625000000
vt 0.015625000 0.687500000
vt 0.046875000 0.687500000
f 20/20 19/19 18/18 17/17
v 0.468750000 0.421875000 0.687500000
v 0.531250000 0.421875000 0.687500000
v 0.531250000 0.359375000 0.687500000
v 0.468750000 0.359375000 0.687500000
vt 0.093750000 0.625000000
vt 0.062500000 0.625000000
vt 0.062500000 0.687500000
vt 0.093750000 0.687500000
f 24/24 23/23 22/22 21/21
o Magazine03
usemtl gun
v 0.531250000 0.421671314 0.670432943
v 0.531250000 0.453125000 0.328125000
v 0.531250000 0.390887192 0.322406148
v 0.531250000 0.359433506 0.664714091
vt 0.640625000 0.656250000
vt 0.468750000 0.656250000
vt 0.468750000 0.718750000
vt 0.640625000 0.718750000
f 28/28 27/27 26/26 25/25
v 0.468750000 0.453125000 0.328125000
v 0.468750000 0.421671314 0.670432943
v 0.468750000 0.359433506 0.664714091
v 0.468750000 0.390887192 0.322406148
vt 0.437500000 0.656250000
vt 0.265625000 0.656250000
vt 0.265625000 0.718750000
vt 0.437500000 0.718750000
f 32/32 31/31 30/30 29/29
v 0.531250000 0.421671314 0.670432943
v 0.468750000 0.421671314 0.670432943
v 0.468750000 0.453125000 0.328125000
v 0.531250000 0.453125000 0.328125000
vt 0.468750000 0.312500000
vt 0.437500000 0.312500000
vt 0.437500000 0.656250000
vt 0.468750000 0.656250000
f 36/36 35/35 34/34 33/33
v 0.531250000 0.390887192 0.322406148
v 0.468750000 0.390887192 0.322406148
v 0.468750000 0.359433506 0.664714091
v 0.531250000 0.359433506 0.664714091
vt 0.500000000 0.656250000
vt 0.468750000 0.656250000
vt 0.468750000 0.312500000
vt 0.500000000 0.312500000
f 40/40 39/39 38/38 37/37
v 0.531250000 0.453125000 0.328125000
v 0.468750000 0.453125000 0.328125000
v 0.468750000 0.390887192 0.322406148
v 0.531250000 0.390887192 0.322406148
vt 0.468750000 0.656250000
vt 0.437500000 0.656250000
vt 0.437500000 0.718750000
vt 0.468750000 0.718750000
f 44/44 43/43 42/42 41/41
v 0.468750000 0.421671314 0.670432943
v 0.531250000 0.421671314 0.670432943
v 0.531250000 0.359433506 0.664714091
v 0.468750000 0.359433506 0.664714091
vt 0.671875000 0.656250000
vt 0.640625000 0.656250000
vt 0.640625000 0.718750000
vt 0.671875000 0.718750000
f 48/48 47/47 46/46 45/45
o Magazine02
usemtl gun
v 0.531250000 0.640625000 0.687500000
v 0.531250000 0.640625000 0.312500000
v 0.531250000 0.390625000 0.312500000
v 0.531250000 0.390625000 0.687500000
vt 0.406250000 0.750000000
vt 0.218750000 0.750000000
vt 0.218750000 1.000000000
vt 0.406250000 1.000000000
f 52/52 51/51 50/50 49/49
v 0.468750000 0.640625000 0.312500000
v 0.468750000 0.640625000 0.687500000
v 0.468750000 0.390625000 0.687500000
v 0.468750000 0.390625000 0.312500000
vt 0.187500000 0.750000000
vt 0.000000000 0.750000000
vt 0.000000000 1.000000000
vt 0.187500000 1.000000000
f 56/56 55/55 54/54 53/53
v 0.531250000 0.640625000 0.687500000
v 0.468750000 0.640625000 0.687500000
v 0.468750000 0.640625000 0.312500000
v 0.531250000 0.640625000 0.312500000
vt 0.218750000 0.375000000
vt 0.187500000 0.375000000
vt 0.187500000 0.750000000
vt 0.218750000 0.750000000
f 60/60 59/59 58/58 57/57
v 0.531250000 0.390625000 0.312500000
v 0.468750000 0.390625000 0.312500000
v 0.468750000 0.390625000 0.687500000
v 0.531250000 0.390625000 0.687500000
vt 0.250000000 0.750000000
vt 0.218750000 0.750000000
vt 0.218750000 0.375000000
vt 0.250000000 0.375000000
f 64/64 63/63 62/62 61/61
v 0.531250000 0.640625000 0.312500000
v 0.468750000 0.640625000 0.312500000
v 0.468750000 0.390625000 0.312500000
v 0.531250000 0.390625000 0.312500000
vt 0.218750000 0.750000000
vt 0.187500000 0.750000000
vt 0.187500000 1.000000000
vt 0.218750000 1.000000000
f 68/68 67/67 66/66 65/65
v 0.468750000 0.640625000 0.687500000
v 0.531250000 0.640625000 0.687500000
v 0.531250000 0.390625000 0.687500000
v 0.468750000 0.390625000 0.687500000
vt 0.437500000 0.750000000
vt 0.406250000 0.750000000
vt 0.406250000 1.000000000
vt 0.437500000 1.000000000
f 72/72 71/71 70/70 69/69
