# Original Techguns ModelARMagazine; Techguns Mod License
mtllib assaultriflemagazine.mtl
o Magazine02
usemtl gun
v 0.531250000 0.442266250 0.602372934
v 0.531250000 0.471597706 0.417181370
v 0.531250000 0.348136663 0.397627066
v 0.531250000 0.318805206 0.582818630
vt 0.437500000 0.187500000
vt 0.250000000 0.187500000
vt 0.250000000 0.312500000
vt 0.437500000 0.312500000
f 4/4 3/3 2/2 1/1
v 0.468750000 0.471597706 0.417181370
v 0.468750000 0.442266250 0.602372934
v 0.468750000 0.318805206 0.582818630
v 0.468750000 0.348136663 0.397627066
vt 0.187500000 0.187500000
vt 0.000000000 0.187500000
vt 0.000000000 0.312500000
vt 0.187500000 0.312500000
f 8/8 7/7 6/6 5/5
v 0.531250000 0.442266250 0.602372934
v 0.468750000 0.442266250 0.602372934
v 0.468750000 0.471597706 0.417181370
v 0.531250000 0.471597706 0.417181370
vt 0.250000000 0.000000000
vt 0.187500000 0.000000000
vt 0.187500000 0.187500000
vt 0.250000000 0.187500000
f 12/12 11/11 10/10 9/9
v 0.531250000 0.348136663 0.397627066
v 0.468750000 0.348136663 0.397627066
v 0.468750000 0.318805206 0.582818630
v 0.531250000 0.318805206 0.582818630
vt 0.312500000 0.187500000
vt 0.250000000 0.187500000
vt 0.250000000 0.000000000
vt 0.312500000 0.000000000
f 16/16 15/15 14/14 13/13
v 0.531250000 0.471597706 0.417181370
v 0.468750000 0.471597706 0.417181370
v 0.468750000 0.348136663 0.397627066
v 0.531250000 0.348136663 0.397627066
vt 0.250000000 0.187500000
vt 0.187500000 0.187500000
vt 0.187500000 0.312500000
vt 0.250000000 0.312500000
f 20/20 19/19 18/18 17/17
v 0.468750000 0.442266250 0.602372934
v 0.531250000 0.442266250 0.602372934
v 0.531250000 0.318805206 0.582818630
v 0.468750000 0.318805206 0.582818630
vt 0.500000000 0.187500000
vt 0.437500000 0.187500000
vt 0.437500000 0.312500000
vt 0.500000000 0.312500000
f 24/24 23/23 22/22 21/21
o Magazine01
usemtl gun
v 0.531250000 0.596597706 0.601556370
v 0.531250000 0.596597706 0.414056370
v 0.531250000 0.440347706 0.414056370
v 0.531250000 0.440347706 0.601556370
vt 0.437500000 0.531250000
vt 0.250000000 0.531250000
vt 0.250000000 0.687500000
vt 0.437500000 0.687500000
f 28/28 27/27 26/26 25/25
v 0.468750000 0.596597706 0.414056370
v 0.468750000 0.596597706 0.601556370
v 0.468750000 0.440347706 0.601556370
v 0.468750000 0.440347706 0.414056370
vt 0.187500000 0.531250000
vt 0.000000000 0.531250000
vt 0.000000000 0.687500000
vt 0.187500000 0.687500000
f 32/32 31/31 30/30 29/29
v 0.531250000 0.596597706 0.601556370
v 0.468750000 0.596597706 0.601556370
v 0.468750000 0.596597706 0.414056370
v 0.531250000 0.596597706 0.414056370
vt 0.250000000 0.343750000
vt 0.187500000 0.343750000
vt 0.187500000 0.531250000
vt 0.250000000 0.531250000
f 36/36 35/35 34/34 33/33
v 0.531250000 0.440347706 0.414056370
v 0.468750000 0.440347706 0.414056370
v 0.468750000 0.440347706 0.601556370
v 0.531250000 0.440347706 0.601556370
vt 0.312500000 0.531250000
vt 0.250000000 0.531250000
vt 0.250000000 0.343750000
vt 0.312500000 0.343750000
f 40/40 39/39 38/38 37/37
v 0.531250000 0.596597706 0.414056370
v 0.468750000 0.596597706 0.414056370
v 0.468750000 0.440347706 0.414056370
v 0.531250000 0.440347706 0.414056370
vt 0.250000000 0.531250000
vt 0.187500000 0.531250000
vt 0.187500000 0.687500000
vt 0.250000000 0.687500000
f 44/44 43/43 42/42 41/41
v 0.468750000 0.596597706 0.601556370
v 0.531250000 0.596597706 0.601556370
v 0.531250000 0.440347706 0.601556370
v 0.468750000 0.440347706 0.601556370
vt 0.500000000 0.531250000
vt 0.437500000 0.531250000
vt 0.437500000 0.687500000
vt 0.500000000 0.687500000
f 48/48 47/47 46/46 45/45
o Magazine03
usemtl gun
v 0.531250000 0.659097706 0.601556370
v 0.531250000 0.659097706 0.414056370
v 0.531250000 0.596597706 0.414056370
v 0.531250000 0.596597706 0.601556370
vt 0.437500000 0.531250000
vt 0.250000000 0.531250000
vt 0.250000000 0.593750000
vt 0.437500000 0.593750000
f 52/52 51/51 50/50 49/49
v 0.468750000 0.659097706 0.414056370
v 0.468750000 0.659097706 0.601556370
v 0.468750000 0.596597706 0.601556370
v 0.468750000 0.596597706 0.414056370
vt 0.187500000 0.531250000
vt 0.000000000 0.531250000
vt 0.000000000 0.593750000
vt 0.187500000 0.593750000
f 56/56 55/55 54/54 53/53
v 0.531250000 0.659097706 0.601556370
v 0.468750000 0.659097706 0.601556370
v 0.468750000 0.659097706 0.414056370
v 0.531250000 0.659097706 0.414056370
vt 0.250000000 0.343750000
vt 0.187500000 0.343750000
vt 0.187500000 0.531250000
vt 0.250000000 0.531250000
f 60/60 59/59 58/58 57/57
v 0.531250000 0.596597706 0.414056370
v 0.468750000 0.596597706 0.414056370
v 0.468750000 0.596597706 0.601556370
v 0.531250000 0.596597706 0.601556370
vt 0.312500000 0.531250000
vt 0.250000000 0.531250000
vt 0.250000000 0.343750000
vt 0.312500000 0.343750000
f 64/64 63/63 62/62 61/61
v 0.531250000 0.659097706 0.414056370
v 0.468750000 0.659097706 0.414056370
v 0.468750000 0.596597706 0.414056370
v 0.531250000 0.596597706 0.414056370
vt 0.250000000 0.531250000
vt 0.187500000 0.531250000
vt 0.187500000 0.593750000
vt 0.250000000 0.593750000
f 68/68 67/67 66/66 65/65
v 0.468750000 0.659097706 0.601556370
v 0.531250000 0.659097706 0.601556370
v 0.531250000 0.596597706 0.601556370
v 0.468750000 0.596597706 0.601556370
vt 0.500000000 0.531250000
vt 0.437500000 0.531250000
vt 0.437500000 0.593750000
vt 0.500000000 0.593750000
f 72/72 71/71 70/70 69/69
o Magazine04
usemtl gun
v 0.498659586 0.681194794 0.585931370
v 0.498659586 0.681194794 0.429681370
v 0.520756674 0.659097707 0.429681370
v 0.520756674 0.659097707 0.585931370
vt 0.343750000 0.843750000
vt 0.187500000 0.843750000
vt 0.187500000 0.875000000
vt 0.343750000 0.875000000
f 76/76 75/75 74/74 73/73
v 0.476562500 0.659097706 0.429681370
v 0.476562500 0.659097706 0.585931370
v 0.498659588 0.637000620 0.585931370
v 0.498659588 0.637000620 0.429681370
vt 0.156250000 0.843750000
vt 0.000000000 0.843750000
vt 0.000000000 0.875000000
vt 0.156250000 0.875000000
f 80/80 79/79 78/78 77/77
v 0.498659586 0.681194794 0.585931370
v 0.476562500 0.659097706 0.585931370
v 0.476562500 0.659097706 0.429681370
v 0.498659586 0.681194794 0.429681370
vt 0.187500000 0.687500000
vt 0.156250000 0.687500000
vt 0.156250000 0.843750000
vt 0.187500000 0.843750000
f 84/84 83/83 82/82 81/81
v 0.520756674 0.659097707 0.429681370
v 0.498659588 0.637000620 0.429681370
v 0.498659588 0.637000620 0.585931370
v 0.520756674 0.659097707 0.585931370
vt 0.218750000 0.843750000
vt 0.187500000 0.843750000
vt 0.187500000 0.687500000
vt 0.218750000 0.687500000
f 88/88 87/87 86/86 85/85
v 0.498659586 0.681194794 0.429681370
v 0.476562500 0.659097706 0.429681370
v 0.498659588 0.637000620 0.429681370
v 0.520756674 0.659097707 0.429681370
vt 0.187500000 0.843750000
vt 0.156250000 0.843750000
vt 0.156250000 0.875000000
vt 0.187500000 0.875000000
f 92/92 91/91 90/90 89/89
v 0.476562500 0.659097706 0.585931370
v 0.498659586 0.681194794 0.585931370
v 0.520756674 0.659097707 0.585931370
v 0.498659588 0.637000620 0.585931370
vt 0.375000000 0.843750000
vt 0.343750000 0.843750000
vt 0.343750000 0.875000000
vt 0.375000000 0.875000000
f 96/96 95/95 94/94 93/93
