# Original Techguns ModelChainsaw; Techguns Mod License
mtllib chainsaw_carbon.mtl
o shape87_17
usemtl gun
v 0.328125000 0.226562500 0.656250000
v 0.328125000 0.226562500 0.312500000
v 0.328125000 0.195312500 0.312500000
v 0.328125000 0.195312500 0.656250000
vt 0.882812500 0.781250000
vt 0.796875000 0.781250000
vt 0.796875000 0.796875000
vt 0.882812500 0.796875000
f 4/4 3/3 2/2 1/1
v 0.234375000 0.226562500 0.312500000
v 0.234375000 0.226562500 0.656250000
v 0.234375000 0.195312500 0.656250000
v 0.234375000 0.195312500 0.312500000
vt 0.773437500 0.781250000
vt 0.687500000 0.781250000
vt 0.687500000 0.796875000
vt 0.773437500 0.796875000
f 8/8 7/7 6/6 5/5
v 0.328125000 0.226562500 0.656250000
v 0.234375000 0.226562500 0.656250000
v 0.234375000 0.226562500 0.312500000
v 0.328125000 0.226562500 0.312500000
vt 0.796875000 0.609375000
vt 0.773437500 0.609375000
vt 0.773437500 0.781250000
vt 0.796875000 0.781250000
f 12/12 11/11 10/10 9/9
v 0.328125000 0.195312500 0.312500000
v 0.234375000 0.195312500 0.312500000
v 0.234375000 0.195312500 0.656250000
v 0.328125000 0.195312500 0.656250000
vt 0.820312500 0.781250000
vt 0.796875000 0.781250000
vt 0.796875000 0.609375000
vt 0.820312500 0.609375000
f 16/16 15/15 14/14 13/13
v 0.328125000 0.226562500 0.312500000
v 0.234375000 0.226562500 0.312500000
v 0.234375000 0.195312500 0.312500000
v 0.328125000 0.195312500 0.312500000
vt 0.796875000 0.781250000
vt 0.773437500 0.781250000
vt 0.773437500 0.796875000
vt 0.796875000 0.796875000
f 20/20 19/19 18/18 17/17
v 0.234375000 0.226562500 0.656250000
v 0.328125000 0.226562500 0.656250000
v 0.328125000 0.195312500 0.656250000
v 0.234375000 0.195312500 0.656250000
vt 0.906250000 0.781250000
vt 0.882812500 0.781250000
vt 0.882812500 0.796875000
vt 0.906250000 0.796875000
f 24/24 23/23 22/22 21/21
o Shape26_1
usemtl gun
v -0.156250000 0.460937500 0.468750000
v -0.156250000 0.460937500 0.406250000
v -0.156250000 0.304687500 0.406250000
v -0.156250000 0.304687500 0.468750000
vt 0.804687500 0.281250000
vt 0.789062500 0.281250000
vt 0.789062500 0.359375000
vt 0.804687500 0.359375000
f 28/28 27/27 26/26 25/25
v -0.187500000 0.460937500 0.406250000
v -0.187500000 0.460937500 0.468750000
v -0.187500000 0.304687500 0.468750000
v -0.187500000 0.304687500 0.406250000
vt 0.781250000 0.281250000
vt 0.765625000 0.281250000
vt 0.765625000 0.359375000
vt 0.781250000 0.359375000
f 32/32 31/31 30/30 29/29
v -0.156250000 0.460937500 0.468750000
v -0.187500000 0.460937500 0.468750000
v -0.187500000 0.460937500 0.406250000
v -0.156250000 0.460937500 0.406250000
vt 0.789062500 0.250000000
vt 0.781250000 0.250000000
vt 0.781250000 0.281250000
vt 0.789062500 0.281250000
f 36/36 35/35 34/34 33/33
v -0.156250000 0.304687500 0.406250000
v -0.187500000 0.304687500 0.406250000
v -0.187500000 0.304687500 0.468750000
v -0.156250000 0.304687500 0.468750000
vt 0.796875000 0.281250000
vt 0.789062500 0.281250000
vt 0.789062500 0.250000000
vt 0.796875000 0.250000000
f 40/40 39/39 38/38 37/37
v -0.156250000 0.460937500 0.406250000
v -0.187500000 0.460937500 0.406250000
v -0.187500000 0.304687500 0.406250000
v -0.156250000 0.304687500 0.406250000
vt 0.789062500 0.281250000
vt 0.781250000 0.281250000
vt 0.781250000 0.359375000
vt 0.789062500 0.359375000
f 44/44 43/43 42/42 41/41
v -0.187500000 0.460937500 0.468750000
v -0.156250000 0.460937500 0.468750000
v -0.156250000 0.304687500 0.468750000
v -0.187500000 0.304687500 0.468750000
vt 0.812500000 0.281250000
vt 0.804687500 0.281250000
vt 0.804687500 0.359375000
vt 0.812500000 0.359375000
f 48/48 47/47 46/46 45/45
o Shape26_9
usemtl gun
v -0.218750000 0.273437500 0.468750000
v -0.218750000 0.273437500 0.406250000
v -0.218750000 0.210937500 0.406250000
v -0.218750000 0.210937500 0.468750000
vt 0.789062500 0.046875000
vt 0.773437500 0.046875000
vt 0.773437500 0.078125000
vt 0.789062500 0.078125000
f 52/52 51/51 50/50 49/49
v -0.500000000 0.273437500 0.406250000
v -0.500000000 0.273437500 0.468750000
v -0.500000000 0.210937500 0.468750000
v -0.500000000 0.210937500 0.406250000
vt 0.703125000 0.046875000
vt 0.687500000 0.046875000
vt 0.687500000 0.078125000
vt 0.703125000 0.078125000
f 56/56 55/55 54/54 53/53
v -0.218750000 0.273437500 0.468750000
v -0.500000000 0.273437500 0.468750000
v -0.500000000 0.273437500 0.406250000
v -0.218750000 0.273437500 0.406250000
vt 0.773437500 0.015625000
vt 0.703125000 0.015625000
vt 0.703125000 0.046875000
vt 0.773437500 0.046875000
f 60/60 59/59 58/58 57/57
v -0.218750000 0.210937500 0.406250000
v -0.500000000 0.210937500 0.406250000
v -0.500000000 0.210937500 0.468750000
v -0.218750000 0.210937500 0.468750000
vt 0.843750000 0.046875000
vt 0.773437500 0.046875000
vt 0.773437500 0.015625000
vt 0.843750000 0.015625000
f 64/64 63/63 62/62 61/61
v -0.218750000 0.273437500 0.406250000
v -0.500000000 0.273437500 0.406250000
v -0.500000000 0.210937500 0.406250000
v -0.218750000 0.210937500 0.406250000
vt 0.773437500 0.046875000
vt 0.703125000 0.046875000
vt 0.703125000 0.078125000
vt 0.773437500 0.078125000
f 68/68 67/67 66/66 65/65
v -0.500000000 0.273437500 0.468750000
v -0.218750000 0.273437500 0.468750000
v -0.218750000 0.210937500 0.468750000
v -0.500000000 0.210937500 0.468750000
vt 0.859375000 0.046875000
vt 0.789062500 0.046875000
vt 0.789062500 0.078125000
vt 0.859375000 0.078125000
f 72/72 71/71 70/70 69/69
o shape87_10
usemtl gun
v -0.015625000 0.351562500 0.593750000
v -0.015625000 0.351562500 0.562500000
v -0.015625000 0.226562500 0.562500000
v -0.015625000 0.226562500 0.593750000
vt 0.523437500 0.234375000
vt 0.515625000 0.234375000
vt 0.515625000 0.296875000
vt 0.523437500 0.296875000
f 76/76 75/75 74/74 73/73
v -0.140625000 0.351562500 0.562500000
v -0.140625000 0.351562500 0.593750000
v -0.140625000 0.226562500 0.593750000
v -0.140625000 0.226562500 0.562500000
vt 0.484375000 0.234375000
vt 0.476562500 0.234375000
vt 0.476562500 0.296875000
vt 0.484375000 0.296875000
f 80/80 79/79 78/78 77/77
v -0.015625000 0.351562500 0.593750000
v -0.140625000 0.351562500 0.593750000
v -0.140625000 0.351562500 0.562500000
v -0.015625000 0.351562500 0.562500000
vt 0.515625000 0.218750000
vt 0.484375000 0.218750000
vt 0.484375000 0.234375000
vt 0.515625000 0.234375000
f 84/84 83/83 82/82 81/81
v -0.015625000 0.226562500 0.562500000
v -0.140625000 0.226562500 0.562500000
v -0.140625000 0.226562500 0.593750000
v -0.015625000 0.226562500 0.593750000
vt 0.546875000 0.234375000
vt 0.515625000 0.234375000
vt 0.515625000 0.218750000
vt 0.546875000 0.218750000
f 88/88 87/87 86/86 85/85
v -0.015625000 0.351562500 0.562500000
v -0.140625000 0.351562500 0.562500000
v -0.140625000 0.226562500 0.562500000
v -0.015625000 0.226562500 0.562500000
vt 0.515625000 0.234375000
vt 0.484375000 0.234375000
vt 0.484375000 0.296875000
vt 0.515625000 0.296875000
f 92/92 91/91 90/90 89/89
v -0.140625000 0.351562500 0.593750000
v -0.015625000 0.351562500 0.593750000
v -0.015625000 0.226562500 0.593750000
v -0.140625000 0.226562500 0.593750000
vt 0.554687500 0.234375000
vt 0.523437500 0.234375000
vt 0.523437500 0.296875000
vt 0.554687500 0.296875000
f 96/96 95/95 94/94 93/93
o shape87_23
usemtl gun
v -0.046875000 0.492187500 0.312500000
v -0.046875000 0.492187500 0.250000000
v -0.046875000 0.398437500 0.250000000
v -0.046875000 0.398437500 0.312500000
vt 0.984375000 0.546875000
vt 0.968750000 0.546875000
vt 0.968750000 0.593750000
vt 0.984375000 0.593750000
f 100/100 99/99 98/98 97/97
v -0.109375000 0.492187500 0.250000000
v -0.109375000 0.492187500 0.312500000
v -0.109375000 0.398437500 0.312500000
v -0.109375000 0.398437500 0.250000000
vt 0.953125000 0.546875000
vt 0.937500000 0.546875000
vt 0.937500000 0.593750000
vt 0.953125000 0.593750000
f 104/104 103/103 102/102 101/101
v -0.046875000 0.492187500 0.312500000
v -0.109375000 0.492187500 0.312500000
v -0.109375000 0.492187500 0.250000000
v -0.046875000 0.492187500 0.250000000
vt 0.968750000 0.515625000
vt 0.953125000 0.515625000
vt 0.953125000 0.546875000
vt 0.968750000 0.546875000
f 108/108 107/107 106/106 105/105
v -0.046875000 0.398437500 0.250000000
v -0.109375000 0.398437500 0.250000000
v -0.109375000 0.398437500 0.312500000
v -0.046875000 0.398437500 0.312500000
vt 0.984375000 0.546875000
vt 0.968750000 0.546875000
vt 0.968750000 0.515625000
vt 0.984375000 0.515625000
f 112/112 111/111 110/110 109/109
v -0.046875000 0.492187500 0.250000000
v -0.109375000 0.492187500 0.250000000
v -0.109375000 0.398437500 0.250000000
v -0.046875000 0.398437500 0.250000000
vt 0.968750000 0.546875000
vt 0.953125000 0.546875000
vt 0.953125000 0.593750000
vt 0.968750000 0.593750000
f 116/116 115/115 114/114 113/113
v -0.109375000 0.492187500 0.312500000
v -0.046875000 0.492187500 0.312500000
v -0.046875000 0.398437500 0.312500000
v -0.109375000 0.398437500 0.312500000
vt 1.000000000 0.546875000
vt 0.984375000 0.546875000
vt 0.984375000 0.593750000
vt 1.000000000 0.593750000
f 120/120 119/119 118/118 117/117
o shape87_3
usemtl gun
v 0.406250000 0.585937500 0.531250000
v 0.406250000 0.585937500 0.343750000
v 0.406250000 0.492187500 0.343750000
v 0.406250000 0.492187500 0.531250000
vt 0.492187500 0.625000000
vt 0.445312500 0.625000000
vt 0.445312500 0.671875000
vt 0.492187500 0.671875000
f 124/124 123/123 122/122 121/121
v 0.312500000 0.585937500 0.343750000
v 0.312500000 0.585937500 0.531250000
v 0.312500000 0.492187500 0.531250000
v 0.312500000 0.492187500 0.343750000
vt 0.421875000 0.625000000
vt 0.375000000 0.625000000
vt 0.375000000 0.671875000
vt 0.421875000 0.671875000
f 128/128 127/127 126/126 125/125
v 0.406250000 0.585937500 0.531250000
v 0.312500000 0.585937500 0.531250000
v 0.312500000 0.585937500 0.343750000
v 0.406250000 0.585937500 0.343750000
vt 0.445312500 0.531250000
vt 0.421875000 0.531250000
vt 0.421875000 0.625000000
vt 0.445312500 0.625000000
f 132/132 131/131 130/130 129/129
v 0.406250000 0.492187500 0.343750000
v 0.312500000 0.492187500 0.343750000
v 0.312500000 0.492187500 0.531250000
v 0.406250000 0.492187500 0.531250000
vt 0.468750000 0.625000000
vt 0.445312500 0.625000000
vt 0.445312500 0.531250000
vt 0.468750000 0.531250000
f 136/136 135/135 134/134 133/133
v 0.406250000 0.585937500 0.343750000
v 0.312500000 0.585937500 0.343750000
v 0.312500000 0.492187500 0.343750000
v 0.406250000 0.492187500 0.343750000
vt 0.445312500 0.625000000
vt 0.421875000 0.625000000
vt 0.421875000 0.671875000
vt 0.445312500 0.671875000
f 140/140 139/139 138/138 137/137
v 0.312500000 0.585937500 0.531250000
v 0.406250000 0.585937500 0.531250000
v 0.406250000 0.492187500 0.531250000
v 0.312500000 0.492187500 0.531250000
vt 0.515625000 0.625000000
vt 0.492187500 0.625000000
vt 0.492187500 0.671875000
vt 0.515625000 0.671875000
f 144/144 143/143 142/142 141/141
o shape87_9
usemtl gun
v -0.031250000 0.460937500 0.593750000
v -0.031250000 0.460937500 0.562500000
v -0.031250000 0.367187500 0.562500000
v -0.031250000 0.367187500 0.593750000
vt 0.296875000 0.171875000
vt 0.289062500 0.171875000
vt 0.289062500 0.218750000
vt 0.296875000 0.218750000
f 148/148 147/147 146/146 145/145
v -0.125000000 0.460937500 0.562500000
v -0.125000000 0.460937500 0.593750000
v -0.125000000 0.367187500 0.593750000
v -0.125000000 0.367187500 0.562500000
vt 0.265625000 0.171875000
vt 0.257812500 0.171875000
vt 0.257812500 0.218750000
vt 0.265625000 0.218750000
f 152/152 151/151 150/150 149/149
v -0.031250000 0.460937500 0.593750000
v -0.125000000 0.460937500 0.593750000
v -0.125000000 0.460937500 0.562500000
v -0.031250000 0.460937500 0.562500000
vt 0.289062500 0.156250000
vt 0.265625000 0.156250000
vt 0.265625000 0.171875000
vt 0.289062500 0.171875000
f 156/156 155/155 154/154 153/153
v -0.031250000 0.367187500 0.562500000
v -0.125000000 0.367187500 0.562500000
v -0.125000000 0.367187500 0.593750000
v -0.031250000 0.367187500 0.593750000
vt 0.312500000 0.171875000
vt 0.289062500 0.171875000
vt 0.289062500 0.156250000
vt 0.312500000 0.156250000
f 160/160 159/159 158/158 157/157
v -0.031250000 0.460937500 0.562500000
v -0.125000000 0.460937500 0.562500000
v -0.125000000 0.367187500 0.562500000
v -0.031250000 0.367187500 0.562500000
vt 0.289062500 0.171875000
vt 0.265625000 0.171875000
vt 0.265625000 0.218750000
vt 0.289062500 0.218750000
f 164/164 163/163 162/162 161/161
v -0.125000000 0.460937500 0.593750000
v -0.031250000 0.460937500 0.593750000
v -0.031250000 0.367187500 0.593750000
v -0.125000000 0.367187500 0.593750000
vt 0.320312500 0.171875000
vt 0.296875000 0.171875000
vt 0.296875000 0.218750000
vt 0.320312500 0.218750000
f 168/168 167/167 166/166 165/165
o Shape26
usemtl gun
v -0.156250000 0.523437500 0.468750000
v -0.156250000 0.523437500 0.406250000
v -0.156250000 0.460937500 0.406250000
v -0.156250000 0.460937500 0.468750000
vt 0.742187500 0.328125000
vt 0.726562500 0.328125000
vt 0.726562500 0.359375000
vt 0.742187500 0.359375000
f 172/172 171/171 170/170 169/169
v -0.250000000 0.523437500 0.406250000
v -0.250000000 0.523437500 0.468750000
v -0.250000000 0.460937500 0.468750000
v -0.250000000 0.460937500 0.406250000
vt 0.703125000 0.328125000
vt 0.687500000 0.328125000
vt 0.687500000 0.359375000
vt 0.703125000 0.359375000
f 176/176 175/175 174/174 173/173
v -0.156250000 0.523437500 0.468750000
v -0.250000000 0.523437500 0.468750000
v -0.250000000 0.523437500 0.406250000
v -0.156250000 0.523437500 0.406250000
vt 0.726562500 0.296875000
vt 0.703125000 0.296875000
vt 0.703125000 0.328125000
vt 0.726562500 0.328125000
f 180/180 179/179 178/178 177/177
v -0.156250000 0.460937500 0.406250000
v -0.250000000 0.460937500 0.406250000
v -0.250000000 0.460937500 0.468750000
v -0.156250000 0.460937500 0.468750000
vt 0.750000000 0.328125000
vt 0.726562500 0.328125000
vt 0.726562500 0.296875000
vt 0.750000000 0.296875000
f 184/184 183/183 182/182 181/181
v -0.156250000 0.523437500 0.406250000
v -0.250000000 0.523437500 0.406250000
v -0.250000000 0.460937500 0.406250000
v -0.156250000 0.460937500 0.406250000
vt 0.726562500 0.328125000
vt 0.703125000 0.328125000
vt 0.703125000 0.359375000
vt 0.726562500 0.359375000
f 188/188 187/187 186/186 185/185
v -0.250000000 0.523437500 0.468750000
v -0.156250000 0.523437500 0.468750000
v -0.156250000 0.460937500 0.468750000
v -0.250000000 0.460937500 0.468750000
vt 0.765625000 0.328125000
vt 0.742187500 0.328125000
vt 0.742187500 0.359375000
vt 0.765625000 0.359375000
f 192/192 191/191 190/190 189/189
o shape87_2
usemtl gun
v 0.437500000 0.460937500 0.562500000
v 0.437500000 0.460937500 0.343750000
v 0.437500000 0.242187500 0.343750000
v 0.437500000 0.242187500 0.562500000
vt 0.632812500 0.593750000
vt 0.578125000 0.593750000
vt 0.578125000 0.703125000
vt 0.632812500 0.703125000
f 196/196 195/195 194/194 193/193
v 0.406250000 0.460937500 0.343750000
v 0.406250000 0.460937500 0.562500000
v 0.406250000 0.242187500 0.562500000
v 0.406250000 0.242187500 0.343750000
vt 0.570312500 0.593750000
vt 0.515625000 0.593750000
vt 0.515625000 0.703125000
vt 0.570312500 0.703125000
f 200/200 199/199 198/198 197/197
v 0.437500000 0.460937500 0.562500000
v 0.406250000 0.460937500 0.562500000
v 0.406250000 0.460937500 0.343750000
v 0.437500000 0.460937500 0.343750000
vt 0.578125000 0.484375000
vt 0.570312500 0.484375000
vt 0.570312500 0.593750000
vt 0.578125000 0.593750000
f 204/204 203/203 202/202 201/201
v 0.437500000 0.242187500 0.343750000
v 0.406250000 0.242187500 0.343750000
v 0.406250000 0.242187500 0.562500000
v 0.437500000 0.242187500 0.562500000
vt 0.585937500 0.593750000
vt 0.578125000 0.593750000
vt 0.578125000 0.484375000
vt 0.585937500 0.484375000
f 208/208 207/207 206/206 205/205
v 0.437500000 0.460937500 0.343750000
v 0.406250000 0.460937500 0.343750000
v 0.406250000 0.242187500 0.343750000
v 0.437500000 0.242187500 0.343750000
vt 0.578125000 0.593750000
vt 0.570312500 0.593750000
vt 0.570312500 0.703125000
vt 0.578125000 0.703125000
f 212/212 211/211 210/210 209/209
v 0.406250000 0.460937500 0.562500000
v 0.437500000 0.460937500 0.562500000
v 0.437500000 0.242187500 0.562500000
v 0.406250000 0.242187500 0.562500000
vt 0.640625000 0.593750000
vt 0.632812500 0.593750000
vt 0.632812500 0.703125000
vt 0.640625000 0.703125000
f 216/216 215/215 214/214 213/213
o shape87_33
usemtl gun
v 1.531250000 0.429687500 0.328125000
v 1.531250000 0.429687500 0.296875000
v 1.531250000 0.273437500 0.296875000
v 1.531250000 0.273437500 0.328125000
vt 0.023437500 0.031250000
vt 0.015625000 0.031250000
vt 0.015625000 0.109375000
vt 0.023437500 0.109375000
f 220/220 219/219 218/218 217/217
v 1.500000000 0.429687500 0.296875000
v 1.500000000 0.429687500 0.328125000
v 1.500000000 0.273437500 0.328125000
v 1.500000000 0.273437500 0.296875000
vt 0.007812500 0.031250000
vt 0.000000000 0.031250000
vt 0.000000000 0.109375000
vt 0.007812500 0.109375000
f 224/224 223/223 222/222 221/221
v 1.531250000 0.429687500 0.328125000
v 1.500000000 0.429687500 0.328125000
v 1.500000000 0.429687500 0.296875000
v 1.531250000 0.429687500 0.296875000
vt 0.015625000 0.015625000
vt 0.007812500 0.015625000
vt 0.007812500 0.031250000
vt 0.015625000 0.031250000
f 228/228 227/227 226/226 225/225
v 1.531250000 0.273437500 0.296875000
v 1.500000000 0.273437500 0.296875000
v 1.500000000 0.273437500 0.328125000
v 1.531250000 0.273437500 0.328125000
vt 0.023437500 0.031250000
vt 0.015625000 0.031250000
vt 0.015625000 0.015625000
vt 0.023437500 0.015625000
f 232/232 231/231 230/230 229/229
v 1.531250000 0.429687500 0.296875000
v 1.500000000 0.429687500 0.296875000
v 1.500000000 0.273437500 0.296875000
v 1.531250000 0.273437500 0.296875000
vt 0.015625000 0.031250000
vt 0.007812500 0.031250000
vt 0.007812500 0.109375000
vt 0.015625000 0.109375000
f 236/236 235/235 234/234 233/233
v 1.500000000 0.429687500 0.328125000
v 1.531250000 0.429687500 0.328125000
v 1.531250000 0.273437500 0.328125000
v 1.500000000 0.273437500 0.328125000
vt 0.031250000 0.031250000
vt 0.023437500 0.031250000
vt 0.023437500 0.109375000
vt 0.031250000 0.109375000
f 240/240 239/239 238/238 237/237
o shape87_25
usemtl gun
v 0.484375000 0.648437500 0.343750000
v 0.484375000 0.648437500 0.312500000
v 0.359546604 0.508529953 0.312500000
v 0.359546604 0.508529953 0.343750000
vt 0.742187500 0.656250000
vt 0.734375000 0.656250000
vt 0.734375000 0.750000000
vt 0.742187500 0.750000000
f 244/244 243/243 242/242 241/241
v 0.461057076 0.669242233 0.312500000
v 0.461057076 0.669242233 0.343750000
v 0.336228680 0.529334686 0.343750000
v 0.336228680 0.529334686 0.312500000
vt 0.726562500 0.656250000
vt 0.718750000 0.656250000
vt 0.718750000 0.750000000
vt 0.726562500 0.750000000
f 248/248 247/247 246/246 245/245
v 0.484375000 0.648437500 0.343750000
v 0.461057076 0.669242233 0.343750000
v 0.461057076 0.669242233 0.312500000
v 0.484375000 0.648437500 0.312500000
vt 0.734375000 0.640625000
vt 0.726562500 0.640625000
vt 0.726562500 0.656250000
vt 0.734375000 0.656250000
f 252/252 251/251 250/250 249/249
v 0.359546604 0.508529953 0.312500000
v 0.336228680 0.529334686 0.312500000
v 0.336228680 0.529334686 0.343750000
v 0.359546604 0.508529953 0.343750000
vt 0.742187500 0.656250000
vt 0.734375000 0.656250000
vt 0.734375000 0.640625000
vt 0.742187500 0.640625000
f 256/256 255/255 254/254 253/253
v 0.484375000 0.648437500 0.312500000
v 0.461057076 0.669242233 0.312500000
v 0.336228680 0.529334686 0.312500000
v 0.359546604 0.508529953 0.312500000
vt 0.734375000 0.656250000
vt 0.726562500 0.656250000
vt 0.726562500 0.750000000
vt 0.734375000 0.750000000
f 260/260 259/259 258/258 257/257
v 0.461057076 0.669242233 0.343750000
v 0.484375000 0.648437500 0.343750000
v 0.359546604 0.508529953 0.343750000
v 0.336228680 0.529334686 0.343750000
vt 0.750000000 0.656250000
vt 0.742187500 0.656250000
vt 0.742187500 0.750000000
vt 0.750000000 0.750000000
f 264/264 263/263 262/262 261/261
o blade1
usemtl blade
v 1.593750000 0.476562500 0.312500000
v 0.468750000 0.476562500 0.312500000
v 0.468750000 0.226562500 0.312500000
v 1.593750000 0.226562500 0.312500000
vt 0.281250000 0.875000000
vt 0.000000000 0.875000000
vt 0.000000000 1.000000000
vt 0.281250000 1.000000000
f 268/268 267/267 266/266 265/265
v 0.468750000 0.476562500 0.312500000
v 1.593750000 0.476562500 0.312500000
v 1.593750000 0.226562500 0.312500000
v 0.468750000 0.226562500 0.312500000
vt 0.562500000 0.875000000
vt 0.281250000 0.875000000
vt 0.281250000 1.000000000
vt 0.562500000 1.000000000
f 272/272 271/271 270/270 269/269
o Shape26_4
usemtl gun
v -0.500000000 0.304687500 0.468750000
v -0.500000000 0.304687500 0.406250000
v -0.500000000 0.242187500 0.406250000
v -0.500000000 0.242187500 0.468750000
vt 0.734375000 0.218750000
vt 0.718750000 0.218750000
vt 0.718750000 0.250000000
vt 0.734375000 0.250000000
f 276/276 275/275 274/274 273/273
v -0.562500000 0.304687500 0.406250000
v -0.562500000 0.304687500 0.468750000
v -0.562500000 0.242187500 0.468750000
v -0.562500000 0.242187500 0.406250000
vt 0.703125000 0.218750000
vt 0.687500000 0.218750000
vt 0.687500000 0.250000000
vt 0.703125000 0.250000000
f 280/280 279/279 278/278 277/277
v -0.500000000 0.304687500 0.468750000
v -0.562500000 0.304687500 0.468750000
v -0.562500000 0.304687500 0.406250000
v -0.500000000 0.304687500 0.406250000
vt 0.718750000 0.187500000
vt 0.703125000 0.187500000
vt 0.703125000 0.218750000
vt 0.718750000 0.218750000
f 284/284 283/283 282/282 281/281
v -0.500000000 0.242187500 0.406250000
v -0.562500000 0.242187500 0.406250000
v -0.562500000 0.242187500 0.468750000
v -0.500000000 0.242187500 0.468750000
vt 0.734375000 0.218750000
vt 0.718750000 0.218750000
vt 0.718750000 0.187500000
vt 0.734375000 0.187500000
f 288/288 287/287 286/286 285/285
v -0.500000000 0.304687500 0.406250000
v -0.562500000 0.304687500 0.406250000
v -0.562500000 0.242187500 0.406250000
v -0.500000000 0.242187500 0.406250000
vt 0.718750000 0.218750000
vt 0.703125000 0.218750000
vt 0.703125000 0.250000000
vt 0.718750000 0.250000000
f 292/292 291/291 290/290 289/289
v -0.562500000 0.304687500 0.468750000
v -0.500000000 0.304687500 0.468750000
v -0.500000000 0.242187500 0.468750000
v -0.562500000 0.242187500 0.468750000
vt 0.750000000 0.218750000
vt 0.734375000 0.218750000
vt 0.734375000 0.250000000
vt 0.750000000 0.250000000
f 296/296 295/295 294/294 293/293
o shape87_27
usemtl gun
v 0.484375000 0.804687500 0.562500000
v 0.484375000 0.804687500 0.531250000
v 0.484375000 0.648437500 0.531250000
v 0.484375000 0.648437500 0.562500000
vt 0.695312500 0.671875000
vt 0.687500000 0.671875000
vt 0.687500000 0.750000000
vt 0.695312500 0.750000000
f 300/300 299/299 298/298 297/297
v 0.453125000 0.804687500 0.531250000
v 0.453125000 0.804687500 0.562500000
v 0.453125000 0.648437500 0.562500000
v 0.453125000 0.648437500 0.531250000
vt 0.679687500 0.671875000
vt 0.671875000 0.671875000
vt 0.671875000 0.750000000
vt 0.679687500 0.750000000
f 304/304 303/303 302/302 301/301
v 0.484375000 0.804687500 0.562500000
v 0.453125000 0.804687500 0.562500000
v 0.453125000 0.804687500 0.531250000
v 0.484375000 0.804687500 0.531250000
vt 0.687500000 0.656250000
vt 0.679687500 0.656250000
vt 0.679687500 0.671875000
vt 0.687500000 0.671875000
f 308/308 307/307 306/306 305/305
v 0.484375000 0.648437500 0.531250000
v 0.453125000 0.648437500 0.531250000
v 0.453125000 0.648437500 0.562500000
v 0.484375000 0.648437500 0.562500000
vt 0.695312500 0.671875000
vt 0.687500000 0.671875000
vt 0.687500000 0.656250000
vt 0.695312500 0.656250000
f 312/312 311/311 310/310 309/309
v 0.484375000 0.804687500 0.531250000
v 0.453125000 0.804687500 0.531250000
v 0.453125000 0.648437500 0.531250000
v 0.484375000 0.648437500 0.531250000
vt 0.687500000 0.671875000
vt 0.679687500 0.671875000
vt 0.679687500 0.750000000
vt 0.687500000 0.750000000
f 316/316 315/315 314/314 313/313
v 0.453125000 0.804687500 0.562500000
v 0.484375000 0.804687500 0.562500000
v 0.484375000 0.648437500 0.562500000
v 0.453125000 0.648437500 0.562500000
vt 0.703125000 0.671875000
vt 0.695312500 0.671875000
vt 0.695312500 0.750000000
vt 0.703125000 0.750000000
f 320/320 319/319 318/318 317/317
o Shape26_7
usemtl gun
v -0.500000000 0.460937500 0.468750000
v -0.500000000 0.460937500 0.406250000
v -0.500000000 0.398437500 0.406250000
v -0.500000000 0.398437500 0.468750000
vt 0.781250000 0.140625000
vt 0.765625000 0.140625000
vt 0.765625000 0.171875000
vt 0.781250000 0.171875000
f 324/324 323/323 322/322 321/321
v -0.562500000 0.460937500 0.406250000
v -0.562500000 0.460937500 0.468750000
v -0.562500000 0.398437500 0.468750000
v -0.562500000 0.398437500 0.406250000
vt 0.750000000 0.140625000
vt 0.734375000 0.140625000
vt 0.734375000 0.171875000
vt 0.750000000 0.171875000
f 328/328 327/327 326/326 325/325
v -0.500000000 0.460937500 0.468750000
v -0.562500000 0.460937500 0.468750000
v -0.562500000 0.460937500 0.406250000
v -0.500000000 0.460937500 0.406250000
vt 0.765625000 0.109375000
vt 0.750000000 0.109375000
vt 0.750000000 0.140625000
vt 0.765625000 0.140625000
f 332/332 331/331 330/330 329/329
v -0.500000000 0.398437500 0.406250000
v -0.562500000 0.398437500 0.406250000
v -0.562500000 0.398437500 0.468750000
v -0.500000000 0.398437500 0.468750000
vt 0.781250000 0.140625000
vt 0.765625000 0.140625000
vt 0.765625000 0.109375000
vt 0.781250000 0.109375000
f 336/336 335/335 334/334 333/333
v -0.500000000 0.460937500 0.406250000
v -0.562500000 0.460937500 0.406250000
v -0.562500000 0.398437500 0.406250000
v -0.500000000 0.398437500 0.406250000
vt 0.765625000 0.140625000
vt 0.750000000 0.140625000
vt 0.750000000 0.171875000
vt 0.765625000 0.171875000
f 340/340 339/339 338/338 337/337
v -0.562500000 0.460937500 0.468750000
v -0.500000000 0.460937500 0.468750000
v -0.500000000 0.398437500 0.468750000
v -0.562500000 0.398437500 0.468750000
vt 0.796875000 0.140625000
vt 0.781250000 0.140625000
vt 0.781250000 0.171875000
vt 0.796875000 0.171875000
f 344/344 343/343 342/342 341/341
o shape87_26
usemtl gun
v 0.484375000 0.648437500 0.562500000
v 0.484375000 0.648437500 0.531250000
v 0.359546604 0.508529953 0.531250000
v 0.359546604 0.508529953 0.562500000
vt 0.742187500 0.656250000
vt 0.734375000 0.656250000
vt 0.734375000 0.750000000
vt 0.742187500 0.750000000
f 348/348 347/347 346/346 345/345
v 0.461057076 0.669242233 0.531250000
v 0.461057076 0.669242233 0.562500000
v 0.336228680 0.529334686 0.562500000
v 0.336228680 0.529334686 0.531250000
vt 0.726562500 0.656250000
vt 0.718750000 0.656250000
vt 0.718750000 0.750000000
vt 0.726562500 0.750000000
f 352/352 351/351 350/350 349/349
v 0.484375000 0.648437500 0.562500000
v 0.461057076 0.669242233 0.562500000
v 0.461057076 0.669242233 0.531250000
v 0.484375000 0.648437500 0.531250000
vt 0.734375000 0.640625000
vt 0.726562500 0.640625000
vt 0.726562500 0.656250000
vt 0.734375000 0.656250000
f 356/356 355/355 354/354 353/353
v 0.359546604 0.508529953 0.531250000
v 0.336228680 0.529334686 0.531250000
v 0.336228680 0.529334686 0.562500000
v 0.359546604 0.508529953 0.562500000
vt 0.742187500 0.656250000
vt 0.734375000 0.656250000
vt 0.734375000 0.640625000
vt 0.742187500 0.640625000
f 360/360 359/359 358/358 357/357
v 0.484375000 0.648437500 0.531250000
v 0.461057076 0.669242233 0.531250000
v 0.336228680 0.529334686 0.531250000
v 0.359546604 0.508529953 0.531250000
vt 0.734375000 0.656250000
vt 0.726562500 0.656250000
vt 0.726562500 0.750000000
vt 0.734375000 0.750000000
f 364/364 363/363 362/362 361/361
v 0.461057076 0.669242233 0.562500000
v 0.484375000 0.648437500 0.562500000
v 0.359546604 0.508529953 0.562500000
v 0.336228680 0.529334686 0.562500000
vt 0.750000000 0.656250000
vt 0.742187500 0.656250000
vt 0.742187500 0.750000000
vt 0.750000000 0.750000000
f 368/368 367/367 366/366 365/365
o shape87_20
usemtl gun
v 0.140625000 0.773437500 0.312500000
v 0.140625000 0.773437500 0.250000000
v 0.187485294 0.732080967 0.250000000
v 0.187485294 0.732080967 0.312500000
vt 0.906250000 0.968750000
vt 0.890625000 0.968750000
vt 0.890625000 1.000000000
vt 0.906250000 1.000000000
f 372/372 371/371 370/370 369/369
v -0.107514199 0.492275736 0.250000000
v -0.107514199 0.492275736 0.312500000
v -0.060653905 0.450919202 0.312500000
v -0.060653905 0.450919202 0.250000000
vt 0.796875000 0.968750000
vt 0.781250000 0.968750000
vt 0.781250000 1.000000000
vt 0.796875000 1.000000000
f 376/376 375/375 374/374 373/373
v 0.140625000 0.773437500 0.312500000
v -0.107514199 0.492275736 0.312500000
v -0.107514199 0.492275736 0.250000000
v 0.140625000 0.773437500 0.250000000
vt 0.890625000 0.937500000
vt 0.796875000 0.937500000
vt 0.796875000 0.968750000
vt 0.890625000 0.968750000
f 380/380 379/379 378/378 377/377
v 0.187485294 0.732080967 0.250000000
v -0.060653905 0.450919202 0.250000000
v -0.060653905 0.450919202 0.312500000
v 0.187485294 0.732080967 0.312500000
vt 0.984375000 0.968750000
vt 0.890625000 0.968750000
vt 0.890625000 0.937500000
vt 0.984375000 0.937500000
f 384/384 383/383 382/382 381/381
v 0.140625000 0.773437500 0.250000000
v -0.107514199 0.492275736 0.250000000
v -0.060653905 0.450919202 0.250000000
v 0.187485294 0.732080967 0.250000000
vt 0.890625000 0.968750000
vt 0.796875000 0.968750000
vt 0.796875000 1.000000000
vt 0.890625000 1.000000000
f 388/388 387/387 386/386 385/385
v -0.107514199 0.492275736 0.312500000
v 0.140625000 0.773437500 0.312500000
v 0.187485294 0.732080967 0.312500000
v -0.060653905 0.450919202 0.312500000
vt 1.000000000 0.968750000
vt 0.906250000 0.968750000
vt 0.906250000 1.000000000
vt 1.000000000 1.000000000
f 392/392 391/391 390/390 389/389
o Shape26_6
usemtl gun
v -0.562500000 0.304687500 0.468750000
v -0.562500000 0.304687500 0.406250000
v -0.562500000 0.273437500 0.406250000
v -0.562500000 0.273437500 0.468750000
vt 0.789062500 0.234375000
vt 0.773437500 0.234375000
vt 0.773437500 0.250000000
vt 0.789062500 0.250000000
f 396/396 395/395 394/394 393/393
v -0.593750000 0.304687500 0.406250000
v -0.593750000 0.304687500 0.468750000
v -0.593750000 0.273437500 0.468750000
v -0.593750000 0.273437500 0.406250000
vt 0.765625000 0.234375000
vt 0.750000000 0.234375000
vt 0.750000000 0.250000000
vt 0.765625000 0.250000000
f 400/400 399/399 398/398 397/397
v -0.562500000 0.304687500 0.468750000
v -0.593750000 0.304687500 0.468750000
v -0.593750000 0.304687500 0.406250000
v -0.562500000 0.304687500 0.406250000
vt 0.773437500 0.203125000
vt 0.765625000 0.203125000
vt 0.765625000 0.234375000
vt 0.773437500 0.234375000
f 404/404 403/403 402/402 401/401
v -0.562500000 0.273437500 0.406250000
v -0.593750000 0.273437500 0.406250000
v -0.593750000 0.273437500 0.468750000
v -0.562500000 0.273437500 0.468750000
vt 0.781250000 0.234375000
vt 0.773437500 0.234375000
vt 0.773437500 0.203125000
vt 0.781250000 0.203125000
f 408/408 407/407 406/406 405/405
v -0.562500000 0.304687500 0.406250000
v -0.593750000 0.304687500 0.406250000
v -0.593750000 0.273437500 0.406250000
v -0.562500000 0.273437500 0.406250000
vt 0.773437500 0.234375000
vt 0.765625000 0.234375000
vt 0.765625000 0.250000000
vt 0.773437500 0.250000000
f 412/412 411/411 410/410 409/409
v -0.593750000 0.304687500 0.468750000
v -0.562500000 0.304687500 0.468750000
v -0.562500000 0.273437500 0.468750000
v -0.593750000 0.273437500 0.468750000
vt 0.796875000 0.234375000
vt 0.789062500 0.234375000
vt 0.789062500 0.250000000
vt 0.796875000 0.250000000
f 416/416 415/415 414/414 413/413
o shape87
usemtl gun
v 0.312500000 0.273437500 0.718750000
v 0.312500000 0.273437500 0.656250000
v 0.312500000 0.210937500 0.656250000
v 0.312500000 0.210937500 0.718750000
vt 0.718750000 0.609375000
vt 0.703125000 0.609375000
vt 0.703125000 0.640625000
vt 0.718750000 0.640625000
f 420/420 419/419 418/418 417/417
v 0.250000000 0.273437500 0.656250000
v 0.250000000 0.273437500 0.718750000
v 0.250000000 0.210937500 0.718750000
v 0.250000000 0.210937500 0.656250000
vt 0.687500000 0.609375000
vt 0.671875000 0.609375000
vt 0.671875000 0.640625000
vt 0.687500000 0.640625000
f 424/424 423/423 422/422 421/421
v 0.312500000 0.273437500 0.718750000
v 0.250000000 0.273437500 0.718750000
v 0.250000000 0.273437500 0.656250000
v 0.312500000 0.273437500 0.656250000
vt 0.703125000 0.578125000
vt 0.687500000 0.578125000
vt 0.687500000 0.609375000
vt 0.703125000 0.609375000
f 428/428 427/427 426/426 425/425
v 0.312500000 0.210937500 0.656250000
v 0.250000000 0.210937500 0.656250000
v 0.250000000 0.210937500 0.718750000
v 0.312500000 0.210937500 0.718750000
vt 0.718750000 0.609375000
vt 0.703125000 0.609375000
vt 0.703125000 0.578125000
vt 0.718750000 0.578125000
f 432/432 431/431 430/430 429/429
v 0.312500000 0.273437500 0.656250000
v 0.250000000 0.273437500 0.656250000
v 0.250000000 0.210937500 0.656250000
v 0.312500000 0.210937500 0.656250000
vt 0.703125000 0.609375000
vt 0.687500000 0.609375000
vt 0.687500000 0.640625000
vt 0.703125000 0.640625000
f 436/436 435/435 434/434 433/433
v 0.250000000 0.273437500 0.718750000
v 0.312500000 0.273437500 0.718750000
v 0.312500000 0.210937500 0.718750000
v 0.250000000 0.210937500 0.718750000
vt 0.734375000 0.609375000
vt 0.718750000 0.609375000
vt 0.718750000 0.640625000
vt 0.734375000 0.640625000
f 440/440 439/439 438/438 437/437
o shape87_12
usemtl gun
v 0.343750000 0.617187500 0.531250000
v 0.343750000 0.617187500 0.343750000
v 0.343750000 0.585937500 0.343750000
v 0.343750000 0.585937500 0.531250000
vt 0.492187500 0.312500000
vt 0.445312500 0.312500000
vt 0.445312500 0.328125000
vt 0.492187500 0.328125000
f 444/444 443/443 442/442 441/441
v 0.250000000 0.617187500 0.343750000
v 0.250000000 0.617187500 0.531250000
v 0.250000000 0.585937500 0.531250000
v 0.250000000 0.585937500 0.343750000
vt 0.421875000 0.312500000
vt 0.375000000 0.312500000
vt 0.375000000 0.328125000
vt 0.421875000 0.328125000
f 448/448 447/447 446/446 445/445
v 0.343750000 0.617187500 0.531250000
v 0.250000000 0.617187500 0.531250000
v 0.250000000 0.617187500 0.343750000
v 0.343750000 0.617187500 0.343750000
vt 0.445312500 0.218750000
vt 0.421875000 0.218750000
vt 0.421875000 0.312500000
vt 0.445312500 0.312500000
f 452/452 451/451 450/450 449/449
v 0.343750000 0.585937500 0.343750000
v 0.250000000 0.585937500 0.343750000
v 0.250000000 0.585937500 0.531250000
v 0.343750000 0.585937500 0.531250000
vt 0.468750000 0.312500000
vt 0.445312500 0.312500000
vt 0.445312500 0.218750000
vt 0.468750000 0.218750000
f 456/456 455/455 454/454 453/453
v 0.343750000 0.617187500 0.343750000
v 0.250000000 0.617187500 0.343750000
v 0.250000000 0.585937500 0.343750000
v 0.343750000 0.585937500 0.343750000
vt 0.445312500 0.312500000
vt 0.421875000 0.312500000
vt 0.421875000 0.328125000
vt 0.445312500 0.328125000
f 460/460 459/459 458/458 457/457
v 0.250000000 0.617187500 0.531250000
v 0.343750000 0.617187500 0.531250000
v 0.343750000 0.585937500 0.531250000
v 0.250000000 0.585937500 0.531250000
vt 0.515625000 0.312500000
vt 0.492187500 0.312500000
vt 0.492187500 0.328125000
vt 0.515625000 0.328125000
f 464/464 463/463 462/462 461/461
o shape87_11
usemtl gun
v 0.468750000 0.476562500 0.343750000
v 0.468750000 0.476562500 0.281250000
v 0.468750000 0.226562500 0.281250000
v 0.468750000 0.226562500 0.343750000
vt 0.054687500 0.406250000
vt 0.039062500 0.406250000
vt 0.039062500 0.531250000
vt 0.054687500 0.531250000
f 468/468 467/467 466/466 465/465
v 0.406250000 0.476562500 0.281250000
v 0.406250000 0.476562500 0.343750000
v 0.406250000 0.226562500 0.343750000
v 0.406250000 0.226562500 0.281250000
vt 0.023437500 0.406250000
vt 0.007812500 0.406250000
vt 0.007812500 0.531250000
vt 0.023437500 0.531250000
f 472/472 471/471 470/470 469/469
v 0.468750000 0.476562500 0.343750000
v 0.406250000 0.476562500 0.343750000
v 0.406250000 0.476562500 0.281250000
v 0.468750000 0.476562500 0.281250000
vt 0.039062500 0.375000000
vt 0.023437500 0.375000000
vt 0.023437500 0.406250000
vt 0.039062500 0.406250000
f 476/476 475/475 474/474 473/473
v 0.468750000 0.226562500 0.281250000
v 0.406250000 0.226562500 0.281250000
v 0.406250000 0.226562500 0.343750000
v 0.468750000 0.226562500 0.343750000
vt 0.054687500 0.406250000
vt 0.039062500 0.406250000
vt 0.039062500 0.375000000
vt 0.054687500 0.375000000
f 480/480 479/479 478/478 477/477
v 0.468750000 0.476562500 0.281250000
v 0.406250000 0.476562500 0.281250000
v 0.406250000 0.226562500 0.281250000
v 0.468750000 0.226562500 0.281250000
vt 0.039062500 0.406250000
vt 0.023437500 0.406250000
vt 0.023437500 0.531250000
vt 0.039062500 0.531250000
f 484/484 483/483 482/482 481/481
v 0.406250000 0.476562500 0.343750000
v 0.468750000 0.476562500 0.343750000
v 0.468750000 0.226562500 0.343750000
v 0.406250000 0.226562500 0.343750000
vt 0.070312500 0.406250000
vt 0.054687500 0.406250000
vt 0.054687500 0.531250000
vt 0.070312500 0.531250000
f 488/488 487/487 486/486 485/485
o shape87_30
usemtl gun
v 0.484375000 0.742187500 0.531250000
v 0.484375000 0.742187500 0.343750000
v 0.484375000 0.710937500 0.343750000
v 0.484375000 0.710937500 0.531250000
vt 0.757812500 0.750000000
vt 0.710937500 0.750000000
vt 0.710937500 0.765625000
vt 0.757812500 0.765625000
f 492/492 491/491 490/490 489/489
v 0.453125000 0.742187500 0.343750000
v 0.453125000 0.742187500 0.531250000
v 0.453125000 0.710937500 0.531250000
v 0.453125000 0.710937500 0.343750000
vt 0.703125000 0.750000000
vt 0.656250000 0.750000000
vt 0.656250000 0.765625000
vt 0.703125000 0.765625000
f 496/496 495/495 494/494 493/493
v 0.484375000 0.742187500 0.531250000
v 0.453125000 0.742187500 0.531250000
v 0.453125000 0.742187500 0.343750000
v 0.484375000 0.742187500 0.343750000
vt 0.710937500 0.656250000
vt 0.703125000 0.656250000
vt 0.703125000 0.750000000
vt 0.710937500 0.750000000
f 500/500 499/499 498/498 497/497
v 0.484375000 0.710937500 0.343750000
v 0.453125000 0.710937500 0.343750000
v 0.453125000 0.710937500 0.531250000
v 0.484375000 0.710937500 0.531250000
vt 0.718750000 0.750000000
vt 0.710937500 0.750000000
vt 0.710937500 0.656250000
vt 0.718750000 0.656250000
f 504/504 503/503 502/502 501/501
v 0.484375000 0.742187500 0.343750000
v 0.453125000 0.742187500 0.343750000
v 0.453125000 0.710937500 0.343750000
v 0.484375000 0.710937500 0.343750000
vt 0.710937500 0.750000000
vt 0.703125000 0.750000000
vt 0.703125000 0.765625000
vt 0.710937500 0.765625000
f 508/508 507/507 506/506 505/505
v 0.453125000 0.742187500 0.531250000
v 0.484375000 0.742187500 0.531250000
v 0.484375000 0.710937500 0.531250000
v 0.453125000 0.710937500 0.531250000
vt 0.765625000 0.750000000
vt 0.757812500 0.750000000
vt 0.757812500 0.765625000
vt 0.765625000 0.765625000
f 512/512 511/511 510/510 509/509
o shape87_21
usemtl gun
v 0.312500000 0.773437500 0.625000000
v 0.312500000 0.773437500 0.406250000
v 0.312500000 0.710937500 0.406250000
v 0.312500000 0.710937500 0.625000000
vt 0.984375000 0.906250000
vt 0.929687500 0.906250000
vt 0.929687500 0.937500000
vt 0.984375000 0.937500000
f 516/516 515/515 514/514 513/513
v 0.250000000 0.773437500 0.406250000
v 0.250000000 0.773437500 0.625000000
v 0.250000000 0.710937500 0.625000000
v 0.250000000 0.710937500 0.406250000
vt 0.914062500 0.906250000
vt 0.859375000 0.906250000
vt 0.859375000 0.937500000
vt 0.914062500 0.937500000
f 520/520 519/519 518/518 517/517
v 0.312500000 0.773437500 0.625000000
v 0.250000000 0.773437500 0.625000000
v 0.250000000 0.773437500 0.406250000
v 0.312500000 0.773437500 0.406250000
vt 0.929687500 0.796875000
vt 0.914062500 0.796875000
vt 0.914062500 0.906250000
vt 0.929687500 0.906250000
f 524/524 523/523 522/522 521/521
v 0.312500000 0.710937500 0.406250000
v 0.250000000 0.710937500 0.406250000
v 0.250000000 0.710937500 0.625000000
v 0.312500000 0.710937500 0.625000000
vt 0.945312500 0.906250000
vt 0.929687500 0.906250000
vt 0.929687500 0.796875000
vt 0.945312500 0.796875000
f 528/528 527/527 526/526 525/525
v 0.312500000 0.773437500 0.406250000
v 0.250000000 0.773437500 0.406250000
v 0.250000000 0.710937500 0.406250000
v 0.312500000 0.710937500 0.406250000
vt 0.929687500 0.906250000
vt 0.914062500 0.906250000
vt 0.914062500 0.937500000
vt 0.929687500 0.937500000
f 532/532 531/531 530/530 529/529
v 0.250000000 0.773437500 0.625000000
v 0.312500000 0.773437500 0.625000000
v 0.312500000 0.710937500 0.625000000
v 0.250000000 0.710937500 0.625000000
vt 1.000000000 0.906250000
vt 0.984375000 0.906250000
vt 0.984375000 0.937500000
vt 1.000000000 0.937500000
f 536/536 535/535 534/534 533/533
o shape87_13
usemtl gun
v 0.312500000 0.585937500 0.562500000
v 0.312500000 0.585937500 0.312500000
v 0.312500000 0.492187500 0.312500000
v 0.312500000 0.492187500 0.562500000
vt 0.492187500 0.484375000
vt 0.429687500 0.484375000
vt 0.429687500 0.531250000
vt 0.492187500 0.531250000
f 540/540 539/539 538/538 537/537
v 0.000000000 0.585937500 0.312500000
v 0.000000000 0.585937500 0.562500000
v 0.000000000 0.492187500 0.562500000
v 0.000000000 0.492187500 0.312500000
vt 0.351562500 0.484375000
vt 0.289062500 0.484375000
vt 0.289062500 0.531250000
vt 0.351562500 0.531250000
f 544/544 543/543 542/542 541/541
v 0.312500000 0.585937500 0.562500000
v 0.000000000 0.585937500 0.562500000
v 0.000000000 0.585937500 0.312500000
v 0.312500000 0.585937500 0.312500000
vt 0.429687500 0.359375000
vt 0.351562500 0.359375000
vt 0.351562500 0.484375000
vt 0.429687500 0.484375000
f 548/548 547/547 546/546 545/545
v 0.312500000 0.492187500 0.312500000
v 0.000000000 0.492187500 0.312500000
v 0.000000000 0.492187500 0.562500000
v 0.312500000 0.492187500 0.562500000
vt 0.507812500 0.484375000
vt 0.429687500 0.484375000
vt 0.429687500 0.359375000
vt 0.507812500 0.359375000
f 552/552 551/551 550/550 549/549
v 0.312500000 0.585937500 0.312500000
v 0.000000000 0.585937500 0.312500000
v 0.000000000 0.492187500 0.312500000
v 0.312500000 0.492187500 0.312500000
vt 0.429687500 0.484375000
vt 0.351562500 0.484375000
vt 0.351562500 0.531250000
vt 0.429687500 0.531250000
f 556/556 555/555 554/554 553/553
v 0.000000000 0.585937500 0.562500000
v 0.312500000 0.585937500 0.562500000
v 0.312500000 0.492187500 0.562500000
v 0.000000000 0.492187500 0.562500000
vt 0.570312500 0.484375000
vt 0.492187500 0.484375000
vt 0.492187500 0.531250000
vt 0.570312500 0.531250000
f 560/560 559/559 558/558 557/557
o Shape26_3
usemtl gun
v -0.562500000 0.429687500 0.468750000
v -0.562500000 0.429687500 0.406250000
v -0.562500000 0.398437500 0.406250000
v -0.562500000 0.398437500 0.468750000
vt 0.726562500 0.109375000
vt 0.710937500 0.109375000
vt 0.710937500 0.125000000
vt 0.726562500 0.125000000
f 564/564 563/563 562/562 561/561
v -0.593750000 0.429687500 0.406250000
v -0.593750000 0.429687500 0.468750000
v -0.593750000 0.398437500 0.468750000
v -0.593750000 0.398437500 0.406250000
vt 0.703125000 0.109375000
vt 0.687500000 0.109375000
vt 0.687500000 0.125000000
vt 0.703125000 0.125000000
f 568/568 567/567 566/566 565/565
v -0.562500000 0.429687500 0.468750000
v -0.593750000 0.429687500 0.468750000
v -0.593750000 0.429687500 0.406250000
v -0.562500000 0.429687500 0.406250000
vt 0.710937500 0.078125000
vt 0.703125000 0.078125000
vt 0.703125000 0.109375000
vt 0.710937500 0.109375000
f 572/572 571/571 570/570 569/569
v -0.562500000 0.398437500 0.406250000
v -0.593750000 0.398437500 0.406250000
v -0.593750000 0.398437500 0.468750000
v -0.562500000 0.398437500 0.468750000
vt 0.718750000 0.109375000
vt 0.710937500 0.109375000
vt 0.710937500 0.078125000
vt 0.718750000 0.078125000
f 576/576 575/575 574/574 573/573
v -0.562500000 0.429687500 0.406250000
v -0.593750000 0.429687500 0.406250000
v -0.593750000 0.398437500 0.406250000
v -0.562500000 0.398437500 0.406250000
vt 0.710937500 0.109375000
vt 0.703125000 0.109375000
vt 0.703125000 0.125000000
vt 0.710937500 0.125000000
f 580/580 579/579 578/578 577/577
v -0.593750000 0.429687500 0.468750000
v -0.562500000 0.429687500 0.468750000
v -0.562500000 0.398437500 0.468750000
v -0.593750000 0.398437500 0.468750000
vt 0.734375000 0.109375000
vt 0.726562500 0.109375000
vt 0.726562500 0.125000000
vt 0.734375000 0.125000000
f 584/584 583/583 582/582 581/581
o shape87_1
usemtl gun
v 0.312500000 0.257812500 0.656250000
v 0.312500000 0.257812500 0.625000000
v 0.312500000 0.226562500 0.625000000
v 0.312500000 0.226562500 0.656250000
vt 0.703125000 0.531250000
vt 0.695312500 0.531250000
vt 0.695312500 0.546875000
vt 0.703125000 0.546875000
f 588/588 587/587 586/586 585/585
v 0.250000000 0.257812500 0.625000000
v 0.250000000 0.257812500 0.656250000
v 0.250000000 0.226562500 0.656250000
v 0.250000000 0.226562500 0.625000000
vt 0.679687500 0.531250000
vt 0.671875000 0.531250000
vt 0.671875000 0.546875000
vt 0.679687500 0.546875000
f 592/592 591/591 590/590 589/589
v 0.312500000 0.257812500 0.656250000
v 0.250000000 0.257812500 0.656250000
v 0.250000000 0.257812500 0.625000000
v 0.312500000 0.257812500 0.625000000
vt 0.695312500 0.515625000
vt 0.679687500 0.515625000
vt 0.679687500 0.531250000
vt 0.695312500 0.531250000
f 596/596 595/595 594/594 593/593
v 0.312500000 0.226562500 0.625000000
v 0.250000000 0.226562500 0.625000000
v 0.250000000 0.226562500 0.656250000
v 0.312500000 0.226562500 0.656250000
vt 0.710937500 0.531250000
vt 0.695312500 0.531250000
vt 0.695312500 0.515625000
vt 0.710937500 0.515625000
f 600/600 599/599 598/598 597/597
v 0.312500000 0.257812500 0.625000000
v 0.250000000 0.257812500 0.625000000
v 0.250000000 0.226562500 0.625000000
v 0.312500000 0.226562500 0.625000000
vt 0.695312500 0.531250000
vt 0.679687500 0.531250000
vt 0.679687500 0.546875000
vt 0.695312500 0.546875000
f 604/604 603/603 602/602 601/601
v 0.250000000 0.257812500 0.656250000
v 0.312500000 0.257812500 0.656250000
v 0.312500000 0.226562500 0.656250000
v 0.250000000 0.226562500 0.656250000
vt 0.718750000 0.531250000
vt 0.703125000 0.531250000
vt 0.703125000 0.546875000
vt 0.718750000 0.546875000
f 608/608 607/607 606/606 605/605
o shape87_4
usemtl gun
v 0.000000000 0.585937500 0.562500000
v 0.000000000 0.585937500 0.312500000
v 0.000000000 0.210937500 0.312500000
v 0.000000000 0.210937500 0.562500000
vt 0.164062500 0.171875000
vt 0.101562500 0.171875000
vt 0.101562500 0.359375000
vt 0.164062500 0.359375000
f 612/612 611/611 610/610 609/609
v -0.156250000 0.585937500 0.312500000
v -0.156250000 0.585937500 0.562500000
v -0.156250000 0.210937500 0.562500000
v -0.156250000 0.210937500 0.312500000
vt 0.062500000 0.171875000
vt 0.000000000 0.171875000
vt 0.000000000 0.359375000
vt 0.062500000 0.359375000
f 616/616 615/615 614/614 613/613
v 0.000000000 0.585937500 0.562500000
v -0.156250000 0.585937500 0.562500000
v -0.156250000 0.585937500 0.312500000
v 0.000000000 0.585937500 0.312500000
vt 0.101562500 0.046875000
vt 0.062500000 0.046875000
vt 0.062500000 0.171875000
vt 0.101562500 0.171875000
f 620/620 619/619 618/618 617/617
v 0.000000000 0.210937500 0.312500000
v -0.156250000 0.210937500 0.312500000
v -0.156250000 0.210937500 0.562500000
v 0.000000000 0.210937500 0.562500000
vt 0.140625000 0.171875000
vt 0.101562500 0.171875000
vt 0.101562500 0.046875000
vt 0.140625000 0.046875000
f 624/624 623/623 622/622 621/621
v 0.000000000 0.585937500 0.312500000
v -0.156250000 0.585937500 0.312500000
v -0.156250000 0.210937500 0.312500000
v 0.000000000 0.210937500 0.312500000
vt 0.101562500 0.171875000
vt 0.062500000 0.171875000
vt 0.062500000 0.359375000
vt 0.101562500 0.359375000
f 628/628 627/627 626/626 625/625
v -0.156250000 0.585937500 0.562500000
v 0.000000000 0.585937500 0.562500000
v 0.000000000 0.210937500 0.562500000
v -0.156250000 0.210937500 0.562500000
vt 0.203125000 0.171875000
vt 0.164062500 0.171875000
vt 0.164062500 0.359375000
vt 0.203125000 0.359375000
f 632/632 631/631 630/630 629/629
o shape87_15
usemtl gun
v 0.484375000 0.679687500 0.531250000
v 0.484375000 0.679687500 0.343750000
v 0.484375000 0.648437500 0.343750000
v 0.484375000 0.648437500 0.531250000
vt 0.757812500 0.750000000
vt 0.710937500 0.750000000
vt 0.710937500 0.765625000
vt 0.757812500 0.765625000
f 636/636 635/635 634/634 633/633
v 0.453125000 0.679687500 0.343750000
v 0.453125000 0.679687500 0.531250000
v 0.453125000 0.648437500 0.531250000
v 0.453125000 0.648437500 0.343750000
vt 0.703125000 0.750000000
vt 0.656250000 0.750000000
vt 0.656250000 0.765625000
vt 0.703125000 0.765625000
f 640/640 639/639 638/638 637/637
v 0.484375000 0.679687500 0.531250000
v 0.453125000 0.679687500 0.531250000
v 0.453125000 0.679687500 0.343750000
v 0.484375000 0.679687500 0.343750000
vt 0.710937500 0.656250000
vt 0.703125000 0.656250000
vt 0.703125000 0.750000000
vt 0.710937500 0.750000000
f 644/644 643/643 642/642 641/641
v 0.484375000 0.648437500 0.343750000
v 0.453125000 0.648437500 0.343750000
v 0.453125000 0.648437500 0.531250000
v 0.484375000 0.648437500 0.531250000
vt 0.718750000 0.750000000
vt 0.710937500 0.750000000
vt 0.710937500 0.656250000
vt 0.718750000 0.656250000
f 648/648 647/647 646/646 645/645
v 0.484375000 0.679687500 0.343750000
v 0.453125000 0.679687500 0.343750000
v 0.453125000 0.648437500 0.343750000
v 0.484375000 0.648437500 0.343750000
vt 0.710937500 0.750000000
vt 0.703125000 0.750000000
vt 0.703125000 0.765625000
vt 0.710937500 0.765625000
f 652/652 651/651 650/650 649/649
v 0.453125000 0.679687500 0.531250000
v 0.484375000 0.679687500 0.531250000
v 0.484375000 0.648437500 0.531250000
v 0.453125000 0.648437500 0.531250000
vt 0.765625000 0.750000000
vt 0.757812500 0.750000000
vt 0.757812500 0.765625000
vt 0.765625000 0.765625000
f 656/656 655/655 654/654 653/653
o shape87_29
usemtl gun
v 0.484375000 0.804687500 0.531250000
v 0.484375000 0.804687500 0.343750000
v 0.484375000 0.773437500 0.343750000
v 0.484375000 0.773437500 0.531250000
vt 0.757812500 0.750000000
vt 0.710937500 0.750000000
vt 0.710937500 0.765625000
vt 0.757812500 0.765625000
f 660/660 659/659 658/658 657/657
v 0.453125000 0.804687500 0.343750000
v 0.453125000 0.804687500 0.531250000
v 0.453125000 0.773437500 0.531250000
v 0.453125000 0.773437500 0.343750000
vt 0.703125000 0.750000000
vt 0.656250000 0.750000000
vt 0.656250000 0.765625000
vt 0.703125000 0.765625000
f 664/664 663/663 662/662 661/661
v 0.484375000 0.804687500 0.531250000
v 0.453125000 0.804687500 0.531250000
v 0.453125000 0.804687500 0.343750000
v 0.484375000 0.804687500 0.343750000
vt 0.710937500 0.656250000
vt 0.703125000 0.656250000
vt 0.703125000 0.750000000
vt 0.710937500 0.750000000
f 668/668 667/667 666/666 665/665
v 0.484375000 0.773437500 0.343750000
v 0.453125000 0.773437500 0.343750000
v 0.453125000 0.773437500 0.531250000
v 0.484375000 0.773437500 0.531250000
vt 0.718750000 0.750000000
vt 0.710937500 0.750000000
vt 0.710937500 0.656250000
vt 0.718750000 0.656250000
f 672/672 671/671 670/670 669/669
v 0.484375000 0.804687500 0.343750000
v 0.453125000 0.804687500 0.343750000
v 0.453125000 0.773437500 0.343750000
v 0.484375000 0.773437500 0.343750000
vt 0.710937500 0.750000000
vt 0.703125000 0.750000000
vt 0.703125000 0.765625000
vt 0.710937500 0.765625000
f 676/676 675/675 674/674 673/673
v 0.453125000 0.804687500 0.531250000
v 0.484375000 0.804687500 0.531250000
v 0.484375000 0.773437500 0.531250000
v 0.453125000 0.773437500 0.531250000
vt 0.765625000 0.750000000
vt 0.757812500 0.750000000
vt 0.757812500 0.765625000
vt 0.765625000 0.765625000
f 680/680 679/679 678/678 677/677
o Shape30
usemtl gun
v -0.239478562 0.521467549 0.468750000
v -0.239478562 0.521467549 0.406250000
v -0.225684972 0.460508654 0.406250000
v -0.225684972 0.460508654 0.468750000
vt 0.789062500 0.390625000
vt 0.773437500 0.390625000
vt 0.773437500 0.421875000
vt 0.789062500 0.421875000
f 684/684 683/683 682/682 681/681
v -0.513793590 0.459396395 0.406250000
v -0.513793590 0.459396395 0.468750000
v -0.500000000 0.398437500 0.468750000
v -0.500000000 0.398437500 0.406250000
vt 0.703125000 0.390625000
vt 0.687500000 0.390625000
vt 0.687500000 0.421875000
vt 0.703125000 0.421875000
f 688/688 687/687 686/686 685/685
v -0.239478562 0.521467549 0.468750000
v -0.513793590 0.459396395 0.468750000
v -0.513793590 0.459396395 0.406250000
v -0.239478562 0.521467549 0.406250000
vt 0.773437500 0.359375000
vt 0.703125000 0.359375000
vt 0.703125000 0.390625000
vt 0.773437500 0.390625000
f 692/692 691/691 690/690 689/689
v -0.225684972 0.460508654 0.406250000
v -0.500000000 0.398437500 0.406250000
v -0.500000000 0.398437500 0.468750000
v -0.225684972 0.460508654 0.468750000
vt 0.843750000 0.390625000
vt 0.773437500 0.390625000
vt 0.773437500 0.359375000
vt 0.843750000 0.359375000
f 696/696 695/695 694/694 693/693
v -0.239478562 0.521467549 0.406250000
v -0.513793590 0.459396395 0.406250000
v -0.500000000 0.398437500 0.406250000
v -0.225684972 0.460508654 0.406250000
vt 0.773437500 0.390625000
vt 0.703125000 0.390625000
vt 0.703125000 0.421875000
vt 0.773437500 0.421875000
f 700/700 699/699 698/698 697/697
v -0.513793590 0.459396395 0.468750000
v -0.239478562 0.521467549 0.468750000
v -0.225684972 0.460508654 0.468750000
v -0.500000000 0.398437500 0.468750000
vt 0.859375000 0.390625000
vt 0.789062500 0.390625000
vt 0.789062500 0.421875000
vt 0.859375000 0.421875000
f 704/704 703/703 702/702 701/701
o shape87_18
usemtl gun
v 0.312500000 0.765759772 0.625438717
v 0.312500000 0.730170834 0.574060926
v 0.312500000 0.550348562 0.698622208
v 0.312500000 0.585937500 0.750000000
vt 0.921875000 0.484375000
vt 0.906250000 0.484375000
vt 0.906250000 0.593750000
vt 0.921875000 0.593750000
f 708/708 707/707 706/706 705/705
v 0.250000000 0.730170834 0.574060926
v 0.250000000 0.765759772 0.625438717
v 0.250000000 0.585937500 0.750000000
v 0.250000000 0.550348562 0.698622208
vt 0.890625000 0.484375000
vt 0.875000000 0.484375000
vt 0.875000000 0.593750000
vt 0.890625000 0.593750000
f 712/712 711/711 710/710 709/709
v 0.312500000 0.765759772 0.625438717
v 0.250000000 0.765759772 0.625438717
v 0.250000000 0.730170834 0.574060926
v 0.312500000 0.730170834 0.574060926
vt 0.906250000 0.453125000
vt 0.890625000 0.453125000
vt 0.890625000 0.484375000
vt 0.906250000 0.484375000
f 716/716 715/715 714/714 713/713
v 0.312500000 0.550348562 0.698622208
v 0.250000000 0.550348562 0.698622208
v 0.250000000 0.585937500 0.750000000
v 0.312500000 0.585937500 0.750000000
vt 0.921875000 0.484375000
vt 0.906250000 0.484375000
vt 0.906250000 0.453125000
vt 0.921875000 0.453125000
f 720/720 719/719 718/718 717/717
v 0.312500000 0.730170834 0.574060926
v 0.250000000 0.730170834 0.574060926
v 0.250000000 0.550348562 0.698622208
v 0.312500000 0.550348562 0.698622208
vt 0.906250000 0.484375000
vt 0.890625000 0.484375000
vt 0.890625000 0.593750000
vt 0.906250000 0.593750000
f 724/724 723/723 722/722 721/721
v 0.250000000 0.765759772 0.625438717
v 0.312500000 0.765759772 0.625438717
v 0.312500000 0.585937500 0.750000000
v 0.250000000 0.585937500 0.750000000
vt 0.937500000 0.484375000
vt 0.921875000 0.484375000
vt 0.921875000 0.593750000
vt 0.937500000 0.593750000
f 728/728 727/727 726/726 725/725
o shape87_16
usemtl gun
v 0.312500000 0.773437500 0.406250000
v 0.204659743 0.773437500 0.252865747
v 0.204659743 0.710937500 0.252865747
v 0.312500000 0.710937500 0.406250000
vt 0.984375000 0.750000000
vt 0.937500000 0.750000000
vt 0.937500000 0.781250000
vt 0.984375000 0.781250000
f 732/732 731/731 730/730 729/729
v 0.153531659 0.773437500 0.288812500
v 0.261371916 0.773437500 0.442196752
v 0.261371916 0.710937500 0.442196752
v 0.153531659 0.710937500 0.288812500
vt 0.921875000 0.750000000
vt 0.875000000 0.750000000
vt 0.875000000 0.781250000
vt 0.921875000 0.781250000
f 736/736 735/735 734/734 733/733
v 0.312500000 0.773437500 0.406250000
v 0.261371916 0.773437500 0.442196752
v 0.153531659 0.773437500 0.288812500
v 0.204659743 0.773437500 0.252865747
vt 0.937500000 0.656250000
vt 0.921875000 0.656250000
vt 0.921875000 0.750000000
vt 0.937500000 0.750000000
f 740/740 739/739 738/738 737/737
v 0.204659743 0.710937500 0.252865747
v 0.153531659 0.710937500 0.288812500
v 0.261371916 0.710937500 0.442196752
v 0.312500000 0.710937500 0.406250000
vt 0.953125000 0.750000000
vt 0.937500000 0.750000000
vt 0.937500000 0.656250000
vt 0.953125000 0.656250000
f 744/744 743/743 742/742 741/741
v 0.204659743 0.773437500 0.252865747
v 0.153531659 0.773437500 0.288812500
v 0.153531659 0.710937500 0.288812500
v 0.204659743 0.710937500 0.252865747
vt 0.937500000 0.750000000
vt 0.921875000 0.750000000
vt 0.921875000 0.781250000
vt 0.937500000 0.781250000
f 748/748 747/747 746/746 745/745
v 0.261371916 0.773437500 0.442196752
v 0.312500000 0.773437500 0.406250000
v 0.312500000 0.710937500 0.406250000
v 0.261371916 0.710937500 0.442196752
vt 1.000000000 0.750000000
vt 0.984375000 0.750000000
vt 0.984375000 0.781250000
vt 1.000000000 0.781250000
f 752/752 751/751 750/750 749/749
o shape87_28
usemtl gun
v 0.484375000 0.804687500 0.343750000
v 0.484375000 0.804687500 0.312500000
v 0.484375000 0.648437500 0.312500000
v 0.484375000 0.648437500 0.343750000
vt 0.695312500 0.671875000
vt 0.687500000 0.671875000
vt 0.687500000 0.750000000
vt 0.695312500 0.750000000
f 756/756 755/755 754/754 753/753
v 0.453125000 0.804687500 0.312500000
v 0.453125000 0.804687500 0.343750000
v 0.453125000 0.648437500 0.343750000
v 0.453125000 0.648437500 0.312500000
vt 0.679687500 0.671875000
vt 0.671875000 0.671875000
vt 0.671875000 0.750000000
vt 0.679687500 0.750000000
f 760/760 759/759 758/758 757/757
v 0.484375000 0.804687500 0.343750000
v 0.453125000 0.804687500 0.343750000
v 0.453125000 0.804687500 0.312500000
v 0.484375000 0.804687500 0.312500000
vt 0.687500000 0.656250000
vt 0.679687500 0.656250000
vt 0.679687500 0.671875000
vt 0.687500000 0.671875000
f 764/764 763/763 762/762 761/761
v 0.484375000 0.648437500 0.312500000
v 0.453125000 0.648437500 0.312500000
v 0.453125000 0.648437500 0.343750000
v 0.484375000 0.648437500 0.343750000
vt 0.695312500 0.671875000
vt 0.687500000 0.671875000
vt 0.687500000 0.656250000
vt 0.695312500 0.656250000
f 768/768 767/767 766/766 765/765
v 0.484375000 0.804687500 0.312500000
v 0.453125000 0.804687500 0.312500000
v 0.453125000 0.648437500 0.312500000
v 0.484375000 0.648437500 0.312500000
vt 0.687500000 0.671875000
vt 0.679687500 0.671875000
vt 0.679687500 0.750000000
vt 0.687500000 0.750000000
f 772/772 771/771 770/770 769/769
v 0.453125000 0.804687500 0.343750000
v 0.484375000 0.804687500 0.343750000
v 0.484375000 0.648437500 0.343750000
v 0.453125000 0.648437500 0.343750000
vt 0.703125000 0.671875000
vt 0.695312500 0.671875000
vt 0.695312500 0.750000000
vt 0.703125000 0.750000000
f 776/776 775/775 774/774 773/773
o shape87_8
usemtl gun
v 0.250000000 0.648437500 0.531250000
v 0.250000000 0.648437500 0.343750000
v 0.250000000 0.585937500 0.343750000
v 0.250000000 0.585937500 0.531250000
vt 0.359375000 0.328125000
vt 0.312500000 0.328125000
vt 0.312500000 0.359375000
vt 0.359375000 0.359375000
f 780/780 779/779 778/778 777/777
v 0.000000000 0.648437500 0.343750000
v 0.000000000 0.648437500 0.531250000
v 0.000000000 0.585937500 0.531250000
v 0.000000000 0.585937500 0.343750000
vt 0.250000000 0.328125000
vt 0.203125000 0.328125000
vt 0.203125000 0.359375000
vt 0.250000000 0.359375000
f 784/784 783/783 782/782 781/781
v 0.250000000 0.648437500 0.531250000
v 0.000000000 0.648437500 0.531250000
v 0.000000000 0.648437500 0.343750000
v 0.250000000 0.648437500 0.343750000
vt 0.312500000 0.234375000
vt 0.250000000 0.234375000
vt 0.250000000 0.328125000
vt 0.312500000 0.328125000
f 788/788 787/787 786/786 785/785
v 0.250000000 0.585937500 0.343750000
v 0.000000000 0.585937500 0.343750000
v 0.000000000 0.585937500 0.531250000
v 0.250000000 0.585937500 0.531250000
vt 0.375000000 0.328125000
vt 0.312500000 0.328125000
vt 0.312500000 0.234375000
vt 0.375000000 0.234375000
f 792/792 791/791 790/790 789/789
v 0.250000000 0.648437500 0.343750000
v 0.000000000 0.648437500 0.343750000
v 0.000000000 0.585937500 0.343750000
v 0.250000000 0.585937500 0.343750000
vt 0.312500000 0.328125000
vt 0.250000000 0.328125000
vt 0.250000000 0.359375000
vt 0.312500000 0.359375000
f 796/796 795/795 794/794 793/793
v 0.000000000 0.648437500 0.531250000
v 0.250000000 0.648437500 0.531250000
v 0.250000000 0.585937500 0.531250000
v 0.000000000 0.585937500 0.531250000
vt 0.421875000 0.328125000
vt 0.359375000 0.328125000
vt 0.359375000 0.359375000
vt 0.421875000 0.359375000
f 800/800 799/799 798/798 797/797
o Shape26_5
usemtl gun
v -0.500000000 0.242187500 0.468750000
v -0.500000000 0.242187500 0.406250000
v -0.500000000 0.210937500 0.406250000
v -0.500000000 0.210937500 0.468750000
vt 0.726562500 0.281250000
vt 0.710937500 0.281250000
vt 0.710937500 0.296875000
vt 0.726562500 0.296875000
f 804/804 803/803 802/802 801/801
v -0.531250000 0.242187500 0.406250000
v -0.531250000 0.242187500 0.468750000
v -0.531250000 0.210937500 0.468750000
v -0.531250000 0.210937500 0.406250000
vt 0.703125000 0.281250000
vt 0.687500000 0.281250000
vt 0.687500000 0.296875000
vt 0.703125000 0.296875000
f 808/808 807/807 806/806 805/805
v -0.500000000 0.242187500 0.468750000
v -0.531250000 0.242187500 0.468750000
v -0.531250000 0.242187500 0.406250000
v -0.500000000 0.242187500 0.406250000
vt 0.710937500 0.250000000
vt 0.703125000 0.250000000
vt 0.703125000 0.281250000
vt 0.710937500 0.281250000
f 812/812 811/811 810/810 809/809
v -0.500000000 0.210937500 0.406250000
v -0.531250000 0.210937500 0.406250000
v -0.531250000 0.210937500 0.468750000
v -0.500000000 0.210937500 0.468750000
vt 0.718750000 0.281250000
vt 0.710937500 0.281250000
vt 0.710937500 0.250000000
vt 0.718750000 0.250000000
f 816/816 815/815 814/814 813/813
v -0.500000000 0.242187500 0.406250000
v -0.531250000 0.242187500 0.406250000
v -0.531250000 0.210937500 0.406250000
v -0.500000000 0.210937500 0.406250000
vt 0.710937500 0.281250000
vt 0.703125000 0.281250000
vt 0.703125000 0.296875000
vt 0.710937500 0.296875000
f 820/820 819/819 818/818 817/817
v -0.531250000 0.242187500 0.468750000
v -0.500000000 0.242187500 0.468750000
v -0.500000000 0.210937500 0.468750000
v -0.531250000 0.210937500 0.468750000
vt 0.734375000 0.281250000
vt 0.726562500 0.281250000
vt 0.726562500 0.296875000
vt 0.734375000 0.296875000
f 824/824 823/823 822/822 821/821
o shape87_5
usemtl gun
v 0.000000000 0.617187500 0.531250000
v 0.000000000 0.617187500 0.343750000
v 0.000000000 0.585937500 0.343750000
v 0.000000000 0.585937500 0.531250000
vt 0.609375000 0.296875000
vt 0.562500000 0.296875000
vt 0.562500000 0.312500000
vt 0.609375000 0.312500000
f 828/828 827/827 826/826 825/825
v -0.031250000 0.617187500 0.343750000
v -0.031250000 0.617187500 0.531250000
v -0.031250000 0.585937500 0.531250000
v -0.031250000 0.585937500 0.343750000
vt 0.554687500 0.296875000
vt 0.507812500 0.296875000
vt 0.507812500 0.312500000
vt 0.554687500 0.312500000
f 832/832 831/831 830/830 829/829
v 0.000000000 0.617187500 0.531250000
v -0.031250000 0.617187500 0.531250000
v -0.031250000 0.617187500 0.343750000
v 0.000000000 0.617187500 0.343750000
vt 0.562500000 0.203125000
vt 0.554687500 0.203125000
vt 0.554687500 0.296875000
vt 0.562500000 0.296875000
f 836/836 835/835 834/834 833/833
v 0.000000000 0.585937500 0.343750000
v -0.031250000 0.585937500 0.343750000
v -0.031250000 0.585937500 0.531250000
v 0.000000000 0.585937500 0.531250000
vt 0.570312500 0.296875000
vt 0.562500000 0.296875000
vt 0.562500000 0.203125000
vt 0.570312500 0.203125000
f 840/840 839/839 838/838 837/837
v 0.000000000 0.617187500 0.343750000
v -0.031250000 0.617187500 0.343750000
v -0.031250000 0.585937500 0.343750000
v 0.000000000 0.585937500 0.343750000
vt 0.562500000 0.296875000
vt 0.554687500 0.296875000
vt 0.554687500 0.312500000
vt 0.562500000 0.312500000
f 844/844 843/843 842/842 841/841
v -0.031250000 0.617187500 0.531250000
v 0.000000000 0.617187500 0.531250000
v 0.000000000 0.585937500 0.531250000
v -0.031250000 0.585937500 0.531250000
vt 0.617187500 0.296875000
vt 0.609375000 0.296875000
vt 0.609375000 0.312500000
vt 0.617187500 0.312500000
f 848/848 847/847 846/846 845/845
o shape87_6
usemtl gun
v 0.406250000 0.492187500 0.593750000
v 0.406250000 0.492187500 0.250000000
v 0.406250000 0.210937500 0.250000000
v 0.406250000 0.210937500 0.593750000
vt 0.273437500 0.531250000
vt 0.187500000 0.531250000
vt 0.187500000 0.671875000
vt 0.273437500 0.671875000
f 852/852 851/851 850/850 849/849
v 0.000000000 0.492187500 0.250000000
v 0.000000000 0.492187500 0.593750000
v 0.000000000 0.210937500 0.593750000
v 0.000000000 0.210937500 0.250000000
vt 0.085937500 0.531250000
vt 0.000000000 0.531250000
vt 0.000000000 0.671875000
vt 0.085937500 0.671875000
f 856/856 855/855 854/854 853/853
v 0.406250000 0.492187500 0.593750000
v 0.000000000 0.492187500 0.593750000
v 0.000000000 0.492187500 0.250000000
v 0.406250000 0.492187500 0.250000000
vt 0.187500000 0.359375000
vt 0.085937500 0.359375000
vt 0.085937500 0.531250000
vt 0.187500000 0.531250000
f 860/860 859/859 858/858 857/857
v 0.406250000 0.210937500 0.250000000
v 0.000000000 0.210937500 0.250000000
v 0.000000000 0.210937500 0.593750000
v 0.406250000 0.210937500 0.593750000
vt 0.289062500 0.531250000
vt 0.187500000 0.531250000
vt 0.187500000 0.359375000
vt 0.289062500 0.359375000
f 864/864 863/863 862/862 861/861
v 0.406250000 0.492187500 0.250000000
v 0.000000000 0.492187500 0.250000000
v 0.000000000 0.210937500 0.250000000
v 0.406250000 0.210937500 0.250000000
vt 0.187500000 0.531250000
vt 0.085937500 0.531250000
vt 0.085937500 0.671875000
vt 0.187500000 0.671875000
f 868/868 867/867 866/866 865/865
v 0.000000000 0.492187500 0.593750000
v 0.406250000 0.492187500 0.593750000
v 0.406250000 0.210937500 0.593750000
v 0.000000000 0.210937500 0.593750000
vt 0.375000000 0.531250000
vt 0.273437500 0.531250000
vt 0.273437500 0.671875000
vt 0.375000000 0.671875000
f 872/872 871/871 870/870 869/869
o shape87_22
usemtl gun
v 0.203125000 0.773437500 0.312500000
v 0.203125000 0.773437500 0.250000000
v 0.203125000 0.710937500 0.250000000
v 0.203125000 0.710937500 0.312500000
vt 0.984375000 0.625000000
vt 0.968750000 0.625000000
vt 0.968750000 0.656250000
vt 0.984375000 0.656250000
f 876/876 875/875 874/874 873/873
v 0.140625000 0.773437500 0.250000000
v 0.140625000 0.773437500 0.312500000
v 0.140625000 0.710937500 0.312500000
v 0.140625000 0.710937500 0.250000000
vt 0.953125000 0.625000000
vt 0.937500000 0.625000000
vt 0.937500000 0.656250000
vt 0.953125000 0.656250000
f 880/880 879/879 878/878 877/877
v 0.203125000 0.773437500 0.312500000
v 0.140625000 0.773437500 0.312500000
v 0.140625000 0.773437500 0.250000000
v 0.203125000 0.773437500 0.250000000
vt 0.968750000 0.593750000
vt 0.953125000 0.593750000
vt 0.953125000 0.625000000
vt 0.968750000 0.625000000
f 884/884 883/883 882/882 881/881
v 0.203125000 0.710937500 0.250000000
v 0.140625000 0.710937500 0.250000000
v 0.140625000 0.710937500 0.312500000
v 0.203125000 0.710937500 0.312500000
vt 0.984375000 0.625000000
vt 0.968750000 0.625000000
vt 0.968750000 0.593750000
vt 0.984375000 0.593750000
f 888/888 887/887 886/886 885/885
v 0.203125000 0.773437500 0.250000000
v 0.140625000 0.773437500 0.250000000
v 0.140625000 0.710937500 0.250000000
v 0.203125000 0.710937500 0.250000000
vt 0.968750000 0.625000000
vt 0.953125000 0.625000000
vt 0.953125000 0.656250000
vt 0.968750000 0.656250000
f 892/892 891/891 890/890 889/889
v 0.140625000 0.773437500 0.312500000
v 0.203125000 0.773437500 0.312500000
v 0.203125000 0.710937500 0.312500000
v 0.140625000 0.710937500 0.312500000
vt 1.000000000 0.625000000
vt 0.984375000 0.625000000
vt 0.984375000 0.656250000
vt 1.000000000 0.656250000
f 896/896 895/895 894/894 893/893
o Shape26_2
usemtl gun
v -0.531250000 0.398437500 0.468750000
v -0.531250000 0.398437500 0.406250000
v -0.531250000 0.304687500 0.406250000
v -0.531250000 0.304687500 0.468750000
vt 0.851562500 0.140625000
vt 0.835937500 0.140625000
vt 0.835937500 0.187500000
vt 0.851562500 0.187500000
f 900/900 899/899 898/898 897/897
v -0.593750000 0.398437500 0.406250000
v -0.593750000 0.398437500 0.468750000
v -0.593750000 0.304687500 0.468750000
v -0.593750000 0.304687500 0.406250000
vt 0.820312500 0.140625000
vt 0.804687500 0.140625000
vt 0.804687500 0.187500000
vt 0.820312500 0.187500000
f 904/904 903/903 902/902 901/901
v -0.531250000 0.398437500 0.468750000
v -0.593750000 0.398437500 0.468750000
v -0.593750000 0.398437500 0.406250000
v -0.531250000 0.398437500 0.406250000
vt 0.835937500 0.109375000
vt 0.820312500 0.109375000
vt 0.820312500 0.140625000
vt 0.835937500 0.140625000
f 908/908 907/907 906/906 905/905
v -0.531250000 0.304687500 0.406250000
v -0.593750000 0.304687500 0.406250000
v -0.593750000 0.304687500 0.468750000
v -0.531250000 0.304687500 0.468750000
vt 0.851562500 0.140625000
vt 0.835937500 0.140625000
vt 0.835937500 0.109375000
vt 0.851562500 0.109375000
f 912/912 911/911 910/910 909/909
v -0.531250000 0.398437500 0.406250000
v -0.593750000 0.398437500 0.406250000
v -0.593750000 0.304687500 0.406250000
v -0.531250000 0.304687500 0.406250000
vt 0.835937500 0.140625000
vt 0.820312500 0.140625000
vt 0.820312500 0.187500000
vt 0.835937500 0.187500000
f 916/916 915/915 914/914 913/913
v -0.593750000 0.398437500 0.468750000
v -0.531250000 0.398437500 0.468750000
v -0.531250000 0.304687500 0.468750000
v -0.593750000 0.304687500 0.468750000
vt 0.867187500 0.140625000
vt 0.851562500 0.140625000
vt 0.851562500 0.187500000
vt 0.867187500 0.187500000
f 920/920 919/919 918/918 917/917
o shape87_31
usemtl gun
v 1.562500000 0.398437500 0.328125000
v 1.562500000 0.398437500 0.296875000
v 1.562500000 0.304687500 0.296875000
v 1.562500000 0.304687500 0.328125000
vt 0.054687500 0.062500000
vt 0.046875000 0.062500000
vt 0.046875000 0.109375000
vt 0.054687500 0.109375000
f 924/924 923/923 922/922 921/921
v 1.531250000 0.398437500 0.296875000
v 1.531250000 0.398437500 0.328125000
v 1.531250000 0.304687500 0.328125000
v 1.531250000 0.304687500 0.296875000
vt 0.039062500 0.062500000
vt 0.031250000 0.062500000
vt 0.031250000 0.109375000
vt 0.039062500 0.109375000
f 928/928 927/927 926/926 925/925
v 1.562500000 0.398437500 0.328125000
v 1.531250000 0.398437500 0.328125000
v 1.531250000 0.398437500 0.296875000
v 1.562500000 0.398437500 0.296875000
vt 0.046875000 0.046875000
vt 0.039062500 0.046875000
vt 0.039062500 0.062500000
vt 0.046875000 0.062500000
f 932/932 931/931 930/930 929/929
v 1.562500000 0.304687500 0.296875000
v 1.531250000 0.304687500 0.296875000
v 1.531250000 0.304687500 0.328125000
v 1.562500000 0.304687500 0.328125000
vt 0.054687500 0.062500000
vt 0.046875000 0.062500000
vt 0.046875000 0.046875000
vt 0.054687500 0.046875000
f 936/936 935/935 934/934 933/933
v 1.562500000 0.398437500 0.296875000
v 1.531250000 0.398437500 0.296875000
v 1.531250000 0.304687500 0.296875000
v 1.562500000 0.304687500 0.296875000
vt 0.046875000 0.062500000
vt 0.039062500 0.062500000
vt 0.039062500 0.109375000
vt 0.046875000 0.109375000
f 940/940 939/939 938/938 937/937
v 1.531250000 0.398437500 0.328125000
v 1.562500000 0.398437500 0.328125000
v 1.562500000 0.304687500 0.328125000
v 1.531250000 0.304687500 0.328125000
vt 0.062500000 0.062500000
vt 0.054687500 0.062500000
vt 0.054687500 0.109375000
vt 0.062500000 0.109375000
f 944/944 943/943 942/942 941/941
o shape87_19
usemtl gun
v 0.312500000 0.585937500 0.750000000
v 0.312500000 0.585937500 0.687500000
v 0.312500000 0.273437500 0.687500000
v 0.312500000 0.273437500 0.750000000
vt 0.867187500 0.593750000
vt 0.851562500 0.593750000
vt 0.851562500 0.750000000
vt 0.867187500 0.750000000
f 948/948 947/947 946/946 945/945
v 0.250000000 0.585937500 0.687500000
v 0.250000000 0.585937500 0.750000000
v 0.250000000 0.273437500 0.750000000
v 0.250000000 0.273437500 0.687500000
vt 0.835937500 0.593750000
vt 0.820312500 0.593750000
vt 0.820312500 0.750000000
vt 0.835937500 0.750000000
f 952/952 951/951 950/950 949/949
v 0.312500000 0.585937500 0.750000000
v 0.250000000 0.585937500 0.750000000
v 0.250000000 0.585937500 0.687500000
v 0.312500000 0.585937500 0.687500000
vt 0.851562500 0.562500000
vt 0.835937500 0.562500000
vt 0.835937500 0.593750000
vt 0.851562500 0.593750000
f 956/956 955/955 954/954 953/953
v 0.312500000 0.273437500 0.687500000
v 0.250000000 0.273437500 0.687500000
v 0.250000000 0.273437500 0.750000000
v 0.312500000 0.273437500 0.750000000
vt 0.867187500 0.593750000
vt 0.851562500 0.593750000
vt 0.851562500 0.562500000
vt 0.867187500 0.562500000
f 960/960 959/959 958/958 957/957
v 0.312500000 0.585937500 0.687500000
v 0.250000000 0.585937500 0.687500000
v 0.250000000 0.273437500 0.687500000
v 0.312500000 0.273437500 0.687500000
vt 0.851562500 0.593750000
vt 0.835937500 0.593750000
vt 0.835937500 0.750000000
vt 0.851562500 0.750000000
f 964/964 963/963 962/962 961/961
v 0.250000000 0.585937500 0.750000000
v 0.312500000 0.585937500 0.750000000
v 0.312500000 0.273437500 0.750000000
v 0.250000000 0.273437500 0.750000000
vt 0.882812500 0.593750000
vt 0.867187500 0.593750000
vt 0.867187500 0.750000000
vt 0.882812500 0.750000000
f 968/968 967/967 966/966 965/965
o Shape26_8
usemtl gun
v -0.156250000 0.304687500 0.468750000
v -0.156250000 0.304687500 0.406250000
v -0.156250000 0.210937500 0.406250000
v -0.156250000 0.210937500 0.468750000
vt 0.898437500 0.234375000
vt 0.882812500 0.234375000
vt 0.882812500 0.281250000
vt 0.898437500 0.281250000
f 972/972 971/971 970/970 969/969
v -0.218750000 0.304687500 0.406250000
v -0.218750000 0.304687500 0.468750000
v -0.218750000 0.210937500 0.468750000
v -0.218750000 0.210937500 0.406250000
vt 0.867187500 0.234375000
vt 0.851562500 0.234375000
vt 0.851562500 0.281250000
vt 0.867187500 0.281250000
f 976/976 975/975 974/974 973/973
v -0.156250000 0.304687500 0.468750000
v -0.218750000 0.304687500 0.468750000
v -0.218750000 0.304687500 0.406250000
v -0.156250000 0.304687500 0.406250000
vt 0.882812500 0.203125000
vt 0.867187500 0.203125000
vt 0.867187500 0.234375000
vt 0.882812500 0.234375000
f 980/980 979/979 978/978 977/977
v -0.156250000 0.210937500 0.406250000
v -0.218750000 0.210937500 0.406250000
v -0.218750000 0.210937500 0.468750000
v -0.156250000 0.210937500 0.468750000
vt 0.898437500 0.234375000
vt 0.882812500 0.234375000
vt 0.882812500 0.203125000
vt 0.898437500 0.203125000
f 984/984 983/983 982/982 981/981
v -0.156250000 0.304687500 0.406250000
v -0.218750000 0.304687500 0.406250000
v -0.218750000 0.210937500 0.406250000
v -0.156250000 0.210937500 0.406250000
vt 0.882812500 0.234375000
vt 0.867187500 0.234375000
vt 0.867187500 0.281250000
vt 0.882812500 0.281250000
f 988/988 987/987 986/986 985/985
v -0.218750000 0.304687500 0.468750000
v -0.156250000 0.304687500 0.468750000
v -0.156250000 0.210937500 0.468750000
v -0.218750000 0.210937500 0.468750000
vt 0.914062500 0.234375000
vt 0.898437500 0.234375000
vt 0.898437500 0.281250000
vt 0.914062500 0.281250000
f 992/992 991/991 990/990 989/989
o shape87_7
usemtl gun
v 0.251110435 0.351562500 0.625000000
v 0.251110435 0.351562500 0.593750000
v 0.140625000 0.241077065 0.593750000
v 0.140625000 0.241077065 0.625000000
vt 0.562500000 0.406250000
vt 0.554687500 0.406250000
vt 0.554687500 0.484375000
vt 0.562500000 0.484375000
f 996/996 995/995 994/994 993/993
v 0.140625000 0.462047935 0.593750000
v 0.140625000 0.462047935 0.625000000
v 0.030139565 0.351562500 0.625000000
v 0.030139565 0.351562500 0.593750000
vt 0.515625000 0.406250000
vt 0.507812500 0.406250000
vt 0.507812500 0.484375000
vt 0.515625000 0.484375000
f 1000/1000 999/999 998/998 997/997
v 0.251110435 0.351562500 0.625000000
v 0.140625000 0.462047935 0.625000000
v 0.140625000 0.462047935 0.593750000
v 0.251110435 0.351562500 0.593750000
vt 0.554687500 0.390625000
vt 0.515625000 0.390625000
vt 0.515625000 0.406250000
vt 0.554687500 0.406250000
f 1004/1004 1003/1003 1002/1002 1001/1001
v 0.140625000 0.241077065 0.593750000
v 0.030139565 0.351562500 0.593750000
v 0.030139565 0.351562500 0.625000000
v 0.140625000 0.241077065 0.625000000
vt 0.593750000 0.406250000
vt 0.554687500 0.406250000
vt 0.554687500 0.390625000
vt 0.593750000 0.390625000
f 1008/1008 1007/1007 1006/1006 1005/1005
v 0.251110435 0.351562500 0.593750000
v 0.140625000 0.462047935 0.593750000
v 0.030139565 0.351562500 0.593750000
v 0.140625000 0.241077065 0.593750000
vt 0.554687500 0.406250000
vt 0.515625000 0.406250000
vt 0.515625000 0.484375000
vt 0.554687500 0.484375000
f 1012/1012 1011/1011 1010/1010 1009/1009
v 0.140625000 0.462047935 0.625000000
v 0.251110435 0.351562500 0.625000000
v 0.140625000 0.241077065 0.625000000
v 0.030139565 0.351562500 0.625000000
vt 0.601562500 0.406250000
vt 0.562500000 0.406250000
vt 0.562500000 0.484375000
vt 0.601562500 0.484375000
f 1016/1016 1015/1015 1014/1014 1013/1013
o shape87_14
usemtl gun
v 0.312500000 0.273437500 0.750000000
v 0.312500000 0.273437500 0.718750000
v 0.312500000 0.242187500 0.718750000
v 0.312500000 0.242187500 0.750000000
vt 0.703125000 0.562500000
vt 0.695312500 0.562500000
vt 0.695312500 0.578125000
vt 0.703125000 0.578125000
f 1020/1020 1019/1019 1018/1018 1017/1017
v 0.250000000 0.273437500 0.718750000
v 0.250000000 0.273437500 0.750000000
v 0.250000000 0.242187500 0.750000000
v 0.250000000 0.242187500 0.718750000
vt 0.679687500 0.562500000
vt 0.671875000 0.562500000
vt 0.671875000 0.578125000
vt 0.679687500 0.578125000
f 1024/1024 1023/1023 1022/1022 1021/1021
v 0.312500000 0.273437500 0.750000000
v 0.250000000 0.273437500 0.750000000
v 0.250000000 0.273437500 0.718750000
v 0.312500000 0.273437500 0.718750000
vt 0.695312500 0.546875000
vt 0.679687500 0.546875000
vt 0.679687500 0.562500000
vt 0.695312500 0.562500000
f 1028/1028 1027/1027 1026/1026 1025/1025
v 0.312500000 0.242187500 0.718750000
v 0.250000000 0.242187500 0.718750000
v 0.250000000 0.242187500 0.750000000
v 0.312500000 0.242187500 0.750000000
vt 0.710937500 0.562500000
vt 0.695312500 0.562500000
vt 0.695312500 0.546875000
vt 0.710937500 0.546875000
f 1032/1032 1031/1031 1030/1030 1029/1029
v 0.312500000 0.273437500 0.718750000
v 0.250000000 0.273437500 0.718750000
v 0.250000000 0.242187500 0.718750000
v 0.312500000 0.242187500 0.718750000
vt 0.695312500 0.562500000
vt 0.679687500 0.562500000
vt 0.679687500 0.578125000
vt 0.695312500 0.578125000
f 1036/1036 1035/1035 1034/1034 1033/1033
v 0.250000000 0.273437500 0.750000000
v 0.312500000 0.273437500 0.750000000
v 0.312500000 0.242187500 0.750000000
v 0.250000000 0.242187500 0.750000000
vt 0.718750000 0.562500000
vt 0.703125000 0.562500000
vt 0.703125000 0.578125000
vt 0.718750000 0.578125000
f 1040/1040 1039/1039 1038/1038 1037/1037
o shape87_24
usemtl gun
v -0.031250000 0.445312500 0.312500000
v -0.031250000 0.445312500 0.281250000
v -0.031250000 0.351562500 0.281250000
v -0.031250000 0.351562500 0.312500000
vt 0.984375000 0.468750000
vt 0.976562500 0.468750000
vt 0.976562500 0.515625000
vt 0.984375000 0.515625000
f 1044/1044 1043/1043 1042/1042 1041/1041
v -0.125000000 0.445312500 0.281250000
v -0.125000000 0.445312500 0.312500000
v -0.125000000 0.351562500 0.312500000
v -0.125000000 0.351562500 0.281250000
vt 0.953125000 0.468750000
vt 0.945312500 0.468750000
vt 0.945312500 0.515625000
vt 0.953125000 0.515625000
f 1048/1048 1047/1047 1046/1046 1045/1045
v -0.031250000 0.445312500 0.312500000
v -0.125000000 0.445312500 0.312500000
v -0.125000000 0.445312500 0.281250000
v -0.031250000 0.445312500 0.281250000
vt 0.976562500 0.453125000
vt 0.953125000 0.453125000
vt 0.953125000 0.468750000
vt 0.976562500 0.468750000
f 1052/1052 1051/1051 1050/1050 1049/1049
v -0.031250000 0.351562500 0.281250000
v -0.125000000 0.351562500 0.281250000
v -0.125000000 0.351562500 0.312500000
v -0.031250000 0.351562500 0.312500000
vt 1.000000000 0.468750000
vt 0.976562500 0.468750000
vt 0.976562500 0.453125000
vt 1.000000000 0.453125000
f 1056/1056 1055/1055 1054/1054 1053/1053
v -0.031250000 0.445312500 0.281250000
v -0.125000000 0.445312500 0.281250000
v -0.125000000 0.351562500 0.281250000
v -0.031250000 0.351562500 0.281250000
vt 0.976562500 0.468750000
vt 0.953125000 0.468750000
vt 0.953125000 0.515625000
vt 0.976562500 0.515625000
f 1060/1060 1059/1059 1058/1058 1057/1057
v -0.125000000 0.445312500 0.312500000
v -0.093750000 0.445312500 0.312500000
v -0.093750000 0.351562500 0.312500000
v -0.125000000 0.351562500 0.312500000
vt 0.007812500 0.468750000
vt 0.000000000 0.468750000
vt 0.000000000 0.515625000
vt 0.007812500 0.515625000
f 1064/1064 1063/1063 1062/1062 1061/1061
v -0.093750000 0.445312500 0.312500000
v -0.031250000 0.445312500 0.312500000
v -0.031250000 0.351562500 0.312500000
v -0.093750000 0.351562500 0.312500000
vt 1.000000000 0.468750000
vt 0.984375000 0.468750000
vt 0.984375000 0.515625000
vt 1.000000000 0.515625000
f 1068/1068 1067/1067 1066/1066 1065/1065
o shape87_34
usemtl gun
v 1.500000000 0.445312500 0.328125000
v 1.500000000 0.445312500 0.296875000
v 1.500000000 0.257812500 0.296875000
v 1.500000000 0.257812500 0.328125000
vt 0.414062500 0.015625000
vt 0.406250000 0.015625000
vt 0.406250000 0.109375000
vt 0.414062500 0.109375000
f 1072/1072 1071/1071 1070/1070 1069/1069
v 0.468750000 0.445312500 0.296875000
v 0.468750000 0.445312500 0.328125000
v 0.468750000 0.257812500 0.328125000
v 0.468750000 0.257812500 0.296875000
vt 0.148437500 0.015625000
vt 0.140625000 0.015625000
vt 0.140625000 0.109375000
vt 0.148437500 0.109375000
f 1076/1076 1075/1075 1074/1074 1073/1073
v 1.500000000 0.445312500 0.328125000
v 0.468750000 0.445312500 0.328125000
v 0.468750000 0.445312500 0.296875000
v 1.500000000 0.445312500 0.296875000
vt 0.406250000 0.000000000
vt 0.148437500 0.000000000
vt 0.148437500 0.015625000
vt 0.406250000 0.015625000
f 1080/1080 1079/1079 1078/1078 1077/1077
v 1.500000000 0.257812500 0.296875000
v 0.468750000 0.257812500 0.296875000
v 0.468750000 0.257812500 0.328125000
v 1.500000000 0.257812500 0.328125000
vt 0.664062500 0.015625000
vt 0.406250000 0.015625000
vt 0.406250000 0.000000000
vt 0.664062500 0.000000000
f 1084/1084 1083/1083 1082/1082 1081/1081
v 1.500000000 0.445312500 0.296875000
v 0.468750000 0.445312500 0.296875000
v 0.468750000 0.257812500 0.296875000
v 1.500000000 0.257812500 0.296875000
vt 0.406250000 0.015625000
vt 0.148437500 0.015625000
vt 0.148437500 0.109375000
vt 0.406250000 0.109375000
f 1088/1088 1087/1087 1086/1086 1085/1085
v 0.468750000 0.445312500 0.328125000
v 1.500000000 0.445312500 0.328125000
v 1.500000000 0.257812500 0.328125000
v 0.468750000 0.257812500 0.328125000
vt 0.671875000 0.015625000
vt 0.414062500 0.015625000
vt 0.414062500 0.109375000
vt 0.671875000 0.109375000
f 1092/1092 1091/1091 1090/1090 1089/1089
