mtllib grenadelauncher_drum.mtl
#
# object drum
#
v 0.3750 0.59375 0.5000
v 0.6250 0.484375 0.68944375
v 0.6250 0.59375 0.5000
v 0.3750 0.484375 0.68944375
v 0.6250 0.265625 0.68944375
v 0.3750 0.265625 0.68944375
v 0.6250 0.15625 0.5000
v 0.3750 0.15625 0.5000
v 0.6250 0.265625 0.31055625
v 0.3750 0.265625 0.31055625
v 0.6250 0.484375 0.31055625
v 0.3750 0.484375 0.31055625
# 12 vertices

vn -0.0000 0.8660 0.5000
vn -0.0000 -0.0000 1.0000
vn -0.0000 -0.8660 0.5000
vn 0.0000 -0.8660 -0.5000
vn 0.0000 0.0000 -1.0000
vn 0.0000 0.8660 -0.5000
# 6 vertex normals

vt 0.7969 0.8672 0.0000
vt 0.9531 0.7344 0.0000
vt 0.9531 0.8672 0.0000
vt 0.7969 0.7344 0.0000
vt 0.9531 0.6016 0.0000
vt 0.7969 0.6016 0.0000
vt 0.9531 0.4688 0.0000
vt 0.7969 0.4688 0.0000
# 8 texture coords

g drum
usemtl tex
f 1/1/1 2/2/1 3/3/1
f 1/1/1 4/4/1 2/2/1
f 4/4/2 5/5/2 2/2/2
f 4/4/2 6/6/2 5/5/2
f 6/6/3 7/7/3 5/5/3
f 6/6/3 8/8/3 7/7/3
f 8/8/4 9/5/4 7/7/4
f 8/8/4 10/6/4 9/5/4
f 10/6/5 11/2/5 9/5/5
f 10/6/5 12/4/5 11/2/5
f 12/4/6 3/3/6 11/2/6
f 12/4/6 1/1/6 3/3/6
# 0 polygons - 12 triangles
