# Original Techguns ModelLaserPistol; Techguns Mod License
mtllib laserpistol.mtl
o Grip1
usemtl gun
v 0.530166401 0.554666214 0.639965251
v 0.530166401 0.534375000 0.548437500
v 0.530166401 0.351319499 0.589019928
v 0.530166401 0.371610712 0.680547678
vt 0.703125000 0.312500000
vt 0.656250000 0.312500000
vt 0.656250000 0.500000000
vt 0.703125000 0.500000000
f 4/4 3/3 2/2 1/1
v 0.467666401 0.534375000 0.548437500
v 0.467666401 0.554666214 0.639965251
v 0.467666401 0.371610712 0.680547678
v 0.467666401 0.351319499 0.589019928
vt 0.625000000 0.312500000
vt 0.578125000 0.312500000
vt 0.578125000 0.500000000
vt 0.625000000 0.500000000
f 8/8 7/7 6/6 5/5
v 0.530166401 0.554666214 0.639965251
v 0.467666401 0.554666214 0.639965251
v 0.467666401 0.534375000 0.548437500
v 0.530166401 0.534375000 0.548437500
vt 0.656250000 0.218750000
vt 0.625000000 0.218750000
vt 0.625000000 0.312500000
vt 0.656250000 0.312500000
f 12/12 11/11 10/10 9/9
v 0.530166401 0.351319499 0.589019928
v 0.467666401 0.351319499 0.589019928
v 0.467666401 0.371610712 0.680547678
v 0.530166401 0.371610712 0.680547678
vt 0.687500000 0.312500000
vt 0.656250000 0.312500000
vt 0.656250000 0.218750000
vt 0.687500000 0.218750000
f 16/16 15/15 14/14 13/13
v 0.530166401 0.534375000 0.548437500
v 0.467666401 0.534375000 0.548437500
v 0.467666401 0.351319499 0.589019928
v 0.530166401 0.351319499 0.589019928
vt 0.656250000 0.312500000
vt 0.625000000 0.312500000
vt 0.625000000 0.500000000
vt 0.656250000 0.500000000
f 20/20 19/19 18/18 17/17
v 0.467666401 0.554666214 0.639965251
v 0.530166401 0.554666214 0.639965251
v 0.530166401 0.371610712 0.680547678
v 0.467666401 0.371610712 0.680547678
vt 0.734375000 0.312500000
vt 0.703125000 0.312500000
vt 0.703125000 0.500000000
vt 0.734375000 0.500000000
f 24/24 23/23 22/22 21/21
o grip3
usemtl gun
v 0.530166401 0.378125000 0.564062500
v 0.530166401 0.378125000 0.501562500
v 0.530166401 0.315625000 0.501562500
v 0.530166401 0.315625000 0.564062500
vt 0.968750000 0.093750000
vt 0.937500000 0.093750000
vt 0.937500000 0.156250000
vt 0.968750000 0.156250000
f 28/28 27/27 26/26 25/25
v 0.467666401 0.378125000 0.501562500
v 0.467666401 0.378125000 0.564062500
v 0.467666401 0.315625000 0.564062500
v 0.467666401 0.315625000 0.501562500
vt 0.906250000 0.093750000
vt 0.875000000 0.093750000
vt 0.875000000 0.156250000
vt 0.906250000 0.156250000
f 32/32 31/31 30/30 29/29
v 0.530166401 0.378125000 0.564062500
v 0.467666401 0.378125000 0.564062500
v 0.467666401 0.378125000 0.501562500
v 0.530166401 0.378125000 0.501562500
vt 0.937500000 0.031250000
vt 0.906250000 0.031250000
vt 0.906250000 0.093750000
vt 0.937500000 0.093750000
f 36/36 35/35 34/34 33/33
v 0.530166401 0.315625000 0.501562500
v 0.467666401 0.315625000 0.501562500
v 0.467666401 0.315625000 0.564062500
v 0.530166401 0.315625000 0.564062500
vt 0.968750000 0.093750000
vt 0.937500000 0.093750000
vt 0.937500000 0.031250000
vt 0.968750000 0.031250000
f 40/40 39/39 38/38 37/37
v 0.530166401 0.378125000 0.501562500
v 0.467666401 0.378125000 0.501562500
v 0.467666401 0.315625000 0.501562500
v 0.530166401 0.315625000 0.501562500
vt 0.937500000 0.093750000
vt 0.906250000 0.093750000
vt 0.906250000 0.156250000
vt 0.937500000 0.156250000
f 44/44 43/43 42/42 41/41
v 0.467666401 0.378125000 0.564062500
v 0.530166401 0.378125000 0.564062500
v 0.530166401 0.315625000 0.564062500
v 0.467666401 0.315625000 0.564062500
vt 1.000000000 0.093750000
vt 0.968750000 0.093750000
vt 0.968750000 0.156250000
vt 1.000000000 0.156250000
f 48/48 47/47 46/46 45/45
o grip2
usemtl gun
v 0.545791401 0.378125000 0.689062500
v 0.545791401 0.378125000 0.564062500
v 0.545791401 0.315625000 0.564062500
v 0.545791401 0.315625000 0.689062500
vt 0.750000000 0.125000000
vt 0.687500000 0.125000000
vt 0.687500000 0.187500000
vt 0.750000000 0.187500000
f 52/52 51/51 50/50 49/49
v 0.452041401 0.378125000 0.564062500
v 0.452041401 0.378125000 0.689062500
v 0.452041401 0.315625000 0.689062500
v 0.452041401 0.315625000 0.564062500
vt 0.640625000 0.125000000
vt 0.578125000 0.125000000
vt 0.578125000 0.187500000
vt 0.640625000 0.187500000
f 56/56 55/55 54/54 53/53
v 0.545791401 0.378125000 0.689062500
v 0.452041401 0.378125000 0.689062500
v 0.452041401 0.378125000 0.564062500
v 0.545791401 0.378125000 0.564062500
vt 0.687500000 0.000000000
vt 0.640625000 0.000000000
vt 0.640625000 0.125000000
vt 0.687500000 0.125000000
f 60/60 59/59 58/58 57/57
v 0.545791401 0.315625000 0.564062500
v 0.452041401 0.315625000 0.564062500
v 0.452041401 0.315625000 0.689062500
v 0.545791401 0.315625000 0.689062500
vt 0.734375000 0.125000000
vt 0.687500000 0.125000000
vt 0.687500000 0.000000000
vt 0.734375000 0.000000000
f 64/64 63/63 62/62 61/61
v 0.545791401 0.378125000 0.564062500
v 0.452041401 0.378125000 0.564062500
v 0.452041401 0.315625000 0.564062500
v 0.545791401 0.315625000 0.564062500
vt 0.687500000 0.125000000
vt 0.640625000 0.125000000
vt 0.640625000 0.187500000
vt 0.687500000 0.187500000
f 68/68 67/67 66/66 65/65
v 0.452041401 0.378125000 0.689062500
v 0.545791401 0.378125000 0.689062500
v 0.545791401 0.315625000 0.689062500
v 0.452041401 0.315625000 0.689062500
vt 0.796875000 0.125000000
vt 0.750000000 0.125000000
vt 0.750000000 0.187500000
vt 0.796875000 0.187500000
f 72/72 71/71 70/70 69/69
o Trigger
usemtl gun
v 0.514541401 0.534375000 0.579687500
v 0.514541401 0.534375000 0.517187500
v 0.514541401 0.471875000 0.517187500
v 0.514541401 0.471875000 0.579687500
vt 0.984375000 0.312500000
vt 0.953125000 0.312500000
vt 0.953125000 0.375000000
vt 0.984375000 0.375000000
f 76/76 75/75 74/74 73/73
v 0.483291401 0.534375000 0.517187500
v 0.483291401 0.534375000 0.579687500
v 0.483291401 0.471875000 0.579687500
v 0.483291401 0.471875000 0.517187500
vt 0.937500000 0.312500000
vt 0.906250000 0.312500000
vt 0.906250000 0.375000000
vt 0.937500000 0.375000000
f 80/80 79/79 78/78 77/77
v 0.514541401 0.534375000 0.579687500
v 0.483291401 0.534375000 0.579687500
v 0.483291401 0.534375000 0.517187500
v 0.514541401 0.534375000 0.517187500
vt 0.953125000 0.250000000
vt 0.937500000 0.250000000
vt 0.937500000 0.312500000
vt 0.953125000 0.312500000
f 84/84 83/83 82/82 81/81
v 0.514541401 0.471875000 0.517187500
v 0.483291401 0.471875000 0.517187500
v 0.483291401 0.471875000 0.579687500
v 0.514541401 0.471875000 0.579687500
vt 0.968750000 0.312500000
vt 0.953125000 0.312500000
vt 0.953125000 0.250000000
vt 0.968750000 0.250000000
f 88/88 87/87 86/86 85/85
v 0.514541401 0.534375000 0.517187500
v 0.483291401 0.534375000 0.517187500
v 0.483291401 0.471875000 0.517187500
v 0.514541401 0.471875000 0.517187500
vt 0.953125000 0.312500000
vt 0.937500000 0.312500000
vt 0.937500000 0.375000000
vt 0.953125000 0.375000000
f 92/92 91/91 90/90 89/89
v 0.483291401 0.534375000 0.579687500
v 0.514541401 0.534375000 0.579687500
v 0.514541401 0.471875000 0.579687500
v 0.483291401 0.471875000 0.579687500
vt 1.000000000 0.312500000
vt 0.984375000 0.312500000
vt 0.984375000 0.375000000
vt 1.000000000 0.375000000
f 96/96 95/95 94/94 93/93
o BarrelFront
usemtl gun
v 0.530166401 0.509375000 0.298437500
v 0.530166401 0.509375000 0.235937500
v 0.530166401 0.478125000 0.235937500
v 0.530166401 0.478125000 0.298437500
vt 0.562500000 0.250000000
vt 0.531250000 0.250000000
vt 0.531250000 0.281250000
vt 0.562500000 0.281250000
f 100/100 99/99 98/98 97/97
v 0.467666401 0.509375000 0.235937500
v 0.467666401 0.509375000 0.298437500
v 0.467666401 0.478125000 0.298437500
v 0.467666401 0.478125000 0.235937500
vt 0.500000000 0.250000000
vt 0.468750000 0.250000000
vt 0.468750000 0.281250000
vt 0.500000000 0.281250000
f 104/104 103/103 102/102 101/101
v 0.530166401 0.509375000 0.298437500
v 0.467666401 0.509375000 0.298437500
v 0.467666401 0.509375000 0.235937500
v 0.530166401 0.509375000 0.235937500
vt 0.531250000 0.187500000
vt 0.500000000 0.187500000
vt 0.500000000 0.250000000
vt 0.531250000 0.250000000
f 108/108 107/107 106/106 105/105
v 0.530166401 0.478125000 0.235937500
v 0.467666401 0.478125000 0.235937500
v 0.467666401 0.478125000 0.298437500
v 0.530166401 0.478125000 0.298437500
vt 0.562500000 0.250000000
vt 0.531250000 0.250000000
vt 0.531250000 0.187500000
vt 0.562500000 0.187500000
f 112/112 111/111 110/110 109/109
v 0.530166401 0.509375000 0.235937500
v 0.467666401 0.509375000 0.235937500
v 0.467666401 0.478125000 0.235937500
v 0.530166401 0.478125000 0.235937500
vt 0.531250000 0.250000000
vt 0.500000000 0.250000000
vt 0.500000000 0.281250000
vt 0.531250000 0.281250000
f 116/116 115/115 114/114 113/113
v 0.467666401 0.509375000 0.298437500
v 0.530166401 0.509375000 0.298437500
v 0.530166401 0.478125000 0.298437500
v 0.467666401 0.478125000 0.298437500
vt 0.593750000 0.250000000
vt 0.562500000 0.250000000
vt 0.562500000 0.281250000
vt 0.593750000 0.281250000
f 120/120 119/119 118/118 117/117
o CylinderFront
usemtl gun
v 0.449138488 0.653125000 0.357812500
v 0.449138488 0.653125000 0.232812500
v 0.427041401 0.631027913 0.232812500
v 0.427041401 0.631027913 0.357812500
vt 0.265625000 0.125000000
vt 0.203125000 0.125000000
vt 0.203125000 0.156250000
vt 0.265625000 0.156250000
f 124/124 123/123 122/122 121/121
v 0.427041401 0.675222087 0.232812500
v 0.427041401 0.675222087 0.357812500
v 0.404944314 0.653125000 0.357812500
v 0.404944314 0.653125000 0.232812500
vt 0.187500000 0.125000000
vt 0.125000000 0.125000000
vt 0.125000000 0.156250000
vt 0.187500000 0.156250000
f 128/128 127/127 126/126 125/125
v 0.449138488 0.653125000 0.357812500
v 0.427041401 0.675222087 0.357812500
v 0.427041401 0.675222087 0.232812500
v 0.449138488 0.653125000 0.232812500
vt 0.203125000 0.000000000
vt 0.187500000 0.000000000
vt 0.187500000 0.125000000
vt 0.203125000 0.125000000
f 132/132 131/131 130/130 129/129
v 0.427041401 0.631027913 0.232812500
v 0.404944314 0.653125000 0.232812500
v 0.404944314 0.653125000 0.357812500
v 0.427041401 0.631027913 0.357812500
vt 0.218750000 0.125000000
vt 0.203125000 0.125000000
vt 0.203125000 0.000000000
vt 0.218750000 0.000000000
f 136/136 135/135 134/134 133/133
v 0.449138488 0.653125000 0.232812500
v 0.427041401 0.675222087 0.232812500
v 0.404944314 0.653125000 0.232812500
v 0.427041401 0.631027913 0.232812500
vt 0.203125000 0.125000000
vt 0.187500000 0.125000000
vt 0.187500000 0.156250000
vt 0.203125000 0.156250000
f 140/140 139/139 138/138 137/137
v 0.427041401 0.675222087 0.357812500
v 0.449138488 0.653125000 0.357812500
v 0.427041401 0.631027913 0.357812500
v 0.404944314 0.653125000 0.357812500
vt 0.281250000 0.125000000
vt 0.265625000 0.125000000
vt 0.265625000 0.156250000
vt 0.281250000 0.156250000
f 144/144 143/143 142/142 141/141
o BottomFront
usemtl gun
v 0.543110575 0.368750000 0.314062500
v 0.543110575 0.368750000 0.251562500
v 0.498916401 0.324555826 0.251562500
v 0.498916401 0.324555826 0.314062500
vt 0.531250000 0.375000000
vt 0.500000000 0.375000000
vt 0.500000000 0.437500000
vt 0.531250000 0.437500000
f 148/148 147/147 146/146 145/145
v 0.498916401 0.412944174 0.251562500
v 0.498916401 0.412944174 0.314062500
v 0.454722227 0.368750000 0.314062500
v 0.454722227 0.368750000 0.251562500
vt 0.468750000 0.375000000
vt 0.437500000 0.375000000
vt 0.437500000 0.437500000
vt 0.468750000 0.437500000
f 152/152 151/151 150/150 149/149
v 0.543110575 0.368750000 0.314062500
v 0.498916401 0.412944174 0.314062500
v 0.498916401 0.412944174 0.251562500
v 0.543110575 0.368750000 0.251562500
vt 0.500000000 0.312500000
vt 0.468750000 0.312500000
vt 0.468750000 0.375000000
vt 0.500000000 0.375000000
f 156/156 155/155 154/154 153/153
v 0.498916401 0.324555826 0.251562500
v 0.454722227 0.368750000 0.251562500
v 0.454722227 0.368750000 0.314062500
v 0.498916401 0.324555826 0.314062500
vt 0.531250000 0.375000000
vt 0.500000000 0.375000000
vt 0.500000000 0.312500000
vt 0.531250000 0.312500000
f 160/160 159/159 158/158 157/157
v 0.543110575 0.368750000 0.251562500
v 0.498916401 0.412944174 0.251562500
v 0.454722227 0.368750000 0.251562500
v 0.498916401 0.324555826 0.251562500
vt 0.500000000 0.375000000
vt 0.468750000 0.375000000
vt 0.468750000 0.437500000
vt 0.500000000 0.437500000
f 164/164 163/163 162/162 161/161
v 0.498916401 0.412944174 0.314062500
v 0.543110575 0.368750000 0.314062500
v 0.498916401 0.324555826 0.314062500
v 0.454722227 0.368750000 0.314062500
vt 0.562500000 0.375000000
vt 0.531250000 0.375000000
vt 0.531250000 0.437500000
vt 0.562500000 0.437500000
f 168/168 167/167 166/166 165/165
o Barrel5
usemtl gun
v 0.545791401 0.675000000 0.642187500
v 0.545791401 0.675000000 0.517187500
v 0.545791401 0.643750000 0.517187500
v 0.545791401 0.643750000 0.642187500
vt 0.312500000 0.937500000
vt 0.250000000 0.937500000
vt 0.250000000 0.968750000
vt 0.312500000 0.968750000
f 172/172 171/171 170/170 169/169
v 0.452041401 0.675000000 0.517187500
v 0.452041401 0.675000000 0.642187500
v 0.452041401 0.643750000 0.642187500
v 0.452041401 0.643750000 0.517187500
vt 0.203125000 0.937500000
vt 0.140625000 0.937500000
vt 0.140625000 0.968750000
vt 0.203125000 0.968750000
f 176/176 175/175 174/174 173/173
v 0.545791401 0.675000000 0.642187500
v 0.452041401 0.675000000 0.642187500
v 0.452041401 0.675000000 0.517187500
v 0.545791401 0.675000000 0.517187500
vt 0.250000000 0.812500000
vt 0.203125000 0.812500000
vt 0.203125000 0.937500000
vt 0.250000000 0.937500000
f 180/180 179/179 178/178 177/177
v 0.545791401 0.643750000 0.517187500
v 0.452041401 0.643750000 0.517187500
v 0.452041401 0.643750000 0.642187500
v 0.545791401 0.643750000 0.642187500
vt 0.296875000 0.937500000
vt 0.250000000 0.937500000
vt 0.250000000 0.812500000
vt 0.296875000 0.812500000
f 184/184 183/183 182/182 181/181
v 0.545791401 0.675000000 0.517187500
v 0.452041401 0.675000000 0.517187500
v 0.452041401 0.643750000 0.517187500
v 0.545791401 0.643750000 0.517187500
vt 0.250000000 0.937500000
vt 0.203125000 0.937500000
vt 0.203125000 0.968750000
vt 0.250000000 0.968750000
f 188/188 187/187 186/186 185/185
v 0.452041401 0.675000000 0.642187500
v 0.545791401 0.675000000 0.642187500
v 0.545791401 0.643750000 0.642187500
v 0.452041401 0.643750000 0.642187500
vt 0.359375000 0.937500000
vt 0.312500000 0.937500000
vt 0.312500000 0.968750000
vt 0.359375000 0.968750000
f 192/192 191/191 190/190 189/189
o Cylinder2
usemtl gun
v 0.442888488 0.534375000 0.673437500
v 0.442888488 0.534375000 0.517187500
v 0.420791401 0.512277913 0.517187500
v 0.420791401 0.512277913 0.673437500
vt 0.468750000 0.156250000
vt 0.390625000 0.156250000
vt 0.390625000 0.187500000
vt 0.468750000 0.187500000
f 196/196 195/195 194/194 193/193
v 0.420791401 0.556472087 0.517187500
v 0.420791401 0.556472087 0.673437500
v 0.398694314 0.534375000 0.673437500
v 0.398694314 0.534375000 0.517187500
vt 0.375000000 0.156250000
vt 0.296875000 0.156250000
vt 0.296875000 0.187500000
vt 0.375000000 0.187500000
f 200/200 199/199 198/198 197/197
v 0.442888488 0.534375000 0.673437500
v 0.420791401 0.556472087 0.673437500
v 0.420791401 0.556472087 0.517187500
v 0.442888488 0.534375000 0.517187500
vt 0.390625000 0.000000000
vt 0.375000000 0.000000000
vt 0.375000000 0.156250000
vt 0.390625000 0.156250000
f 204/204 203/203 202/202 201/201
v 0.420791401 0.512277913 0.517187500
v 0.398694314 0.534375000 0.517187500
v 0.398694314 0.534375000 0.673437500
v 0.420791401 0.512277913 0.673437500
vt 0.406250000 0.156250000
vt 0.390625000 0.156250000
vt 0.390625000 0.000000000
vt 0.406250000 0.000000000
f 208/208 207/207 206/206 205/205
v 0.442888488 0.534375000 0.517187500
v 0.420791401 0.556472087 0.517187500
v 0.398694314 0.534375000 0.517187500
v 0.420791401 0.512277913 0.517187500
vt 0.390625000 0.156250000
vt 0.375000000 0.156250000
vt 0.375000000 0.187500000
vt 0.390625000 0.187500000
f 212/212 211/211 210/210 209/209
v 0.420791401 0.556472087 0.673437500
v 0.442888488 0.534375000 0.673437500
v 0.420791401 0.512277913 0.673437500
v 0.398694314 0.534375000 0.673437500
vt 0.484375000 0.156250000
vt 0.468750000 0.156250000
vt 0.468750000 0.187500000
vt 0.484375000 0.187500000
f 216/216 215/215 214/214 213/213
o Barrel2
usemtl gun
v 0.577041401 0.665625000 0.392187500
v 0.577041401 0.665625000 0.235937500
v 0.577041401 0.509375000 0.235937500
v 0.577041401 0.509375000 0.392187500
vt 0.921875000 0.843750000
vt 0.843750000 0.843750000
vt 0.843750000 1.000000000
vt 0.921875000 1.000000000
f 220/220 219/219 218/218 217/217
v 0.420791401 0.665625000 0.235937500
v 0.420791401 0.665625000 0.392187500
v 0.420791401 0.509375000 0.392187500
v 0.420791401 0.509375000 0.235937500
vt 0.765625000 0.843750000
vt 0.687500000 0.843750000
vt 0.687500000 1.000000000
vt 0.765625000 1.000000000
f 224/224 223/223 222/222 221/221
v 0.577041401 0.665625000 0.392187500
v 0.420791401 0.665625000 0.392187500
v 0.420791401 0.665625000 0.235937500
v 0.577041401 0.665625000 0.235937500
vt 0.843750000 0.687500000
vt 0.765625000 0.687500000
vt 0.765625000 0.843750000
vt 0.843750000 0.843750000
f 228/228 227/227 226/226 225/225
v 0.577041401 0.509375000 0.235937500
v 0.420791401 0.509375000 0.235937500
v 0.420791401 0.509375000 0.392187500
v 0.577041401 0.509375000 0.392187500
vt 0.921875000 0.843750000
vt 0.843750000 0.843750000
vt 0.843750000 0.687500000
vt 0.921875000 0.687500000
f 232/232 231/231 230/230 229/229
v 0.577041401 0.665625000 0.235937500
v 0.420791401 0.665625000 0.235937500
v 0.420791401 0.509375000 0.235937500
v 0.577041401 0.509375000 0.235937500
vt 0.843750000 0.843750000
vt 0.765625000 0.843750000
vt 0.765625000 1.000000000
vt 0.843750000 1.000000000
f 236/236 235/235 234/234 233/233
v 0.420791401 0.665625000 0.392187500
v 0.577041401 0.665625000 0.392187500
v 0.577041401 0.509375000 0.392187500
v 0.420791401 0.509375000 0.392187500
vt 1.000000000 0.843750000
vt 0.921875000 0.843750000
vt 0.921875000 1.000000000
vt 1.000000000 1.000000000
f 240/240 239/239 238/238 237/237
o Cylinder1
usemtl gun
v 0.599138488 0.534375000 0.673437500
v 0.599138488 0.534375000 0.517187500
v 0.577041401 0.512277913 0.517187500
v 0.577041401 0.512277913 0.673437500
vt 0.468750000 0.156250000
vt 0.390625000 0.156250000
vt 0.390625000 0.187500000
vt 0.468750000 0.187500000
f 244/244 243/243 242/242 241/241
v 0.577041401 0.556472087 0.517187500
v 0.577041401 0.556472087 0.673437500
v 0.554944314 0.534375000 0.673437500
v 0.554944314 0.534375000 0.517187500
vt 0.375000000 0.156250000
vt 0.296875000 0.156250000
vt 0.296875000 0.187500000
vt 0.375000000 0.187500000
f 248/248 247/247 246/246 245/245
v 0.599138488 0.534375000 0.673437500
v 0.577041401 0.556472087 0.673437500
v 0.577041401 0.556472087 0.517187500
v 0.599138488 0.534375000 0.517187500
vt 0.390625000 0.000000000
vt 0.375000000 0.000000000
vt 0.375000000 0.156250000
vt 0.390625000 0.156250000
f 252/252 251/251 250/250 249/249
v 0.577041401 0.512277913 0.517187500
v 0.554944314 0.534375000 0.517187500
v 0.554944314 0.534375000 0.673437500
v 0.577041401 0.512277913 0.673437500
vt 0.406250000 0.156250000
vt 0.390625000 0.156250000
vt 0.390625000 0.000000000
vt 0.406250000 0.000000000
f 256/256 255/255 254/254 253/253
v 0.599138488 0.534375000 0.517187500
v 0.577041401 0.556472087 0.517187500
v 0.554944314 0.534375000 0.517187500
v 0.577041401 0.512277913 0.517187500
vt 0.390625000 0.156250000
vt 0.375000000 0.156250000
vt 0.375000000 0.187500000
vt 0.390625000 0.187500000
f 260/260 259/259 258/258 257/257
v 0.577041401 0.556472087 0.673437500
v 0.599138488 0.534375000 0.673437500
v 0.577041401 0.512277913 0.673437500
v 0.554944314 0.534375000 0.673437500
vt 0.484375000 0.156250000
vt 0.468750000 0.156250000
vt 0.468750000 0.187500000
vt 0.484375000 0.187500000
f 264/264 263/263 262/262 261/261
o Front2
usemtl gun
v 0.523916401 0.493750000 0.298437500
v 0.523916401 0.493750000 0.267187500
v 0.523916401 0.368750000 0.267187500
v 0.523916401 0.368750000 0.298437500
vt 0.562500000 0.031250000
vt 0.546875000 0.031250000
vt 0.546875000 0.156250000
vt 0.562500000 0.156250000
f 265/265 266/266 267/267 268/268
v 0.523916401 0.493750000 0.267187500
v 0.523916401 0.493750000 0.298437500
v 0.523916401 0.368750000 0.298437500
v 0.523916401 0.368750000 0.267187500
vt 0.546875000 0.031250000
vt 0.531250000 0.031250000
vt 0.531250000 0.156250000
vt 0.546875000 0.156250000
f 269/269 270/270 271/271 272/272
o BottomRound
usemtl gun
v 0.521013488 0.346875000 0.501562500
v 0.521013488 0.346875000 0.314062500
v 0.498916401 0.324777913 0.314062500
v 0.498916401 0.324777913 0.501562500
vt 0.593750000 0.656250000
vt 0.500000000 0.656250000
vt 0.500000000 0.687500000
vt 0.593750000 0.687500000
f 276/276 275/275 274/274 273/273
v 0.498916401 0.368972087 0.314062500
v 0.498916401 0.368972087 0.501562500
v 0.476819314 0.346875000 0.501562500
v 0.476819314 0.346875000 0.314062500
vt 0.484375000 0.656250000
vt 0.390625000 0.656250000
vt 0.390625000 0.687500000
vt 0.484375000 0.687500000
f 280/280 279/279 278/278 277/277
v 0.521013488 0.346875000 0.501562500
v 0.498916401 0.368972087 0.501562500
v 0.498916401 0.368972087 0.314062500
v 0.521013488 0.346875000 0.314062500
vt 0.500000000 0.468750000
vt 0.484375000 0.468750000
vt 0.484375000 0.656250000
vt 0.500000000 0.656250000
f 284/284 283/283 282/282 281/281
v 0.498916401 0.324777913 0.314062500
v 0.476819314 0.346875000 0.314062500
v 0.476819314 0.346875000 0.501562500
v 0.498916401 0.324777913 0.501562500
vt 0.515625000 0.656250000
vt 0.500000000 0.656250000
vt 0.500000000 0.468750000
vt 0.515625000 0.468750000
f 288/288 287/287 286/286 285/285
v 0.521013488 0.346875000 0.314062500
v 0.498916401 0.368972087 0.314062500
v 0.476819314 0.346875000 0.314062500
v 0.498916401 0.324777913 0.314062500
vt 0.500000000 0.656250000
vt 0.484375000 0.656250000
vt 0.484375000 0.687500000
vt 0.500000000 0.687500000
f 292/292 291/291 290/290 289/289
v 0.498916401 0.368972087 0.501562500
v 0.521013488 0.346875000 0.501562500
v 0.498916401 0.324777913 0.501562500
v 0.476819314 0.346875000 0.501562500
vt 0.609375000 0.656250000
vt 0.593750000 0.656250000
vt 0.593750000 0.687500000
vt 0.609375000 0.687500000
f 296/296 295/295 294/294 293/293
o Front1
usemtl gun
v 0.473916401 0.493750000 0.298437500
v 0.473916401 0.493750000 0.267187500
v 0.473916401 0.368750000 0.267187500
v 0.473916401 0.368750000 0.298437500
vt 0.562500000 0.031250000
vt 0.546875000 0.031250000
vt 0.546875000 0.156250000
vt 0.562500000 0.156250000
f 300/300 299/299 298/298 297/297
v 0.473916401 0.493750000 0.267187500
v 0.473916401 0.493750000 0.298437500
v 0.473916401 0.368750000 0.298437500
v 0.473916401 0.368750000 0.267187500
vt 0.546875000 0.031250000
vt 0.531250000 0.031250000
vt 0.531250000 0.156250000
vt 0.546875000 0.156250000
f 304/304 303/303 302/302 301/301
o Side1
usemtl gun
v 0.577041401 0.650000000 0.642187500
v 0.601305686 0.650000000 0.551631954
v 0.601305686 0.556250000 0.551631954
v 0.577041401 0.556250000 0.642187500
vt 0.390625000 0.343750000
vt 0.343750000 0.343750000
vt 0.343750000 0.437500000
vt 0.390625000 0.437500000
f 308/308 307/307 306/306 305/305
v 0.540935322 0.650000000 0.535455763
v 0.516671037 0.650000000 0.626011310
v 0.516671037 0.556250000 0.626011310
v 0.540935322 0.556250000 0.535455763
vt 0.312500000 0.343750000
vt 0.265625000 0.343750000
vt 0.265625000 0.437500000
vt 0.312500000 0.437500000
f 312/312 311/311 310/310 309/309
v 0.577041401 0.650000000 0.642187500
v 0.516671037 0.650000000 0.626011310
v 0.540935322 0.650000000 0.535455763
v 0.601305686 0.650000000 0.551631954
vt 0.343750000 0.250000000
vt 0.312500000 0.250000000
vt 0.312500000 0.343750000
vt 0.343750000 0.343750000
f 316/316 315/315 314/314 313/313
v 0.601305686 0.556250000 0.551631954
v 0.540935322 0.556250000 0.535455763
v 0.516671037 0.556250000 0.626011310
v 0.577041401 0.556250000 0.642187500
vt 0.375000000 0.343750000
vt 0.343750000 0.343750000
vt 0.343750000 0.250000000
vt 0.375000000 0.250000000
f 320/320 319/319 318/318 317/317
v 0.601305686 0.650000000 0.551631954
v 0.540935322 0.650000000 0.535455763
v 0.540935322 0.556250000 0.535455763
v 0.601305686 0.556250000 0.551631954
vt 0.343750000 0.343750000
vt 0.312500000 0.343750000
vt 0.312500000 0.437500000
vt 0.343750000 0.437500000
f 324/324 323/323 322/322 321/321
v 0.516671037 0.650000000 0.626011310
v 0.577041401 0.650000000 0.642187500
v 0.577041401 0.556250000 0.642187500
v 0.516671037 0.556250000 0.626011310
vt 0.421875000 0.343750000
vt 0.390625000 0.343750000
vt 0.390625000 0.437500000
vt 0.421875000 0.437500000
f 328/328 327/327 326/326 325/325
o Barrel4
usemtl gun
v 0.577041401 0.675000000 0.767187500
v 0.577041401 0.675000000 0.642187500
v 0.577041401 0.518750000 0.642187500
v 0.577041401 0.518750000 0.767187500
vt 0.593750000 0.843750000
vt 0.531250000 0.843750000
vt 0.531250000 1.000000000
vt 0.593750000 1.000000000
f 332/332 331/331 330/330 329/329
v 0.420791401 0.675000000 0.642187500
v 0.420791401 0.675000000 0.767187500
v 0.420791401 0.518750000 0.767187500
v 0.420791401 0.518750000 0.642187500
vt 0.453125000 0.843750000
vt 0.390625000 0.843750000
vt 0.390625000 1.000000000
vt 0.453125000 1.000000000
f 336/336 335/335 334/334 333/333
v 0.577041401 0.675000000 0.767187500
v 0.420791401 0.675000000 0.767187500
v 0.420791401 0.675000000 0.642187500
v 0.577041401 0.675000000 0.642187500
vt 0.531250000 0.718750000
vt 0.453125000 0.718750000
vt 0.453125000 0.843750000
vt 0.531250000 0.843750000
f 340/340 339/339 338/338 337/337
v 0.577041401 0.518750000 0.642187500
v 0.420791401 0.518750000 0.642187500
v 0.420791401 0.518750000 0.767187500
v 0.577041401 0.518750000 0.767187500
vt 0.609375000 0.843750000
vt 0.531250000 0.843750000
vt 0.531250000 0.718750000
vt 0.609375000 0.718750000
f 344/344 343/343 342/342 341/341
v 0.577041401 0.675000000 0.642187500
v 0.420791401 0.675000000 0.642187500
v 0.420791401 0.518750000 0.642187500
v 0.577041401 0.518750000 0.642187500
vt 0.531250000 0.843750000
vt 0.453125000 0.843750000
vt 0.453125000 1.000000000
vt 0.531250000 1.000000000
f 348/348 347/347 346/346 345/345
v 0.420791401 0.675000000 0.767187500
v 0.577041401 0.675000000 0.767187500
v 0.577041401 0.518750000 0.767187500
v 0.420791401 0.518750000 0.767187500
vt 0.671875000 0.843750000
vt 0.593750000 0.843750000
vt 0.593750000 1.000000000
vt 0.671875000 1.000000000
f 352/352 351/351 350/350 349/349
o Barrel1
usemtl gun
v 0.561416401 0.659375000 0.642187500
v 0.561416401 0.659375000 0.392187500
v 0.561416401 0.534375000 0.392187500
v 0.561416401 0.534375000 0.642187500
vt 0.937500000 0.531250000
vt 0.812500000 0.531250000
vt 0.812500000 0.656250000
vt 0.937500000 0.656250000
f 356/356 355/355 354/354 353/353
v 0.436416401 0.659375000 0.392187500
v 0.436416401 0.659375000 0.642187500
v 0.436416401 0.534375000 0.642187500
v 0.436416401 0.534375000 0.392187500
vt 0.750000000 0.531250000
vt 0.625000000 0.531250000
vt 0.625000000 0.656250000
vt 0.750000000 0.656250000
f 360/360 359/359 358/358 357/357
v 0.561416401 0.659375000 0.642187500
v 0.436416401 0.659375000 0.642187500
v 0.436416401 0.659375000 0.392187500
v 0.561416401 0.659375000 0.392187500
vt 0.812500000 0.281250000
vt 0.750000000 0.281250000
vt 0.750000000 0.531250000
vt 0.812500000 0.531250000
f 364/364 363/363 362/362 361/361
v 0.561416401 0.534375000 0.392187500
v 0.436416401 0.534375000 0.392187500
v 0.436416401 0.534375000 0.642187500
v 0.561416401 0.534375000 0.642187500
vt 0.875000000 0.531250000
vt 0.812500000 0.531250000
vt 0.812500000 0.281250000
vt 0.875000000 0.281250000
f 368/368 367/367 366/366 365/365
v 0.561416401 0.659375000 0.392187500
v 0.436416401 0.659375000 0.392187500
v 0.436416401 0.534375000 0.392187500
v 0.561416401 0.534375000 0.392187500
vt 0.812500000 0.531250000
vt 0.750000000 0.531250000
vt 0.750000000 0.656250000
vt 0.812500000 0.656250000
f 372/372 371/371 370/370 369/369
v 0.436416401 0.659375000 0.642187500
v 0.561416401 0.659375000 0.642187500
v 0.561416401 0.534375000 0.642187500
v 0.436416401 0.534375000 0.642187500
vt 1.000000000 0.531250000
vt 0.937500000 0.531250000
vt 0.937500000 0.656250000
vt 1.000000000 0.656250000
f 376/376 375/375 374/374 373/373
o TopRound
usemtl gun
v 0.514541401 0.684375000 0.626562500
v 0.514541401 0.684375000 0.595312500
v 0.514541401 0.653125000 0.595312500
v 0.514541401 0.653125000 0.626562500
vt 0.484375000 0.031250000
vt 0.468750000 0.031250000
vt 0.468750000 0.062500000
vt 0.484375000 0.062500000
f 380/380 379/379 378/378 377/377
v 0.483291401 0.684375000 0.595312500
v 0.483291401 0.684375000 0.626562500
v 0.483291401 0.653125000 0.626562500
v 0.483291401 0.653125000 0.595312500
vt 0.453125000 0.031250000
vt 0.437500000 0.031250000
vt 0.437500000 0.062500000
vt 0.453125000 0.062500000
f 384/384 383/383 382/382 381/381
v 0.514541401 0.684375000 0.626562500
v 0.483291401 0.684375000 0.626562500
v 0.483291401 0.684375000 0.595312500
v 0.514541401 0.684375000 0.595312500
vt 0.468750000 0.000000000
vt 0.453125000 0.000000000
vt 0.453125000 0.031250000
vt 0.468750000 0.031250000
f 388/388 387/387 386/386 385/385
v 0.514541401 0.653125000 0.595312500
v 0.483291401 0.653125000 0.595312500
v 0.483291401 0.653125000 0.626562500
v 0.514541401 0.653125000 0.626562500
vt 0.484375000 0.031250000
vt 0.468750000 0.031250000
vt 0.468750000 0.000000000
vt 0.484375000 0.000000000
f 392/392 391/391 390/390 389/389
v 0.514541401 0.684375000 0.595312500
v 0.483291401 0.684375000 0.595312500
v 0.483291401 0.653125000 0.595312500
v 0.514541401 0.653125000 0.595312500
vt 0.468750000 0.031250000
vt 0.453125000 0.031250000
vt 0.453125000 0.062500000
vt 0.468750000 0.062500000
f 396/396 395/395 394/394 393/393
v 0.483291401 0.684375000 0.626562500
v 0.514541401 0.684375000 0.626562500
v 0.514541401 0.653125000 0.626562500
v 0.483291401 0.653125000 0.626562500
vt 0.500000000 0.031250000
vt 0.484375000 0.031250000
vt 0.484375000 0.062500000
vt 0.500000000 0.062500000
f 400/400 399/399 398/398 397/397
