# Original Techguns ModelMac10; Techguns Mod License
mtllib mac10.mtl
o Grip4
usemtl gun
v 0.528125000 0.634591368 0.683031951
v 0.528125000 0.640002358 0.658624551
v 0.528125000 0.554576457 0.639686085
v 0.528125000 0.549165467 0.664093485
vt 0.234375000 0.593750000
vt 0.218750000 0.593750000
vt 0.218750000 0.687500000
vt 0.234375000 0.687500000
f 4/4 3/3 2/2 1/1
v 0.471875000 0.640002358 0.658624551
v 0.471875000 0.634591368 0.683031951
v 0.471875000 0.549165467 0.664093485
v 0.471875000 0.554576457 0.639686085
vt 0.187500000 0.593750000
vt 0.171875000 0.593750000
vt 0.171875000 0.687500000
vt 0.187500000 0.687500000
f 8/8 7/7 6/6 5/5
v 0.528125000 0.634591368 0.683031951
v 0.471875000 0.634591368 0.683031951
v 0.471875000 0.640002358 0.658624551
v 0.528125000 0.640002358 0.658624551
vt 0.218750000 0.562500000
vt 0.187500000 0.562500000
vt 0.187500000 0.593750000
vt 0.218750000 0.593750000
f 12/12 11/11 10/10 9/9
v 0.528125000 0.554576457 0.639686085
v 0.471875000 0.554576457 0.639686085
v 0.471875000 0.549165467 0.664093485
v 0.528125000 0.549165467 0.664093485
vt 0.250000000 0.593750000
vt 0.218750000 0.593750000
vt 0.218750000 0.562500000
vt 0.250000000 0.562500000
f 16/16 15/15 14/14 13/13
v 0.528125000 0.640002358 0.658624551
v 0.471875000 0.640002358 0.658624551
v 0.471875000 0.554576457 0.639686085
v 0.528125000 0.554576457 0.639686085
vt 0.218750000 0.593750000
vt 0.187500000 0.593750000
vt 0.187500000 0.687500000
vt 0.218750000 0.687500000
f 20/20 19/19 18/18 17/17
v 0.471875000 0.634591368 0.683031951
v 0.528125000 0.634591368 0.683031951
v 0.528125000 0.549165467 0.664093485
v 0.471875000 0.549165467 0.664093485
vt 0.265625000 0.593750000
vt 0.234375000 0.593750000
vt 0.234375000 0.687500000
vt 0.265625000 0.687500000
f 24/24 23/23 22/22 21/21
o Stock2
usemtl gun
v 0.531250000 0.659354657 0.812500000
v 0.531250000 0.659354657 0.781250000
v 0.531250000 0.628104657 0.781250000
v 0.531250000 0.628104657 0.812500000
vt 0.453125000 0.812500000
vt 0.437500000 0.812500000
vt 0.437500000 0.843750000
vt 0.453125000 0.843750000
f 28/28 27/27 26/26 25/25
v 0.468750000 0.659354657 0.781250000
v 0.468750000 0.659354657 0.812500000
v 0.468750000 0.628104657 0.812500000
v 0.468750000 0.628104657 0.781250000
vt 0.406250000 0.812500000
vt 0.390625000 0.812500000
vt 0.390625000 0.843750000
vt 0.406250000 0.843750000
f 32/32 31/31 30/30 29/29
v 0.531250000 0.659354657 0.812500000
v 0.468750000 0.659354657 0.812500000
v 0.468750000 0.659354657 0.781250000
v 0.531250000 0.659354657 0.781250000
vt 0.437500000 0.781250000
vt 0.406250000 0.781250000
vt 0.406250000 0.812500000
vt 0.437500000 0.812500000
f 36/36 35/35 34/34 33/33
v 0.531250000 0.628104657 0.781250000
v 0.468750000 0.628104657 0.781250000
v 0.468750000 0.628104657 0.812500000
v 0.531250000 0.628104657 0.812500000
vt 0.468750000 0.812500000
vt 0.437500000 0.812500000
vt 0.437500000 0.781250000
vt 0.468750000 0.781250000
f 40/40 39/39 38/38 37/37
v 0.531250000 0.659354657 0.781250000
v 0.468750000 0.659354657 0.781250000
v 0.468750000 0.628104657 0.781250000
v 0.531250000 0.628104657 0.781250000
vt 0.437500000 0.812500000
vt 0.406250000 0.812500000
vt 0.406250000 0.843750000
vt 0.437500000 0.843750000
f 44/44 43/43 42/42 41/41
v 0.468750000 0.659354657 0.812500000
v 0.531250000 0.659354657 0.812500000
v 0.531250000 0.628104657 0.812500000
v 0.468750000 0.628104657 0.812500000
vt 0.484375000 0.812500000
vt 0.453125000 0.812500000
vt 0.453125000 0.843750000
vt 0.484375000 0.843750000
f 48/48 47/47 46/46 45/45
o IS3
usemtl gun
v 0.531250000 0.784354657 0.303125000
v 0.531250000 0.784354657 0.271875000
v 0.531250000 0.753104657 0.271875000
v 0.531250000 0.753104657 0.303125000
vt 0.187500000 0.718750000
vt 0.171875000 0.718750000
vt 0.171875000 0.750000000
vt 0.187500000 0.750000000
f 52/52 51/51 50/50 49/49
v 0.531250000 0.784354657 0.271875000
v 0.531250000 0.784354657 0.303125000
v 0.531250000 0.753104657 0.303125000
v 0.531250000 0.753104657 0.271875000
vt 0.171875000 0.718750000
vt 0.156250000 0.718750000
vt 0.156250000 0.750000000
vt 0.171875000 0.750000000
f 56/56 55/55 54/54 53/53
o IS2
usemtl gun
v 0.506250000 0.765604657 0.309375000
v 0.506250000 0.765604657 0.265625000
v 0.506250000 0.753104657 0.265625000
v 0.506250000 0.753104657 0.309375000
vt 0.078125000 0.718750000
vt 0.046875000 0.718750000
vt 0.046875000 0.750000000
vt 0.078125000 0.750000000
f 60/60 59/59 58/58 57/57
v 0.493750000 0.765604657 0.265625000
v 0.493750000 0.765604657 0.309375000
v 0.493750000 0.753104657 0.309375000
v 0.493750000 0.753104657 0.265625000
vt 0.031250000 0.718750000
vt 0.000000000 0.718750000
vt 0.000000000 0.750000000
vt 0.031250000 0.750000000
f 64/64 63/63 62/62 61/61
v 0.506250000 0.765604657 0.309375000
v 0.493750000 0.765604657 0.309375000
v 0.493750000 0.765604657 0.265625000
v 0.506250000 0.765604657 0.265625000
vt 0.046875000 0.656250000
vt 0.031250000 0.656250000
vt 0.031250000 0.718750000
vt 0.046875000 0.718750000
f 68/68 67/67 66/66 65/65
v 0.506250000 0.753104657 0.265625000
v 0.493750000 0.753104657 0.265625000
v 0.493750000 0.753104657 0.309375000
v 0.506250000 0.753104657 0.309375000
vt 0.062500000 0.718750000
vt 0.046875000 0.718750000
vt 0.046875000 0.656250000
vt 0.062500000 0.656250000
f 72/72 71/71 70/70 69/69
v 0.506250000 0.765604657 0.265625000
v 0.493750000 0.765604657 0.265625000
v 0.493750000 0.753104657 0.265625000
v 0.506250000 0.753104657 0.265625000
vt 0.046875000 0.718750000
vt 0.031250000 0.718750000
vt 0.031250000 0.750000000
vt 0.046875000 0.750000000
f 76/76 75/75 74/74 73/73
v 0.493750000 0.765604657 0.309375000
v 0.506250000 0.765604657 0.309375000
v 0.506250000 0.753104657 0.309375000
v 0.493750000 0.753104657 0.309375000
vt 0.093750000 0.718750000
vt 0.078125000 0.718750000
vt 0.078125000 0.750000000
vt 0.093750000 0.750000000
f 80/80 79/79 78/78 77/77
o Stock4_2
usemtl gun
v 0.544174285 0.777399922 0.827191111
v 0.541526661 0.766181152 0.715283205
v 0.528256371 0.753035841 0.716914984
v 0.530903994 0.764254611 0.828822890
vt 0.546875000 0.593750000
vt 0.484375000 0.593750000
vt 0.484375000 0.625000000
vt 0.546875000 0.625000000
f 84/84 83/83 82/82 81/81
v 0.528287810 0.779420003 0.714269228
v 0.530935434 0.790638773 0.826177133
v 0.517665143 0.777493462 0.827808912
v 0.515017520 0.766274692 0.715901006
vt 0.468750000 0.593750000
vt 0.406250000 0.593750000
vt 0.406250000 0.625000000
vt 0.468750000 0.625000000
f 88/88 87/87 86/86 85/85
v 0.544174285 0.777399922 0.827191111
v 0.530935434 0.790638773 0.826177133
v 0.528287810 0.779420003 0.714269228
v 0.541526661 0.766181152 0.715283205
vt 0.484375000 0.468750000
vt 0.468750000 0.468750000
vt 0.468750000 0.593750000
vt 0.484375000 0.593750000
f 92/92 91/91 90/90 89/89
v 0.528256371 0.753035841 0.716914984
v 0.515017520 0.766274692 0.715901006
v 0.517665143 0.777493462 0.827808912
v 0.530903994 0.764254611 0.828822890
vt 0.500000000 0.593750000
vt 0.484375000 0.593750000
vt 0.484375000 0.468750000
vt 0.500000000 0.468750000
f 96/96 95/95 94/94 93/93
v 0.541526661 0.766181152 0.715283205
v 0.528287810 0.779420003 0.714269228
v 0.515017520 0.766274692 0.715901006
v 0.528256371 0.753035841 0.716914984
vt 0.484375000 0.593750000
vt 0.468750000 0.593750000
vt 0.468750000 0.625000000
vt 0.484375000 0.625000000
f 100/100 99/99 98/98 97/97
v 0.530935434 0.790638773 0.826177133
v 0.544174285 0.777399922 0.827191111
v 0.530903994 0.764254611 0.828822890
v 0.517665143 0.777493462 0.827808912
vt 0.562500000 0.593750000
vt 0.546875000 0.593750000
vt 0.546875000 0.625000000
vt 0.562500000 0.625000000
f 104/104 103/103 102/102 101/101
o Stock3_2
usemtl gun
v 0.544508252 0.778104657 0.828125000
v 0.531250000 0.778104657 0.814866748
v 0.531250000 0.634354657 0.814866748
v 0.544508252 0.634354657 0.828125000
vt 0.437500000 0.406250000
vt 0.421875000 0.406250000
vt 0.421875000 0.562500000
vt 0.437500000 0.562500000
f 108/108 107/107 106/106 105/105
v 0.517991748 0.778104657 0.828125000
v 0.531250000 0.778104657 0.841383252
v 0.531250000 0.634354657 0.841383252
v 0.517991748 0.634354657 0.828125000
vt 0.406250000 0.406250000
vt 0.390625000 0.406250000
vt 0.390625000 0.562500000
vt 0.406250000 0.562500000
f 112/112 111/111 110/110 109/109
v 0.544508252 0.778104657 0.828125000
v 0.531250000 0.778104657 0.841383252
v 0.517991748 0.778104657 0.828125000
v 0.531250000 0.778104657 0.814866748
vt 0.421875000 0.375000000
vt 0.406250000 0.375000000
vt 0.406250000 0.406250000
vt 0.421875000 0.406250000
f 116/116 115/115 114/114 113/113
v 0.531250000 0.634354657 0.814866748
v 0.517991748 0.634354657 0.828125000
v 0.531250000 0.634354657 0.841383252
v 0.544508252 0.634354657 0.828125000
vt 0.437500000 0.406250000
vt 0.421875000 0.406250000
vt 0.421875000 0.375000000
vt 0.437500000 0.375000000
f 120/120 119/119 118/118 117/117
v 0.531250000 0.778104657 0.814866748
v 0.517991748 0.778104657 0.828125000
v 0.517991748 0.634354657 0.828125000
v 0.531250000 0.634354657 0.814866748
vt 0.421875000 0.406250000
vt 0.406250000 0.406250000
vt 0.406250000 0.562500000
vt 0.421875000 0.562500000
f 124/124 123/123 122/122 121/121
v 0.531250000 0.778104657 0.841383252
v 0.544508252 0.778104657 0.828125000
v 0.544508252 0.634354657 0.828125000
v 0.531250000 0.634354657 0.841383252
vt 0.453125000 0.406250000
vt 0.437500000 0.406250000
vt 0.437500000 0.562500000
vt 0.453125000 0.562500000
f 128/128 127/127 126/126 125/125
o Top
usemtl gun
v 0.546875000 0.753104657 0.781250000
v 0.546875000 0.753104657 0.250000000
v 0.546875000 0.628104657 0.250000000
v 0.546875000 0.628104657 0.781250000
vt 0.593750000 0.875000000
vt 0.328125000 0.875000000
vt 0.328125000 1.000000000
vt 0.593750000 1.000000000
f 132/132 131/131 130/130 129/129
v 0.453125000 0.753104657 0.250000000
v 0.453125000 0.753104657 0.781250000
v 0.453125000 0.628104657 0.781250000
v 0.453125000 0.628104657 0.250000000
vt 0.281250000 0.875000000
vt 0.015625000 0.875000000
vt 0.015625000 1.000000000
vt 0.281250000 1.000000000
f 136/136 135/135 134/134 133/133
v 0.546875000 0.753104657 0.781250000
v 0.453125000 0.753104657 0.781250000
v 0.453125000 0.753104657 0.250000000
v 0.546875000 0.753104657 0.250000000
vt 0.328125000 0.343750000
vt 0.281250000 0.343750000
vt 0.281250000 0.875000000
vt 0.328125000 0.875000000
f 140/140 139/139 138/138 137/137
v 0.546875000 0.628104657 0.250000000
v 0.453125000 0.628104657 0.250000000
v 0.453125000 0.628104657 0.781250000
v 0.546875000 0.628104657 0.781250000
vt 0.375000000 0.875000000
vt 0.328125000 0.875000000
vt 0.328125000 0.343750000
vt 0.375000000 0.343750000
f 144/144 143/143 142/142 141/141
v 0.546875000 0.753104657 0.250000000
v 0.453125000 0.753104657 0.250000000
v 0.453125000 0.628104657 0.250000000
v 0.546875000 0.628104657 0.250000000
vt 0.328125000 0.875000000
vt 0.281250000 0.875000000
vt 0.281250000 1.000000000
vt 0.328125000 1.000000000
f 148/148 147/147 146/146 145/145
v 0.453125000 0.753104657 0.781250000
v 0.546875000 0.753104657 0.781250000
v 0.546875000 0.628104657 0.781250000
v 0.453125000 0.628104657 0.781250000
vt 0.640625000 0.875000000
vt 0.593750000 0.875000000
vt 0.593750000 1.000000000
vt 0.640625000 1.000000000
f 152/152 151/151 150/150 149/149
o Stock3
usemtl gun
v 0.482008252 0.778104657 0.828125000
v 0.468750000 0.778104657 0.814866748
v 0.468750000 0.634354657 0.814866748
v 0.482008252 0.634354657 0.828125000
vt 0.437500000 0.406250000
vt 0.421875000 0.406250000
vt 0.421875000 0.562500000
vt 0.437500000 0.562500000
f 156/156 155/155 154/154 153/153
v 0.455491748 0.778104657 0.828125000
v 0.468750000 0.778104657 0.841383252
v 0.468750000 0.634354657 0.841383252
v 0.455491748 0.634354657 0.828125000
vt 0.406250000 0.406250000
vt 0.390625000 0.406250000
vt 0.390625000 0.562500000
vt 0.406250000 0.562500000
f 160/160 159/159 158/158 157/157
v 0.482008252 0.778104657 0.828125000
v 0.468750000 0.778104657 0.841383252
v 0.455491748 0.778104657 0.828125000
v 0.468750000 0.778104657 0.814866748
vt 0.421875000 0.375000000
vt 0.406250000 0.375000000
vt 0.406250000 0.406250000
vt 0.421875000 0.406250000
f 164/164 163/163 162/162 161/161
v 0.468750000 0.634354657 0.814866748
v 0.455491748 0.634354657 0.828125000
v 0.468750000 0.634354657 0.841383252
v 0.482008252 0.634354657 0.828125000
vt 0.437500000 0.406250000
vt 0.421875000 0.406250000
vt 0.421875000 0.375000000
vt 0.437500000 0.375000000
f 168/168 167/167 166/166 165/165
v 0.468750000 0.778104657 0.814866748
v 0.455491748 0.778104657 0.828125000
v 0.455491748 0.634354657 0.828125000
v 0.468750000 0.634354657 0.814866748
vt 0.421875000 0.406250000
vt 0.406250000 0.406250000
vt 0.406250000 0.562500000
vt 0.421875000 0.562500000
f 172/172 171/171 170/170 169/169
v 0.468750000 0.778104657 0.841383252
v 0.482008252 0.778104657 0.828125000
v 0.482008252 0.634354657 0.828125000
v 0.468750000 0.634354657 0.841383252
vt 0.453125000 0.406250000
vt 0.437500000 0.406250000
vt 0.437500000 0.562500000
vt 0.453125000 0.562500000
f 176/176 175/175 174/174 173/173
o Stock1
usemtl gun
v 0.546875000 0.659354657 0.843750000
v 0.546875000 0.659354657 0.812500000
v 0.546875000 0.596854657 0.812500000
v 0.546875000 0.596854657 0.843750000
vt 0.468750000 0.687500000
vt 0.453125000 0.687500000
vt 0.453125000 0.750000000
vt 0.468750000 0.750000000
f 180/180 179/179 178/178 177/177
v 0.453125000 0.659354657 0.812500000
v 0.453125000 0.659354657 0.843750000
v 0.453125000 0.596854657 0.843750000
v 0.453125000 0.596854657 0.812500000
vt 0.406250000 0.687500000
vt 0.390625000 0.687500000
vt 0.390625000 0.750000000
vt 0.406250000 0.750000000
f 184/184 183/183 182/182 181/181
v 0.546875000 0.659354657 0.843750000
v 0.453125000 0.659354657 0.843750000
v 0.453125000 0.659354657 0.812500000
v 0.546875000 0.659354657 0.812500000
vt 0.453125000 0.656250000
vt 0.406250000 0.656250000
vt 0.406250000 0.687500000
vt 0.453125000 0.687500000
f 188/188 187/187 186/186 185/185
v 0.546875000 0.596854657 0.812500000
v 0.453125000 0.596854657 0.812500000
v 0.453125000 0.596854657 0.843750000
v 0.546875000 0.596854657 0.843750000
vt 0.500000000 0.687500000
vt 0.453125000 0.687500000
vt 0.453125000 0.656250000
vt 0.500000000 0.656250000
f 192/192 191/191 190/190 189/189
v 0.546875000 0.659354657 0.812500000
v 0.453125000 0.659354657 0.812500000
v 0.453125000 0.596854657 0.812500000
v 0.546875000 0.596854657 0.812500000
vt 0.453125000 0.687500000
vt 0.406250000 0.687500000
vt 0.406250000 0.750000000
vt 0.453125000 0.750000000
f 196/196 195/195 194/194 193/193
v 0.453125000 0.659354657 0.843750000
v 0.546875000 0.659354657 0.843750000
v 0.546875000 0.596854657 0.843750000
v 0.453125000 0.596854657 0.843750000
vt 0.515625000 0.687500000
vt 0.468750000 0.687500000
vt 0.468750000 0.750000000
vt 0.515625000 0.750000000
f 200/200 199/199 198/198 197/197
o Stock6
usemtl gun
v 0.546403883 0.734354657 0.779062500
v 0.546403883 0.734354657 0.775937500
v 0.500000000 0.687950774 0.775937500
v 0.500000000 0.687950774 0.779062500
vt 0.390625000 0.031250000
vt 0.375000000 0.031250000
vt 0.375000000 0.125000000
vt 0.390625000 0.125000000
f 204/204 203/203 202/202 201/201
v 0.500000000 0.780758539 0.775937500
v 0.500000000 0.780758539 0.779062500
v 0.453596117 0.734354657 0.779062500
v 0.453596117 0.734354657 0.775937500
vt 0.328125000 0.031250000
vt 0.312500000 0.031250000
vt 0.312500000 0.125000000
vt 0.328125000 0.125000000
f 208/208 207/207 206/206 205/205
v 0.546403883 0.734354657 0.779062500
v 0.500000000 0.780758539 0.779062500
v 0.500000000 0.780758539 0.775937500
v 0.546403883 0.734354657 0.775937500
vt 0.375000000 0.000000000
vt 0.328125000 0.000000000
vt 0.328125000 0.031250000
vt 0.375000000 0.031250000
f 212/212 211/211 210/210 209/209
v 0.500000000 0.687950774 0.775937500
v 0.453596117 0.734354657 0.775937500
v 0.453596117 0.734354657 0.779062500
v 0.500000000 0.687950774 0.779062500
vt 0.421875000 0.031250000
vt 0.375000000 0.031250000
vt 0.375000000 0.000000000
vt 0.421875000 0.000000000
f 216/216 215/215 214/214 213/213
v 0.546403883 0.734354657 0.775937500
v 0.500000000 0.780758539 0.775937500
v 0.453596117 0.734354657 0.775937500
v 0.500000000 0.687950774 0.775937500
vt 0.375000000 0.031250000
vt 0.328125000 0.031250000
vt 0.328125000 0.125000000
vt 0.375000000 0.125000000
f 220/220 219/219 218/218 217/217
v 0.500000000 0.780758539 0.779062500
v 0.546403883 0.734354657 0.779062500
v 0.500000000 0.687950774 0.779062500
v 0.453596117 0.734354657 0.779062500
vt 0.437500000 0.031250000
vt 0.390625000 0.031250000
vt 0.390625000 0.125000000
vt 0.437500000 0.125000000
f 224/224 223/223 222/222 221/221
o Stock5
usemtl gun
v 0.525000000 0.778862909 0.668750000
v 0.525000000 0.765604657 0.655491748
v 0.525000000 0.752346405 0.668750000
v 0.525000000 0.765604657 0.682008252
vt 0.437500000 0.187500000
vt 0.421875000 0.187500000
vt 0.421875000 0.218750000
vt 0.437500000 0.218750000
f 228/228 227/227 226/226 225/225
v 0.475000000 0.765604657 0.655491748
v 0.475000000 0.778862909 0.668750000
v 0.475000000 0.765604657 0.682008252
v 0.475000000 0.752346405 0.668750000
vt 0.390625000 0.187500000
vt 0.375000000 0.187500000
vt 0.375000000 0.218750000
vt 0.390625000 0.218750000
f 232/232 231/231 230/230 229/229
v 0.525000000 0.778862909 0.668750000
v 0.475000000 0.778862909 0.668750000
v 0.475000000 0.765604657 0.655491748
v 0.525000000 0.765604657 0.655491748
vt 0.421875000 0.156250000
vt 0.390625000 0.156250000
vt 0.390625000 0.187500000
vt 0.421875000 0.187500000
f 236/236 235/235 234/234 233/233
v 0.525000000 0.752346405 0.668750000
v 0.475000000 0.752346405 0.668750000
v 0.475000000 0.765604657 0.682008252
v 0.525000000 0.765604657 0.682008252
vt 0.453125000 0.187500000
vt 0.421875000 0.187500000
vt 0.421875000 0.156250000
vt 0.453125000 0.156250000
f 240/240 239/239 238/238 237/237
v 0.525000000 0.765604657 0.655491748
v 0.475000000 0.765604657 0.655491748
v 0.475000000 0.752346405 0.668750000
v 0.525000000 0.752346405 0.668750000
vt 0.421875000 0.187500000
vt 0.390625000 0.187500000
vt 0.390625000 0.218750000
vt 0.421875000 0.218750000
f 244/244 243/243 242/242 241/241
v 0.475000000 0.778862909 0.668750000
v 0.525000000 0.778862909 0.668750000
v 0.525000000 0.765604657 0.682008252
v 0.475000000 0.765604657 0.682008252
vt 0.468750000 0.187500000
vt 0.437500000 0.187500000
vt 0.437500000 0.218750000
vt 0.468750000 0.218750000
f 248/248 247/247 246/246 245/245
o Grip5
usemtl gun
v 0.528125000 0.559878061 0.662668238
v 0.528125000 0.556658171 0.637876459
v 0.528125000 0.407907496 0.657195798
v 0.528125000 0.411127386 0.681987577
vt 0.234375000 0.375000000
vt 0.218750000 0.375000000
vt 0.218750000 0.531250000
vt 0.234375000 0.531250000
f 252/252 251/251 250/250 249/249
v 0.471875000 0.556658171 0.637876459
v 0.471875000 0.559878061 0.662668238
v 0.471875000 0.411127386 0.681987577
v 0.471875000 0.407907496 0.657195798
vt 0.187500000 0.375000000
vt 0.171875000 0.375000000
vt 0.171875000 0.531250000
vt 0.187500000 0.531250000
f 256/256 255/255 254/254 253/253
v 0.528125000 0.559878061 0.662668238
v 0.471875000 0.559878061 0.662668238
v 0.471875000 0.556658171 0.637876459
v 0.528125000 0.556658171 0.637876459
vt 0.218750000 0.343750000
vt 0.187500000 0.343750000
vt 0.187500000 0.375000000
vt 0.218750000 0.375000000
f 260/260 259/259 258/258 257/257
v 0.528125000 0.407907496 0.657195798
v 0.471875000 0.407907496 0.657195798
v 0.471875000 0.411127386 0.681987577
v 0.528125000 0.411127386 0.681987577
vt 0.250000000 0.375000000
vt 0.218750000 0.375000000
vt 0.218750000 0.343750000
vt 0.250000000 0.343750000
f 264/264 263/263 262/262 261/261
v 0.528125000 0.556658171 0.637876459
v 0.471875000 0.556658171 0.637876459
v 0.471875000 0.407907496 0.657195798
v 0.528125000 0.407907496 0.657195798
vt 0.218750000 0.375000000
vt 0.187500000 0.375000000
vt 0.187500000 0.531250000
vt 0.218750000 0.531250000
f 268/268 267/267 266/266 265/265
v 0.471875000 0.559878061 0.662668238
v 0.528125000 0.559878061 0.662668238
v 0.528125000 0.411127386 0.681987577
v 0.471875000 0.411127386 0.681987577
vt 0.265625000 0.375000000
vt 0.234375000 0.375000000
vt 0.234375000 0.531250000
vt 0.265625000 0.531250000
f 272/272 271/271 270/270 269/269
o Magazine
usemtl gun
v 0.521875000 0.409354657 0.646875000
v 0.521875000 0.409354657 0.571875000
v 0.521875000 0.209354657 0.571875000
v 0.521875000 0.209354657 0.646875000
vt 0.125000000 0.406250000
vt 0.078125000 0.406250000
vt 0.078125000 0.625000000
vt 0.125000000 0.625000000
f 276/276 275/275 274/274 273/273
v 0.478125000 0.409354657 0.571875000
v 0.478125000 0.409354657 0.646875000
v 0.478125000 0.209354657 0.646875000
v 0.478125000 0.209354657 0.571875000
vt 0.046875000 0.406250000
vt 0.000000000 0.406250000
vt 0.000000000 0.625000000
vt 0.046875000 0.625000000
f 280/280 279/279 278/278 277/277
v 0.521875000 0.409354657 0.646875000
v 0.478125000 0.409354657 0.646875000
v 0.478125000 0.409354657 0.571875000
v 0.521875000 0.409354657 0.571875000
vt 0.078125000 0.312500000
vt 0.046875000 0.312500000
vt 0.046875000 0.406250000
vt 0.078125000 0.406250000
f 284/284 283/283 282/282 281/281
v 0.521875000 0.209354657 0.571875000
v 0.478125000 0.209354657 0.571875000
v 0.478125000 0.209354657 0.646875000
v 0.521875000 0.209354657 0.646875000
vt 0.109375000 0.406250000
vt 0.078125000 0.406250000
vt 0.078125000 0.312500000
vt 0.109375000 0.312500000
f 288/288 287/287 286/286 285/285
v 0.521875000 0.409354657 0.571875000
v 0.478125000 0.409354657 0.571875000
v 0.478125000 0.209354657 0.571875000
v 0.521875000 0.209354657 0.571875000
vt 0.078125000 0.406250000
vt 0.046875000 0.406250000
vt 0.046875000 0.625000000
vt 0.078125000 0.625000000
f 292/292 291/291 290/290 289/289
v 0.478125000 0.409354657 0.646875000
v 0.521875000 0.409354657 0.646875000
v 0.521875000 0.209354657 0.646875000
v 0.478125000 0.209354657 0.646875000
vt 0.156250000 0.406250000
vt 0.125000000 0.406250000
vt 0.125000000 0.625000000
vt 0.156250000 0.625000000
f 296/296 295/295 294/294 293/293
o Stock3_3
usemtl gun
v 0.485133252 0.765604657 0.718750000
v 0.485133252 0.765604657 0.668750000
v 0.471875000 0.752346405 0.668750000
v 0.471875000 0.752346405 0.718750000
vt 0.468750000 0.312500000
vt 0.437500000 0.312500000
vt 0.437500000 0.343750000
vt 0.468750000 0.343750000
f 300/300 299/299 298/298 297/297
v 0.471875000 0.778862909 0.668750000
v 0.471875000 0.778862909 0.718750000
v 0.458616748 0.765604657 0.718750000
v 0.458616748 0.765604657 0.668750000
vt 0.421875000 0.312500000
vt 0.390625000 0.312500000
vt 0.390625000 0.343750000
vt 0.421875000 0.343750000
f 304/304 303/303 302/302 301/301
v 0.485133252 0.765604657 0.718750000
v 0.471875000 0.778862909 0.718750000
v 0.471875000 0.778862909 0.668750000
v 0.485133252 0.765604657 0.668750000
vt 0.437500000 0.250000000
vt 0.421875000 0.250000000
vt 0.421875000 0.312500000
vt 0.437500000 0.312500000
f 308/308 307/307 306/306 305/305
v 0.471875000 0.752346405 0.668750000
v 0.458616748 0.765604657 0.668750000
v 0.458616748 0.765604657 0.718750000
v 0.471875000 0.752346405 0.718750000
vt 0.453125000 0.312500000
vt 0.437500000 0.312500000
vt 0.437500000 0.250000000
vt 0.453125000 0.250000000
f 312/312 311/311 310/310 309/309
v 0.485133252 0.765604657 0.668750000
v 0.471875000 0.778862909 0.668750000
v 0.458616748 0.765604657 0.668750000
v 0.471875000 0.752346405 0.668750000
vt 0.437500000 0.312500000
vt 0.421875000 0.312500000
vt 0.421875000 0.343750000
vt 0.437500000 0.343750000
f 316/316 315/315 314/314 313/313
v 0.471875000 0.778862909 0.718750000
v 0.485133252 0.765604657 0.718750000
v 0.471875000 0.752346405 0.718750000
v 0.458616748 0.765604657 0.718750000
vt 0.484375000 0.312500000
vt 0.468750000 0.312500000
vt 0.468750000 0.343750000
vt 0.484375000 0.343750000
f 320/320 319/319 318/318 317/317
o Grip1
usemtl gun
v 0.515625000 0.628104657 0.468750000
v 0.515625000 0.628104657 0.437500000
v 0.515625000 0.534354657 0.437500000
v 0.515625000 0.534354657 0.468750000
vt 0.218750000 0.031250000
vt 0.203125000 0.031250000
vt 0.203125000 0.125000000
vt 0.218750000 0.125000000
f 324/324 323/323 322/322 321/321
v 0.484375000 0.628104657 0.437500000
v 0.484375000 0.628104657 0.468750000
v 0.484375000 0.534354657 0.468750000
v 0.484375000 0.534354657 0.437500000
vt 0.187500000 0.031250000
vt 0.171875000 0.031250000
vt 0.171875000 0.125000000
vt 0.187500000 0.125000000
f 328/328 327/327 326/326 325/325
v 0.515625000 0.628104657 0.468750000
v 0.484375000 0.628104657 0.468750000
v 0.484375000 0.628104657 0.437500000
v 0.515625000 0.628104657 0.437500000
vt 0.203125000 0.000000000
vt 0.187500000 0.000000000
vt 0.187500000 0.031250000
vt 0.203125000 0.031250000
f 332/332 331/331 330/330 329/329
v 0.515625000 0.534354657 0.437500000
v 0.484375000 0.534354657 0.437500000
v 0.484375000 0.534354657 0.468750000
v 0.515625000 0.534354657 0.468750000
vt 0.218750000 0.031250000
vt 0.203125000 0.031250000
vt 0.203125000 0.000000000
vt 0.218750000 0.000000000
f 336/336 335/335 334/334 333/333
v 0.515625000 0.628104657 0.437500000
v 0.484375000 0.628104657 0.437500000
v 0.484375000 0.534354657 0.437500000
v 0.515625000 0.534354657 0.437500000
vt 0.203125000 0.031250000
vt 0.187500000 0.031250000
vt 0.187500000 0.125000000
vt 0.203125000 0.125000000
f 340/340 339/339 338/338 337/337
v 0.484375000 0.628104657 0.468750000
v 0.515625000 0.628104657 0.468750000
v 0.515625000 0.534354657 0.468750000
v 0.484375000 0.534354657 0.468750000
vt 0.234375000 0.031250000
vt 0.218750000 0.031250000
vt 0.218750000 0.125000000
vt 0.234375000 0.125000000
f 344/344 343/343 342/342 341/341
o Stock4
usemtl gun
v 0.482362845 0.777437543 0.827812037
v 0.484983954 0.766212548 0.715904131
v 0.471682613 0.753036187 0.716914251
v 0.469061505 0.764261181 0.828822156
vt 0.546875000 0.593750000
vt 0.484375000 0.593750000
vt 0.484375000 0.625000000
vt 0.546875000 0.625000000
f 348/348 347/347 346/346 345/345
v 0.471776153 0.779420349 0.714269961
v 0.469155045 0.790645343 0.826177867
v 0.455853704 0.777468982 0.827187986
v 0.458474812 0.766243987 0.715280080
vt 0.468750000 0.593750000
vt 0.406250000 0.593750000
vt 0.406250000 0.625000000
vt 0.468750000 0.625000000
f 352/352 351/351 350/350 349/349
v 0.482362845 0.777437543 0.827812037
v 0.469155045 0.790645343 0.826177867
v 0.471776153 0.779420349 0.714269961
v 0.484983954 0.766212548 0.715904131
vt 0.484375000 0.468750000
vt 0.468750000 0.468750000
vt 0.468750000 0.593750000
vt 0.484375000 0.593750000
f 356/356 355/355 354/354 353/353
v 0.471682613 0.753036187 0.716914251
v 0.458474812 0.766243987 0.715280080
v 0.455853704 0.777468982 0.827187986
v 0.469061505 0.764261181 0.828822156
vt 0.500000000 0.593750000
vt 0.484375000 0.593750000
vt 0.484375000 0.468750000
vt 0.500000000 0.468750000
f 360/360 359/359 358/358 357/357
v 0.484983954 0.766212548 0.715904131
v 0.471776153 0.779420349 0.714269961
v 0.458474812 0.766243987 0.715280080
v 0.471682613 0.753036187 0.716914251
vt 0.484375000 0.593750000
vt 0.468750000 0.593750000
vt 0.468750000 0.625000000
vt 0.484375000 0.625000000
f 364/364 363/363 362/362 361/361
v 0.469155045 0.790645343 0.826177867
v 0.482362845 0.777437543 0.827812037
v 0.469061505 0.764261181 0.828822156
v 0.455853704 0.777468982 0.827187986
vt 0.562500000 0.593750000
vt 0.546875000 0.593750000
vt 0.546875000 0.625000000
vt 0.562500000 0.625000000
f 368/368 367/367 366/366 365/365
o Barrel
usemtl gun
v 0.522097087 0.691945070 0.343750000
v 0.522097087 0.691945070 0.156250000
v 0.500000000 0.669847983 0.156250000
v 0.500000000 0.669847983 0.343750000
vt 0.218750000 0.812500000
vt 0.125000000 0.812500000
vt 0.125000000 0.843750000
vt 0.218750000 0.843750000
f 372/372 371/371 370/370 369/369
v 0.500000000 0.714042157 0.156250000
v 0.500000000 0.714042157 0.343750000
v 0.477902913 0.691945070 0.343750000
v 0.477902913 0.691945070 0.156250000
vt 0.109375000 0.812500000
vt 0.015625000 0.812500000
vt 0.015625000 0.843750000
vt 0.109375000 0.843750000
f 376/376 375/375 374/374 373/373
v 0.522097087 0.691945070 0.343750000
v 0.500000000 0.714042157 0.343750000
v 0.500000000 0.714042157 0.156250000
v 0.522097087 0.691945070 0.156250000
vt 0.125000000 0.625000000
vt 0.109375000 0.625000000
vt 0.109375000 0.812500000
vt 0.125000000 0.812500000
f 380/380 379/379 378/378 377/377
v 0.500000000 0.669847983 0.156250000
v 0.477902913 0.691945070 0.156250000
v 0.477902913 0.691945070 0.343750000
v 0.500000000 0.669847983 0.343750000
vt 0.140625000 0.812500000
vt 0.125000000 0.812500000
vt 0.125000000 0.625000000
vt 0.140625000 0.625000000
f 384/384 383/383 382/382 381/381
v 0.522097087 0.691945070 0.156250000
v 0.500000000 0.714042157 0.156250000
v 0.477902913 0.691945070 0.156250000
v 0.500000000 0.669847983 0.156250000
vt 0.125000000 0.812500000
vt 0.109375000 0.812500000
vt 0.109375000 0.843750000
vt 0.125000000 0.843750000
f 388/388 387/387 386/386 385/385
v 0.500000000 0.714042157 0.343750000
v 0.522097087 0.691945070 0.343750000
v 0.500000000 0.669847983 0.343750000
v 0.477902913 0.691945070 0.343750000
vt 0.234375000 0.812500000
vt 0.218750000 0.812500000
vt 0.218750000 0.843750000
vt 0.234375000 0.843750000
f 392/392 391/391 390/390 389/389
o Trigger
usemtl gun
v 0.515625000 0.631303770 0.575548330
v 0.515625000 0.643729657 0.546875000
v 0.515625000 0.586382997 0.522023227
v 0.515625000 0.573957111 0.550696557
vt 0.218750000 0.250000000
vt 0.203125000 0.250000000
vt 0.203125000 0.312500000
vt 0.218750000 0.312500000
f 396/396 395/395 394/394 393/393
v 0.484375000 0.643729657 0.546875000
v 0.484375000 0.631303770 0.575548330
v 0.484375000 0.573957111 0.550696557
v 0.484375000 0.586382997 0.522023227
vt 0.187500000 0.250000000
vt 0.171875000 0.250000000
vt 0.171875000 0.312500000
vt 0.187500000 0.312500000
f 400/400 399/399 398/398 397/397
v 0.515625000 0.631303770 0.575548330
v 0.484375000 0.631303770 0.575548330
v 0.484375000 0.643729657 0.546875000
v 0.515625000 0.643729657 0.546875000
vt 0.203125000 0.218750000
vt 0.187500000 0.218750000
vt 0.187500000 0.250000000
vt 0.203125000 0.250000000
f 404/404 403/403 402/402 401/401
v 0.515625000 0.586382997 0.522023227
v 0.484375000 0.586382997 0.522023227
v 0.484375000 0.573957111 0.550696557
v 0.515625000 0.573957111 0.550696557
vt 0.218750000 0.250000000
vt 0.203125000 0.250000000
vt 0.203125000 0.218750000
vt 0.218750000 0.218750000
f 408/408 407/407 406/406 405/405
v 0.515625000 0.643729657 0.546875000
v 0.484375000 0.643729657 0.546875000
v 0.484375000 0.586382997 0.522023227
v 0.515625000 0.586382997 0.522023227
vt 0.203125000 0.250000000
vt 0.187500000 0.250000000
vt 0.187500000 0.312500000
vt 0.203125000 0.312500000
f 412/412 411/411 410/410 409/409
v 0.484375000 0.631303770 0.575548330
v 0.515625000 0.631303770 0.575548330
v 0.515625000 0.573957111 0.550696557
v 0.484375000 0.573957111 0.550696557
vt 0.234375000 0.250000000
vt 0.218750000 0.250000000
vt 0.218750000 0.312500000
vt 0.234375000 0.312500000
f 416/416 415/415 414/414 413/413
o Grip3
usemtl gun
v 0.531250000 0.628104657 0.656250000
v 0.531250000 0.628104657 0.562500000
v 0.531250000 0.409354657 0.562500000
v 0.531250000 0.409354657 0.656250000
vt 0.125000000 0.093750000
vt 0.078125000 0.093750000
vt 0.078125000 0.312500000
vt 0.125000000 0.312500000
f 420/420 419/419 418/418 417/417
v 0.468750000 0.628104657 0.562500000
v 0.468750000 0.628104657 0.656250000
v 0.468750000 0.409354657 0.656250000
v 0.468750000 0.409354657 0.562500000
vt 0.046875000 0.093750000
vt 0.000000000 0.093750000
vt 0.000000000 0.312500000
vt 0.046875000 0.312500000
f 424/424 423/423 422/422 421/421
v 0.531250000 0.628104657 0.656250000
v 0.468750000 0.628104657 0.656250000
v 0.468750000 0.628104657 0.562500000
v 0.531250000 0.628104657 0.562500000
vt 0.078125000 0.000000000
vt 0.046875000 0.000000000
vt 0.046875000 0.093750000
vt 0.078125000 0.093750000
f 428/428 427/427 426/426 425/425
v 0.531250000 0.409354657 0.562500000
v 0.468750000 0.409354657 0.562500000
v 0.468750000 0.409354657 0.656250000
v 0.531250000 0.409354657 0.656250000
vt 0.109375000 0.093750000
vt 0.078125000 0.093750000
vt 0.078125000 0.000000000
vt 0.109375000 0.000000000
f 432/432 431/431 430/430 429/429
v 0.531250000 0.628104657 0.562500000
v 0.468750000 0.628104657 0.562500000
v 0.468750000 0.409354657 0.562500000
v 0.531250000 0.409354657 0.562500000
vt 0.078125000 0.093750000
vt 0.046875000 0.093750000
vt 0.046875000 0.312500000
vt 0.078125000 0.312500000
f 436/436 435/435 434/434 433/433
v 0.468750000 0.628104657 0.656250000
v 0.531250000 0.628104657 0.656250000
v 0.531250000 0.409354657 0.656250000
v 0.468750000 0.409354657 0.656250000
vt 0.156250000 0.093750000
vt 0.125000000 0.093750000
vt 0.125000000 0.312500000
vt 0.156250000 0.312500000
f 440/440 439/439 438/438 437/437
o Stock4_3
usemtl gun
v 0.541383252 0.765604657 0.718750000
v 0.541383252 0.765604657 0.668750000
v 0.528125000 0.752346405 0.668750000
v 0.528125000 0.752346405 0.718750000
vt 0.468750000 0.312500000
vt 0.437500000 0.312500000
vt 0.437500000 0.343750000
vt 0.468750000 0.343750000
f 444/444 443/443 442/442 441/441
v 0.528125000 0.778862909 0.668750000
v 0.528125000 0.778862909 0.718750000
v 0.514866748 0.765604657 0.718750000
v 0.514866748 0.765604657 0.668750000
vt 0.421875000 0.312500000
vt 0.390625000 0.312500000
vt 0.390625000 0.343750000
vt 0.421875000 0.343750000
f 448/448 447/447 446/446 445/445
v 0.541383252 0.765604657 0.718750000
v 0.528125000 0.778862909 0.718750000
v 0.528125000 0.778862909 0.668750000
v 0.541383252 0.765604657 0.668750000
vt 0.437500000 0.250000000
vt 0.421875000 0.250000000
vt 0.421875000 0.312500000
vt 0.437500000 0.312500000
f 452/452 451/451 450/450 449/449
v 0.528125000 0.752346405 0.668750000
v 0.514866748 0.765604657 0.668750000
v 0.514866748 0.765604657 0.718750000
v 0.528125000 0.752346405 0.718750000
vt 0.453125000 0.312500000
vt 0.437500000 0.312500000
vt 0.437500000 0.250000000
vt 0.453125000 0.250000000
f 456/456 455/455 454/454 453/453
v 0.541383252 0.765604657 0.668750000
v 0.528125000 0.778862909 0.668750000
v 0.514866748 0.765604657 0.668750000
v 0.528125000 0.752346405 0.668750000
vt 0.437500000 0.312500000
vt 0.421875000 0.312500000
vt 0.421875000 0.343750000
vt 0.437500000 0.343750000
f 460/460 459/459 458/458 457/457
v 0.528125000 0.778862909 0.718750000
v 0.541383252 0.765604657 0.718750000
v 0.528125000 0.752346405 0.718750000
v 0.514866748 0.765604657 0.718750000
vt 0.484375000 0.312500000
vt 0.468750000 0.312500000
vt 0.468750000 0.343750000
vt 0.484375000 0.343750000
f 464/464 463/463 462/462 461/461
o IS1
usemtl gun
v 0.522097087 0.774979657 0.450000000
v 0.500000000 0.774979657 0.427902913
v 0.500000000 0.743729657 0.427902913
v 0.522097087 0.743729657 0.450000000
vt 0.234375000 0.750000000
vt 0.218750000 0.750000000
vt 0.218750000 0.781250000
vt 0.234375000 0.781250000
f 468/468 467/467 466/466 465/465
v 0.477902913 0.774979657 0.450000000
v 0.500000000 0.774979657 0.472097087
v 0.500000000 0.743729657 0.472097087
v 0.477902913 0.743729657 0.450000000
vt 0.203125000 0.750000000
vt 0.187500000 0.750000000
vt 0.187500000 0.781250000
vt 0.203125000 0.781250000
f 472/472 471/471 470/470 469/469
v 0.522097087 0.774979657 0.450000000
v 0.500000000 0.774979657 0.472097087
v 0.477902913 0.774979657 0.450000000
v 0.500000000 0.774979657 0.427902913
vt 0.218750000 0.718750000
vt 0.203125000 0.718750000
vt 0.203125000 0.750000000
vt 0.218750000 0.750000000
f 476/476 475/475 474/474 473/473
v 0.500000000 0.743729657 0.427902913
v 0.477902913 0.743729657 0.450000000
v 0.500000000 0.743729657 0.472097087
v 0.522097087 0.743729657 0.450000000
vt 0.234375000 0.750000000
vt 0.218750000 0.750000000
vt 0.218750000 0.718750000
vt 0.234375000 0.718750000
f 480/480 479/479 478/478 477/477
v 0.500000000 0.774979657 0.427902913
v 0.477902913 0.774979657 0.450000000
v 0.477902913 0.743729657 0.450000000
v 0.500000000 0.743729657 0.427902913
vt 0.218750000 0.750000000
vt 0.203125000 0.750000000
vt 0.203125000 0.781250000
vt 0.218750000 0.781250000
f 484/484 483/483 482/482 481/481
v 0.500000000 0.774979657 0.472097087
v 0.522097087 0.774979657 0.450000000
v 0.522097087 0.743729657 0.450000000
v 0.500000000 0.743729657 0.472097087
vt 0.250000000 0.750000000
vt 0.234375000 0.750000000
vt 0.234375000 0.781250000
vt 0.250000000 0.781250000
f 488/488 487/487 486/486 485/485
o IS3_1
usemtl gun
v 0.468750000 0.784354657 0.303125000
v 0.468750000 0.784354657 0.271875000
v 0.468750000 0.753104657 0.271875000
v 0.468750000 0.753104657 0.303125000
vt 0.187500000 0.718750000
vt 0.171875000 0.718750000
vt 0.171875000 0.750000000
vt 0.187500000 0.750000000
f 492/492 491/491 490/490 489/489
v 0.468750000 0.784354657 0.271875000
v 0.468750000 0.784354657 0.303125000
v 0.468750000 0.753104657 0.303125000
v 0.468750000 0.753104657 0.271875000
vt 0.171875000 0.718750000
vt 0.156250000 0.718750000
vt 0.156250000 0.750000000
vt 0.171875000 0.750000000
f 496/496 495/495 494/494 493/493
o Grip2
usemtl gun
v 0.515625000 0.565604657 0.562500000
v 0.515625000 0.565604657 0.468750000
v 0.515625000 0.534354657 0.468750000
v 0.515625000 0.534354657 0.562500000
vt 0.312500000 0.156250000
vt 0.265625000 0.156250000
vt 0.265625000 0.187500000
vt 0.312500000 0.187500000
f 500/500 499/499 498/498 497/497
v 0.484375000 0.565604657 0.468750000
v 0.484375000 0.565604657 0.562500000
v 0.484375000 0.534354657 0.562500000
v 0.484375000 0.534354657 0.468750000
vt 0.250000000 0.156250000
vt 0.203125000 0.156250000
vt 0.203125000 0.187500000
vt 0.250000000 0.187500000
f 504/504 503/503 502/502 501/501
v 0.515625000 0.565604657 0.562500000
v 0.484375000 0.565604657 0.562500000
v 0.484375000 0.565604657 0.468750000
v 0.515625000 0.565604657 0.468750000
vt 0.265625000 0.062500000
vt 0.250000000 0.062500000
vt 0.250000000 0.156250000
vt 0.265625000 0.156250000
f 508/508 507/507 506/506 505/505
v 0.515625000 0.534354657 0.468750000
v 0.484375000 0.534354657 0.468750000
v 0.484375000 0.534354657 0.562500000
v 0.515625000 0.534354657 0.562500000
vt 0.281250000 0.156250000
vt 0.265625000 0.156250000
vt 0.265625000 0.062500000
vt 0.281250000 0.062500000
f 512/512 511/511 510/510 509/509
v 0.515625000 0.565604657 0.468750000
v 0.484375000 0.565604657 0.468750000
v 0.484375000 0.534354657 0.468750000
v 0.515625000 0.534354657 0.468750000
vt 0.265625000 0.156250000
vt 0.250000000 0.156250000
vt 0.250000000 0.187500000
vt 0.265625000 0.187500000
f 516/516 515/515 514/514 513/513
v 0.484375000 0.565604657 0.562500000
v 0.515625000 0.565604657 0.562500000
v 0.515625000 0.534354657 0.562500000
v 0.484375000 0.534354657 0.562500000
vt 0.328125000 0.156250000
vt 0.312500000 0.156250000
vt 0.312500000 0.187500000
vt 0.328125000 0.187500000
f 520/520 519/519 518/518 517/517
