# Original Techguns ModelPDW; Techguns Mod License
mtllib pdw.mtl
o Shape1
usemtl gun
v 0.765625000 0.762354649 0.531250000
v 0.765625000 0.762354649 0.468750000
v 0.765625000 0.731104649 0.468750000
v 0.765625000 0.731104649 0.531250000
vt 0.265625000 0.531250000
vt 0.234375000 0.531250000
vt 0.234375000 0.546875000
vt 0.265625000 0.546875000
f 4/4 3/3 2/2 1/1
v 0.359375000 0.762354649 0.468750000
v 0.359375000 0.762354649 0.531250000
v 0.359375000 0.731104649 0.531250000
v 0.359375000 0.731104649 0.468750000
vt 0.031250000 0.531250000
vt 0.000000000 0.531250000
vt 0.000000000 0.546875000
vt 0.031250000 0.546875000
f 8/8 7/7 6/6 5/5
v 0.765625000 0.762354649 0.531250000
v 0.359375000 0.762354649 0.531250000
v 0.359375000 0.762354649 0.468750000
v 0.765625000 0.762354649 0.468750000
vt 0.234375000 0.500000000
vt 0.031250000 0.500000000
vt 0.031250000 0.531250000
vt 0.234375000 0.531250000
f 12/12 11/11 10/10 9/9
v 0.765625000 0.731104649 0.468750000
v 0.359375000 0.731104649 0.468750000
v 0.359375000 0.731104649 0.531250000
v 0.765625000 0.731104649 0.531250000
vt 0.437500000 0.531250000
vt 0.234375000 0.531250000
vt 0.234375000 0.500000000
vt 0.437500000 0.500000000
f 16/16 15/15 14/14 13/13
v 0.765625000 0.762354649 0.468750000
v 0.359375000 0.762354649 0.468750000
v 0.359375000 0.731104649 0.468750000
v 0.765625000 0.731104649 0.468750000
vt 0.234375000 0.531250000
vt 0.031250000 0.531250000
vt 0.031250000 0.546875000
vt 0.234375000 0.546875000
f 20/20 19/19 18/18 17/17
v 0.359375000 0.762354649 0.531250000
v 0.765625000 0.762354649 0.531250000
v 0.765625000 0.731104649 0.531250000
v 0.359375000 0.731104649 0.531250000
vt 0.468750000 0.531250000
vt 0.265625000 0.531250000
vt 0.265625000 0.546875000
vt 0.468750000 0.546875000
f 24/24 23/23 22/22 21/21
o Shape2
usemtl gun
v 0.875000000 0.621729649 0.562500000
v 0.875000000 0.621729649 0.531250000
v 0.875000000 0.559229649 0.531250000
v 0.875000000 0.559229649 0.562500000
vt 0.828125000 0.328125000
vt 0.812500000 0.328125000
vt 0.812500000 0.359375000
vt 0.828125000 0.359375000
f 28/28 27/27 26/26 25/25
v 0.843750000 0.621729649 0.531250000
v 0.843750000 0.621729649 0.562500000
v 0.843750000 0.559229649 0.562500000
v 0.843750000 0.559229649 0.531250000
vt 0.796875000 0.328125000
vt 0.781250000 0.328125000
vt 0.781250000 0.359375000
vt 0.796875000 0.359375000
f 32/32 31/31 30/30 29/29
v 0.875000000 0.621729649 0.562500000
v 0.843750000 0.621729649 0.562500000
v 0.843750000 0.621729649 0.531250000
v 0.875000000 0.621729649 0.531250000
vt 0.812500000 0.312500000
vt 0.796875000 0.312500000
vt 0.796875000 0.328125000
vt 0.812500000 0.328125000
f 36/36 35/35 34/34 33/33
v 0.875000000 0.559229649 0.531250000
v 0.843750000 0.559229649 0.531250000
v 0.843750000 0.559229649 0.562500000
v 0.875000000 0.559229649 0.562500000
vt 0.828125000 0.328125000
vt 0.812500000 0.328125000
vt 0.812500000 0.312500000
vt 0.828125000 0.312500000
f 40/40 39/39 38/38 37/37
v 0.875000000 0.621729649 0.531250000
v 0.843750000 0.621729649 0.531250000
v 0.843750000 0.559229649 0.531250000
v 0.875000000 0.559229649 0.531250000
vt 0.812500000 0.328125000
vt 0.796875000 0.328125000
vt 0.796875000 0.359375000
vt 0.812500000 0.359375000
f 44/44 43/43 42/42 41/41
v 0.843750000 0.621729649 0.562500000
v 0.875000000 0.621729649 0.562500000
v 0.875000000 0.559229649 0.562500000
v 0.843750000 0.559229649 0.562500000
vt 0.843750000 0.328125000
vt 0.828125000 0.328125000
vt 0.828125000 0.359375000
vt 0.843750000 0.359375000
f 48/48 47/47 46/46 45/45
o Shape3
usemtl gun
v 0.843750000 0.668604649 0.546875000
v 0.843750000 0.668604649 0.453125000
v 0.843750000 0.637354649 0.453125000
v 0.843750000 0.637354649 0.546875000
vt 0.484375000 0.171875000
vt 0.437500000 0.171875000
vt 0.437500000 0.187500000
vt 0.484375000 0.187500000
f 52/52 51/51 50/50 49/49
v 0.062500000 0.668604649 0.453125000
v 0.062500000 0.668604649 0.546875000
v 0.062500000 0.637354649 0.546875000
v 0.062500000 0.637354649 0.453125000
vt 0.046875000 0.171875000
vt 0.000000000 0.171875000
vt 0.000000000 0.187500000
vt 0.046875000 0.187500000
f 56/56 55/55 54/54 53/53
v 0.843750000 0.668604649 0.546875000
v 0.062500000 0.668604649 0.546875000
v 0.062500000 0.668604649 0.453125000
v 0.843750000 0.668604649 0.453125000
vt 0.437500000 0.125000000
vt 0.046875000 0.125000000
vt 0.046875000 0.171875000
vt 0.437500000 0.171875000
f 60/60 59/59 58/58 57/57
v 0.843750000 0.637354649 0.453125000
v 0.062500000 0.637354649 0.453125000
v 0.062500000 0.637354649 0.546875000
v 0.843750000 0.637354649 0.546875000
vt 0.828125000 0.171875000
vt 0.437500000 0.171875000
vt 0.437500000 0.125000000
vt 0.828125000 0.125000000
f 64/64 63/63 62/62 61/61
v 0.843750000 0.668604649 0.453125000
v 0.062500000 0.668604649 0.453125000
v 0.062500000 0.637354649 0.453125000
v 0.843750000 0.637354649 0.453125000
vt 0.437500000 0.171875000
vt 0.046875000 0.171875000
vt 0.046875000 0.187500000
vt 0.437500000 0.187500000
f 68/68 67/67 66/66 65/65
v 0.062500000 0.668604649 0.546875000
v 0.843750000 0.668604649 0.546875000
v 0.843750000 0.637354649 0.546875000
v 0.062500000 0.637354649 0.546875000
vt 0.875000000 0.171875000
vt 0.484375000 0.171875000
vt 0.484375000 0.187500000
vt 0.875000000 0.187500000
f 72/72 71/71 70/70 69/69
o Shape4
usemtl gun
v 0.437500000 0.731104649 0.546875000
v 0.437500000 0.731104649 0.453125000
v 0.437500000 0.668604649 0.453125000
v 0.437500000 0.668604649 0.546875000
vt 0.140625000 0.593750000
vt 0.093750000 0.593750000
vt 0.093750000 0.625000000
vt 0.140625000 0.625000000
f 76/76 75/75 74/74 73/73
v 0.343750000 0.731104649 0.453125000
v 0.343750000 0.731104649 0.546875000
v 0.343750000 0.668604649 0.546875000
v 0.343750000 0.668604649 0.453125000
vt 0.046875000 0.593750000
vt 0.000000000 0.593750000
vt 0.000000000 0.625000000
vt 0.046875000 0.625000000
f 80/80 79/79 78/78 77/77
v 0.437500000 0.731104649 0.546875000
v 0.343750000 0.731104649 0.546875000
v 0.343750000 0.731104649 0.453125000
v 0.437500000 0.731104649 0.453125000
vt 0.093750000 0.546875000
vt 0.046875000 0.546875000
vt 0.046875000 0.593750000
vt 0.093750000 0.593750000
f 84/84 83/83 82/82 81/81
v 0.437500000 0.668604649 0.453125000
v 0.343750000 0.668604649 0.453125000
v 0.343750000 0.668604649 0.546875000
v 0.437500000 0.668604649 0.546875000
vt 0.140625000 0.593750000
vt 0.093750000 0.593750000
vt 0.093750000 0.546875000
vt 0.140625000 0.546875000
f 88/88 87/87 86/86 85/85
v 0.437500000 0.731104649 0.453125000
v 0.343750000 0.731104649 0.453125000
v 0.343750000 0.668604649 0.453125000
v 0.437500000 0.668604649 0.453125000
vt 0.093750000 0.593750000
vt 0.046875000 0.593750000
vt 0.046875000 0.625000000
vt 0.093750000 0.625000000
f 92/92 91/91 90/90 89/89
v 0.343750000 0.731104649 0.546875000
v 0.437500000 0.731104649 0.546875000
v 0.437500000 0.668604649 0.546875000
v 0.343750000 0.668604649 0.546875000
vt 0.187500000 0.593750000
vt 0.140625000 0.593750000
vt 0.140625000 0.625000000
vt 0.187500000 0.625000000
f 96/96 95/95 94/94 93/93
o Shape5
usemtl gun
v 0.055341003 0.463274844 0.531250000
v 0.055341003 0.463274844 0.468750000
v 0.098908796 0.380263340 0.468750000
v 0.098908796 0.380263340 0.531250000
vt 0.781250000 0.875000000
vt 0.750000000 0.875000000
vt 0.750000000 0.921875000
vt 0.781250000 0.921875000
f 100/100 99/99 98/98 97/97
v 0.000000000 0.434229649 0.468750000
v 0.000000000 0.434229649 0.531250000
v 0.043567794 0.351218144 0.531250000
v 0.043567794 0.351218144 0.468750000
vt 0.718750000 0.875000000
vt 0.687500000 0.875000000
vt 0.687500000 0.921875000
vt 0.718750000 0.921875000
f 104/104 103/103 102/102 101/101
v 0.055341003 0.463274844 0.531250000
v 0.000000000 0.434229649 0.531250000
v 0.000000000 0.434229649 0.468750000
v 0.055341003 0.463274844 0.468750000
vt 0.750000000 0.843750000
vt 0.718750000 0.843750000
vt 0.718750000 0.875000000
vt 0.750000000 0.875000000
f 108/108 107/107 106/106 105/105
v 0.098908796 0.380263340 0.468750000
v 0.043567794 0.351218144 0.468750000
v 0.043567794 0.351218144 0.531250000
v 0.098908796 0.380263340 0.531250000
vt 0.781250000 0.875000000
vt 0.750000000 0.875000000
vt 0.750000000 0.843750000
vt 0.781250000 0.843750000
f 112/112 111/111 110/110 109/109
v 0.055341003 0.463274844 0.468750000
v 0.000000000 0.434229649 0.468750000
v 0.043567794 0.351218144 0.468750000
v 0.098908796 0.380263340 0.468750000
vt 0.750000000 0.875000000
vt 0.718750000 0.875000000
vt 0.718750000 0.921875000
vt 0.750000000 0.921875000
f 116/116 115/115 114/114 113/113
v 0.000000000 0.434229649 0.531250000
v 0.055341003 0.463274844 0.531250000
v 0.098908796 0.380263340 0.531250000
v 0.043567794 0.351218144 0.531250000
vt 0.812500000 0.875000000
vt 0.781250000 0.875000000
vt 0.781250000 0.921875000
vt 0.812500000 0.921875000
f 120/120 119/119 118/118 117/117
o Shape6
usemtl gun
v 0.409375000 0.777979649 0.543750000
v 0.409375000 0.777979649 0.512500000
v 0.409375000 0.715479649 0.512500000
v 0.409375000 0.715479649 0.543750000
vt 0.187500000 0.421875000
vt 0.171875000 0.421875000
vt 0.171875000 0.453125000
vt 0.187500000 0.453125000
f 124/124 123/123 122/122 121/121
v 0.346875000 0.777979649 0.512500000
v 0.346875000 0.777979649 0.543750000
v 0.346875000 0.715479649 0.543750000
v 0.346875000 0.715479649 0.512500000
vt 0.140625000 0.421875000
vt 0.125000000 0.421875000
vt 0.125000000 0.453125000
vt 0.140625000 0.453125000
f 128/128 127/127 126/126 125/125
v 0.409375000 0.777979649 0.543750000
v 0.346875000 0.777979649 0.543750000
v 0.346875000 0.777979649 0.512500000
v 0.409375000 0.777979649 0.512500000
vt 0.171875000 0.406250000
vt 0.140625000 0.406250000
vt 0.140625000 0.421875000
vt 0.171875000 0.421875000
f 132/132 131/131 130/130 129/129
v 0.409375000 0.715479649 0.512500000
v 0.346875000 0.715479649 0.512500000
v 0.346875000 0.715479649 0.543750000
v 0.409375000 0.715479649 0.543750000
vt 0.203125000 0.421875000
vt 0.171875000 0.421875000
vt 0.171875000 0.406250000
vt 0.203125000 0.406250000
f 136/136 135/135 134/134 133/133
v 0.409375000 0.777979649 0.512500000
v 0.346875000 0.777979649 0.512500000
v 0.346875000 0.715479649 0.512500000
v 0.409375000 0.715479649 0.512500000
vt 0.171875000 0.421875000
vt 0.140625000 0.421875000
vt 0.140625000 0.453125000
vt 0.171875000 0.453125000
f 140/140 139/139 138/138 137/137
v 0.346875000 0.777979649 0.543750000
v 0.409375000 0.777979649 0.543750000
v 0.409375000 0.715479649 0.543750000
v 0.346875000 0.715479649 0.543750000
vt 0.218750000 0.421875000
vt 0.187500000 0.421875000
vt 0.187500000 0.453125000
vt 0.218750000 0.453125000
f 144/144 143/143 142/142 141/141
o Shape7
usemtl gun
v 0.687500000 0.699854649 0.531250000
v 0.687500000 0.699854649 0.468750000
v 0.687500000 0.668604649 0.468750000
v 0.687500000 0.668604649 0.531250000
vt 0.187500000 0.390625000
vt 0.156250000 0.390625000
vt 0.156250000 0.406250000
vt 0.187500000 0.406250000
f 148/148 147/147 146/146 145/145
v 0.437500000 0.699854649 0.468750000
v 0.437500000 0.699854649 0.531250000
v 0.437500000 0.668604649 0.531250000
v 0.437500000 0.668604649 0.468750000
vt 0.031250000 0.390625000
vt 0.000000000 0.390625000
vt 0.000000000 0.406250000
vt 0.031250000 0.406250000
f 152/152 151/151 150/150 149/149
v 0.687500000 0.699854649 0.531250000
v 0.437500000 0.699854649 0.531250000
v 0.437500000 0.699854649 0.468750000
v 0.687500000 0.699854649 0.468750000
vt 0.156250000 0.359375000
vt 0.031250000 0.359375000
vt 0.031250000 0.390625000
vt 0.156250000 0.390625000
f 156/156 155/155 154/154 153/153
v 0.687500000 0.668604649 0.468750000
v 0.437500000 0.668604649 0.468750000
v 0.437500000 0.668604649 0.531250000
v 0.687500000 0.668604649 0.531250000
vt 0.281250000 0.390625000
vt 0.156250000 0.390625000
vt 0.156250000 0.359375000
vt 0.281250000 0.359375000
f 160/160 159/159 158/158 157/157
v 0.687500000 0.699854649 0.468750000
v 0.437500000 0.699854649 0.468750000
v 0.437500000 0.668604649 0.468750000
v 0.687500000 0.668604649 0.468750000
vt 0.156250000 0.390625000
vt 0.031250000 0.390625000
vt 0.031250000 0.406250000
vt 0.156250000 0.406250000
f 164/164 163/163 162/162 161/161
v 0.437500000 0.699854649 0.531250000
v 0.687500000 0.699854649 0.531250000
v 0.687500000 0.668604649 0.531250000
v 0.437500000 0.668604649 0.531250000
vt 0.312500000 0.390625000
vt 0.187500000 0.390625000
vt 0.187500000 0.406250000
vt 0.312500000 0.406250000
f 168/168 167/167 166/166 165/165
o Shape8
usemtl gun
v 0.812500000 0.699854649 0.531250000
v 0.812500000 0.699854649 0.468750000
v 0.812500000 0.668604649 0.468750000
v 0.812500000 0.668604649 0.531250000
vt 0.093750000 0.437500000
vt 0.062500000 0.437500000
vt 0.062500000 0.453125000
vt 0.093750000 0.453125000
f 172/172 171/171 170/170 169/169
v 0.750000000 0.699854649 0.468750000
v 0.750000000 0.699854649 0.531250000
v 0.750000000 0.668604649 0.531250000
v 0.750000000 0.668604649 0.468750000
vt 0.031250000 0.437500000
vt 0.000000000 0.437500000
vt 0.000000000 0.453125000
vt 0.031250000 0.453125000
f 176/176 175/175 174/174 173/173
v 0.812500000 0.699854649 0.531250000
v 0.750000000 0.699854649 0.531250000
v 0.750000000 0.699854649 0.468750000
v 0.812500000 0.699854649 0.468750000
vt 0.062500000 0.406250000
vt 0.031250000 0.406250000
vt 0.031250000 0.437500000
vt 0.062500000 0.437500000
f 180/180 179/179 178/178 177/177
v 0.812500000 0.668604649 0.468750000
v 0.750000000 0.668604649 0.468750000
v 0.750000000 0.668604649 0.531250000
v 0.812500000 0.668604649 0.531250000
vt 0.093750000 0.437500000
vt 0.062500000 0.437500000
vt 0.062500000 0.406250000
vt 0.093750000 0.406250000
f 184/184 183/183 182/182 181/181
v 0.812500000 0.699854649 0.468750000
v 0.750000000 0.699854649 0.468750000
v 0.750000000 0.668604649 0.468750000
v 0.812500000 0.668604649 0.468750000
vt 0.062500000 0.437500000
vt 0.031250000 0.437500000
vt 0.031250000 0.453125000
vt 0.062500000 0.453125000
f 188/188 187/187 186/186 185/185
v 0.750000000 0.699854649 0.531250000
v 0.812500000 0.699854649 0.531250000
v 0.812500000 0.668604649 0.531250000
v 0.750000000 0.668604649 0.531250000
vt 0.125000000 0.437500000
vt 0.093750000 0.437500000
vt 0.093750000 0.453125000
vt 0.125000000 0.453125000
f 192/192 191/191 190/190 189/189
o Shape9
usemtl gun
v 0.796875000 0.777979649 0.500000000
v 0.765625000 0.777979649 0.500000000
v 0.765625000 0.746729649 0.500000000
v 0.796875000 0.746729649 0.500000000
vt 0.046875000 0.453125000
vt 0.031250000 0.453125000
vt 0.031250000 0.468750000
vt 0.046875000 0.468750000
f 196/196 195/195 194/194 193/193
v 0.765625000 0.777979649 0.500000000
v 0.796875000 0.777979649 0.500000000
v 0.796875000 0.746729649 0.500000000
v 0.765625000 0.746729649 0.500000000
vt 0.062500000 0.453125000
vt 0.046875000 0.453125000
vt 0.046875000 0.468750000
vt 0.062500000 0.468750000
f 200/200 199/199 198/198 197/197
o Shape10
usemtl gun
v 0.796875000 0.762354649 0.531250000
v 0.796875000 0.762354649 0.468750000
v 0.796875000 0.699854649 0.468750000
v 0.796875000 0.699854649 0.531250000
vt 0.078125000 0.328125000
vt 0.046875000 0.328125000
vt 0.046875000 0.359375000
vt 0.078125000 0.359375000
f 204/204 203/203 202/202 201/201
v 0.765625000 0.762354649 0.468750000
v 0.765625000 0.762354649 0.531250000
v 0.765625000 0.699854649 0.531250000
v 0.765625000 0.699854649 0.468750000
vt 0.031250000 0.328125000
vt 0.000000000 0.328125000
vt 0.000000000 0.359375000
vt 0.031250000 0.359375000
f 208/208 207/207 206/206 205/205
v 0.796875000 0.762354649 0.531250000
v 0.765625000 0.762354649 0.531250000
v 0.765625000 0.762354649 0.468750000
v 0.796875000 0.762354649 0.468750000
vt 0.046875000 0.296875000
vt 0.031250000 0.296875000
vt 0.031250000 0.328125000
vt 0.046875000 0.328125000
f 212/212 211/211 210/210 209/209
v 0.796875000 0.699854649 0.468750000
v 0.765625000 0.699854649 0.468750000
v 0.765625000 0.699854649 0.531250000
v 0.796875000 0.699854649 0.531250000
vt 0.062500000 0.328125000
vt 0.046875000 0.328125000
vt 0.046875000 0.296875000
vt 0.062500000 0.296875000
f 216/216 215/215 214/214 213/213
v 0.796875000 0.762354649 0.468750000
v 0.765625000 0.762354649 0.468750000
v 0.765625000 0.699854649 0.468750000
v 0.796875000 0.699854649 0.468750000
vt 0.046875000 0.328125000
vt 0.031250000 0.328125000
vt 0.031250000 0.359375000
vt 0.046875000 0.359375000
f 220/220 219/219 218/218 217/217
v 0.765625000 0.762354649 0.531250000
v 0.796875000 0.762354649 0.531250000
v 0.796875000 0.699854649 0.531250000
v 0.765625000 0.699854649 0.531250000
vt 0.093750000 0.328125000
vt 0.078125000 0.328125000
vt 0.078125000 0.359375000
vt 0.093750000 0.359375000
f 224/224 223/223 222/222 221/221
o Shape11
usemtl gun
v 0.796875000 0.793604649 0.484375000
v 0.765625000 0.793604649 0.484375000
v 0.765625000 0.762354649 0.484375000
v 0.796875000 0.762354649 0.484375000
vt 0.015625000 0.468750000
vt 0.000000000 0.468750000
vt 0.000000000 0.484375000
vt 0.015625000 0.484375000
f 228/228 227/227 226/226 225/225
v 0.765625000 0.793604649 0.484375000
v 0.796875000 0.793604649 0.484375000
v 0.796875000 0.762354649 0.484375000
v 0.765625000 0.762354649 0.484375000
vt 0.031250000 0.468750000
vt 0.015625000 0.468750000
vt 0.015625000 0.484375000
vt 0.031250000 0.484375000
f 232/232 231/231 230/230 229/229
o Shape12
usemtl gun
v 0.796875000 0.793604649 0.515625000
v 0.765625000 0.793604649 0.515625000
v 0.765625000 0.762354649 0.515625000
v 0.796875000 0.762354649 0.515625000
vt 0.015625000 0.453125000
vt 0.000000000 0.453125000
vt 0.000000000 0.468750000
vt 0.015625000 0.468750000
f 236/236 235/235 234/234 233/233
v 0.765625000 0.793604649 0.515625000
v 0.796875000 0.793604649 0.515625000
v 0.796875000 0.762354649 0.515625000
v 0.765625000 0.762354649 0.515625000
vt 0.031250000 0.453125000
vt 0.015625000 0.453125000
vt 0.015625000 0.468750000
vt 0.031250000 0.468750000
f 240/240 239/239 238/238 237/237
o Shape13
usemtl gun
v 0.409375000 0.777979649 0.487500000
v 0.409375000 0.777979649 0.456250000
v 0.409375000 0.715479649 0.456250000
v 0.409375000 0.715479649 0.487500000
vt 0.187500000 0.421875000
vt 0.171875000 0.421875000
vt 0.171875000 0.453125000
vt 0.187500000 0.453125000
f 244/244 243/243 242/242 241/241
v 0.346875000 0.777979649 0.456250000
v 0.346875000 0.777979649 0.487500000
v 0.346875000 0.715479649 0.487500000
v 0.346875000 0.715479649 0.456250000
vt 0.140625000 0.421875000
vt 0.125000000 0.421875000
vt 0.125000000 0.453125000
vt 0.140625000 0.453125000
f 248/248 247/247 246/246 245/245
v 0.409375000 0.777979649 0.487500000
v 0.346875000 0.777979649 0.487500000
v 0.346875000 0.777979649 0.456250000
v 0.409375000 0.777979649 0.456250000
vt 0.171875000 0.406250000
vt 0.140625000 0.406250000
vt 0.140625000 0.421875000
vt 0.171875000 0.421875000
f 252/252 251/251 250/250 249/249
v 0.409375000 0.715479649 0.456250000
v 0.346875000 0.715479649 0.456250000
v 0.346875000 0.715479649 0.487500000
v 0.409375000 0.715479649 0.487500000
vt 0.203125000 0.421875000
vt 0.171875000 0.421875000
vt 0.171875000 0.406250000
vt 0.203125000 0.406250000
f 256/256 255/255 254/254 253/253
v 0.409375000 0.777979649 0.456250000
v 0.346875000 0.777979649 0.456250000
v 0.346875000 0.715479649 0.456250000
v 0.409375000 0.715479649 0.456250000
vt 0.171875000 0.421875000
vt 0.140625000 0.421875000
vt 0.140625000 0.453125000
vt 0.171875000 0.453125000
f 260/260 259/259 258/258 257/257
v 0.346875000 0.777979649 0.487500000
v 0.409375000 0.777979649 0.487500000
v 0.409375000 0.715479649 0.487500000
v 0.346875000 0.715479649 0.487500000
vt 0.218750000 0.421875000
vt 0.187500000 0.421875000
vt 0.187500000 0.453125000
vt 0.218750000 0.453125000
f 264/264 263/263 262/262 261/261
o Shape14
usemtl gun
v 0.906250000 0.606104649 0.515625000
v 0.906250000 0.606104649 0.484375000
v 0.906250000 0.574854649 0.484375000
v 0.906250000 0.574854649 0.515625000
vt 0.531250000 0.421875000
vt 0.515625000 0.421875000
vt 0.515625000 0.437500000
vt 0.531250000 0.437500000
f 268/268 267/267 266/266 265/265
v 0.875000000 0.606104649 0.484375000
v 0.875000000 0.606104649 0.515625000
v 0.875000000 0.574854649 0.515625000
v 0.875000000 0.574854649 0.484375000
vt 0.500000000 0.421875000
vt 0.484375000 0.421875000
vt 0.484375000 0.437500000
vt 0.500000000 0.437500000
f 272/272 271/271 270/270 269/269
v 0.906250000 0.606104649 0.515625000
v 0.875000000 0.606104649 0.515625000
v 0.875000000 0.606104649 0.484375000
v 0.906250000 0.606104649 0.484375000
vt 0.515625000 0.406250000
vt 0.500000000 0.406250000
vt 0.500000000 0.421875000
vt 0.515625000 0.421875000
f 276/276 275/275 274/274 273/273
v 0.906250000 0.574854649 0.484375000
v 0.875000000 0.574854649 0.484375000
v 0.875000000 0.574854649 0.515625000
v 0.906250000 0.574854649 0.515625000
vt 0.531250000 0.421875000
vt 0.515625000 0.421875000
vt 0.515625000 0.406250000
vt 0.531250000 0.406250000
f 280/280 279/279 278/278 277/277
v 0.906250000 0.606104649 0.484375000
v 0.875000000 0.606104649 0.484375000
v 0.875000000 0.574854649 0.484375000
v 0.906250000 0.574854649 0.484375000
vt 0.515625000 0.421875000
vt 0.500000000 0.421875000
vt 0.500000000 0.437500000
vt 0.515625000 0.437500000
f 284/284 283/283 282/282 281/281
v 0.875000000 0.606104649 0.515625000
v 0.906250000 0.606104649 0.515625000
v 0.906250000 0.574854649 0.515625000
v 0.875000000 0.574854649 0.515625000
vt 0.546875000 0.421875000
vt 0.531250000 0.421875000
vt 0.531250000 0.437500000
vt 0.546875000 0.437500000
f 288/288 287/287 286/286 285/285
o Shape15
usemtl gun
v 1.000000000 0.634673822 0.499999998
v 1.000000000 0.590479647 0.455805826
v 1.000000000 0.546285475 0.500000002
v 1.000000000 0.590479650 0.544194174
vt 0.468750000 0.343750000
vt 0.437500000 0.343750000
vt 0.437500000 0.375000000
vt 0.468750000 0.375000000
f 292/292 291/291 290/290 289/289
v 0.906250000 0.590479647 0.455805826
v 0.906250000 0.634673822 0.499999998
v 0.906250000 0.590479650 0.544194174
v 0.906250000 0.546285475 0.500000002
vt 0.390625000 0.343750000
vt 0.359375000 0.343750000
vt 0.359375000 0.375000000
vt 0.390625000 0.375000000
f 296/296 295/295 294/294 293/293
v 1.000000000 0.634673822 0.499999998
v 0.906250000 0.634673822 0.499999998
v 0.906250000 0.590479647 0.455805826
v 1.000000000 0.590479647 0.455805826
vt 0.437500000 0.312500000
vt 0.390625000 0.312500000
vt 0.390625000 0.343750000
vt 0.437500000 0.343750000
f 300/300 299/299 298/298 297/297
v 1.000000000 0.546285475 0.500000002
v 0.906250000 0.546285475 0.500000002
v 0.906250000 0.590479650 0.544194174
v 1.000000000 0.590479650 0.544194174
vt 0.484375000 0.343750000
vt 0.437500000 0.343750000
vt 0.437500000 0.312500000
vt 0.484375000 0.312500000
f 304/304 303/303 302/302 301/301
v 1.000000000 0.590479647 0.455805826
v 0.906250000 0.590479647 0.455805826
v 0.906250000 0.546285475 0.500000002
v 1.000000000 0.546285475 0.500000002
vt 0.437500000 0.343750000
vt 0.390625000 0.343750000
vt 0.390625000 0.375000000
vt 0.437500000 0.375000000
f 308/308 307/307 306/306 305/305
v 0.906250000 0.634673822 0.499999998
v 1.000000000 0.634673822 0.499999998
v 1.000000000 0.590479650 0.544194174
v 0.906250000 0.590479650 0.544194174
vt 0.515625000 0.343750000
vt 0.468750000 0.343750000
vt 0.468750000 0.375000000
vt 0.515625000 0.375000000
f 312/312 311/311 310/310 309/309
o Shape16
usemtl gun
v 0.796875000 0.481104649 0.531250000
v 0.796875000 0.481104649 0.468750000
v 0.796875000 0.449854649 0.468750000
v 0.796875000 0.449854649 0.531250000
vt 0.250000000 0.890625000
vt 0.218750000 0.890625000
vt 0.218750000 0.906250000
vt 0.250000000 0.906250000
f 316/316 315/315 314/314 313/313
v 0.609375000 0.481104649 0.468750000
v 0.609375000 0.481104649 0.531250000
v 0.609375000 0.449854649 0.531250000
v 0.609375000 0.449854649 0.468750000
vt 0.125000000 0.890625000
vt 0.093750000 0.890625000
vt 0.093750000 0.906250000
vt 0.125000000 0.906250000
f 320/320 319/319 318/318 317/317
v 0.796875000 0.481104649 0.531250000
v 0.609375000 0.481104649 0.531250000
v 0.609375000 0.481104649 0.468750000
v 0.796875000 0.481104649 0.468750000
vt 0.218750000 0.859375000
vt 0.125000000 0.859375000
vt 0.125000000 0.890625000
vt 0.218750000 0.890625000
f 324/324 323/323 322/322 321/321
v 0.796875000 0.449854649 0.468750000
v 0.609375000 0.449854649 0.468750000
v 0.609375000 0.449854649 0.531250000
v 0.796875000 0.449854649 0.531250000
vt 0.312500000 0.890625000
vt 0.218750000 0.890625000
vt 0.218750000 0.859375000
vt 0.312500000 0.859375000
f 328/328 327/327 326/326 325/325
v 0.796875000 0.481104649 0.468750000
v 0.609375000 0.481104649 0.468750000
v 0.609375000 0.449854649 0.468750000
v 0.796875000 0.449854649 0.468750000
vt 0.218750000 0.890625000
vt 0.125000000 0.890625000
vt 0.125000000 0.906250000
vt 0.218750000 0.906250000
f 332/332 331/331 330/330 329/329
v 0.609375000 0.481104649 0.531250000
v 0.796875000 0.481104649 0.531250000
v 0.796875000 0.449854649 0.531250000
v 0.609375000 0.449854649 0.531250000
vt 0.343750000 0.890625000
vt 0.250000000 0.890625000
vt 0.250000000 0.906250000
vt 0.343750000 0.906250000
f 336/336 335/335 334/334 333/333
o Shape17
usemtl gun
v 0.875000000 0.621729649 0.468750000
v 0.875000000 0.621729649 0.437500000
v 0.875000000 0.559229649 0.437500000
v 0.875000000 0.559229649 0.468750000
vt 0.765625000 0.328125000
vt 0.750000000 0.328125000
vt 0.750000000 0.359375000
vt 0.765625000 0.359375000
f 340/340 339/339 338/338 337/337
v 0.843750000 0.621729649 0.437500000
v 0.843750000 0.621729649 0.468750000
v 0.843750000 0.559229649 0.468750000
v 0.843750000 0.559229649 0.437500000
vt 0.734375000 0.328125000
vt 0.718750000 0.328125000
vt 0.718750000 0.359375000
vt 0.734375000 0.359375000
f 344/344 343/343 342/342 341/341
v 0.875000000 0.621729649 0.468750000
v 0.843750000 0.621729649 0.468750000
v 0.843750000 0.621729649 0.437500000
v 0.875000000 0.621729649 0.437500000
vt 0.750000000 0.312500000
vt 0.734375000 0.312500000
vt 0.734375000 0.328125000
vt 0.750000000 0.328125000
f 348/348 347/347 346/346 345/345
v 0.875000000 0.559229649 0.437500000
v 0.843750000 0.559229649 0.437500000
v 0.843750000 0.559229649 0.468750000
v 0.875000000 0.559229649 0.468750000
vt 0.765625000 0.328125000
vt 0.750000000 0.328125000
vt 0.750000000 0.312500000
vt 0.765625000 0.312500000
f 352/352 351/351 350/350 349/349
v 0.875000000 0.621729649 0.437500000
v 0.843750000 0.621729649 0.437500000
v 0.843750000 0.559229649 0.437500000
v 0.875000000 0.559229649 0.437500000
vt 0.750000000 0.328125000
vt 0.734375000 0.328125000
vt 0.734375000 0.359375000
vt 0.750000000 0.359375000
f 356/356 355/355 354/354 353/353
v 0.843750000 0.621729649 0.468750000
v 0.875000000 0.621729649 0.468750000
v 0.875000000 0.559229649 0.468750000
v 0.843750000 0.559229649 0.468750000
vt 0.781250000 0.328125000
vt 0.765625000 0.328125000
vt 0.765625000 0.359375000
vt 0.781250000 0.359375000
f 360/360 359/359 358/358 357/357
o Shape18
usemtl gun
v 0.875000000 0.634673822 0.499999998
v 0.875000000 0.590479647 0.455805826
v 0.875000000 0.546285475 0.500000002
v 0.875000000 0.590479650 0.544194174
vt 0.625000000 0.343750000
vt 0.593750000 0.343750000
vt 0.593750000 0.375000000
vt 0.625000000 0.375000000
f 364/364 363/363 362/362 361/361
v 0.843750000 0.590479647 0.455805826
v 0.843750000 0.634673822 0.499999998
v 0.843750000 0.590479650 0.544194174
v 0.843750000 0.546285475 0.500000002
vt 0.578125000 0.343750000
vt 0.546875000 0.343750000
vt 0.546875000 0.375000000
vt 0.578125000 0.375000000
f 368/368 367/367 366/366 365/365
v 0.875000000 0.634673822 0.499999998
v 0.843750000 0.634673822 0.499999998
v 0.843750000 0.590479647 0.455805826
v 0.875000000 0.590479647 0.455805826
vt 0.593750000 0.312500000
vt 0.578125000 0.312500000
vt 0.578125000 0.343750000
vt 0.593750000 0.343750000
f 372/372 371/371 370/370 369/369
v 0.875000000 0.546285475 0.500000002
v 0.843750000 0.546285475 0.500000002
v 0.843750000 0.590479650 0.544194174
v 0.875000000 0.590479650 0.544194174
vt 0.609375000 0.343750000
vt 0.593750000 0.343750000
vt 0.593750000 0.312500000
vt 0.609375000 0.312500000
f 376/376 375/375 374/374 373/373
v 0.875000000 0.590479647 0.455805826
v 0.843750000 0.590479647 0.455805826
v 0.843750000 0.546285475 0.500000002
v 0.875000000 0.546285475 0.500000002
vt 0.593750000 0.343750000
vt 0.578125000 0.343750000
vt 0.578125000 0.375000000
vt 0.593750000 0.375000000
f 380/380 379/379 378/378 377/377
v 0.843750000 0.634673822 0.499999998
v 0.875000000 0.634673822 0.499999998
v 0.875000000 0.590479650 0.544194174
v 0.843750000 0.590479650 0.544194174
vt 0.640625000 0.343750000
vt 0.625000000 0.343750000
vt 0.625000000 0.375000000
vt 0.640625000 0.375000000
f 384/384 383/383 382/382 381/381
o Shape19
usemtl gun
v 0.859375000 0.534451735 0.499999999
v 0.859375000 0.512354648 0.477902913
v 0.859375000 0.490257562 0.500000001
v 0.859375000 0.512354649 0.522097087
vt 0.296875000 0.937500000
vt 0.281250000 0.937500000
vt 0.281250000 0.953125000
vt 0.296875000 0.953125000
f 388/388 387/387 386/386 385/385
v 0.828125000 0.512354648 0.477902913
v 0.828125000 0.534451735 0.499999999
v 0.828125000 0.512354649 0.522097087
v 0.828125000 0.490257562 0.500000001
vt 0.265625000 0.937500000
vt 0.250000000 0.937500000
vt 0.250000000 0.953125000
vt 0.265625000 0.953125000
f 392/392 391/391 390/390 389/389
v 0.859375000 0.534451735 0.499999999
v 0.828125000 0.534451735 0.499999999
v 0.828125000 0.512354648 0.477902913
v 0.859375000 0.512354648 0.477902913
vt 0.281250000 0.921875000
vt 0.265625000 0.921875000
vt 0.265625000 0.937500000
vt 0.281250000 0.937500000
f 396/396 395/395 394/394 393/393
v 0.859375000 0.490257562 0.500000001
v 0.828125000 0.490257562 0.500000001
v 0.828125000 0.512354649 0.522097087
v 0.859375000 0.512354649 0.522097087
vt 0.296875000 0.937500000
vt 0.281250000 0.937500000
vt 0.281250000 0.921875000
vt 0.296875000 0.921875000
f 400/400 399/399 398/398 397/397
v 0.859375000 0.512354648 0.477902913
v 0.828125000 0.512354648 0.477902913
v 0.828125000 0.490257562 0.500000001
v 0.859375000 0.490257562 0.500000001
vt 0.281250000 0.937500000
vt 0.265625000 0.937500000
vt 0.265625000 0.953125000
vt 0.281250000 0.953125000
f 404/404 403/403 402/402 401/401
v 0.828125000 0.534451735 0.499999999
v 0.859375000 0.534451735 0.499999999
v 0.859375000 0.512354649 0.522097087
v 0.828125000 0.512354649 0.522097087
vt 0.312500000 0.937500000
vt 0.296875000 0.937500000
vt 0.296875000 0.953125000
vt 0.312500000 0.953125000
f 408/408 407/407 406/406 405/405
o Shape20
usemtl gun
v 0.843750000 0.637354649 0.562500000
v 0.843750000 0.637354649 0.437500000
v 0.843750000 0.543604649 0.437500000
v 0.843750000 0.543604649 0.562500000
vt 0.515625000 0.250000000
vt 0.453125000 0.250000000
vt 0.453125000 0.296875000
vt 0.515625000 0.296875000
f 412/412 411/411 410/410 409/409
v 0.062500000 0.637354649 0.437500000
v 0.062500000 0.637354649 0.562500000
v 0.062500000 0.543604649 0.562500000
v 0.062500000 0.543604649 0.437500000
vt 0.062500000 0.250000000
vt 0.000000000 0.250000000
vt 0.000000000 0.296875000
vt 0.062500000 0.296875000
f 416/416 415/415 414/414 413/413
v 0.843750000 0.637354649 0.562500000
v 0.062500000 0.637354649 0.562500000
v 0.062500000 0.637354649 0.437500000
v 0.843750000 0.637354649 0.437500000
vt 0.453125000 0.187500000
vt 0.062500000 0.187500000
vt 0.062500000 0.250000000
vt 0.453125000 0.250000000
f 420/420 419/419 418/418 417/417
v 0.843750000 0.543604649 0.437500000
v 0.062500000 0.543604649 0.437500000
v 0.062500000 0.543604649 0.562500000
v 0.843750000 0.543604649 0.562500000
vt 0.843750000 0.250000000
vt 0.453125000 0.250000000
vt 0.453125000 0.187500000
vt 0.843750000 0.187500000
f 424/424 423/423 422/422 421/421
v 0.843750000 0.637354649 0.437500000
v 0.062500000 0.637354649 0.437500000
v 0.062500000 0.543604649 0.437500000
v 0.843750000 0.543604649 0.437500000
vt 0.453125000 0.250000000
vt 0.062500000 0.250000000
vt 0.062500000 0.296875000
vt 0.453125000 0.296875000
f 428/428 427/427 426/426 425/425
v 0.062500000 0.637354649 0.562500000
v 0.843750000 0.637354649 0.562500000
v 0.843750000 0.543604649 0.562500000
v 0.062500000 0.543604649 0.562500000
vt 0.906250000 0.250000000
vt 0.515625000 0.250000000
vt 0.515625000 0.296875000
vt 0.906250000 0.296875000
f 432/432 431/431 430/430 429/429
o Shape21
usemtl gun
v 0.828125000 0.449854649 0.531250000
v 0.828125000 0.449854649 0.468750000
v 0.828125000 0.418604649 0.468750000
v 0.828125000 0.418604649 0.531250000
vt 0.078125000 0.890625000
vt 0.046875000 0.890625000
vt 0.046875000 0.906250000
vt 0.078125000 0.906250000
f 436/436 435/435 434/434 433/433
v 0.796875000 0.449854649 0.468750000
v 0.796875000 0.449854649 0.531250000
v 0.796875000 0.418604649 0.531250000
v 0.796875000 0.418604649 0.468750000
vt 0.031250000 0.890625000
vt 0.000000000 0.890625000
vt 0.000000000 0.906250000
vt 0.031250000 0.906250000
f 440/440 439/439 438/438 437/437
v 0.828125000 0.449854649 0.531250000
v 0.796875000 0.449854649 0.531250000
v 0.796875000 0.449854649 0.468750000
v 0.828125000 0.449854649 0.468750000
vt 0.046875000 0.859375000
vt 0.031250000 0.859375000
vt 0.031250000 0.890625000
vt 0.046875000 0.890625000
f 444/444 443/443 442/442 441/441
v 0.828125000 0.418604649 0.468750000
v 0.796875000 0.418604649 0.468750000
v 0.796875000 0.418604649 0.531250000
v 0.828125000 0.418604649 0.531250000
vt 0.062500000 0.890625000
vt 0.046875000 0.890625000
vt 0.046875000 0.859375000
vt 0.062500000 0.859375000
f 448/448 447/447 446/446 445/445
v 0.828125000 0.449854649 0.468750000
v 0.796875000 0.449854649 0.468750000
v 0.796875000 0.418604649 0.468750000
v 0.828125000 0.418604649 0.468750000
vt 0.046875000 0.890625000
vt 0.031250000 0.890625000
vt 0.031250000 0.906250000
vt 0.046875000 0.906250000
f 452/452 451/451 450/450 449/449
v 0.796875000 0.449854649 0.531250000
v 0.828125000 0.449854649 0.531250000
v 0.828125000 0.418604649 0.531250000
v 0.796875000 0.418604649 0.531250000
vt 0.093750000 0.890625000
vt 0.078125000 0.890625000
vt 0.078125000 0.906250000
vt 0.093750000 0.906250000
f 456/456 455/455 454/454 453/453
o Shape22
usemtl gun
v 0.606447119 0.467897828 0.515625000
v 0.606447119 0.467897828 0.484375000
v 0.500792556 0.241320880 0.484375000
v 0.500792556 0.241320880 0.515625000
vt 0.390625000 0.875000000
vt 0.375000000 0.875000000
vt 0.375000000 1.000000000
vt 0.390625000 1.000000000
f 460/460 459/459 458/458 457/457
v 0.578125000 0.481104649 0.484375000
v 0.578125000 0.481104649 0.515625000
v 0.472470438 0.254527700 0.515625000
v 0.472470438 0.254527700 0.484375000
vt 0.359375000 0.875000000
vt 0.343750000 0.875000000
vt 0.343750000 1.000000000
vt 0.359375000 1.000000000
f 464/464 463/463 462/462 461/461
v 0.606447119 0.467897828 0.515625000
v 0.578125000 0.481104649 0.515625000
v 0.578125000 0.481104649 0.484375000
v 0.606447119 0.467897828 0.484375000
vt 0.375000000 0.859375000
vt 0.359375000 0.859375000
vt 0.359375000 0.875000000
vt 0.375000000 0.875000000
f 468/468 467/467 466/466 465/465
v 0.500792556 0.241320880 0.484375000
v 0.472470438 0.254527700 0.484375000
v 0.472470438 0.254527700 0.515625000
v 0.500792556 0.241320880 0.515625000
vt 0.390625000 0.875000000
vt 0.375000000 0.875000000
vt 0.375000000 0.859375000
vt 0.390625000 0.859375000
f 472/472 471/471 470/470 469/469
v 0.606447119 0.467897828 0.484375000
v 0.578125000 0.481104649 0.484375000
v 0.472470438 0.254527700 0.484375000
v 0.500792556 0.241320880 0.484375000
vt 0.375000000 0.875000000
vt 0.359375000 0.875000000
vt 0.359375000 1.000000000
vt 0.375000000 1.000000000
f 476/476 475/475 474/474 473/473
v 0.578125000 0.481104649 0.515625000
v 0.606447119 0.467897828 0.515625000
v 0.500792556 0.241320880 0.515625000
v 0.472470438 0.254527700 0.515625000
vt 0.406250000 0.875000000
vt 0.390625000 0.875000000
vt 0.390625000 1.000000000
vt 0.406250000 1.000000000
f 480/480 479/479 478/478 477/477
o Shape23
usemtl gun
v 0.796875000 0.543604649 0.546875000
v 0.796875000 0.543604649 0.453125000
v 0.796875000 0.481104649 0.453125000
v 0.796875000 0.481104649 0.546875000
vt 0.187500000 0.968750000
vt 0.140625000 0.968750000
vt 0.140625000 1.000000000
vt 0.187500000 1.000000000
f 484/484 483/483 482/482 481/481
v 0.609375000 0.543604649 0.453125000
v 0.609375000 0.543604649 0.546875000
v 0.609375000 0.481104649 0.546875000
v 0.609375000 0.481104649 0.453125000
vt 0.046875000 0.968750000
vt 0.000000000 0.968750000
vt 0.000000000 1.000000000
vt 0.046875000 1.000000000
f 488/488 487/487 486/486 485/485
v 0.796875000 0.543604649 0.546875000
v 0.609375000 0.543604649 0.546875000
v 0.609375000 0.543604649 0.453125000
v 0.796875000 0.543604649 0.453125000
vt 0.140625000 0.921875000
vt 0.046875000 0.921875000
vt 0.046875000 0.968750000
vt 0.140625000 0.968750000
f 492/492 491/491 490/490 489/489
v 0.796875000 0.481104649 0.453125000
v 0.609375000 0.481104649 0.453125000
v 0.609375000 0.481104649 0.546875000
v 0.796875000 0.481104649 0.546875000
vt 0.234375000 0.968750000
vt 0.140625000 0.968750000
vt 0.140625000 0.921875000
vt 0.234375000 0.921875000
f 496/496 495/495 494/494 493/493
v 0.796875000 0.543604649 0.453125000
v 0.609375000 0.543604649 0.453125000
v 0.609375000 0.481104649 0.453125000
v 0.796875000 0.481104649 0.453125000
vt 0.140625000 0.968750000
vt 0.046875000 0.968750000
vt 0.046875000 1.000000000
vt 0.140625000 1.000000000
f 500/500 499/499 498/498 497/497
v 0.609375000 0.543604649 0.546875000
v 0.796875000 0.543604649 0.546875000
v 0.796875000 0.481104649 0.546875000
v 0.609375000 0.481104649 0.546875000
vt 0.281250000 0.968750000
vt 0.187500000 0.968750000
vt 0.187500000 1.000000000
vt 0.281250000 1.000000000
f 504/504 503/503 502/502 501/501
o Shape24
usemtl gun
v 0.484375000 0.543604649 0.546875000
v 0.484375000 0.543604649 0.453125000
v 0.484375000 0.481104649 0.453125000
v 0.484375000 0.481104649 0.546875000
vt 0.437500000 0.765625000
vt 0.390625000 0.765625000
vt 0.390625000 0.796875000
vt 0.437500000 0.796875000
f 508/508 507/507 506/506 505/505
v 0.421875000 0.543604649 0.453125000
v 0.421875000 0.543604649 0.546875000
v 0.421875000 0.481104649 0.546875000
v 0.421875000 0.481104649 0.453125000
vt 0.359375000 0.765625000
vt 0.312500000 0.765625000
vt 0.312500000 0.796875000
vt 0.359375000 0.796875000
f 512/512 511/511 510/510 509/509
v 0.484375000 0.543604649 0.546875000
v 0.421875000 0.543604649 0.546875000
v 0.421875000 0.543604649 0.453125000
v 0.484375000 0.543604649 0.453125000
vt 0.390625000 0.718750000
vt 0.359375000 0.718750000
vt 0.359375000 0.765625000
vt 0.390625000 0.765625000
f 516/516 515/515 514/514 513/513
v 0.484375000 0.481104649 0.453125000
v 0.421875000 0.481104649 0.453125000
v 0.421875000 0.481104649 0.546875000
v 0.484375000 0.481104649 0.546875000
vt 0.421875000 0.765625000
vt 0.390625000 0.765625000
vt 0.390625000 0.718750000
vt 0.421875000 0.718750000
f 520/520 519/519 518/518 517/517
v 0.484375000 0.543604649 0.453125000
v 0.421875000 0.543604649 0.453125000
v 0.421875000 0.481104649 0.453125000
v 0.484375000 0.481104649 0.453125000
vt 0.390625000 0.765625000
vt 0.359375000 0.765625000
vt 0.359375000 0.796875000
vt 0.390625000 0.796875000
f 524/524 523/523 522/522 521/521
v 0.421875000 0.543604649 0.546875000
v 0.484375000 0.543604649 0.546875000
v 0.484375000 0.481104649 0.546875000
v 0.421875000 0.481104649 0.546875000
vt 0.468750000 0.765625000
vt 0.437500000 0.765625000
vt 0.437500000 0.796875000
vt 0.468750000 0.796875000
f 528/528 527/527 526/526 525/525
o Shape25
usemtl gun
v 0.906250000 0.612576735 0.499999999
v 0.906250000 0.590479648 0.477902913
v 0.906250000 0.568382562 0.500000001
v 0.906250000 0.590479649 0.522097087
vt 0.531250000 0.421875000
vt 0.515625000 0.421875000
vt 0.515625000 0.437500000
vt 0.531250000 0.437500000
f 532/532 531/531 530/530 529/529
v 0.875000000 0.590479648 0.477902913
v 0.875000000 0.612576735 0.499999999
v 0.875000000 0.590479649 0.522097087
v 0.875000000 0.568382562 0.500000001
vt 0.500000000 0.421875000
vt 0.484375000 0.421875000
vt 0.484375000 0.437500000
vt 0.500000000 0.437500000
f 536/536 535/535 534/534 533/533
v 0.906250000 0.612576735 0.499999999
v 0.875000000 0.612576735 0.499999999
v 0.875000000 0.590479648 0.477902913
v 0.906250000 0.590479648 0.477902913
vt 0.515625000 0.406250000
vt 0.500000000 0.406250000
vt 0.500000000 0.421875000
vt 0.515625000 0.421875000
f 540/540 539/539 538/538 537/537
v 0.906250000 0.568382562 0.500000001
v 0.875000000 0.568382562 0.500000001
v 0.875000000 0.590479649 0.522097087
v 0.906250000 0.590479649 0.522097087
vt 0.531250000 0.421875000
vt 0.515625000 0.421875000
vt 0.515625000 0.406250000
vt 0.531250000 0.406250000
f 544/544 543/543 542/542 541/541
v 0.906250000 0.590479648 0.477902913
v 0.875000000 0.590479648 0.477902913
v 0.875000000 0.568382562 0.500000001
v 0.906250000 0.568382562 0.500000001
vt 0.515625000 0.421875000
vt 0.500000000 0.421875000
vt 0.500000000 0.437500000
vt 0.515625000 0.437500000
f 548/548 547/547 546/546 545/545
v 0.875000000 0.612576735 0.499999999
v 0.906250000 0.612576735 0.499999999
v 0.906250000 0.590479649 0.522097087
v 0.875000000 0.590479649 0.522097087
vt 0.546875000 0.421875000
vt 0.531250000 0.421875000
vt 0.531250000 0.437500000
vt 0.546875000 0.437500000
f 552/552 551/551 550/550 549/549
o Shape26
usemtl gun
v 0.434819172 0.494048824 0.531250000
v 0.390625000 0.449854649 0.531250000
v 0.390625000 0.449854649 0.468750000
v 0.434819172 0.494048824 0.468750000
vt 0.468750000 0.796875000
vt 0.437500000 0.796875000
vt 0.437500000 0.828125000
vt 0.468750000 0.828125000
f 556/556 555/555 554/554 553/553
v 0.434819172 0.494048824 0.468750000
v 0.390625000 0.449854649 0.468750000
v 0.390625000 0.449854649 0.531250000
v 0.434819172 0.494048824 0.531250000
vt 0.500000000 0.828125000
vt 0.468750000 0.828125000
vt 0.468750000 0.796875000
vt 0.500000000 0.796875000
f 560/560 559/559 558/558 557/557
o Shape27
usemtl gun
v 0.828125000 0.543604649 0.546875000
v 0.828125000 0.543604649 0.453125000
v 0.828125000 0.449854649 0.453125000
v 0.828125000 0.449854649 0.546875000
vt 0.328125000 0.796875000
vt 0.281250000 0.796875000
vt 0.281250000 0.843750000
vt 0.328125000 0.843750000
f 564/564 563/563 562/562 561/561
v 0.796875000 0.543604649 0.453125000
v 0.796875000 0.543604649 0.546875000
v 0.796875000 0.449854649 0.546875000
v 0.796875000 0.449854649 0.453125000
vt 0.265625000 0.796875000
vt 0.218750000 0.796875000
vt 0.218750000 0.843750000
vt 0.265625000 0.843750000
f 568/568 567/567 566/566 565/565
v 0.828125000 0.543604649 0.546875000
v 0.796875000 0.543604649 0.546875000
v 0.796875000 0.543604649 0.453125000
v 0.828125000 0.543604649 0.453125000
vt 0.281250000 0.750000000
vt 0.265625000 0.750000000
vt 0.265625000 0.796875000
vt 0.281250000 0.796875000
f 572/572 571/571 570/570 569/569
v 0.828125000 0.449854649 0.453125000
v 0.796875000 0.449854649 0.453125000
v 0.796875000 0.449854649 0.546875000
v 0.828125000 0.449854649 0.546875000
vt 0.296875000 0.796875000
vt 0.281250000 0.796875000
vt 0.281250000 0.750000000
vt 0.296875000 0.750000000
f 576/576 575/575 574/574 573/573
v 0.828125000 0.543604649 0.453125000
v 0.796875000 0.543604649 0.453125000
v 0.796875000 0.449854649 0.453125000
v 0.828125000 0.449854649 0.453125000
vt 0.281250000 0.796875000
vt 0.265625000 0.796875000
vt 0.265625000 0.843750000
vt 0.281250000 0.843750000
f 580/580 579/579 578/578 577/577
v 0.796875000 0.543604649 0.546875000
v 0.828125000 0.543604649 0.546875000
v 0.828125000 0.449854649 0.546875000
v 0.796875000 0.449854649 0.546875000
vt 0.343750000 0.796875000
vt 0.328125000 0.796875000
vt 0.328125000 0.843750000
vt 0.343750000 0.843750000
f 584/584 583/583 582/582 581/581
o Shape28
usemtl gun
v 0.609375000 0.543604649 0.546875000
v 0.609375000 0.543604649 0.453125000
v 0.609375000 0.449854649 0.453125000
v 0.609375000 0.449854649 0.546875000
vt 0.140625000 0.796875000
vt 0.093750000 0.796875000
vt 0.093750000 0.843750000
vt 0.140625000 0.843750000
f 588/588 587/587 586/586 585/585
v 0.484375000 0.543604649 0.453125000
v 0.484375000 0.543604649 0.515625000
v 0.484375000 0.449854649 0.515625000
v 0.484375000 0.449854649 0.453125000
vt 0.031250000 0.796875000
vt 0.000000000 0.796875000
vt 0.000000000 0.843750000
vt 0.031250000 0.843750000
f 592/592 591/591 590/590 589/589
v 0.484375000 0.543604649 0.515625000
v 0.484375000 0.543604649 0.546875000
v 0.484375000 0.449854649 0.546875000
v 0.484375000 0.449854649 0.515625000
vt 1.000000000 0.796875000
vt 0.984375000 0.796875000
vt 0.984375000 0.843750000
vt 1.000000000 0.843750000
f 596/596 595/595 594/594 593/593
v 0.609375000 0.543604649 0.546875000
v 0.484375000 0.543604649 0.546875000
v 0.484375000 0.543604649 0.453125000
v 0.609375000 0.543604649 0.453125000
vt 0.093750000 0.750000000
vt 0.031250000 0.750000000
vt 0.031250000 0.796875000
vt 0.093750000 0.796875000
f 600/600 599/599 598/598 597/597
v 0.609375000 0.449854649 0.453125000
v 0.484375000 0.449854649 0.453125000
v 0.484375000 0.449854649 0.546875000
v 0.609375000 0.449854649 0.546875000
vt 0.156250000 0.796875000
vt 0.093750000 0.796875000
vt 0.093750000 0.750000000
vt 0.156250000 0.750000000
f 604/604 603/603 602/602 601/601
v 0.609375000 0.543604649 0.453125000
v 0.484375000 0.543604649 0.453125000
v 0.484375000 0.449854649 0.453125000
v 0.609375000 0.449854649 0.453125000
vt 0.093750000 0.796875000
vt 0.031250000 0.796875000
vt 0.031250000 0.843750000
vt 0.093750000 0.843750000
f 608/608 607/607 606/606 605/605
v 0.484375000 0.543604649 0.546875000
v 0.609375000 0.543604649 0.546875000
v 0.609375000 0.449854649 0.546875000
v 0.484375000 0.449854649 0.546875000
vt 0.203125000 0.796875000
vt 0.140625000 0.796875000
vt 0.140625000 0.843750000
vt 0.203125000 0.843750000
f 612/612 611/611 610/610 609/609
o Shape29
usemtl gun
v 0.514953615 0.234717470 0.531250000
v 0.514953615 0.234717470 0.468750000
v 0.501746795 0.206395351 0.468750000
v 0.501746795 0.206395351 0.531250000
vt 0.828125000 0.671875000
vt 0.796875000 0.671875000
vt 0.796875000 0.687500000
vt 0.828125000 0.687500000
f 616/616 615/615 614/614 613/613
v 0.203410312 0.379992493 0.468750000
v 0.203410312 0.379992493 0.531250000
v 0.190203491 0.351670375 0.531250000
v 0.190203491 0.351670375 0.468750000
vt 0.625000000 0.671875000
vt 0.593750000 0.671875000
vt 0.593750000 0.687500000
vt 0.625000000 0.687500000
f 620/620 619/619 618/618 617/617
v 0.514953615 0.234717470 0.531250000
v 0.203410312 0.379992493 0.531250000
v 0.203410312 0.379992493 0.468750000
v 0.514953615 0.234717470 0.468750000
vt 0.796875000 0.640625000
vt 0.625000000 0.640625000
vt 0.625000000 0.671875000
vt 0.796875000 0.671875000
f 624/624 623/623 622/622 621/621
v 0.501746795 0.206395351 0.468750000
v 0.190203491 0.351670375 0.468750000
v 0.190203491 0.351670375 0.531250000
v 0.501746795 0.206395351 0.531250000
vt 0.968750000 0.671875000
vt 0.796875000 0.671875000
vt 0.796875000 0.640625000
vt 0.968750000 0.640625000
f 628/628 627/627 626/626 625/625
v 0.514953615 0.234717470 0.468750000
v 0.203410312 0.379992493 0.468750000
v 0.190203491 0.351670375 0.468750000
v 0.501746795 0.206395351 0.468750000
vt 0.796875000 0.671875000
vt 0.625000000 0.671875000
vt 0.625000000 0.687500000
vt 0.796875000 0.687500000
f 632/632 631/631 630/630 629/629
v 0.203410312 0.379992493 0.531250000
v 0.514953615 0.234717470 0.531250000
v 0.501746795 0.206395351 0.531250000
v 0.190203491 0.351670375 0.531250000
vt 1.000000000 0.671875000
vt 0.828125000 0.671875000
vt 0.828125000 0.687500000
vt 1.000000000 0.687500000
f 636/636 635/635 634/634 633/633
o Shape30
usemtl gun
v 0.578125000 0.481104649 0.531250000
v 0.578125000 0.481104649 0.468750000
v 0.472470438 0.254527700 0.468750000
v 0.472470438 0.254527700 0.531250000
vt 0.531250000 0.875000000
vt 0.500000000 0.875000000
vt 0.500000000 1.000000000
vt 0.531250000 1.000000000
f 640/640 639/639 638/638 637/637
v 0.464836526 0.533931930 0.468750000
v 0.464836526 0.533931930 0.531250000
v 0.359181963 0.307354982 0.531250000
v 0.359181963 0.307354982 0.468750000
vt 0.437500000 0.875000000
vt 0.406250000 0.875000000
vt 0.406250000 1.000000000
vt 0.437500000 1.000000000
f 644/644 643/643 642/642 641/641
v 0.578125000 0.481104649 0.531250000
v 0.464836526 0.533931930 0.531250000
v 0.464836526 0.533931930 0.468750000
v 0.578125000 0.481104649 0.468750000
vt 0.500000000 0.843750000
vt 0.437500000 0.843750000
vt 0.437500000 0.875000000
vt 0.500000000 0.875000000
f 648/648 647/647 646/646 645/645
v 0.472470438 0.254527700 0.468750000
v 0.359181963 0.307354982 0.468750000
v 0.359181963 0.307354982 0.531250000
v 0.472470438 0.254527700 0.531250000
vt 0.562500000 0.875000000
vt 0.500000000 0.875000000
vt 0.500000000 0.843750000
vt 0.562500000 0.843750000
f 652/652 651/651 650/650 649/649
v 0.578125000 0.481104649 0.468750000
v 0.464836526 0.533931930 0.468750000
v 0.359181963 0.307354982 0.468750000
v 0.472470438 0.254527700 0.468750000
vt 0.500000000 0.875000000
vt 0.437500000 0.875000000
vt 0.437500000 1.000000000
vt 0.500000000 1.000000000
f 656/656 655/655 654/654 653/653
v 0.464836526 0.533931930 0.531250000
v 0.578125000 0.481104649 0.531250000
v 0.472470438 0.254527700 0.531250000
v 0.359181963 0.307354982 0.531250000
vt 0.593750000 0.875000000
vt 0.531250000 0.875000000
vt 0.531250000 1.000000000
vt 0.593750000 1.000000000
f 660/660 659/659 658/658 657/657
o Shape31
usemtl gun
v 0.340822119 0.514772828 0.531250000
v 0.340822119 0.514772828 0.468750000
v 0.261581197 0.344840117 0.468750000
v 0.261581197 0.344840117 0.531250000
vt 0.937500000 0.859375000
vt 0.906250000 0.859375000
vt 0.906250000 0.953125000
vt 0.937500000 0.953125000
f 664/664 663/663 662/662 661/661
v 0.255855763 0.554393289 0.468750000
v 0.255855763 0.554393289 0.531250000
v 0.176614841 0.384460578 0.531250000
v 0.176614841 0.384460578 0.468750000
vt 0.859375000 0.859375000
vt 0.828125000 0.859375000
vt 0.828125000 0.953125000
vt 0.859375000 0.953125000
f 668/668 667/667 666/666 665/665
v 0.340822119 0.514772828 0.531250000
v 0.255855763 0.554393289 0.531250000
v 0.255855763 0.554393289 0.468750000
v 0.340822119 0.514772828 0.468750000
vt 0.906250000 0.828125000
vt 0.859375000 0.828125000
vt 0.859375000 0.859375000
vt 0.906250000 0.859375000
f 672/672 671/671 670/670 669/669
v 0.261581197 0.344840117 0.468750000
v 0.176614841 0.384460578 0.468750000
v 0.176614841 0.384460578 0.531250000
v 0.261581197 0.344840117 0.531250000
vt 0.953125000 0.859375000
vt 0.906250000 0.859375000
vt 0.906250000 0.828125000
vt 0.953125000 0.828125000
f 676/676 675/675 674/674 673/673
v 0.340822119 0.514772828 0.468750000
v 0.255855763 0.554393289 0.468750000
v 0.176614841 0.384460578 0.468750000
v 0.261581197 0.344840117 0.468750000
vt 0.906250000 0.859375000
vt 0.859375000 0.859375000
vt 0.859375000 0.953125000
vt 0.906250000 0.953125000
f 680/680 679/679 678/678 677/677
v 0.255855763 0.554393289 0.531250000
v 0.340822119 0.514772828 0.531250000
v 0.261581197 0.344840117 0.531250000
v 0.176614841 0.384460578 0.531250000
vt 0.984375000 0.859375000
vt 0.937500000 0.859375000
vt 0.937500000 0.953125000
vt 0.984375000 0.953125000
f 684/684 683/683 682/682 681/681
o Shape32
usemtl gun
v 0.390625000 0.449854649 0.531250000
v 0.296875000 0.449854649 0.531250000
v 0.296875000 0.449854649 0.468750000
v 0.390625000 0.449854649 0.468750000
vt 0.484375000 0.796875000
vt 0.437500000 0.796875000
vt 0.437500000 0.828125000
vt 0.484375000 0.828125000
f 688/688 687/687 686/686 685/685
v 0.390625000 0.449854649 0.468750000
v 0.296875000 0.449854649 0.468750000
v 0.296875000 0.449854649 0.531250000
v 0.390625000 0.449854649 0.531250000
vt 0.531250000 0.828125000
vt 0.484375000 0.828125000
vt 0.484375000 0.796875000
vt 0.531250000 0.796875000
f 692/692 691/691 690/690 689/689
o Shape33
usemtl gun
v 0.258924227 0.495726872 0.531250000
v 0.258924227 0.495726872 0.468750000
v 0.234985339 0.475639758 0.468750000
v 0.234985339 0.475639758 0.531250000
vt 0.953125000 0.781250000
vt 0.921875000 0.781250000
vt 0.921875000 0.796875000
vt 0.953125000 0.796875000
f 696/696 695/695 694/694 693/693
v 0.218750000 0.543604649 0.468750000
v 0.218750000 0.543604649 0.531250000
v 0.194811112 0.523517535 0.531250000
v 0.194811112 0.523517535 0.468750000
vt 0.890625000 0.781250000
vt 0.859375000 0.781250000
vt 0.859375000 0.796875000
vt 0.890625000 0.796875000
f 700/700 699/699 698/698 697/697
v 0.258924227 0.495726872 0.531250000
v 0.218750000 0.543604649 0.531250000
v 0.218750000 0.543604649 0.468750000
v 0.258924227 0.495726872 0.468750000
vt 0.921875000 0.750000000
vt 0.890625000 0.750000000
vt 0.890625000 0.781250000
vt 0.921875000 0.781250000
f 704/704 703/703 702/702 701/701
v 0.234985339 0.475639758 0.468750000
v 0.194811112 0.523517535 0.468750000
v 0.194811112 0.523517535 0.531250000
v 0.234985339 0.475639758 0.531250000
vt 0.953125000 0.781250000
vt 0.921875000 0.781250000
vt 0.921875000 0.750000000
vt 0.953125000 0.750000000
f 708/708 707/707 706/706 705/705
v 0.258924227 0.495726872 0.468750000
v 0.218750000 0.543604649 0.468750000
v 0.194811112 0.523517535 0.468750000
v 0.234985339 0.475639758 0.468750000
vt 0.921875000 0.781250000
vt 0.890625000 0.781250000
vt 0.890625000 0.796875000
vt 0.921875000 0.796875000
f 712/712 711/711 710/710 709/709
v 0.218750000 0.543604649 0.531250000
v 0.258924227 0.495726872 0.531250000
v 0.234985339 0.475639758 0.531250000
v 0.194811112 0.523517535 0.531250000
vt 0.984375000 0.781250000
vt 0.953125000 0.781250000
vt 0.953125000 0.796875000
vt 0.984375000 0.796875000
f 716/716 715/715 714/714 713/713
o Shape34
usemtl gun
v 0.421875000 0.543604649 0.546875000
v 0.421875000 0.543604649 0.453125000
v 0.421875000 0.512354649 0.453125000
v 0.421875000 0.512354649 0.546875000
vt 0.171875000 0.734375000
vt 0.125000000 0.734375000
vt 0.125000000 0.750000000
vt 0.171875000 0.750000000
f 720/720 719/719 718/718 717/717
v 0.265625000 0.543604649 0.453125000
v 0.265625000 0.543604649 0.546875000
v 0.265625000 0.512354649 0.546875000
v 0.265625000 0.512354649 0.453125000
vt 0.046875000 0.734375000
vt 0.000000000 0.734375000
vt 0.000000000 0.750000000
vt 0.046875000 0.750000000
f 724/724 723/723 722/722 721/721
v 0.421875000 0.543604649 0.546875000
v 0.265625000 0.543604649 0.546875000
v 0.265625000 0.543604649 0.453125000
v 0.421875000 0.543604649 0.453125000
vt 0.125000000 0.687500000
vt 0.046875000 0.687500000
vt 0.046875000 0.734375000
vt 0.125000000 0.734375000
f 728/728 727/727 726/726 725/725
v 0.421875000 0.512354649 0.453125000
v 0.265625000 0.512354649 0.453125000
v 0.265625000 0.512354649 0.546875000
v 0.421875000 0.512354649 0.546875000
vt 0.203125000 0.734375000
vt 0.125000000 0.734375000
vt 0.125000000 0.687500000
vt 0.203125000 0.687500000
f 732/732 731/731 730/730 729/729
v 0.421875000 0.543604649 0.453125000
v 0.265625000 0.543604649 0.453125000
v 0.265625000 0.512354649 0.453125000
v 0.421875000 0.512354649 0.453125000
vt 0.125000000 0.734375000
vt 0.046875000 0.734375000
vt 0.046875000 0.750000000
vt 0.125000000 0.750000000
f 736/736 735/735 734/734 733/733
v 0.265625000 0.543604649 0.546875000
v 0.421875000 0.543604649 0.546875000
v 0.421875000 0.512354649 0.546875000
v 0.265625000 0.512354649 0.546875000
vt 0.250000000 0.734375000
vt 0.171875000 0.734375000
vt 0.171875000 0.750000000
vt 0.250000000 0.750000000
f 740/740 739/739 738/738 737/737
o Shape35
usemtl gun
v 0.281250000 0.543604649 0.531250000
v 0.281250000 0.543604649 0.468750000
v 0.281250000 0.512354649 0.468750000
v 0.281250000 0.512354649 0.531250000
vt 0.875000000 0.718750000
vt 0.843750000 0.718750000
vt 0.843750000 0.734375000
vt 0.875000000 0.734375000
f 744/744 743/743 742/742 741/741
v 0.062500000 0.543604649 0.468750000
v 0.062500000 0.543604649 0.531250000
v 0.062500000 0.512354649 0.531250000
v 0.062500000 0.512354649 0.468750000
vt 0.734375000 0.718750000
vt 0.703125000 0.718750000
vt 0.703125000 0.734375000
vt 0.734375000 0.734375000
f 748/748 747/747 746/746 745/745
v 0.281250000 0.543604649 0.531250000
v 0.062500000 0.543604649 0.531250000
v 0.062500000 0.543604649 0.468750000
v 0.281250000 0.543604649 0.468750000
vt 0.843750000 0.687500000
vt 0.734375000 0.687500000
vt 0.734375000 0.718750000
vt 0.843750000 0.718750000
f 752/752 751/751 750/750 749/749
v 0.281250000 0.512354649 0.468750000
v 0.062500000 0.512354649 0.468750000
v 0.062500000 0.512354649 0.531250000
v 0.281250000 0.512354649 0.531250000
vt 0.953125000 0.718750000
vt 0.843750000 0.718750000
vt 0.843750000 0.687500000
vt 0.953125000 0.687500000
f 756/756 755/755 754/754 753/753
v 0.281250000 0.543604649 0.468750000
v 0.062500000 0.543604649 0.468750000
v 0.062500000 0.512354649 0.468750000
v 0.281250000 0.512354649 0.468750000
vt 0.843750000 0.718750000
vt 0.734375000 0.718750000
vt 0.734375000 0.734375000
vt 0.843750000 0.734375000
f 760/760 759/759 758/758 757/757
v 0.062500000 0.543604649 0.531250000
v 0.281250000 0.543604649 0.531250000
v 0.281250000 0.512354649 0.531250000
v 0.062500000 0.512354649 0.531250000
vt 0.984375000 0.718750000
vt 0.875000000 0.718750000
vt 0.875000000 0.734375000
vt 0.984375000 0.734375000
f 764/764 763/763 762/762 761/761
o Shape36
usemtl gun
v 0.230165700 0.402064345 0.531250000
v 0.230165700 0.402064345 0.468750000
v 0.214083048 0.341668995 0.468750000
v 0.214083048 0.341668995 0.531250000
vt 0.750000000 0.781250000
vt 0.718750000 0.781250000
vt 0.718750000 0.812500000
vt 0.750000000 0.812500000
f 768/768 767/767 766/766 765/765
v 0.048979650 0.450312301 0.468750000
v 0.048979650 0.450312301 0.531250000
v 0.032896998 0.389916950 0.531250000
v 0.032896998 0.389916950 0.468750000
vt 0.625000000 0.781250000
vt 0.593750000 0.781250000
vt 0.593750000 0.812500000
vt 0.625000000 0.812500000
f 772/772 771/771 770/770 769/769
v 0.230165700 0.402064345 0.531250000
v 0.048979650 0.450312301 0.531250000
v 0.048979650 0.450312301 0.468750000
v 0.230165700 0.402064345 0.468750000
vt 0.718750000 0.750000000
vt 0.625000000 0.750000000
vt 0.625000000 0.781250000
vt 0.718750000 0.781250000
f 776/776 775/775 774/774 773/773
v 0.214083048 0.341668995 0.468750000
v 0.032896998 0.389916950 0.468750000
v 0.032896998 0.389916950 0.531250000
v 0.214083048 0.341668995 0.531250000
vt 0.812500000 0.781250000
vt 0.718750000 0.781250000
vt 0.718750000 0.750000000
vt 0.812500000 0.750000000
f 780/780 779/779 778/778 777/777
v 0.230165700 0.402064345 0.468750000
v 0.048979650 0.450312301 0.468750000
v 0.032896998 0.389916950 0.468750000
v 0.214083048 0.341668995 0.468750000
vt 0.718750000 0.781250000
vt 0.625000000 0.781250000
vt 0.625000000 0.812500000
vt 0.718750000 0.812500000
f 784/784 783/783 782/782 781/781
v 0.048979650 0.450312301 0.531250000
v 0.230165700 0.402064345 0.531250000
v 0.214083048 0.341668995 0.531250000
v 0.032896998 0.389916950 0.531250000
vt 0.843750000 0.781250000
vt 0.750000000 0.781250000
vt 0.750000000 0.812500000
vt 0.843750000 0.812500000
f 788/788 787/787 786/786 785/785
o Shape37
usemtl gun
v 0.343750000 0.699854649 0.546875000
v 0.343750000 0.699854649 0.453125000
v 0.343750000 0.668604649 0.453125000
v 0.343750000 0.668604649 0.546875000
vt 0.843750000 0.109375000
vt 0.796875000 0.109375000
vt 0.796875000 0.125000000
vt 0.843750000 0.125000000
f 792/792 791/791 790/790 789/789
v 0.062500000 0.699854649 0.453125000
v 0.062500000 0.699854649 0.546875000
v 0.062500000 0.668604649 0.546875000
v 0.062500000 0.668604649 0.453125000
vt 0.656250000 0.109375000
vt 0.609375000 0.109375000
vt 0.609375000 0.125000000
vt 0.656250000 0.125000000
f 796/796 795/795 794/794 793/793
v 0.343750000 0.699854649 0.546875000
v 0.062500000 0.699854649 0.546875000
v 0.062500000 0.699854649 0.453125000
v 0.343750000 0.699854649 0.453125000
vt 0.796875000 0.062500000
vt 0.656250000 0.062500000
vt 0.656250000 0.109375000
vt 0.796875000 0.109375000
f 800/800 799/799 798/798 797/797
v 0.343750000 0.668604649 0.453125000
v 0.062500000 0.668604649 0.453125000
v 0.062500000 0.668604649 0.546875000
v 0.343750000 0.668604649 0.546875000
vt 0.937500000 0.109375000
vt 0.796875000 0.109375000
vt 0.796875000 0.062500000
vt 0.937500000 0.062500000
f 804/804 803/803 802/802 801/801
v 0.343750000 0.699854649 0.453125000
v 0.062500000 0.699854649 0.453125000
v 0.062500000 0.668604649 0.453125000
v 0.343750000 0.668604649 0.453125000
vt 0.796875000 0.109375000
vt 0.656250000 0.109375000
vt 0.656250000 0.125000000
vt 0.796875000 0.125000000
f 808/808 807/807 806/806 805/805
v 0.062500000 0.699854649 0.546875000
v 0.343750000 0.699854649 0.546875000
v 0.343750000 0.668604649 0.546875000
v 0.062500000 0.668604649 0.546875000
vt 0.984375000 0.109375000
vt 0.843750000 0.109375000
vt 0.843750000 0.125000000
vt 0.984375000 0.125000000
f 812/812 811/811 810/810 809/809
o Shape38
usemtl gun
v 0.062500000 0.715479649 0.546875000
v 0.062500000 0.715479649 0.453125000
v 0.062500000 0.684229649 0.453125000
v 0.062500000 0.684229649 0.546875000
vt 0.968750000 0.390625000
vt 0.921875000 0.390625000
vt 0.921875000 0.406250000
vt 0.968750000 0.406250000
f 816/816 815/815 814/814 813/813
v 0.000000000 0.715479649 0.453125000
v 0.000000000 0.715479649 0.546875000
v 0.000000000 0.684229649 0.546875000
v 0.000000000 0.684229649 0.453125000
vt 0.890625000 0.390625000
vt 0.843750000 0.390625000
vt 0.843750000 0.406250000
vt 0.890625000 0.406250000
f 820/820 819/819 818/818 817/817
v 0.062500000 0.715479649 0.546875000
v 0.000000000 0.715479649 0.546875000
v 0.000000000 0.715479649 0.453125000
v 0.062500000 0.715479649 0.453125000
vt 0.921875000 0.343750000
vt 0.890625000 0.343750000
vt 0.890625000 0.390625000
vt 0.921875000 0.390625000
f 824/824 823/823 822/822 821/821
v 0.062500000 0.684229649 0.453125000
v 0.000000000 0.684229649 0.453125000
v 0.000000000 0.684229649 0.546875000
v 0.062500000 0.684229649 0.546875000
vt 0.953125000 0.390625000
vt 0.921875000 0.390625000
vt 0.921875000 0.343750000
vt 0.953125000 0.343750000
f 828/828 827/827 826/826 825/825
v 0.062500000 0.715479649 0.453125000
v 0.000000000 0.715479649 0.453125000
v 0.000000000 0.684229649 0.453125000
v 0.062500000 0.684229649 0.453125000
vt 0.921875000 0.390625000
vt 0.890625000 0.390625000
vt 0.890625000 0.406250000
vt 0.921875000 0.406250000
f 832/832 831/831 830/830 829/829
v 0.000000000 0.715479649 0.546875000
v 0.062500000 0.715479649 0.546875000
v 0.062500000 0.684229649 0.546875000
v 0.000000000 0.684229649 0.546875000
vt 1.000000000 0.390625000
vt 0.968750000 0.390625000
vt 0.968750000 0.406250000
vt 1.000000000 0.406250000
f 836/836 835/835 834/834 833/833
o Shape39
usemtl gun
v 0.062500000 0.684229649 0.562500000
v 0.062500000 0.684229649 0.437500000
v 0.062500000 0.559229649 0.437500000
v 0.062500000 0.559229649 0.562500000
vt 0.968750000 0.468750000
vt 0.906250000 0.468750000
vt 0.906250000 0.531250000
vt 0.968750000 0.531250000
f 840/840 839/839 838/838 837/837
v 0.000000000 0.684229649 0.437500000
v 0.000000000 0.684229649 0.562500000
v 0.000000000 0.559229649 0.562500000
v 0.000000000 0.559229649 0.437500000
vt 0.875000000 0.468750000
vt 0.812500000 0.468750000
vt 0.812500000 0.531250000
vt 0.875000000 0.531250000
f 844/844 843/843 842/842 841/841
v 0.062500000 0.684229649 0.562500000
v 0.000000000 0.684229649 0.562500000
v 0.000000000 0.684229649 0.437500000
v 0.062500000 0.684229649 0.437500000
vt 0.906250000 0.406250000
vt 0.875000000 0.406250000
vt 0.875000000 0.468750000
vt 0.906250000 0.468750000
f 848/848 847/847 846/846 845/845
v 0.062500000 0.559229649 0.437500000
v 0.000000000 0.559229649 0.437500000
v 0.000000000 0.559229649 0.562500000
v 0.062500000 0.559229649 0.562500000
vt 0.937500000 0.468750000
vt 0.906250000 0.468750000
vt 0.906250000 0.406250000
vt 0.937500000 0.406250000
f 852/852 851/851 850/850 849/849
v 0.062500000 0.684229649 0.437500000
v 0.000000000 0.684229649 0.437500000
v 0.000000000 0.559229649 0.437500000
v 0.062500000 0.559229649 0.437500000
vt 0.906250000 0.468750000
vt 0.875000000 0.468750000
vt 0.875000000 0.531250000
vt 0.906250000 0.531250000
f 856/856 855/855 854/854 853/853
v 0.000000000 0.684229649 0.562500000
v 0.062500000 0.684229649 0.562500000
v 0.062500000 0.559229649 0.562500000
v 0.000000000 0.559229649 0.562500000
vt 1.000000000 0.468750000
vt 0.968750000 0.468750000
vt 0.968750000 0.531250000
vt 1.000000000 0.531250000
f 860/860 859/859 858/858 857/857
o Shape40
usemtl gun
v 0.062500000 0.559229649 0.546875000
v 0.062500000 0.559229649 0.453125000
v 0.062500000 0.496729649 0.453125000
v 0.062500000 0.496729649 0.546875000
vt 0.968750000 0.578125000
vt 0.921875000 0.578125000
vt 0.921875000 0.609375000
vt 0.968750000 0.609375000
f 864/864 863/863 862/862 861/861
v 0.000000000 0.559229649 0.453125000
v 0.000000000 0.559229649 0.546875000
v 0.000000000 0.496729649 0.546875000
v 0.000000000 0.496729649 0.453125000
vt 0.890625000 0.578125000
vt 0.843750000 0.578125000
vt 0.843750000 0.609375000
vt 0.890625000 0.609375000
f 868/868 867/867 866/866 865/865
v 0.062500000 0.559229649 0.546875000
v 0.000000000 0.559229649 0.546875000
v 0.000000000 0.559229649 0.453125000
v 0.062500000 0.559229649 0.453125000
vt 0.921875000 0.531250000
vt 0.890625000 0.531250000
vt 0.890625000 0.578125000
vt 0.921875000 0.578125000
f 872/872 871/871 870/870 869/869
v 0.062500000 0.496729649 0.453125000
v 0.000000000 0.496729649 0.453125000
v 0.000000000 0.496729649 0.546875000
v 0.062500000 0.496729649 0.546875000
vt 0.953125000 0.578125000
vt 0.921875000 0.578125000
vt 0.921875000 0.531250000
vt 0.953125000 0.531250000
f 876/876 875/875 874/874 873/873
v 0.062500000 0.559229649 0.453125000
v 0.000000000 0.559229649 0.453125000
v 0.000000000 0.496729649 0.453125000
v 0.062500000 0.496729649 0.453125000
vt 0.921875000 0.578125000
vt 0.890625000 0.578125000
vt 0.890625000 0.609375000
vt 0.921875000 0.609375000
f 880/880 879/879 878/878 877/877
v 0.000000000 0.559229649 0.546875000
v 0.062500000 0.559229649 0.546875000
v 0.062500000 0.496729649 0.546875000
v 0.000000000 0.496729649 0.546875000
vt 1.000000000 0.578125000
vt 0.968750000 0.578125000
vt 0.968750000 0.609375000
vt 1.000000000 0.609375000
f 884/884 883/883 882/882 881/881
o Shape41
usemtl gun
v 0.062500000 0.496729649 0.531250000
v 0.062500000 0.496729649 0.468750000
v 0.062500000 0.434229649 0.468750000
v 0.062500000 0.434229649 0.531250000
vt 0.781250000 0.953125000
vt 0.750000000 0.953125000
vt 0.750000000 0.984375000
vt 0.781250000 0.984375000
f 888/888 887/887 886/886 885/885
v 0.000000000 0.496729649 0.468750000
v 0.000000000 0.496729649 0.531250000
v 0.000000000 0.434229649 0.531250000
v 0.000000000 0.434229649 0.468750000
vt 0.718750000 0.953125000
vt 0.687500000 0.953125000
vt 0.687500000 0.984375000
vt 0.718750000 0.984375000
f 892/892 891/891 890/890 889/889
v 0.062500000 0.496729649 0.531250000
v 0.000000000 0.496729649 0.531250000
v 0.000000000 0.496729649 0.468750000
v 0.062500000 0.496729649 0.468750000
vt 0.750000000 0.921875000
vt 0.718750000 0.921875000
vt 0.718750000 0.953125000
vt 0.750000000 0.953125000
f 896/896 895/895 894/894 893/893
v 0.062500000 0.434229649 0.468750000
v 0.000000000 0.434229649 0.468750000
v 0.000000000 0.434229649 0.531250000
v 0.062500000 0.434229649 0.531250000
vt 0.781250000 0.953125000
vt 0.750000000 0.953125000
vt 0.750000000 0.921875000
vt 0.781250000 0.921875000
f 900/900 899/899 898/898 897/897
v 0.062500000 0.496729649 0.468750000
v 0.000000000 0.496729649 0.468750000
v 0.000000000 0.434229649 0.468750000
v 0.062500000 0.434229649 0.468750000
vt 0.750000000 0.953125000
vt 0.718750000 0.953125000
vt 0.718750000 0.984375000
vt 0.750000000 0.984375000
f 904/904 903/903 902/902 901/901
v 0.000000000 0.496729649 0.531250000
v 0.062500000 0.496729649 0.531250000
v 0.062500000 0.434229649 0.531250000
v 0.000000000 0.434229649 0.531250000
vt 0.812500000 0.953125000
vt 0.781250000 0.953125000
vt 0.781250000 0.984375000
vt 0.812500000 0.984375000
f 908/908 907/907 906/906 905/905
