# Original Techguns ModelRocket; Techguns Mod License
mtllib rocketlauncher_nuke.mtl
o R1
usemtl gun
v 1.234375000 0.620197687 0.562500000
v 1.234375000 0.620197687 0.437500000
v 1.234375000 0.495197687 0.437500000
v 1.234375000 0.495197687 0.562500000
vt 0.218750000 0.125000000
vt 0.156250000 0.125000000
vt 0.156250000 0.250000000
vt 0.218750000 0.250000000
f 4/4 3/3 2/2 1/1
v 1.046875000 0.620197687 0.437500000
v 1.046875000 0.620197687 0.562500000
v 1.046875000 0.495197687 0.562500000
v 1.046875000 0.495197687 0.437500000
vt 0.062500000 0.125000000
vt 0.000000000 0.125000000
vt 0.000000000 0.250000000
vt 0.062500000 0.250000000
f 8/8 7/7 6/6 5/5
v 1.234375000 0.620197687 0.562500000
v 1.046875000 0.620197687 0.562500000
v 1.046875000 0.620197687 0.437500000
v 1.234375000 0.620197687 0.437500000
vt 0.156250000 0.000000000
vt 0.062500000 0.000000000
vt 0.062500000 0.125000000
vt 0.156250000 0.125000000
f 12/12 11/11 10/10 9/9
v 1.234375000 0.495197687 0.437500000
v 1.046875000 0.495197687 0.437500000
v 1.046875000 0.495197687 0.562500000
v 1.234375000 0.495197687 0.562500000
vt 0.250000000 0.125000000
vt 0.156250000 0.125000000
vt 0.156250000 0.000000000
vt 0.250000000 0.000000000
f 16/16 15/15 14/14 13/13
v 1.234375000 0.620197687 0.437500000
v 1.046875000 0.620197687 0.437500000
v 1.046875000 0.495197687 0.437500000
v 1.234375000 0.495197687 0.437500000
vt 0.156250000 0.125000000
vt 0.062500000 0.125000000
vt 0.062500000 0.250000000
vt 0.156250000 0.250000000
f 20/20 19/19 18/18 17/17
v 1.046875000 0.620197687 0.562500000
v 1.234375000 0.620197687 0.562500000
v 1.234375000 0.495197687 0.562500000
v 1.046875000 0.495197687 0.562500000
vt 0.312500000 0.125000000
vt 0.218750000 0.125000000
vt 0.218750000 0.250000000
vt 0.312500000 0.250000000
f 24/24 23/23 22/22 21/21
o R7
usemtl gun
v 1.143750000 0.573322687 0.593750000
v 1.143750000 0.573322687 0.406250000
v 1.143750000 0.542072687 0.406250000
v 1.143750000 0.542072687 0.593750000
vt 0.687500000 0.187500000
vt 0.593750000 0.187500000
vt 0.593750000 0.218750000
vt 0.687500000 0.218750000
f 28/28 27/27 26/26 25/25
v 1.081250000 0.573322687 0.406250000
v 1.081250000 0.573322687 0.593750000
v 1.081250000 0.542072687 0.593750000
v 1.081250000 0.542072687 0.406250000
vt 0.562500000 0.187500000
vt 0.468750000 0.187500000
vt 0.468750000 0.218750000
vt 0.562500000 0.218750000
f 32/32 31/31 30/30 29/29
v 1.143750000 0.573322687 0.593750000
v 1.081250000 0.573322687 0.593750000
v 1.081250000 0.573322687 0.406250000
v 1.143750000 0.573322687 0.406250000
vt 0.593750000 0.000000000
vt 0.562500000 0.000000000
vt 0.562500000 0.187500000
vt 0.593750000 0.187500000
f 36/36 35/35 34/34 33/33
v 1.143750000 0.542072687 0.406250000
v 1.081250000 0.542072687 0.406250000
v 1.081250000 0.542072687 0.593750000
v 1.143750000 0.542072687 0.593750000
vt 0.625000000 0.187500000
vt 0.593750000 0.187500000
vt 0.593750000 0.000000000
vt 0.625000000 0.000000000
f 40/40 39/39 38/38 37/37
v 1.143750000 0.573322687 0.406250000
v 1.081250000 0.573322687 0.406250000
v 1.081250000 0.542072687 0.406250000
v 1.143750000 0.542072687 0.406250000
vt 0.593750000 0.187500000
vt 0.562500000 0.187500000
vt 0.562500000 0.218750000
vt 0.593750000 0.218750000
f 44/44 43/43 42/42 41/41
v 1.081250000 0.573322687 0.593750000
v 1.143750000 0.573322687 0.593750000
v 1.143750000 0.542072687 0.593750000
v 1.081250000 0.542072687 0.593750000
vt 0.718750000 0.187500000
vt 0.687500000 0.187500000
vt 0.687500000 0.218750000
vt 0.718750000 0.218750000
f 48/48 47/47 46/46 45/45
o R4
usemtl gun
v 1.203125000 0.588947687 0.578125000
v 1.203125000 0.588947687 0.421875000
v 1.203125000 0.526447687 0.421875000
v 1.203125000 0.526447687 0.578125000
vt 0.406250000 0.437500000
vt 0.328125000 0.437500000
vt 0.328125000 0.500000000
vt 0.406250000 0.500000000
f 52/52 51/51 50/50 49/49
v 1.078125000 0.588947687 0.421875000
v 1.078125000 0.588947687 0.578125000
v 1.078125000 0.526447687 0.578125000
v 1.078125000 0.526447687 0.421875000
vt 0.265625000 0.437500000
vt 0.187500000 0.437500000
vt 0.187500000 0.500000000
vt 0.265625000 0.500000000
f 56/56 55/55 54/54 53/53
v 1.203125000 0.588947687 0.578125000
v 1.078125000 0.588947687 0.578125000
v 1.078125000 0.588947687 0.421875000
v 1.203125000 0.588947687 0.421875000
vt 0.328125000 0.281250000
vt 0.265625000 0.281250000
vt 0.265625000 0.437500000
vt 0.328125000 0.437500000
f 60/60 59/59 58/58 57/57
v 1.203125000 0.526447687 0.421875000
v 1.078125000 0.526447687 0.421875000
v 1.078125000 0.526447687 0.578125000
v 1.203125000 0.526447687 0.578125000
vt 0.390625000 0.437500000
vt 0.328125000 0.437500000
vt 0.328125000 0.281250000
vt 0.390625000 0.281250000
f 64/64 63/63 62/62 61/61
v 1.203125000 0.588947687 0.421875000
v 1.078125000 0.588947687 0.421875000
v 1.078125000 0.526447687 0.421875000
v 1.203125000 0.526447687 0.421875000
vt 0.328125000 0.437500000
vt 0.265625000 0.437500000
vt 0.265625000 0.500000000
vt 0.328125000 0.500000000
f 68/68 67/67 66/66 65/65
v 1.078125000 0.588947687 0.578125000
v 1.203125000 0.588947687 0.578125000
v 1.203125000 0.526447687 0.578125000
v 1.078125000 0.526447687 0.578125000
vt 0.468750000 0.437500000
vt 0.406250000 0.437500000
vt 0.406250000 0.500000000
vt 0.468750000 0.500000000
f 72/72 71/71 70/70 69/69
o R2
usemtl gun
v 1.265625000 0.604572687 0.546875000
v 1.265625000 0.604572687 0.453125000
v 1.265625000 0.510822687 0.453125000
v 1.265625000 0.510822687 0.546875000
vt 0.250000000 0.593750000
vt 0.203125000 0.593750000
vt 0.203125000 0.687500000
vt 0.250000000 0.687500000
f 76/76 75/75 74/74 73/73
v 0.953125000 0.604572687 0.453125000
v 0.953125000 0.604572687 0.546875000
v 0.953125000 0.510822687 0.546875000
v 0.953125000 0.510822687 0.453125000
vt 0.046875000 0.593750000
vt 0.000000000 0.593750000
vt 0.000000000 0.687500000
vt 0.046875000 0.687500000
f 80/80 79/79 78/78 77/77
v 1.265625000 0.604572687 0.546875000
v 0.953125000 0.604572687 0.546875000
v 0.953125000 0.604572687 0.453125000
v 1.265625000 0.604572687 0.453125000
vt 0.203125000 0.500000000
vt 0.046875000 0.500000000
vt 0.046875000 0.593750000
vt 0.203125000 0.593750000
f 84/84 83/83 82/82 81/81
v 1.265625000 0.510822687 0.453125000
v 0.953125000 0.510822687 0.453125000
v 0.953125000 0.510822687 0.546875000
v 1.265625000 0.510822687 0.546875000
vt 0.359375000 0.593750000
vt 0.203125000 0.593750000
vt 0.203125000 0.500000000
vt 0.359375000 0.500000000
f 88/88 87/87 86/86 85/85
v 1.265625000 0.604572687 0.453125000
v 0.953125000 0.604572687 0.453125000
v 0.953125000 0.510822687 0.453125000
v 1.265625000 0.510822687 0.453125000
vt 0.203125000 0.593750000
vt 0.046875000 0.593750000
vt 0.046875000 0.687500000
vt 0.203125000 0.687500000
f 92/92 91/91 90/90 89/89
v 0.953125000 0.604572687 0.546875000
v 1.265625000 0.604572687 0.546875000
v 1.265625000 0.510822687 0.546875000
v 0.953125000 0.510822687 0.546875000
vt 0.406250000 0.593750000
vt 0.250000000 0.593750000
vt 0.250000000 0.687500000
vt 0.406250000 0.687500000
f 96/96 95/95 94/94 93/93
o R5
usemtl gun
v 1.203125000 0.635822687 0.531250000
v 1.203125000 0.635822687 0.468750000
v 1.203125000 0.479572687 0.468750000
v 1.203125000 0.479572687 0.531250000
vt 0.125000000 0.312500000
vt 0.093750000 0.312500000
vt 0.093750000 0.468750000
vt 0.125000000 0.468750000
f 100/100 99/99 98/98 97/97
v 1.078125000 0.635822687 0.468750000
v 1.078125000 0.635822687 0.531250000
v 1.078125000 0.479572687 0.531250000
v 1.078125000 0.479572687 0.468750000
vt 0.031250000 0.312500000
vt 0.000000000 0.312500000
vt 0.000000000 0.468750000
vt 0.031250000 0.468750000
f 104/104 103/103 102/102 101/101
v 1.203125000 0.635822687 0.531250000
v 1.078125000 0.635822687 0.531250000
v 1.078125000 0.635822687 0.468750000
v 1.203125000 0.635822687 0.468750000
vt 0.093750000 0.250000000
vt 0.031250000 0.250000000
vt 0.031250000 0.312500000
vt 0.093750000 0.312500000
f 108/108 107/107 106/106 105/105
v 1.203125000 0.479572687 0.468750000
v 1.078125000 0.479572687 0.468750000
v 1.078125000 0.479572687 0.531250000
v 1.203125000 0.479572687 0.531250000
vt 0.156250000 0.312500000
vt 0.093750000 0.312500000
vt 0.093750000 0.250000000
vt 0.156250000 0.250000000
f 112/112 111/111 110/110 109/109
v 1.203125000 0.635822687 0.468750000
v 1.078125000 0.635822687 0.468750000
v 1.078125000 0.479572687 0.468750000
v 1.203125000 0.479572687 0.468750000
vt 0.093750000 0.312500000
vt 0.031250000 0.312500000
vt 0.031250000 0.468750000
vt 0.093750000 0.468750000
f 116/116 115/115 114/114 113/113
v 1.078125000 0.635822687 0.531250000
v 1.203125000 0.635822687 0.531250000
v 1.203125000 0.479572687 0.531250000
v 1.078125000 0.479572687 0.531250000
vt 0.187500000 0.312500000
vt 0.125000000 0.312500000
vt 0.125000000 0.468750000
vt 0.187500000 0.468750000
f 120/120 119/119 118/118 117/117
o R3
usemtl gun
v 1.296875000 0.588947687 0.531250000
v 1.296875000 0.588947687 0.468750000
v 1.296875000 0.526447687 0.468750000
v 1.296875000 0.526447687 0.531250000
vt 0.390625000 0.156250000
vt 0.359375000 0.156250000
vt 0.359375000 0.218750000
vt 0.390625000 0.218750000
f 124/124 123/123 122/122 121/121
v 1.265625000 0.588947687 0.468750000
v 1.265625000 0.588947687 0.531250000
v 1.265625000 0.526447687 0.531250000
v 1.265625000 0.526447687 0.468750000
vt 0.343750000 0.156250000
vt 0.312500000 0.156250000
vt 0.312500000 0.218750000
vt 0.343750000 0.218750000
f 128/128 127/127 126/126 125/125
v 1.296875000 0.588947687 0.531250000
v 1.265625000 0.588947687 0.531250000
v 1.265625000 0.588947687 0.468750000
v 1.296875000 0.588947687 0.468750000
vt 0.359375000 0.093750000
vt 0.343750000 0.093750000
vt 0.343750000 0.156250000
vt 0.359375000 0.156250000
f 132/132 131/131 130/130 129/129
v 1.296875000 0.526447687 0.468750000
v 1.265625000 0.526447687 0.468750000
v 1.265625000 0.526447687 0.531250000
v 1.296875000 0.526447687 0.531250000
vt 0.375000000 0.156250000
vt 0.359375000 0.156250000
vt 0.359375000 0.093750000
vt 0.375000000 0.093750000
f 136/136 135/135 134/134 133/133
v 1.296875000 0.588947687 0.468750000
v 1.265625000 0.588947687 0.468750000
v 1.265625000 0.526447687 0.468750000
v 1.296875000 0.526447687 0.468750000
vt 0.359375000 0.156250000
vt 0.343750000 0.156250000
vt 0.343750000 0.218750000
vt 0.359375000 0.218750000
f 140/140 139/139 138/138 137/137
v 1.265625000 0.588947687 0.531250000
v 1.296875000 0.588947687 0.531250000
v 1.296875000 0.526447687 0.531250000
v 1.265625000 0.526447687 0.531250000
vt 0.406250000 0.156250000
vt 0.390625000 0.156250000
vt 0.390625000 0.218750000
vt 0.406250000 0.218750000
f 144/144 143/143 142/142 141/141
o R6
usemtl gun
v 1.143750000 0.651447687 0.515625000
v 1.143750000 0.651447687 0.484375000
v 1.143750000 0.463947687 0.484375000
v 1.143750000 0.463947687 0.515625000
vt 0.531250000 0.250000000
vt 0.515625000 0.250000000
vt 0.515625000 0.437500000
vt 0.531250000 0.437500000
f 148/148 147/147 146/146 145/145
v 1.081250000 0.651447687 0.484375000
v 1.081250000 0.651447687 0.515625000
v 1.081250000 0.463947687 0.515625000
v 1.081250000 0.463947687 0.484375000
vt 0.484375000 0.250000000
vt 0.468750000 0.250000000
vt 0.468750000 0.437500000
vt 0.484375000 0.437500000
f 152/152 151/151 150/150 149/149
v 1.143750000 0.651447687 0.515625000
v 1.081250000 0.651447687 0.515625000
v 1.081250000 0.651447687 0.484375000
v 1.143750000 0.651447687 0.484375000
vt 0.515625000 0.218750000
vt 0.484375000 0.218750000
vt 0.484375000 0.250000000
vt 0.515625000 0.250000000
f 156/156 155/155 154/154 153/153
v 1.143750000 0.463947687 0.484375000
v 1.081250000 0.463947687 0.484375000
v 1.081250000 0.463947687 0.515625000
v 1.143750000 0.463947687 0.515625000
vt 0.546875000 0.250000000
vt 0.515625000 0.250000000
vt 0.515625000 0.218750000
vt 0.546875000 0.218750000
f 160/160 159/159 158/158 157/157
v 1.143750000 0.651447687 0.484375000
v 1.081250000 0.651447687 0.484375000
v 1.081250000 0.463947687 0.484375000
v 1.143750000 0.463947687 0.484375000
vt 0.515625000 0.250000000
vt 0.484375000 0.250000000
vt 0.484375000 0.437500000
vt 0.515625000 0.437500000
f 164/164 163/163 162/162 161/161
v 1.081250000 0.651447687 0.515625000
v 1.143750000 0.651447687 0.515625000
v 1.143750000 0.463947687 0.515625000
v 1.081250000 0.463947687 0.515625000
vt 0.562500000 0.250000000
vt 0.531250000 0.250000000
vt 0.531250000 0.437500000
vt 0.562500000 0.437500000
f 168/168 167/167 166/166 165/165
