# Original Techguns ModelRocket; Techguns Mod License
mtllib rocket_projectile_high_velocity.mtl
o R9
usemtl gun
v 0.256250000 0.406250000 0.656250000
v 0.256250000 0.406250000 0.406250000
v 0.256250000 0.656250000 0.406250000
v 0.256250000 0.656250000 0.656250000
vt 0.218750000 0.125000000
vt 0.156250000 0.125000000
vt 0.156250000 0.250000000
vt 0.218750000 0.250000000
f 1/1 2/2 3/3 4/4
v -0.118750000 0.406250000 0.406250000
v -0.118750000 0.406250000 0.656250000
v -0.118750000 0.656250000 0.656250000
v -0.118750000 0.656250000 0.406250000
vt 0.062500000 0.125000000
vt 0.000000000 0.125000000
vt 0.000000000 0.250000000
vt 0.062500000 0.250000000
f 5/5 6/6 7/7 8/8
v 0.256250000 0.406250000 0.656250000
v -0.118750000 0.406250000 0.656250000
v -0.118750000 0.406250000 0.406250000
v 0.256250000 0.406250000 0.406250000
vt 0.156250000 0.000000000
vt 0.062500000 0.000000000
vt 0.062500000 0.125000000
vt 0.156250000 0.125000000
f 9/9 10/10 11/11 12/12
v 0.256250000 0.656250000 0.406250000
v -0.118750000 0.656250000 0.406250000
v -0.118750000 0.656250000 0.656250000
v 0.256250000 0.656250000 0.656250000
vt 0.250000000 0.125000000
vt 0.156250000 0.125000000
vt 0.156250000 0.000000000
vt 0.250000000 0.000000000
f 13/13 14/14 15/15 16/16
v 0.256250000 0.406250000 0.406250000
v -0.118750000 0.406250000 0.406250000
v -0.118750000 0.656250000 0.406250000
v 0.256250000 0.656250000 0.406250000
vt 0.156250000 0.125000000
vt 0.062500000 0.125000000
vt 0.062500000 0.250000000
vt 0.156250000 0.250000000
f 17/17 18/18 19/19 20/20
v -0.118750000 0.406250000 0.656250000
v 0.256250000 0.406250000 0.656250000
v 0.256250000 0.656250000 0.656250000
v -0.118750000 0.656250000 0.656250000
vt 0.312500000 0.125000000
vt 0.218750000 0.125000000
vt 0.218750000 0.250000000
vt 0.312500000 0.250000000
f 21/21 22/22 23/23 24/24
o R11
usemtl gun
v 0.012500000 0.500000000 0.718750000
v 0.012500000 0.500000000 0.343750000
v 0.012500000 0.562500000 0.343750000
v 0.012500000 0.562500000 0.718750000
vt 0.687500000 0.187500000
vt 0.593750000 0.187500000
vt 0.593750000 0.218750000
vt 0.687500000 0.218750000
f 25/25 26/26 27/27 28/28
v -0.112500000 0.500000000 0.343750000
v -0.112500000 0.500000000 0.718750000
v -0.112500000 0.562500000 0.718750000
v -0.112500000 0.562500000 0.343750000
vt 0.562500000 0.187500000
vt 0.468750000 0.187500000
vt 0.468750000 0.218750000
vt 0.562500000 0.218750000
f 29/29 30/30 31/31 32/32
v 0.012500000 0.500000000 0.718750000
v -0.112500000 0.500000000 0.718750000
v -0.112500000 0.500000000 0.343750000
v 0.012500000 0.500000000 0.343750000
vt 0.593750000 0.000000000
vt 0.562500000 0.000000000
vt 0.562500000 0.187500000
vt 0.593750000 0.187500000
f 33/33 34/34 35/35 36/36
v 0.012500000 0.562500000 0.343750000
v -0.112500000 0.562500000 0.343750000
v -0.112500000 0.562500000 0.718750000
v 0.012500000 0.562500000 0.718750000
vt 0.625000000 0.187500000
vt 0.593750000 0.187500000
vt 0.593750000 0.000000000
vt 0.625000000 0.000000000
f 37/37 38/38 39/39 40/40
v 0.012500000 0.500000000 0.343750000
v -0.112500000 0.500000000 0.343750000
v -0.112500000 0.562500000 0.343750000
v 0.012500000 0.562500000 0.343750000
vt 0.593750000 0.187500000
vt 0.562500000 0.187500000
vt 0.562500000 0.218750000
vt 0.593750000 0.218750000
f 41/41 42/42 43/43 44/44
v -0.112500000 0.500000000 0.718750000
v 0.012500000 0.500000000 0.718750000
v 0.012500000 0.562500000 0.718750000
v -0.112500000 0.562500000 0.718750000
vt 0.718750000 0.187500000
vt 0.687500000 0.187500000
vt 0.687500000 0.218750000
vt 0.718750000 0.218750000
f 45/45 46/46 47/47 48/48
o R8
usemtl gun
v 0.500000000 0.437500000 0.625000000
v 0.500000000 0.437500000 0.437500000
v 0.500000000 0.625000000 0.437500000
v 0.500000000 0.625000000 0.625000000
vt 0.250000000 0.593750000
vt 0.203125000 0.593750000
vt 0.203125000 0.687500000
vt 0.250000000 0.687500000
f 49/49 50/50 51/51 52/52
v -0.125000000 0.437500000 0.437500000
v -0.125000000 0.437500000 0.625000000
v -0.125000000 0.625000000 0.625000000
v -0.125000000 0.625000000 0.437500000
vt 0.046875000 0.593750000
vt 0.000000000 0.593750000
vt 0.000000000 0.687500000
vt 0.046875000 0.687500000
f 53/53 54/54 55/55 56/56
v 0.500000000 0.437500000 0.625000000
v -0.125000000 0.437500000 0.625000000
v -0.125000000 0.437500000 0.437500000
v 0.500000000 0.437500000 0.437500000
vt 0.203125000 0.500000000
vt 0.046875000 0.500000000
vt 0.046875000 0.593750000
vt 0.203125000 0.593750000
f 57/57 58/58 59/59 60/60
v 0.500000000 0.625000000 0.437500000
v -0.125000000 0.625000000 0.437500000
v -0.125000000 0.625000000 0.625000000
v 0.500000000 0.625000000 0.625000000
vt 0.359375000 0.593750000
vt 0.203125000 0.593750000
vt 0.203125000 0.500000000
vt 0.359375000 0.500000000
f 61/61 62/62 63/63 64/64
v 0.500000000 0.437500000 0.437500000
v -0.125000000 0.437500000 0.437500000
v -0.125000000 0.625000000 0.437500000
v 0.500000000 0.625000000 0.437500000
vt 0.203125000 0.593750000
vt 0.046875000 0.593750000
vt 0.046875000 0.687500000
vt 0.203125000 0.687500000
f 65/65 66/66 67/67 68/68
v -0.125000000 0.437500000 0.625000000
v 0.500000000 0.437500000 0.625000000
v 0.500000000 0.625000000 0.625000000
v -0.125000000 0.625000000 0.625000000
vt 0.406250000 0.593750000
vt 0.250000000 0.593750000
vt 0.250000000 0.687500000
vt 0.406250000 0.687500000
f 69/69 70/70 71/71 72/72
o R3
usemtl gun
v 1.187500000 0.468750000 0.593750000
v 1.187500000 0.468750000 0.468750000
v 1.187500000 0.593750000 0.468750000
v 1.187500000 0.593750000 0.593750000
vt 0.390625000 0.156250000
vt 0.359375000 0.156250000
vt 0.359375000 0.218750000
vt 0.390625000 0.218750000
f 73/73 74/74 75/75 76/76
v 1.125000000 0.468750000 0.468750000
v 1.125000000 0.468750000 0.593750000
v 1.125000000 0.593750000 0.593750000
v 1.125000000 0.593750000 0.468750000
vt 0.343750000 0.156250000
vt 0.312500000 0.156250000
vt 0.312500000 0.218750000
vt 0.343750000 0.218750000
f 77/77 78/78 79/79 80/80
v 1.187500000 0.468750000 0.593750000
v 1.125000000 0.468750000 0.593750000
v 1.125000000 0.468750000 0.468750000
v 1.187500000 0.468750000 0.468750000
vt 0.359375000 0.093750000
vt 0.343750000 0.093750000
vt 0.343750000 0.156250000
vt 0.359375000 0.156250000
f 81/81 82/82 83/83 84/84
v 1.187500000 0.593750000 0.468750000
v 1.125000000 0.593750000 0.468750000
v 1.125000000 0.593750000 0.593750000
v 1.187500000 0.593750000 0.593750000
vt 0.375000000 0.156250000
vt 0.359375000 0.156250000
vt 0.359375000 0.093750000
vt 0.375000000 0.093750000
f 85/85 86/86 87/87 88/88
v 1.187500000 0.468750000 0.468750000
v 1.125000000 0.468750000 0.468750000
v 1.125000000 0.593750000 0.468750000
v 1.187500000 0.593750000 0.468750000
vt 0.359375000 0.156250000
vt 0.343750000 0.156250000
vt 0.343750000 0.218750000
vt 0.359375000 0.218750000
f 89/89 90/90 91/91 92/92
v 1.125000000 0.468750000 0.593750000
v 1.187500000 0.468750000 0.593750000
v 1.187500000 0.593750000 0.593750000
v 1.125000000 0.593750000 0.593750000
vt 0.406250000 0.156250000
vt 0.390625000 0.156250000
vt 0.390625000 0.218750000
vt 0.406250000 0.218750000
f 93/93 94/94 95/95 96/96
o R10
usemtl gun
v 0.012500000 0.343750000 0.562500000
v 0.012500000 0.343750000 0.500000000
v 0.012500000 0.718750000 0.500000000
v 0.012500000 0.718750000 0.562500000
vt 0.531250000 0.250000000
vt 0.515625000 0.250000000
vt 0.515625000 0.437500000
vt 0.531250000 0.437500000
f 97/97 98/98 99/99 100/100
v -0.112500000 0.343750000 0.500000000
v -0.112500000 0.343750000 0.562500000
v -0.112500000 0.718750000 0.562500000
v -0.112500000 0.718750000 0.500000000
vt 0.484375000 0.250000000
vt 0.468750000 0.250000000
vt 0.468750000 0.437500000
vt 0.484375000 0.437500000
f 101/101 102/102 103/103 104/104
v 0.012500000 0.343750000 0.562500000
v -0.112500000 0.343750000 0.562500000
v -0.112500000 0.343750000 0.500000000
v 0.012500000 0.343750000 0.500000000
vt 0.515625000 0.218750000
vt 0.484375000 0.218750000
vt 0.484375000 0.250000000
vt 0.515625000 0.250000000
f 105/105 106/106 107/107 108/108
v 0.012500000 0.718750000 0.500000000
v -0.112500000 0.718750000 0.500000000
v -0.112500000 0.718750000 0.562500000
v 0.012500000 0.718750000 0.562500000
vt 0.546875000 0.250000000
vt 0.515625000 0.250000000
vt 0.515625000 0.218750000
vt 0.546875000 0.218750000
f 109/109 110/110 111/111 112/112
v 0.012500000 0.343750000 0.500000000
v -0.112500000 0.343750000 0.500000000
v -0.112500000 0.718750000 0.500000000
v 0.012500000 0.718750000 0.500000000
vt 0.515625000 0.250000000
vt 0.484375000 0.250000000
vt 0.484375000 0.437500000
vt 0.515625000 0.437500000
f 113/113 114/114 115/115 116/116
v -0.112500000 0.343750000 0.562500000
v 0.012500000 0.343750000 0.562500000
v 0.012500000 0.718750000 0.562500000
v -0.112500000 0.718750000 0.562500000
vt 0.562500000 0.250000000
vt 0.531250000 0.250000000
vt 0.531250000 0.437500000
vt 0.562500000 0.437500000
f 117/117 118/118 119/119 120/120
o R2
usemtl gun
v 1.125000000 0.437500000 0.625000000
v 1.125000000 0.437500000 0.437500000
v 1.125000000 0.625000000 0.437500000
v 1.125000000 0.625000000 0.625000000
vt 0.250000000 0.593750000
vt 0.203125000 0.593750000
vt 0.203125000 0.687500000
vt 0.250000000 0.687500000
f 121/121 122/122 123/123 124/124
v 0.500000000 0.437500000 0.437500000
v 0.500000000 0.437500000 0.625000000
v 0.500000000 0.625000000 0.625000000
v 0.500000000 0.625000000 0.437500000
vt 0.046875000 0.593750000
vt 0.000000000 0.593750000
vt 0.000000000 0.687500000
vt 0.046875000 0.687500000
f 125/125 126/126 127/127 128/128
v 1.125000000 0.437500000 0.625000000
v 0.500000000 0.437500000 0.625000000
v 0.500000000 0.437500000 0.437500000
v 1.125000000 0.437500000 0.437500000
vt 0.203125000 0.500000000
vt 0.046875000 0.500000000
vt 0.046875000 0.593750000
vt 0.203125000 0.593750000
f 129/129 130/130 131/131 132/132
v 1.125000000 0.625000000 0.437500000
v 0.500000000 0.625000000 0.437500000
v 0.500000000 0.625000000 0.625000000
v 1.125000000 0.625000000 0.625000000
vt 0.359375000 0.593750000
vt 0.203125000 0.593750000
vt 0.203125000 0.500000000
vt 0.359375000 0.500000000
f 133/133 134/134 135/135 136/136
v 1.125000000 0.437500000 0.437500000
v 0.500000000 0.437500000 0.437500000
v 0.500000000 0.625000000 0.437500000
v 1.125000000 0.625000000 0.437500000
vt 0.203125000 0.593750000
vt 0.046875000 0.593750000
vt 0.046875000 0.687500000
vt 0.203125000 0.687500000
f 137/137 138/138 139/139 140/140
v 0.500000000 0.437500000 0.625000000
v 1.125000000 0.437500000 0.625000000
v 1.125000000 0.625000000 0.625000000
v 0.500000000 0.625000000 0.625000000
vt 0.406250000 0.593750000
vt 0.250000000 0.593750000
vt 0.250000000 0.687500000
vt 0.406250000 0.687500000
f 141/141 142/142 143/143 144/144
o R4
usemtl gun
v 1.000000000 0.468750000 0.687500000
v 1.000000000 0.468750000 0.375000000
v 1.000000000 0.593750000 0.375000000
v 1.000000000 0.593750000 0.687500000
vt 0.406250000 0.437500000
vt 0.328125000 0.437500000
vt 0.328125000 0.500000000
vt 0.406250000 0.500000000
f 145/145 146/146 147/147 148/148
v 0.750000000 0.468750000 0.375000000
v 0.750000000 0.468750000 0.687500000
v 0.750000000 0.593750000 0.687500000
v 0.750000000 0.593750000 0.375000000
vt 0.265625000 0.437500000
vt 0.187500000 0.437500000
vt 0.187500000 0.500000000
vt 0.265625000 0.500000000
f 149/149 150/150 151/151 152/152
v 1.000000000 0.468750000 0.687500000
v 0.750000000 0.468750000 0.687500000
v 0.750000000 0.468750000 0.375000000
v 1.000000000 0.468750000 0.375000000
vt 0.328125000 0.281250000
vt 0.265625000 0.281250000
vt 0.265625000 0.437500000
vt 0.328125000 0.437500000
f 153/153 154/154 155/155 156/156
v 1.000000000 0.593750000 0.375000000
v 0.750000000 0.593750000 0.375000000
v 0.750000000 0.593750000 0.687500000
v 1.000000000 0.593750000 0.687500000
vt 0.390625000 0.437500000
vt 0.328125000 0.437500000
vt 0.328125000 0.281250000
vt 0.390625000 0.281250000
f 157/157 158/158 159/159 160/160
v 1.000000000 0.468750000 0.375000000
v 0.750000000 0.468750000 0.375000000
v 0.750000000 0.593750000 0.375000000
v 1.000000000 0.593750000 0.375000000
vt 0.328125000 0.437500000
vt 0.265625000 0.437500000
vt 0.265625000 0.500000000
vt 0.328125000 0.500000000
f 161/161 162/162 163/163 164/164
v 0.750000000 0.468750000 0.687500000
v 1.000000000 0.468750000 0.687500000
v 1.000000000 0.593750000 0.687500000
v 0.750000000 0.593750000 0.687500000
vt 0.468750000 0.437500000
vt 0.406250000 0.437500000
vt 0.406250000 0.500000000
vt 0.468750000 0.500000000
f 165/165 166/166 167/167 168/168
o R5
usemtl gun
v 1.000000000 0.375000000 0.593750000
v 1.000000000 0.375000000 0.468750000
v 1.000000000 0.687500000 0.468750000
v 1.000000000 0.687500000 0.593750000
vt 0.125000000 0.312500000
vt 0.093750000 0.312500000
vt 0.093750000 0.468750000
vt 0.125000000 0.468750000
f 169/169 170/170 171/171 172/172
v 0.750000000 0.375000000 0.468750000
v 0.750000000 0.375000000 0.593750000
v 0.750000000 0.687500000 0.593750000
v 0.750000000 0.687500000 0.468750000
vt 0.031250000 0.312500000
vt 0.000000000 0.312500000
vt 0.000000000 0.468750000
vt 0.031250000 0.468750000
f 173/173 174/174 175/175 176/176
v 1.000000000 0.375000000 0.593750000
v 0.750000000 0.375000000 0.593750000
v 0.750000000 0.375000000 0.468750000
v 1.000000000 0.375000000 0.468750000
vt 0.093750000 0.250000000
vt 0.031250000 0.250000000
vt 0.031250000 0.312500000
vt 0.093750000 0.312500000
f 177/177 178/178 179/179 180/180
v 1.000000000 0.687500000 0.468750000
v 0.750000000 0.687500000 0.468750000
v 0.750000000 0.687500000 0.593750000
v 1.000000000 0.687500000 0.593750000
vt 0.156250000 0.312500000
vt 0.093750000 0.312500000
vt 0.093750000 0.250000000
vt 0.156250000 0.250000000
f 181/181 182/182 183/183 184/184
v 1.000000000 0.375000000 0.468750000
v 0.750000000 0.375000000 0.468750000
v 0.750000000 0.687500000 0.468750000
v 1.000000000 0.687500000 0.468750000
vt 0.093750000 0.312500000
vt 0.031250000 0.312500000
vt 0.031250000 0.468750000
vt 0.093750000 0.468750000
f 185/185 186/186 187/187 188/188
v 0.750000000 0.375000000 0.593750000
v 1.000000000 0.375000000 0.593750000
v 1.000000000 0.687500000 0.593750000
v 0.750000000 0.687500000 0.593750000
vt 0.187500000 0.312500000
vt 0.125000000 0.312500000
vt 0.125000000 0.468750000
vt 0.187500000 0.468750000
f 189/189 190/190 191/191 192/192
o R6
usemtl gun
v 0.881250000 0.343750000 0.562500000
v 0.881250000 0.343750000 0.500000000
v 0.881250000 0.718750000 0.500000000
v 0.881250000 0.718750000 0.562500000
vt 0.531250000 0.250000000
vt 0.515625000 0.250000000
vt 0.515625000 0.437500000
vt 0.531250000 0.437500000
f 193/193 194/194 195/195 196/196
v 0.756250000 0.343750000 0.500000000
v 0.756250000 0.343750000 0.562500000
v 0.756250000 0.718750000 0.562500000
v 0.756250000 0.718750000 0.500000000
vt 0.484375000 0.250000000
vt 0.468750000 0.250000000
vt 0.468750000 0.437500000
vt 0.484375000 0.437500000
f 197/197 198/198 199/199 200/200
v 0.881250000 0.343750000 0.562500000
v 0.756250000 0.343750000 0.562500000
v 0.756250000 0.343750000 0.500000000
v 0.881250000 0.343750000 0.500000000
vt 0.515625000 0.218750000
vt 0.484375000 0.218750000
vt 0.484375000 0.250000000
vt 0.515625000 0.250000000
f 201/201 202/202 203/203 204/204
v 0.881250000 0.718750000 0.500000000
v 0.756250000 0.718750000 0.500000000
v 0.756250000 0.718750000 0.562500000
v 0.881250000 0.718750000 0.562500000
vt 0.546875000 0.250000000
vt 0.515625000 0.250000000
vt 0.515625000 0.218750000
vt 0.546875000 0.218750000
f 205/205 206/206 207/207 208/208
v 0.881250000 0.343750000 0.500000000
v 0.756250000 0.343750000 0.500000000
v 0.756250000 0.718750000 0.500000000
v 0.881250000 0.718750000 0.500000000
vt 0.515625000 0.250000000
vt 0.484375000 0.250000000
vt 0.484375000 0.437500000
vt 0.515625000 0.437500000
f 209/209 210/210 211/211 212/212
v 0.756250000 0.343750000 0.562500000
v 0.881250000 0.343750000 0.562500000
v 0.881250000 0.718750000 0.562500000
v 0.756250000 0.718750000 0.562500000
vt 0.562500000 0.250000000
vt 0.531250000 0.250000000
vt 0.531250000 0.437500000
vt 0.562500000 0.437500000
f 213/213 214/214 215/215 216/216
o R7
usemtl gun
v 0.881250000 0.500000000 0.718750000
v 0.881250000 0.500000000 0.343750000
v 0.881250000 0.562500000 0.343750000
v 0.881250000 0.562500000 0.718750000
vt 0.687500000 0.187500000
vt 0.593750000 0.187500000
vt 0.593750000 0.218750000
vt 0.687500000 0.218750000
f 217/217 218/218 219/219 220/220
v 0.756250000 0.500000000 0.343750000
v 0.756250000 0.500000000 0.718750000
v 0.756250000 0.562500000 0.718750000
v 0.756250000 0.562500000 0.343750000
vt 0.562500000 0.187500000
vt 0.468750000 0.187500000
vt 0.468750000 0.218750000
vt 0.562500000 0.218750000
f 221/221 222/222 223/223 224/224
v 0.881250000 0.500000000 0.718750000
v 0.756250000 0.500000000 0.718750000
v 0.756250000 0.500000000 0.343750000
v 0.881250000 0.500000000 0.343750000
vt 0.593750000 0.000000000
vt 0.562500000 0.000000000
vt 0.562500000 0.187500000
vt 0.593750000 0.187500000
f 225/225 226/226 227/227 228/228
v 0.881250000 0.562500000 0.343750000
v 0.756250000 0.562500000 0.343750000
v 0.756250000 0.562500000 0.718750000
v 0.881250000 0.562500000 0.718750000
vt 0.625000000 0.187500000
vt 0.593750000 0.187500000
vt 0.593750000 0.000000000
vt 0.625000000 0.000000000
f 229/229 230/230 231/231 232/232
v 0.881250000 0.500000000 0.343750000
v 0.756250000 0.500000000 0.343750000
v 0.756250000 0.562500000 0.343750000
v 0.881250000 0.562500000 0.343750000
vt 0.593750000 0.187500000
vt 0.562500000 0.187500000
vt 0.562500000 0.218750000
vt 0.593750000 0.218750000
f 233/233 234/234 235/235 236/236
v 0.756250000 0.500000000 0.718750000
v 0.881250000 0.500000000 0.718750000
v 0.881250000 0.562500000 0.718750000
v 0.756250000 0.562500000 0.718750000
vt 0.718750000 0.187500000
vt 0.687500000 0.187500000
vt 0.687500000 0.218750000
vt 0.718750000 0.218750000
f 237/237 238/238 239/239 240/240
o R1
usemtl gun
v 1.062500000 0.406250000 0.656250000
v 1.062500000 0.406250000 0.406250000
v 1.062500000 0.656250000 0.406250000
v 1.062500000 0.656250000 0.656250000
vt 0.218750000 0.125000000
vt 0.156250000 0.125000000
vt 0.156250000 0.250000000
vt 0.218750000 0.250000000
f 241/241 242/242 243/243 244/244
v 0.687500000 0.406250000 0.406250000
v 0.687500000 0.406250000 0.656250000
v 0.687500000 0.656250000 0.656250000
v 0.687500000 0.656250000 0.406250000
vt 0.062500000 0.125000000
vt 0.000000000 0.125000000
vt 0.000000000 0.250000000
vt 0.062500000 0.250000000
f 245/245 246/246 247/247 248/248
v 1.062500000 0.406250000 0.656250000
v 0.687500000 0.406250000 0.656250000
v 0.687500000 0.406250000 0.406250000
v 1.062500000 0.406250000 0.406250000
vt 0.156250000 0.000000000
vt 0.062500000 0.000000000
vt 0.062500000 0.125000000
vt 0.156250000 0.125000000
f 249/249 250/250 251/251 252/252
v 1.062500000 0.656250000 0.406250000
v 0.687500000 0.656250000 0.406250000
v 0.687500000 0.656250000 0.656250000
v 1.062500000 0.656250000 0.656250000
vt 0.250000000 0.125000000
vt 0.156250000 0.125000000
vt 0.156250000 0.000000000
vt 0.250000000 0.000000000
f 253/253 254/254 255/255 256/256
v 1.062500000 0.406250000 0.406250000
v 0.687500000 0.406250000 0.406250000
v 0.687500000 0.656250000 0.406250000
v 1.062500000 0.656250000 0.406250000
vt 0.156250000 0.125000000
vt 0.062500000 0.125000000
vt 0.062500000 0.250000000
vt 0.156250000 0.250000000
f 257/257 258/258 259/259 260/260
v 0.687500000 0.406250000 0.656250000
v 1.062500000 0.406250000 0.656250000
v 1.062500000 0.656250000 0.656250000
v 0.687500000 0.656250000 0.656250000
vt 0.312500000 0.125000000
vt 0.218750000 0.125000000
vt 0.218750000 0.250000000
vt 0.312500000 0.250000000
f 261/261 262/262 263/263 264/264
