# Original Techguns ModelStielgranate; Techguns Mod License
mtllib stielgranate_projectile.mtl
o Granate01
usemtl gun
v 0.614276695 -0.875000000 0.531249994
v 0.525888344 -0.875000000 0.442861649
v 0.525888344 -0.125000000 0.442861649
v 0.614276695 -0.125000000 0.531249994
vt 0.187500000 0.218750000
vt 0.125000000 0.218750000
vt 0.125000000 0.593750000
vt 0.187500000 0.593750000
f 1/1 2/2 3/3 4/4
v 0.437500000 -0.875000000 0.531250000
v 0.525888351 -0.875000000 0.619638344
v 0.525888351 -0.125000000 0.619638344
v 0.437500000 -0.125000000 0.531250000
vt 0.062500000 0.218750000
vt 0.000000000 0.218750000
vt 0.000000000 0.593750000
vt 0.062500000 0.593750000
f 5/5 6/6 7/7 8/8
v 0.614276695 -0.875000000 0.531249994
v 0.525888351 -0.875000000 0.619638344
v 0.437500000 -0.875000000 0.531250000
v 0.525888344 -0.875000000 0.442861649
vt 0.125000000 0.156250000
vt 0.062500000 0.156250000
vt 0.062500000 0.218750000
vt 0.125000000 0.218750000
f 9/9 10/10 11/11 12/12
v 0.525888344 -0.125000000 0.442861649
v 0.437500000 -0.125000000 0.531250000
v 0.525888351 -0.125000000 0.619638344
v 0.614276695 -0.125000000 0.531249994
vt 0.187500000 0.218750000
vt 0.125000000 0.218750000
vt 0.125000000 0.156250000
vt 0.187500000 0.156250000
f 13/13 14/14 15/15 16/16
v 0.525888344 -0.875000000 0.442861649
v 0.437500000 -0.875000000 0.531250000
v 0.437500000 -0.125000000 0.531250000
v 0.525888344 -0.125000000 0.442861649
vt 0.125000000 0.218750000
vt 0.062500000 0.218750000
vt 0.062500000 0.593750000
vt 0.125000000 0.593750000
f 17/17 18/18 19/19 20/20
v 0.525888351 -0.875000000 0.619638344
v 0.614276695 -0.875000000 0.531249994
v 0.614276695 -0.125000000 0.531249994
v 0.525888351 -0.125000000 0.619638344
vt 0.250000000 0.218750000
vt 0.187500000 0.218750000
vt 0.187500000 0.593750000
vt 0.250000000 0.593750000
f 21/21 22/22 23/23 24/24
o Stiel01
usemtl gun
v 0.656250000 -1.187500000 0.656250000
v 0.656250000 -1.187500000 0.406250000
v 0.656250000 -0.875000000 0.406250000
v 0.656250000 -0.875000000 0.656250000
vt 0.781250000 0.125000000
vt 0.656250000 0.125000000
vt 0.656250000 0.281250000
vt 0.781250000 0.281250000
f 25/25 26/26 27/27 28/28
v 0.406250000 -1.187500000 0.406250000
v 0.406250000 -1.187500000 0.656250000
v 0.406250000 -0.875000000 0.656250000
v 0.406250000 -0.875000000 0.406250000
vt 0.531250000 0.125000000
vt 0.406250000 0.125000000
vt 0.406250000 0.281250000
vt 0.531250000 0.281250000
f 29/29 30/30 31/31 32/32
v 0.656250000 -1.187500000 0.656250000
v 0.406250000 -1.187500000 0.656250000
v 0.406250000 -1.187500000 0.406250000
v 0.656250000 -1.187500000 0.406250000
vt 0.656250000 0.000000000
vt 0.531250000 0.000000000
vt 0.531250000 0.125000000
vt 0.656250000 0.125000000
f 33/33 34/34 35/35 36/36
v 0.656250000 -0.875000000 0.406250000
v 0.406250000 -0.875000000 0.406250000
v 0.406250000 -0.875000000 0.656250000
v 0.656250000 -0.875000000 0.656250000
vt 0.781250000 0.125000000
vt 0.656250000 0.125000000
vt 0.656250000 0.000000000
vt 0.781250000 0.000000000
f 37/37 38/38 39/39 40/40
v 0.656250000 -1.187500000 0.406250000
v 0.406250000 -1.187500000 0.406250000
v 0.406250000 -0.875000000 0.406250000
v 0.656250000 -0.875000000 0.406250000
vt 0.656250000 0.125000000
vt 0.531250000 0.125000000
vt 0.531250000 0.281250000
vt 0.656250000 0.281250000
f 41/41 42/42 43/43 44/44
v 0.406250000 -1.187500000 0.656250000
v 0.656250000 -1.187500000 0.656250000
v 0.656250000 -0.875000000 0.656250000
v 0.406250000 -0.875000000 0.656250000
vt 0.906250000 0.125000000
vt 0.781250000 0.125000000
vt 0.781250000 0.281250000
vt 0.906250000 0.281250000
f 45/45 46/46 47/47 48/48
o Stiel02
usemtl gun
v 0.625000000 -0.125000000 0.625000000
v 0.625000000 -0.125000000 0.437500000
v 0.625000000 -0.062500000 0.437500000
v 0.625000000 -0.062500000 0.625000000
vt 0.281250000 0.093750000
vt 0.187500000 0.093750000
vt 0.187500000 0.125000000
vt 0.281250000 0.125000000
f 49/49 50/50 51/51 52/52
v 0.437500000 -0.125000000 0.437500000
v 0.437500000 -0.125000000 0.625000000
v 0.437500000 -0.062500000 0.625000000
v 0.437500000 -0.062500000 0.437500000
vt 0.093750000 0.093750000
vt 0.000000000 0.093750000
vt 0.000000000 0.125000000
vt 0.093750000 0.125000000
f 53/53 54/54 55/55 56/56
v 0.625000000 -0.125000000 0.625000000
v 0.437500000 -0.125000000 0.625000000
v 0.437500000 -0.125000000 0.437500000
v 0.625000000 -0.125000000 0.437500000
vt 0.187500000 0.000000000
vt 0.093750000 0.000000000
vt 0.093750000 0.093750000
vt 0.187500000 0.093750000
f 57/57 58/58 59/59 60/60
v 0.625000000 -0.062500000 0.437500000
v 0.437500000 -0.062500000 0.437500000
v 0.437500000 -0.062500000 0.625000000
v 0.625000000 -0.062500000 0.625000000
vt 0.281250000 0.093750000
vt 0.187500000 0.093750000
vt 0.187500000 0.000000000
vt 0.281250000 0.000000000
f 61/61 62/62 63/63 64/64
v 0.625000000 -0.125000000 0.437500000
v 0.437500000 -0.125000000 0.437500000
v 0.437500000 -0.062500000 0.437500000
v 0.625000000 -0.062500000 0.437500000
vt 0.187500000 0.093750000
vt 0.093750000 0.093750000
vt 0.093750000 0.125000000
vt 0.187500000 0.125000000
f 65/65 66/66 67/67 68/68
v 0.437500000 -0.125000000 0.625000000
v 0.625000000 -0.125000000 0.625000000
v 0.625000000 -0.062500000 0.625000000
v 0.437500000 -0.062500000 0.625000000
vt 0.375000000 0.093750000
vt 0.281250000 0.093750000
vt 0.281250000 0.125000000
vt 0.375000000 0.125000000
f 69/69 70/70 71/71 72/72
