# Original Techguns ModelVector; Techguns Mod License
mtllib vector.mtl
o stock03
usemtl gun
v 0.546875000 0.681822169 1.187500000
v 0.546875000 0.681822169 1.125000000
v 0.546875000 0.369322169 1.125000000
v 0.546875000 0.369322169 1.187500000
vt 0.695312500 0.281250000
vt 0.679687500 0.281250000
vt 0.679687500 0.437500000
vt 0.695312500 0.437500000
f 4/4 3/3 2/2 1/1
v 0.453125000 0.681822169 1.125000000
v 0.453125000 0.681822169 1.187500000
v 0.453125000 0.369322169 1.187500000
v 0.453125000 0.369322169 1.125000000
vt 0.656250000 0.281250000
vt 0.640625000 0.281250000
vt 0.640625000 0.437500000
vt 0.656250000 0.437500000
f 8/8 7/7 6/6 5/5
v 0.546875000 0.681822169 1.187500000
v 0.453125000 0.681822169 1.187500000
v 0.453125000 0.681822169 1.125000000
v 0.546875000 0.681822169 1.125000000
vt 0.679687500 0.250000000
vt 0.656250000 0.250000000
vt 0.656250000 0.281250000
vt 0.679687500 0.281250000
f 12/12 11/11 10/10 9/9
v 0.546875000 0.369322169 1.125000000
v 0.453125000 0.369322169 1.125000000
v 0.453125000 0.369322169 1.187500000
v 0.546875000 0.369322169 1.187500000
vt 0.703125000 0.281250000
vt 0.679687500 0.281250000
vt 0.679687500 0.250000000
vt 0.703125000 0.250000000
f 16/16 15/15 14/14 13/13
v 0.546875000 0.681822169 1.125000000
v 0.453125000 0.681822169 1.125000000
v 0.453125000 0.369322169 1.125000000
v 0.546875000 0.369322169 1.125000000
vt 0.679687500 0.281250000
vt 0.656250000 0.281250000
vt 0.656250000 0.437500000
vt 0.679687500 0.437500000
f 20/20 19/19 18/18 17/17
v 0.453125000 0.681822169 1.187500000
v 0.546875000 0.681822169 1.187500000
v 0.546875000 0.369322169 1.187500000
v 0.453125000 0.369322169 1.187500000
vt 0.718750000 0.281250000
vt 0.695312500 0.281250000
vt 0.695312500 0.437500000
vt 0.718750000 0.437500000
f 24/24 23/23 22/22 21/21
o Receiver04
usemtl gun
v 0.546875000 0.675572169 0.218750000
v 0.546875000 0.675572169 -0.093750000
v 0.546875000 0.581822169 -0.093750000
v 0.546875000 0.581822169 0.218750000
vt 0.445312500 0.156250000
vt 0.367187500 0.156250000
vt 0.367187500 0.203125000
vt 0.445312500 0.203125000
f 28/28 27/27 26/26 25/25
v 0.453125000 0.675572169 -0.093750000
v 0.453125000 0.675572169 0.218750000
v 0.453125000 0.581822169 0.218750000
v 0.453125000 0.581822169 -0.093750000
vt 0.343750000 0.156250000
vt 0.265625000 0.156250000
vt 0.265625000 0.203125000
vt 0.343750000 0.203125000
f 32/32 31/31 30/30 29/29
v 0.546875000 0.675572169 0.218750000
v 0.453125000 0.675572169 0.218750000
v 0.453125000 0.675572169 -0.093750000
v 0.546875000 0.675572169 -0.093750000
vt 0.367187500 0.000000000
vt 0.343750000 0.000000000
vt 0.343750000 0.156250000
vt 0.367187500 0.156250000
f 36/36 35/35 34/34 33/33
v 0.546875000 0.581822169 -0.093750000
v 0.453125000 0.581822169 -0.093750000
v 0.453125000 0.581822169 0.218750000
v 0.546875000 0.581822169 0.218750000
vt 0.390625000 0.156250000
vt 0.367187500 0.156250000
vt 0.367187500 0.000000000
vt 0.390625000 0.000000000
f 40/40 39/39 38/38 37/37
v 0.546875000 0.675572169 -0.093750000
v 0.453125000 0.675572169 -0.093750000
v 0.453125000 0.581822169 -0.093750000
v 0.546875000 0.581822169 -0.093750000
vt 0.367187500 0.156250000
vt 0.343750000 0.156250000
vt 0.343750000 0.203125000
vt 0.367187500 0.203125000
f 44/44 43/43 42/42 41/41
v 0.453125000 0.675572169 0.218750000
v 0.546875000 0.675572169 0.218750000
v 0.546875000 0.581822169 0.218750000
v 0.453125000 0.581822169 0.218750000
vt 0.468750000 0.156250000
vt 0.445312500 0.156250000
vt 0.445312500 0.203125000
vt 0.468750000 0.203125000
f 48/48 47/47 46/46 45/45
o Eotech03
usemtl gun
v 0.550000000 0.928697169 0.406250000
v 0.550000000 0.928697169 0.306250000
v 0.550000000 0.903697169 0.306250000
v 0.550000000 0.903697169 0.406250000
vt 0.093750000 0.218750000
vt 0.062500000 0.218750000
vt 0.062500000 0.234375000
vt 0.093750000 0.234375000
f 52/52 51/51 50/50 49/49
v 0.450000000 0.928697169 0.306250000
v 0.450000000 0.928697169 0.406250000
v 0.450000000 0.903697169 0.406250000
v 0.450000000 0.903697169 0.306250000
vt 0.031250000 0.218750000
vt 0.000000000 0.218750000
vt 0.000000000 0.234375000
vt 0.031250000 0.234375000
f 56/56 55/55 54/54 53/53
v 0.550000000 0.928697169 0.406250000
v 0.450000000 0.928697169 0.406250000
v 0.450000000 0.928697169 0.306250000
v 0.550000000 0.928697169 0.306250000
vt 0.062500000 0.156250000
vt 0.031250000 0.156250000
vt 0.031250000 0.218750000
vt 0.062500000 0.218750000
f 60/60 59/59 58/58 57/57
v 0.550000000 0.903697169 0.306250000
v 0.450000000 0.903697169 0.306250000
v 0.450000000 0.903697169 0.406250000
v 0.550000000 0.903697169 0.406250000
vt 0.093750000 0.218750000
vt 0.062500000 0.218750000
vt 0.062500000 0.156250000
vt 0.093750000 0.156250000
f 64/64 63/63 62/62 61/61
v 0.550000000 0.928697169 0.306250000
v 0.450000000 0.928697169 0.306250000
v 0.450000000 0.903697169 0.306250000
v 0.550000000 0.903697169 0.306250000
vt 0.062500000 0.218750000
vt 0.031250000 0.218750000
vt 0.031250000 0.234375000
vt 0.062500000 0.234375000
f 68/68 67/67 66/66 65/65
v 0.450000000 0.928697169 0.406250000
v 0.550000000 0.928697169 0.406250000
v 0.550000000 0.903697169 0.406250000
v 0.450000000 0.903697169 0.406250000
vt 0.125000000 0.218750000
vt 0.093750000 0.218750000
vt 0.093750000 0.234375000
vt 0.125000000 0.234375000
f 72/72 71/71 70/70 69/69
o stock
usemtl gun
v 0.546875000 0.738072169 1.031250000
v 0.546875000 0.738072169 0.687500000
v 0.546875000 0.675572169 0.687500000
v 0.546875000 0.675572169 1.031250000
vt 0.757812500 0.171875000
vt 0.671875000 0.171875000
vt 0.671875000 0.203125000
vt 0.757812500 0.203125000
f 76/76 75/75 74/74 73/73
v 0.453125000 0.738072169 0.687500000
v 0.453125000 0.738072169 1.031250000
v 0.453125000 0.675572169 1.031250000
v 0.453125000 0.675572169 0.687500000
vt 0.648437500 0.171875000
vt 0.562500000 0.171875000
vt 0.562500000 0.203125000
vt 0.648437500 0.203125000
f 80/80 79/79 78/78 77/77
v 0.546875000 0.738072169 1.031250000
v 0.453125000 0.738072169 1.031250000
v 0.453125000 0.738072169 0.687500000
v 0.546875000 0.738072169 0.687500000
vt 0.671875000 0.000000000
vt 0.648437500 0.000000000
vt 0.648437500 0.171875000
vt 0.671875000 0.171875000
f 84/84 83/83 82/82 81/81
v 0.546875000 0.675572169 0.687500000
v 0.453125000 0.675572169 0.687500000
v 0.453125000 0.675572169 1.031250000
v 0.546875000 0.675572169 1.031250000
vt 0.695312500 0.171875000
vt 0.671875000 0.171875000
vt 0.671875000 0.000000000
vt 0.695312500 0.000000000
f 88/88 87/87 86/86 85/85
v 0.546875000 0.738072169 0.687500000
v 0.453125000 0.738072169 0.687500000
v 0.453125000 0.675572169 0.687500000
v 0.546875000 0.675572169 0.687500000
vt 0.671875000 0.171875000
vt 0.648437500 0.171875000
vt 0.648437500 0.203125000
vt 0.671875000 0.203125000
f 92/92 91/91 90/90 89/89
v 0.453125000 0.738072169 1.031250000
v 0.546875000 0.738072169 1.031250000
v 0.546875000 0.675572169 1.031250000
v 0.453125000 0.675572169 1.031250000
vt 0.781250000 0.171875000
vt 0.757812500 0.171875000
vt 0.757812500 0.203125000
vt 0.781250000 0.203125000
f 96/96 95/95 94/94 93/93
o Receiver03
usemtl gun
v 0.550000000 0.769322169 0.687500000
v 0.550000000 0.769322169 -0.093750000
v 0.550000000 0.675572169 -0.093750000
v 0.550000000 0.675572169 0.687500000
vt 0.421875000 0.390625000
vt 0.226562500 0.390625000
vt 0.226562500 0.437500000
vt 0.421875000 0.437500000
f 100/100 99/99 98/98 97/97
v 0.450000000 0.769322169 -0.093750000
v 0.450000000 0.769322169 0.687500000
v 0.450000000 0.675572169 0.687500000
v 0.450000000 0.675572169 -0.093750000
vt 0.195312500 0.390625000
vt 0.000000000 0.390625000
vt 0.000000000 0.437500000
vt 0.195312500 0.437500000
f 104/104 103/103 102/102 101/101
v 0.550000000 0.769322169 0.687500000
v 0.450000000 0.769322169 0.687500000
v 0.450000000 0.769322169 -0.093750000
v 0.550000000 0.769322169 -0.093750000
vt 0.226562500 0.000000000
vt 0.195312500 0.000000000
vt 0.195312500 0.390625000
vt 0.226562500 0.390625000
f 108/108 107/107 106/106 105/105
v 0.550000000 0.675572169 -0.093750000
v 0.450000000 0.675572169 -0.093750000
v 0.450000000 0.675572169 0.687500000
v 0.550000000 0.675572169 0.687500000
vt 0.257812500 0.390625000
vt 0.226562500 0.390625000
vt 0.226562500 0.000000000
vt 0.257812500 0.000000000
f 112/112 111/111 110/110 109/109
v 0.550000000 0.769322169 -0.093750000
v 0.450000000 0.769322169 -0.093750000
v 0.450000000 0.675572169 -0.093750000
v 0.550000000 0.675572169 -0.093750000
vt 0.226562500 0.390625000
vt 0.195312500 0.390625000
vt 0.195312500 0.437500000
vt 0.226562500 0.437500000
f 116/116 115/115 114/114 113/113
v 0.450000000 0.769322169 0.687500000
v 0.550000000 0.769322169 0.687500000
v 0.550000000 0.675572169 0.687500000
v 0.450000000 0.675572169 0.687500000
vt 0.453125000 0.390625000
vt 0.421875000 0.390625000
vt 0.421875000 0.437500000
vt 0.453125000 0.437500000
f 120/120 119/119 118/118 117/117
o Eotech02
usemtl gun
v 0.550000000 0.853697169 0.425000000
v 0.550000000 0.853697169 0.200000000
v 0.550000000 0.778697169 0.200000000
v 0.550000000 0.778697169 0.425000000
vt 0.679687500 0.640625000
vt 0.609375000 0.640625000
vt 0.609375000 0.687500000
vt 0.679687500 0.687500000
f 124/124 123/123 122/122 121/121
v 0.450000000 0.853697169 0.200000000
v 0.450000000 0.853697169 0.425000000
v 0.450000000 0.778697169 0.425000000
v 0.450000000 0.778697169 0.200000000
vt 0.578125000 0.640625000
vt 0.507812500 0.640625000
vt 0.507812500 0.687500000
vt 0.578125000 0.687500000
f 128/128 127/127 126/126 125/125
v 0.550000000 0.853697169 0.425000000
v 0.450000000 0.853697169 0.425000000
v 0.450000000 0.853697169 0.200000000
v 0.550000000 0.853697169 0.200000000
vt 0.609375000 0.500000000
vt 0.578125000 0.500000000
vt 0.578125000 0.640625000
vt 0.609375000 0.640625000
f 132/132 131/131 130/130 129/129
v 0.550000000 0.778697169 0.200000000
v 0.450000000 0.778697169 0.200000000
v 0.450000000 0.778697169 0.425000000
v 0.550000000 0.778697169 0.425000000
vt 0.640625000 0.640625000
vt 0.609375000 0.640625000
vt 0.609375000 0.500000000
vt 0.640625000 0.500000000
f 136/136 135/135 134/134 133/133
v 0.550000000 0.853697169 0.200000000
v 0.450000000 0.853697169 0.200000000
v 0.450000000 0.778697169 0.200000000
v 0.550000000 0.778697169 0.200000000
vt 0.609375000 0.640625000
vt 0.578125000 0.640625000
vt 0.578125000 0.687500000
vt 0.609375000 0.687500000
f 140/140 139/139 138/138 137/137
v 0.450000000 0.853697169 0.425000000
v 0.550000000 0.853697169 0.425000000
v 0.550000000 0.778697169 0.425000000
v 0.450000000 0.778697169 0.425000000
vt 0.710937500 0.640625000
vt 0.679687500 0.640625000
vt 0.679687500 0.687500000
vt 0.710937500 0.687500000
f 144/144 143/143 142/142 141/141
o stock04
usemtl gun
v 0.544194174 0.447447169 1.125000000
v 0.544194174 0.447447169 1.062500000
v 0.500000000 0.403252995 1.062500000
v 0.500000000 0.403252995 1.125000000
vt 0.609375000 0.343750000
vt 0.593750000 0.343750000
vt 0.593750000 0.375000000
vt 0.609375000 0.375000000
f 148/148 147/147 146/146 145/145
v 0.500000000 0.491641343 1.062500000
v 0.500000000 0.491641343 1.125000000
v 0.455805826 0.447447169 1.125000000
v 0.455805826 0.447447169 1.062500000
vt 0.578125000 0.343750000
vt 0.562500000 0.343750000
vt 0.562500000 0.375000000
vt 0.578125000 0.375000000
f 152/152 151/151 150/150 149/149
v 0.544194174 0.447447169 1.125000000
v 0.500000000 0.491641343 1.125000000
v 0.500000000 0.491641343 1.062500000
v 0.544194174 0.447447169 1.062500000
vt 0.593750000 0.312500000
vt 0.578125000 0.312500000
vt 0.578125000 0.343750000
vt 0.593750000 0.343750000
f 156/156 155/155 154/154 153/153
v 0.500000000 0.403252995 1.062500000
v 0.455805826 0.447447169 1.062500000
v 0.455805826 0.447447169 1.125000000
v 0.500000000 0.403252995 1.125000000
vt 0.609375000 0.343750000
vt 0.593750000 0.343750000
vt 0.593750000 0.312500000
vt 0.609375000 0.312500000
f 160/160 159/159 158/158 157/157
v 0.544194174 0.447447169 1.062500000
v 0.500000000 0.491641343 1.062500000
v 0.455805826 0.447447169 1.062500000
v 0.500000000 0.403252995 1.062500000
vt 0.593750000 0.343750000
vt 0.578125000 0.343750000
vt 0.578125000 0.375000000
vt 0.593750000 0.375000000
f 164/164 163/163 162/162 161/161
v 0.500000000 0.491641343 1.125000000
v 0.544194174 0.447447169 1.125000000
v 0.500000000 0.403252995 1.125000000
v 0.455805826 0.447447169 1.125000000
vt 0.625000000 0.343750000
vt 0.609375000 0.343750000
vt 0.609375000 0.375000000
vt 0.625000000 0.375000000
f 168/168 167/167 166/166 165/165
o Barrel02
usemtl gun
v 0.530935922 0.638072169 -0.156250000
v 0.530935922 0.638072169 -0.187500000
v 0.500000000 0.607136248 -0.187500000
v 0.500000000 0.607136248 -0.156250000
vt 0.109375000 0.015625000
vt 0.101562500 0.015625000
vt 0.101562500 0.046875000
vt 0.109375000 0.046875000
f 172/172 171/171 170/170 169/169
v 0.500000000 0.669008091 -0.187500000
v 0.500000000 0.669008091 -0.156250000
v 0.469064078 0.638072169 -0.156250000
v 0.469064078 0.638072169 -0.187500000
vt 0.085937500 0.015625000
vt 0.078125000 0.015625000
vt 0.078125000 0.046875000
vt 0.085937500 0.046875000
f 176/176 175/175 174/174 173/173
v 0.530935922 0.638072169 -0.156250000
v 0.500000000 0.669008091 -0.156250000
v 0.500000000 0.669008091 -0.187500000
v 0.530935922 0.638072169 -0.187500000
vt 0.101562500 0.000000000
vt 0.085937500 0.000000000
vt 0.085937500 0.015625000
vt 0.101562500 0.015625000
f 180/180 179/179 178/178 177/177
v 0.500000000 0.607136248 -0.187500000
v 0.469064078 0.638072169 -0.187500000
v 0.469064078 0.638072169 -0.156250000
v 0.500000000 0.607136248 -0.156250000
vt 0.117187500 0.015625000
vt 0.101562500 0.015625000
vt 0.101562500 0.000000000
vt 0.117187500 0.000000000
f 184/184 183/183 182/182 181/181
v 0.530935922 0.638072169 -0.187500000
v 0.500000000 0.669008091 -0.187500000
v 0.469064078 0.638072169 -0.187500000
v 0.500000000 0.607136248 -0.187500000
vt 0.101562500 0.015625000
vt 0.085937500 0.015625000
vt 0.085937500 0.046875000
vt 0.101562500 0.046875000
f 188/188 187/187 186/186 185/185
v 0.500000000 0.669008091 -0.156250000
v 0.530935922 0.638072169 -0.156250000
v 0.500000000 0.607136248 -0.156250000
v 0.469064078 0.638072169 -0.156250000
vt 0.125000000 0.015625000
vt 0.109375000 0.015625000
vt 0.109375000 0.046875000
vt 0.125000000 0.046875000
f 192/192 191/191 190/190 189/189
o FrontRails01
usemtl gun
v 0.531250000 0.581822169 0.140625000
v 0.531250000 0.581822169 -0.078125000
v 0.531250000 0.550572169 -0.078125000
v 0.531250000 0.550572169 0.140625000
vt 0.414062500 0.359375000
vt 0.359375000 0.359375000
vt 0.359375000 0.375000000
vt 0.414062500 0.375000000
f 196/196 195/195 194/194 193/193
v 0.468750000 0.581822169 -0.078125000
v 0.468750000 0.581822169 0.140625000
v 0.468750000 0.550572169 0.140625000
v 0.468750000 0.550572169 -0.078125000
vt 0.343750000 0.359375000
vt 0.289062500 0.359375000
vt 0.289062500 0.375000000
vt 0.343750000 0.375000000
f 200/200 199/199 198/198 197/197
v 0.531250000 0.581822169 0.140625000
v 0.468750000 0.581822169 0.140625000
v 0.468750000 0.581822169 -0.078125000
v 0.531250000 0.581822169 -0.078125000
vt 0.359375000 0.250000000
vt 0.343750000 0.250000000
vt 0.343750000 0.359375000
vt 0.359375000 0.359375000
f 204/204 203/203 202/202 201/201
v 0.531250000 0.550572169 -0.078125000
v 0.468750000 0.550572169 -0.078125000
v 0.468750000 0.550572169 0.140625000
v 0.531250000 0.550572169 0.140625000
vt 0.375000000 0.359375000
vt 0.359375000 0.359375000
vt 0.359375000 0.250000000
vt 0.375000000 0.250000000
f 208/208 207/207 206/206 205/205
v 0.531250000 0.581822169 -0.078125000
v 0.468750000 0.581822169 -0.078125000
v 0.468750000 0.550572169 -0.078125000
v 0.531250000 0.550572169 -0.078125000
vt 0.359375000 0.359375000
vt 0.343750000 0.359375000
vt 0.343750000 0.375000000
vt 0.359375000 0.375000000
f 212/212 211/211 210/210 209/209
v 0.468750000 0.581822169 0.140625000
v 0.531250000 0.581822169 0.140625000
v 0.531250000 0.550572169 0.140625000
v 0.468750000 0.550572169 0.140625000
vt 0.429687500 0.359375000
vt 0.414062500 0.359375000
vt 0.414062500 0.375000000
vt 0.429687500 0.375000000
f 216/216 215/215 214/214 213/213
o Grip1
usemtl gun
v 0.546875000 0.721449687 0.645586578
v 0.546875000 0.678697169 0.528125000
v 0.546875000 0.385043225 0.635006295
v 0.546875000 0.427795743 0.752467872
vt 0.085937500 0.515625000
vt 0.054687500 0.515625000
vt 0.054687500 0.671875000
vt 0.085937500 0.671875000
f 220/220 219/219 218/218 217/217
v 0.453125000 0.678697169 0.528125000
v 0.453125000 0.721449687 0.645586578
v 0.453125000 0.427795743 0.752467872
v 0.453125000 0.385043225 0.635006295
vt 0.031250000 0.515625000
vt 0.000000000 0.515625000
vt 0.000000000 0.671875000
vt 0.031250000 0.671875000
f 224/224 223/223 222/222 221/221
v 0.546875000 0.721449687 0.645586578
v 0.453125000 0.721449687 0.645586578
v 0.453125000 0.678697169 0.528125000
v 0.546875000 0.678697169 0.528125000
vt 0.054687500 0.453125000
vt 0.031250000 0.453125000
vt 0.031250000 0.515625000
vt 0.054687500 0.515625000
f 228/228 227/227 226/226 225/225
v 0.546875000 0.385043225 0.635006295
v 0.453125000 0.385043225 0.635006295
v 0.453125000 0.427795743 0.752467872
v 0.546875000 0.427795743 0.752467872
vt 0.078125000 0.515625000
vt 0.054687500 0.515625000
vt 0.054687500 0.453125000
vt 0.078125000 0.453125000
f 232/232 231/231 230/230 229/229
v 0.546875000 0.678697169 0.528125000
v 0.453125000 0.678697169 0.528125000
v 0.453125000 0.385043225 0.635006295
v 0.546875000 0.385043225 0.635006295
vt 0.054687500 0.515625000
vt 0.031250000 0.515625000
vt 0.031250000 0.671875000
vt 0.054687500 0.671875000
f 236/236 235/235 234/234 233/233
v 0.453125000 0.721449687 0.645586578
v 0.546875000 0.721449687 0.645586578
v 0.546875000 0.427795743 0.752467872
v 0.453125000 0.427795743 0.752467872
vt 0.109375000 0.515625000
vt 0.085937500 0.515625000
vt 0.085937500 0.671875000
vt 0.109375000 0.671875000
f 240/240 239/239 238/238 237/237
o Bottom
usemtl gun
v 0.546875000 0.381822169 0.525000000
v 0.546875000 0.381822169 0.212500000
v 0.546875000 0.350572169 0.212500000
v 0.546875000 0.350572169 0.525000000
vt 0.914062500 0.343750000
vt 0.835937500 0.343750000
vt 0.835937500 0.359375000
vt 0.914062500 0.359375000
f 244/244 243/243 242/242 241/241
v 0.453125000 0.381822169 0.212500000
v 0.453125000 0.381822169 0.525000000
v 0.453125000 0.350572169 0.525000000
v 0.453125000 0.350572169 0.212500000
vt 0.812500000 0.343750000
vt 0.734375000 0.343750000
vt 0.734375000 0.359375000
vt 0.812500000 0.359375000
f 248/248 247/247 246/246 245/245
v 0.546875000 0.381822169 0.525000000
v 0.453125000 0.381822169 0.525000000
v 0.453125000 0.381822169 0.212500000
v 0.546875000 0.381822169 0.212500000
vt 0.835937500 0.187500000
vt 0.812500000 0.187500000
vt 0.812500000 0.343750000
vt 0.835937500 0.343750000
f 252/252 251/251 250/250 249/249
v 0.546875000 0.350572169 0.212500000
v 0.453125000 0.350572169 0.212500000
v 0.453125000 0.350572169 0.525000000
v 0.546875000 0.350572169 0.525000000
vt 0.859375000 0.343750000
vt 0.835937500 0.343750000
vt 0.835937500 0.187500000
vt 0.859375000 0.187500000
f 256/256 255/255 254/254 253/253
v 0.546875000 0.381822169 0.212500000
v 0.453125000 0.381822169 0.212500000
v 0.453125000 0.350572169 0.212500000
v 0.546875000 0.350572169 0.212500000
vt 0.835937500 0.343750000
vt 0.812500000 0.343750000
vt 0.812500000 0.359375000
vt 0.835937500 0.359375000
f 260/260 259/259 258/258 257/257
v 0.453125000 0.381822169 0.525000000
v 0.546875000 0.381822169 0.525000000
v 0.546875000 0.350572169 0.525000000
v 0.453125000 0.350572169 0.525000000
vt 0.937500000 0.343750000
vt 0.914062500 0.343750000
vt 0.914062500 0.359375000
vt 0.937500000 0.359375000
f 264/264 263/263 262/262 261/261
o Magazine
usemtl gun
v 0.530937500 0.426386558 0.297471183
v 0.530937500 0.394322169 0.209375000
v 0.530937500 0.071302831 0.326944424
v 0.530937500 0.103367219 0.415040607
vt 0.531250000 0.046875000
vt 0.507812500 0.046875000
vt 0.507812500 0.218750000
vt 0.531250000 0.218750000
f 268/268 267/267 266/266 265/265
v 0.469062500 0.394322169 0.209375000
v 0.469062500 0.426386558 0.297471183
v 0.469062500 0.103367219 0.415040607
v 0.469062500 0.071302831 0.326944424
vt 0.492187500 0.046875000
vt 0.468750000 0.046875000
vt 0.468750000 0.218750000
vt 0.492187500 0.218750000
f 272/272 271/271 270/270 269/269
v 0.530937500 0.426386558 0.297471183
v 0.469062500 0.426386558 0.297471183
v 0.469062500 0.394322169 0.209375000
v 0.530937500 0.394322169 0.209375000
vt 0.507812500 0.000000000
vt 0.492187500 0.000000000
vt 0.492187500 0.046875000
vt 0.507812500 0.046875000
f 276/276 275/275 274/274 273/273
v 0.530937500 0.071302831 0.326944424
v 0.469062500 0.071302831 0.326944424
v 0.469062500 0.103367219 0.415040607
v 0.530937500 0.103367219 0.415040607
vt 0.523437500 0.046875000
vt 0.507812500 0.046875000
vt 0.507812500 0.000000000
vt 0.523437500 0.000000000
f 280/280 279/279 278/278 277/277
v 0.530937500 0.394322169 0.209375000
v 0.469062500 0.394322169 0.209375000
v 0.469062500 0.071302831 0.326944424
v 0.530937500 0.071302831 0.326944424
vt 0.507812500 0.046875000
vt 0.492187500 0.046875000
vt 0.492187500 0.218750000
vt 0.507812500 0.218750000
f 284/284 283/283 282/282 281/281
v 0.469062500 0.426386558 0.297471183
v 0.530937500 0.426386558 0.297471183
v 0.530937500 0.103367219 0.415040607
v 0.469062500 0.103367219 0.415040607
vt 0.546875000 0.046875000
vt 0.531250000 0.046875000
vt 0.531250000 0.218750000
vt 0.546875000 0.218750000
f 288/288 287/287 286/286 285/285
o Receiver05
usemtl gun
v 0.545937500 0.394249434 0.568178524
v 0.545937500 0.415625693 0.509447735
v 0.545937500 0.386260299 0.498759606
v 0.545937500 0.364884040 0.557490394
vt 0.140625000 0.281250000
vt 0.125000000 0.281250000
vt 0.125000000 0.296875000
vt 0.140625000 0.296875000
f 292/292 291/291 290/290 289/289
v 0.454062500 0.415625693 0.509447735
v 0.454062500 0.394249434 0.568178524
v 0.454062500 0.364884040 0.557490394
v 0.454062500 0.386260299 0.498759606
vt 0.101562500 0.281250000
vt 0.085937500 0.281250000
vt 0.085937500 0.296875000
vt 0.101562500 0.296875000
f 296/296 295/295 294/294 293/293
v 0.545937500 0.394249434 0.568178524
v 0.454062500 0.394249434 0.568178524
v 0.454062500 0.415625693 0.509447735
v 0.545937500 0.415625693 0.509447735
vt 0.125000000 0.250000000
vt 0.101562500 0.250000000
vt 0.101562500 0.281250000
vt 0.125000000 0.281250000
f 300/300 299/299 298/298 297/297
v 0.545937500 0.386260299 0.498759606
v 0.454062500 0.386260299 0.498759606
v 0.454062500 0.364884040 0.557490394
v 0.545937500 0.364884040 0.557490394
vt 0.148437500 0.281250000
vt 0.125000000 0.281250000
vt 0.125000000 0.250000000
vt 0.148437500 0.250000000
f 304/304 303/303 302/302 301/301
v 0.545937500 0.415625693 0.509447735
v 0.454062500 0.415625693 0.509447735
v 0.454062500 0.386260299 0.498759606
v 0.545937500 0.386260299 0.498759606
vt 0.125000000 0.281250000
vt 0.101562500 0.281250000
vt 0.101562500 0.296875000
vt 0.125000000 0.296875000
f 308/308 307/307 306/306 305/305
v 0.454062500 0.394249434 0.568178524
v 0.545937500 0.394249434 0.568178524
v 0.545937500 0.364884040 0.557490394
v 0.454062500 0.364884040 0.557490394
vt 0.164062500 0.281250000
vt 0.140625000 0.281250000
vt 0.140625000 0.296875000
vt 0.164062500 0.296875000
f 312/312 311/311 310/310 309/309
o Barrel
usemtl gun
v 0.522097087 0.638072169 -0.093750000
v 0.522097087 0.638072169 -0.156250000
v 0.500000000 0.615975082 -0.156250000
v 0.500000000 0.615975082 -0.093750000
vt 0.171875000 0.031250000
vt 0.156250000 0.031250000
vt 0.156250000 0.046875000
vt 0.171875000 0.046875000
f 316/316 315/315 314/314 313/313
v 0.500000000 0.660169256 -0.156250000
v 0.500000000 0.660169256 -0.093750000
v 0.477902913 0.638072169 -0.093750000
v 0.477902913 0.638072169 -0.156250000
vt 0.148437500 0.031250000
vt 0.132812500 0.031250000
vt 0.132812500 0.046875000
vt 0.148437500 0.046875000
f 320/320 319/319 318/318 317/317
v 0.522097087 0.638072169 -0.093750000
v 0.500000000 0.660169256 -0.093750000
v 0.500000000 0.660169256 -0.156250000
v 0.522097087 0.638072169 -0.156250000
vt 0.156250000 0.000000000
vt 0.148437500 0.000000000
vt 0.148437500 0.031250000
vt 0.156250000 0.031250000
f 324/324 323/323 322/322 321/321
v 0.500000000 0.615975082 -0.156250000
v 0.477902913 0.638072169 -0.156250000
v 0.477902913 0.638072169 -0.093750000
v 0.500000000 0.615975082 -0.093750000
vt 0.164062500 0.031250000
vt 0.156250000 0.031250000
vt 0.156250000 0.000000000
vt 0.164062500 0.000000000
f 328/328 327/327 326/326 325/325
v 0.522097087 0.638072169 -0.156250000
v 0.500000000 0.660169256 -0.156250000
v 0.477902913 0.638072169 -0.156250000
v 0.500000000 0.615975082 -0.156250000
vt 0.156250000 0.031250000
vt 0.148437500 0.031250000
vt 0.148437500 0.046875000
vt 0.156250000 0.046875000
f 332/332 331/331 330/330 329/329
v 0.500000000 0.660169256 -0.093750000
v 0.522097087 0.638072169 -0.093750000
v 0.500000000 0.615975082 -0.093750000
v 0.477902913 0.638072169 -0.093750000
vt 0.179687500 0.031250000
vt 0.171875000 0.031250000
vt 0.171875000 0.046875000
vt 0.179687500 0.046875000
f 336/336 335/335 334/334 333/333
o Grip02
usemtl gun
v 0.541513348 0.550572169 0.015625000
v 0.497319174 0.550572169 -0.028569174
v 0.497319174 0.331822169 -0.028569174
v 0.541513348 0.331822169 0.015625000
vt 0.320312500 0.234375000
vt 0.304687500 0.234375000
vt 0.304687500 0.343750000
vt 0.320312500 0.343750000
f 340/340 339/339 338/338 337/337
v 0.453125000 0.550572169 0.015625000
v 0.497319174 0.550572169 0.059819174
v 0.497319174 0.331822169 0.059819174
v 0.453125000 0.331822169 0.015625000
vt 0.289062500 0.234375000
vt 0.273437500 0.234375000
vt 0.273437500 0.343750000
vt 0.289062500 0.343750000
f 344/344 343/343 342/342 341/341
v 0.541513348 0.550572169 0.015625000
v 0.497319174 0.550572169 0.059819174
v 0.453125000 0.550572169 0.015625000
v 0.497319174 0.550572169 -0.028569174
vt 0.304687500 0.203125000
vt 0.289062500 0.203125000
vt 0.289062500 0.234375000
vt 0.304687500 0.234375000
f 348/348 347/347 346/346 345/345
v 0.497319174 0.331822169 -0.028569174
v 0.453125000 0.331822169 0.015625000
v 0.497319174 0.331822169 0.059819174
v 0.541513348 0.331822169 0.015625000
vt 0.320312500 0.234375000
vt 0.304687500 0.234375000
vt 0.304687500 0.203125000
vt 0.320312500 0.203125000
f 352/352 351/351 350/350 349/349
v 0.497319174 0.550572169 -0.028569174
v 0.453125000 0.550572169 0.015625000
v 0.453125000 0.331822169 0.015625000
v 0.497319174 0.331822169 -0.028569174
vt 0.304687500 0.234375000
vt 0.289062500 0.234375000
vt 0.289062500 0.343750000
vt 0.304687500 0.343750000
f 356/356 355/355 354/354 353/353
v 0.497319174 0.550572169 0.059819174
v 0.541513348 0.550572169 0.015625000
v 0.541513348 0.331822169 0.015625000
v 0.497319174 0.331822169 0.059819174
vt 0.335937500 0.234375000
vt 0.320312500 0.234375000
vt 0.320312500 0.343750000
vt 0.335937500 0.343750000
f 360/360 359/359 358/358 357/357
o TopRails
usemtl gun
v 0.531250000 0.800572169 0.656250000
v 0.531250000 0.800572169 -0.062500000
v 0.531250000 0.769322169 -0.062500000
v 0.531250000 0.769322169 0.656250000
vt 0.656250000 0.718750000
vt 0.476562500 0.718750000
vt 0.476562500 0.734375000
vt 0.656250000 0.734375000
f 364/364 363/363 362/362 361/361
v 0.468750000 0.800572169 -0.062500000
v 0.468750000 0.800572169 0.656250000
v 0.468750000 0.769322169 0.656250000
v 0.468750000 0.769322169 -0.062500000
vt 0.460937500 0.718750000
vt 0.281250000 0.718750000
vt 0.281250000 0.734375000
vt 0.460937500 0.734375000
f 368/368 367/367 366/366 365/365
v 0.531250000 0.800572169 0.656250000
v 0.468750000 0.800572169 0.656250000
v 0.468750000 0.800572169 -0.062500000
v 0.531250000 0.800572169 -0.062500000
vt 0.476562500 0.359375000
vt 0.460937500 0.359375000
vt 0.460937500 0.718750000
vt 0.476562500 0.718750000
f 372/372 371/371 370/370 369/369
v 0.531250000 0.769322169 -0.062500000
v 0.468750000 0.769322169 -0.062500000
v 0.468750000 0.769322169 0.656250000
v 0.531250000 0.769322169 0.656250000
vt 0.492187500 0.718750000
vt 0.476562500 0.718750000
vt 0.476562500 0.359375000
vt 0.492187500 0.359375000
f 376/376 375/375 374/374 373/373
v 0.531250000 0.800572169 -0.062500000
v 0.468750000 0.800572169 -0.062500000
v 0.468750000 0.769322169 -0.062500000
v 0.531250000 0.769322169 -0.062500000
vt 0.476562500 0.718750000
vt 0.460937500 0.718750000
vt 0.460937500 0.734375000
vt 0.476562500 0.734375000
f 380/380 379/379 378/378 377/377
v 0.468750000 0.800572169 0.656250000
v 0.531250000 0.800572169 0.656250000
v 0.531250000 0.769322169 0.656250000
v 0.468750000 0.769322169 0.656250000
vt 0.671875000 0.718750000
vt 0.656250000 0.718750000
vt 0.656250000 0.734375000
vt 0.671875000 0.734375000
f 384/384 383/383 382/382 381/381
o Bottom2
usemtl gun
v 0.546875000 0.413072169 0.515625000
v 0.546875000 0.413072169 0.234375000
v 0.546875000 0.381822169 0.234375000
v 0.546875000 0.381822169 0.515625000
vt 0.875000000 0.140625000
vt 0.804687500 0.140625000
vt 0.804687500 0.156250000
vt 0.875000000 0.156250000
f 388/388 387/387 386/386 385/385
v 0.453125000 0.413072169 0.234375000
v 0.453125000 0.413072169 0.515625000
v 0.453125000 0.381822169 0.515625000
v 0.453125000 0.381822169 0.234375000
vt 0.781250000 0.140625000
vt 0.710937500 0.140625000
vt 0.710937500 0.156250000
vt 0.781250000 0.156250000
f 392/392 391/391 390/390 389/389
v 0.546875000 0.413072169 0.515625000
v 0.453125000 0.413072169 0.515625000
v 0.453125000 0.413072169 0.234375000
v 0.546875000 0.413072169 0.234375000
vt 0.804687500 0.000000000
vt 0.781250000 0.000000000
vt 0.781250000 0.140625000
vt 0.804687500 0.140625000
f 396/396 395/395 394/394 393/393
v 0.546875000 0.381822169 0.234375000
v 0.453125000 0.381822169 0.234375000
v 0.453125000 0.381822169 0.515625000
v 0.546875000 0.381822169 0.515625000
vt 0.828125000 0.140625000
vt 0.804687500 0.140625000
vt 0.804687500 0.000000000
vt 0.828125000 0.000000000
f 400/400 399/399 398/398 397/397
v 0.546875000 0.413072169 0.234375000
v 0.453125000 0.413072169 0.234375000
v 0.453125000 0.381822169 0.234375000
v 0.546875000 0.381822169 0.234375000
vt 0.804687500 0.140625000
vt 0.781250000 0.140625000
vt 0.781250000 0.156250000
vt 0.804687500 0.156250000
f 404/404 403/403 402/402 401/401
v 0.453125000 0.413072169 0.515625000
v 0.546875000 0.413072169 0.515625000
v 0.546875000 0.381822169 0.515625000
v 0.453125000 0.381822169 0.515625000
vt 0.898437500 0.140625000
vt 0.875000000 0.140625000
vt 0.875000000 0.156250000
vt 0.898437500 0.156250000
f 408/408 407/407 406/406 405/405
o RedDot
usemtl gun
v 0.515625000 0.897447169 0.375000000
v 0.484375000 0.897447169 0.375000000
v 0.484375000 0.866197169 0.375000000
v 0.515625000 0.866197169 0.375000000
vt 0.007812500 0.171875000
vt 0.000000000 0.171875000
vt 0.000000000 0.187500000
vt 0.007812500 0.187500000
f 412/412 411/411 410/410 409/409
v 0.484375000 0.897447169 0.375000000
v 0.515625000 0.897447169 0.375000000
v 0.515625000 0.866197169 0.375000000
v 0.484375000 0.866197169 0.375000000
vt 0.015625000 0.171875000
vt 0.007812500 0.171875000
vt 0.007812500 0.187500000
vt 0.015625000 0.187500000
f 416/416 415/415 414/414 413/413
o Grip01
usemtl gun
v 0.546875000 0.578697169 0.078125000
v 0.546875000 0.578697169 -0.046875000
v 0.546875000 0.547447169 -0.046875000
v 0.546875000 0.547447169 0.078125000
vt 0.468750000 0.281250000
vt 0.437500000 0.281250000
vt 0.437500000 0.296875000
vt 0.468750000 0.296875000
f 420/420 419/419 418/418 417/417
v 0.453125000 0.578697169 -0.046875000
v 0.453125000 0.578697169 0.078125000
v 0.453125000 0.547447169 0.078125000
v 0.453125000 0.547447169 -0.046875000
vt 0.414062500 0.281250000
vt 0.382812500 0.281250000
vt 0.382812500 0.296875000
vt 0.414062500 0.296875000
f 424/424 423/423 422/422 421/421
v 0.546875000 0.578697169 0.078125000
v 0.453125000 0.578697169 0.078125000
v 0.453125000 0.578697169 -0.046875000
v 0.546875000 0.578697169 -0.046875000
vt 0.437500000 0.218750000
vt 0.414062500 0.218750000
vt 0.414062500 0.281250000
vt 0.437500000 0.281250000
f 428/428 427/427 426/426 425/425
v 0.546875000 0.547447169 -0.046875000
v 0.453125000 0.547447169 -0.046875000
v 0.453125000 0.547447169 0.078125000
v 0.546875000 0.547447169 0.078125000
vt 0.460937500 0.281250000
vt 0.437500000 0.281250000
vt 0.437500000 0.218750000
vt 0.460937500 0.218750000
f 432/432 431/431 430/430 429/429
v 0.546875000 0.578697169 -0.046875000
v 0.453125000 0.578697169 -0.046875000
v 0.453125000 0.547447169 -0.046875000
v 0.546875000 0.547447169 -0.046875000
vt 0.437500000 0.281250000
vt 0.414062500 0.281250000
vt 0.414062500 0.296875000
vt 0.437500000 0.296875000
f 436/436 435/435 434/434 433/433
v 0.453125000 0.578697169 0.078125000
v 0.546875000 0.578697169 0.078125000
v 0.546875000 0.547447169 0.078125000
v 0.453125000 0.547447169 0.078125000
vt 0.492187500 0.281250000
vt 0.468750000 0.281250000
vt 0.468750000 0.296875000
vt 0.492187500 0.296875000
f 440/440 439/439 438/438 437/437
o Eotech01
usemtl gun
v 0.550000000 0.903697169 0.406250000
v 0.550000000 0.903697169 0.306250000
v 0.550000000 0.853697169 0.306250000
v 0.550000000 0.853697169 0.406250000
vt 0.070312500 0.109375000
vt 0.039062500 0.109375000
vt 0.039062500 0.140625000
vt 0.070312500 0.140625000
f 444/444 443/443 442/442 441/441
v 0.525000000 0.903697169 0.306250000
v 0.525000000 0.903697169 0.406250000
v 0.525000000 0.853697169 0.406250000
v 0.525000000 0.853697169 0.306250000
vt 0.031250000 0.109375000
vt 0.000000000 0.109375000
vt 0.000000000 0.140625000
vt 0.031250000 0.140625000
f 448/448 447/447 446/446 445/445
v 0.550000000 0.903697169 0.406250000
v 0.525000000 0.903697169 0.406250000
v 0.525000000 0.903697169 0.306250000
v 0.550000000 0.903697169 0.306250000
vt 0.039062500 0.046875000
vt 0.031250000 0.046875000
vt 0.031250000 0.109375000
vt 0.039062500 0.109375000
f 452/452 451/451 450/450 449/449
v 0.550000000 0.853697169 0.306250000
v 0.525000000 0.853697169 0.306250000
v 0.525000000 0.853697169 0.406250000
v 0.550000000 0.853697169 0.406250000
vt 0.046875000 0.109375000
vt 0.039062500 0.109375000
vt 0.039062500 0.046875000
vt 0.046875000 0.046875000
f 456/456 455/455 454/454 453/453
v 0.550000000 0.903697169 0.306250000
v 0.525000000 0.903697169 0.306250000
v 0.525000000 0.853697169 0.306250000
v 0.550000000 0.853697169 0.306250000
vt 0.039062500 0.109375000
vt 0.031250000 0.109375000
vt 0.031250000 0.140625000
vt 0.039062500 0.140625000
f 460/460 459/459 458/458 457/457
v 0.525000000 0.903697169 0.406250000
v 0.550000000 0.903697169 0.406250000
v 0.550000000 0.853697169 0.406250000
v 0.525000000 0.853697169 0.406250000
vt 0.078125000 0.109375000
vt 0.070312500 0.109375000
vt 0.070312500 0.140625000
vt 0.078125000 0.140625000
f 464/464 463/463 462/462 461/461
o stock02
usemtl gun
v 0.515625000 0.731323428 1.030605789
v 0.515625000 0.709947169 0.971875000
v 0.515625000 0.416293225 1.078756295
v 0.515625000 0.437669484 1.137487084
vt 0.539062500 0.265625000
vt 0.523437500 0.265625000
vt 0.523437500 0.421875000
vt 0.539062500 0.421875000
f 468/468 467/467 466/466 465/465
v 0.484375000 0.709947169 0.971875000
v 0.484375000 0.731323428 1.030605789
v 0.484375000 0.437669484 1.137487084
v 0.484375000 0.416293225 1.078756295
vt 0.515625000 0.265625000
vt 0.500000000 0.265625000
vt 0.500000000 0.421875000
vt 0.515625000 0.421875000
f 472/472 471/471 470/470 469/469
v 0.515625000 0.731323428 1.030605789
v 0.484375000 0.731323428 1.030605789
v 0.484375000 0.709947169 0.971875000
v 0.515625000 0.709947169 0.971875000
vt 0.523437500 0.234375000
vt 0.515625000 0.234375000
vt 0.515625000 0.265625000
vt 0.523437500 0.265625000
f 476/476 475/475 474/474 473/473
v 0.515625000 0.416293225 1.078756295
v 0.484375000 0.416293225 1.078756295
v 0.484375000 0.437669484 1.137487084
v 0.515625000 0.437669484 1.137487084
vt 0.531250000 0.265625000
vt 0.523437500 0.265625000
vt 0.523437500 0.234375000
vt 0.531250000 0.234375000
f 480/480 479/479 478/478 477/477
v 0.515625000 0.709947169 0.971875000
v 0.484375000 0.709947169 0.971875000
v 0.484375000 0.416293225 1.078756295
v 0.515625000 0.416293225 1.078756295
vt 0.523437500 0.265625000
vt 0.515625000 0.265625000
vt 0.515625000 0.421875000
vt 0.523437500 0.421875000
f 484/484 483/483 482/482 481/481
v 0.484375000 0.731323428 1.030605789
v 0.515625000 0.731323428 1.030605789
v 0.515625000 0.437669484 1.137487084
v 0.484375000 0.437669484 1.137487084
vt 0.546875000 0.265625000
vt 0.539062500 0.265625000
vt 0.539062500 0.421875000
vt 0.546875000 0.421875000
f 488/488 487/487 486/486 485/485
o stock05
usemtl gun
v 0.544194174 0.619322169 1.125000000
v 0.544194174 0.619322169 1.000000000
v 0.500000000 0.575127995 1.000000000
v 0.500000000 0.575127995 1.125000000
vt 0.640625000 0.453125000
vt 0.609375000 0.453125000
vt 0.609375000 0.484375000
vt 0.640625000 0.484375000
f 492/492 491/491 490/490 489/489
v 0.500000000 0.663516343 1.000000000
v 0.500000000 0.663516343 1.125000000
v 0.455805826 0.619322169 1.125000000
v 0.455805826 0.619322169 1.000000000
vt 0.593750000 0.453125000
vt 0.562500000 0.453125000
vt 0.562500000 0.484375000
vt 0.593750000 0.484375000
f 496/496 495/495 494/494 493/493
v 0.544194174 0.619322169 1.125000000
v 0.500000000 0.663516343 1.125000000
v 0.500000000 0.663516343 1.000000000
v 0.544194174 0.619322169 1.000000000
vt 0.609375000 0.390625000
vt 0.593750000 0.390625000
vt 0.593750000 0.453125000
vt 0.609375000 0.453125000
f 500/500 499/499 498/498 497/497
v 0.500000000 0.575127995 1.000000000
v 0.455805826 0.619322169 1.000000000
v 0.455805826 0.619322169 1.125000000
v 0.500000000 0.575127995 1.125000000
vt 0.625000000 0.453125000
vt 0.609375000 0.453125000
vt 0.609375000 0.390625000
vt 0.625000000 0.390625000
f 504/504 503/503 502/502 501/501
v 0.544194174 0.619322169 1.000000000
v 0.500000000 0.663516343 1.000000000
v 0.455805826 0.619322169 1.000000000
v 0.500000000 0.575127995 1.000000000
vt 0.609375000 0.453125000
vt 0.593750000 0.453125000
vt 0.593750000 0.484375000
vt 0.609375000 0.484375000
f 508/508 507/507 506/506 505/505
v 0.500000000 0.663516343 1.125000000
v 0.544194174 0.619322169 1.125000000
v 0.500000000 0.575127995 1.125000000
v 0.455805826 0.619322169 1.125000000
vt 0.656250000 0.453125000
vt 0.640625000 0.453125000
vt 0.640625000 0.484375000
vt 0.656250000 0.484375000
f 512/512 511/511 510/510 509/509
o Receiver02
usemtl gun
v 0.546250000 0.729012817 0.396826972
v 0.546250000 0.675572169 0.250000000
v 0.546250000 0.352552831 0.367569424
v 0.546250000 0.405993478 0.514396396
vt 0.226562500 0.531250000
vt 0.187500000 0.531250000
vt 0.187500000 0.703125000
vt 0.226562500 0.703125000
f 516/516 515/515 514/514 513/513
v 0.453437500 0.675572169 0.250000000
v 0.453437500 0.729012817 0.396826972
v 0.453437500 0.405993478 0.514396396
v 0.453437500 0.352552831 0.367569424
vt 0.164062500 0.531250000
vt 0.125000000 0.531250000
vt 0.125000000 0.703125000
vt 0.164062500 0.703125000
f 520/520 519/519 518/518 517/517
v 0.546250000 0.729012817 0.396826972
v 0.453437500 0.729012817 0.396826972
v 0.453437500 0.675572169 0.250000000
v 0.546250000 0.675572169 0.250000000
vt 0.187500000 0.453125000
vt 0.164062500 0.453125000
vt 0.164062500 0.531250000
vt 0.187500000 0.531250000
f 524/524 523/523 522/522 521/521
v 0.546250000 0.352552831 0.367569424
v 0.453437500 0.352552831 0.367569424
v 0.453437500 0.405993478 0.514396396
v 0.546250000 0.405993478 0.514396396
vt 0.210937500 0.531250000
vt 0.187500000 0.531250000
vt 0.187500000 0.453125000
vt 0.210937500 0.453125000
f 528/528 527/527 526/526 525/525
v 0.546250000 0.675572169 0.250000000
v 0.453437500 0.675572169 0.250000000
v 0.453437500 0.352552831 0.367569424
v 0.546250000 0.352552831 0.367569424
vt 0.187500000 0.531250000
vt 0.164062500 0.531250000
vt 0.164062500 0.703125000
vt 0.187500000 0.703125000
f 532/532 531/531 530/530 529/529
v 0.453437500 0.729012817 0.396826972
v 0.546250000 0.729012817 0.396826972
v 0.546250000 0.405993478 0.514396396
v 0.453437500 0.405993478 0.514396396
vt 0.250000000 0.531250000
vt 0.226562500 0.531250000
vt 0.226562500 0.703125000
vt 0.250000000 0.703125000
f 536/536 535/535 534/534 533/533
o stock06
usemtl gun
v 0.546406250 0.737257781 0.775596183
v 0.546406250 0.769322169 0.687500000
v 0.546406250 0.739956775 0.676811871
v 0.546406250 0.707892386 0.764908054
vt 0.718750000 0.515625000
vt 0.695312500 0.515625000
vt 0.695312500 0.531250000
vt 0.718750000 0.531250000
f 540/540 539/539 538/538 537/537
v 0.453593750 0.769322169 0.687500000
v 0.453593750 0.737257781 0.775596183
v 0.453593750 0.707892386 0.764908054
v 0.453593750 0.739956775 0.676811871
vt 0.671875000 0.515625000
vt 0.648437500 0.515625000
vt 0.648437500 0.531250000
vt 0.671875000 0.531250000
f 544/544 543/543 542/542 541/541
v 0.546406250 0.737257781 0.775596183
v 0.453593750 0.737257781 0.775596183
v 0.453593750 0.769322169 0.687500000
v 0.546406250 0.769322169 0.687500000
vt 0.695312500 0.468750000
vt 0.671875000 0.468750000
vt 0.671875000 0.515625000
vt 0.695312500 0.515625000
f 548/548 547/547 546/546 545/545
v 0.546406250 0.739956775 0.676811871
v 0.453593750 0.739956775 0.676811871
v 0.453593750 0.707892386 0.764908054
v 0.546406250 0.707892386 0.764908054
vt 0.718750000 0.515625000
vt 0.695312500 0.515625000
vt 0.695312500 0.468750000
vt 0.718750000 0.468750000
f 552/552 551/551 550/550 549/549
v 0.546406250 0.769322169 0.687500000
v 0.453593750 0.769322169 0.687500000
v 0.453593750 0.739956775 0.676811871
v 0.546406250 0.739956775 0.676811871
vt 0.695312500 0.515625000
vt 0.671875000 0.515625000
vt 0.671875000 0.531250000
vt 0.695312500 0.531250000
f 556/556 555/555 554/554 553/553
v 0.453593750 0.737257781 0.775596183
v 0.546406250 0.737257781 0.775596183
v 0.546406250 0.707892386 0.764908054
v 0.453593750 0.707892386 0.764908054
vt 0.742187500 0.515625000
vt 0.718750000 0.515625000
vt 0.718750000 0.531250000
vt 0.742187500 0.531250000
f 560/560 559/559 558/558 557/557
o Eotech04
usemtl gun
v 0.475000000 0.903697169 0.406250000
v 0.475000000 0.903697169 0.306250000
v 0.475000000 0.853697169 0.306250000
v 0.475000000 0.853697169 0.406250000
vt 0.070312500 0.109375000
vt 0.039062500 0.109375000
vt 0.039062500 0.140625000
vt 0.070312500 0.140625000
f 564/564 563/563 562/562 561/561
v 0.450000000 0.903697169 0.306250000
v 0.450000000 0.903697169 0.406250000
v 0.450000000 0.853697169 0.406250000
v 0.450000000 0.853697169 0.306250000
vt 0.031250000 0.109375000
vt 0.000000000 0.109375000
vt 0.000000000 0.140625000
vt 0.031250000 0.140625000
f 568/568 567/567 566/566 565/565
v 0.475000000 0.903697169 0.406250000
v 0.450000000 0.903697169 0.406250000
v 0.450000000 0.903697169 0.306250000
v 0.475000000 0.903697169 0.306250000
vt 0.039062500 0.046875000
vt 0.031250000 0.046875000
vt 0.031250000 0.109375000
vt 0.039062500 0.109375000
f 572/572 571/571 570/570 569/569
v 0.475000000 0.853697169 0.306250000
v 0.450000000 0.853697169 0.306250000
v 0.450000000 0.853697169 0.406250000
v 0.475000000 0.853697169 0.406250000
vt 0.046875000 0.109375000
vt 0.039062500 0.109375000
vt 0.039062500 0.046875000
vt 0.046875000 0.046875000
f 576/576 575/575 574/574 573/573
v 0.475000000 0.903697169 0.306250000
v 0.450000000 0.903697169 0.306250000
v 0.450000000 0.853697169 0.306250000
v 0.475000000 0.853697169 0.306250000
vt 0.039062500 0.109375000
vt 0.031250000 0.109375000
vt 0.031250000 0.140625000
vt 0.039062500 0.140625000
f 580/580 579/579 578/578 577/577
v 0.450000000 0.903697169 0.406250000
v 0.475000000 0.903697169 0.406250000
v 0.475000000 0.853697169 0.406250000
v 0.450000000 0.853697169 0.406250000
vt 0.078125000 0.109375000
vt 0.070312500 0.109375000
vt 0.070312500 0.140625000
vt 0.078125000 0.140625000
f 584/584 583/583 582/582 581/581
o Receiver03_1
usemtl gun
v 0.546250000 0.729012817 0.240576972
v 0.546250000 0.675572169 0.093750000
v 0.546250000 0.352552831 0.211319424
v 0.546250000 0.405993478 0.358146396
vt 0.367187500 0.531250000
vt 0.328125000 0.531250000
vt 0.328125000 0.703125000
vt 0.367187500 0.703125000
f 588/588 587/587 586/586 585/585
v 0.453437500 0.675572169 0.093750000
v 0.453437500 0.729012817 0.240576972
v 0.453437500 0.405993478 0.358146396
v 0.453437500 0.352552831 0.211319424
vt 0.304687500 0.531250000
vt 0.265625000 0.531250000
vt 0.265625000 0.703125000
vt 0.304687500 0.703125000
f 592/592 591/591 590/590 589/589
v 0.546250000 0.729012817 0.240576972
v 0.453437500 0.729012817 0.240576972
v 0.453437500 0.675572169 0.093750000
v 0.546250000 0.675572169 0.093750000
vt 0.328125000 0.453125000
vt 0.304687500 0.453125000
vt 0.304687500 0.531250000
vt 0.328125000 0.531250000
f 596/596 595/595 594/594 593/593
v 0.546250000 0.352552831 0.211319424
v 0.453437500 0.352552831 0.211319424
v 0.453437500 0.405993478 0.358146396
v 0.546250000 0.405993478 0.358146396
vt 0.351562500 0.531250000
vt 0.328125000 0.531250000
vt 0.328125000 0.453125000
vt 0.351562500 0.453125000
f 600/600 599/599 598/598 597/597
v 0.546250000 0.675572169 0.093750000
v 0.453437500 0.675572169 0.093750000
v 0.453437500 0.352552831 0.211319424
v 0.546250000 0.352552831 0.211319424
vt 0.328125000 0.531250000
vt 0.304687500 0.531250000
vt 0.304687500 0.703125000
vt 0.328125000 0.703125000
f 604/604 603/603 602/602 601/601
v 0.453437500 0.729012817 0.240576972
v 0.546250000 0.729012817 0.240576972
v 0.546250000 0.405993478 0.358146396
v 0.453437500 0.405993478 0.358146396
vt 0.390625000 0.531250000
vt 0.367187500 0.531250000
vt 0.367187500 0.703125000
vt 0.390625000 0.703125000
f 608/608 607/607 606/606 605/605
o Grip03
usemtl gun
v 0.546406250 0.416909082 0.628391174
v 0.546406250 0.378697169 0.509375000
v 0.546406250 0.348943126 0.518927978
v 0.546406250 0.387155039 0.637944152
vt 0.085937500 0.359375000
vt 0.054687500 0.359375000
vt 0.054687500 0.375000000
vt 0.085937500 0.375000000
f 612/612 611/611 610/610 609/609
v 0.453593750 0.378697169 0.509375000
v 0.453593750 0.416909082 0.628391174
v 0.453593750 0.387155039 0.637944152
v 0.453593750 0.348943126 0.518927978
vt 0.031250000 0.359375000
vt 0.000000000 0.359375000
vt 0.000000000 0.375000000
vt 0.031250000 0.375000000
f 616/616 615/615 614/614 613/613
v 0.546406250 0.416909082 0.628391174
v 0.453593750 0.416909082 0.628391174
v 0.453593750 0.378697169 0.509375000
v 0.546406250 0.378697169 0.509375000
vt 0.054687500 0.296875000
vt 0.031250000 0.296875000
vt 0.031250000 0.359375000
vt 0.054687500 0.359375000
f 620/620 619/619 618/618 617/617
v 0.546406250 0.348943126 0.518927978
v 0.453593750 0.348943126 0.518927978
v 0.453593750 0.387155039 0.637944152
v 0.546406250 0.387155039 0.637944152
vt 0.078125000 0.359375000
vt 0.054687500 0.359375000
vt 0.054687500 0.296875000
vt 0.078125000 0.296875000
f 624/624 623/623 622/622 621/621
v 0.546406250 0.378697169 0.509375000
v 0.453593750 0.378697169 0.509375000
v 0.453593750 0.348943126 0.518927978
v 0.546406250 0.348943126 0.518927978
vt 0.054687500 0.359375000
vt 0.031250000 0.359375000
vt 0.031250000 0.375000000
vt 0.054687500 0.375000000
f 628/628 627/627 626/626 625/625
v 0.453593750 0.416909082 0.628391174
v 0.546406250 0.416909082 0.628391174
v 0.546406250 0.387155039 0.637944152
v 0.453593750 0.387155039 0.637944152
vt 0.109375000 0.359375000
vt 0.085937500 0.359375000
vt 0.085937500 0.375000000
vt 0.109375000 0.375000000
f 632/632 631/631 630/630 629/629
o Trigger02
usemtl gun
v 0.515625000 0.685770664 0.530775242
v 0.515625000 0.691197169 0.500000000
v 0.515625000 0.598871442 0.483720483
v 0.515625000 0.593444937 0.514495726
vt 0.179687500 0.328125000
vt 0.171875000 0.328125000
vt 0.171875000 0.375000000
vt 0.179687500 0.375000000
f 636/636 635/635 634/634 633/633
v 0.484375000 0.691197169 0.500000000
v 0.484375000 0.685770664 0.530775242
v 0.484375000 0.593444937 0.514495726
v 0.484375000 0.598871442 0.483720483
vt 0.164062500 0.328125000
vt 0.156250000 0.328125000
vt 0.156250000 0.375000000
vt 0.164062500 0.375000000
f 640/640 639/639 638/638 637/637
v 0.515625000 0.685770664 0.530775242
v 0.484375000 0.685770664 0.530775242
v 0.484375000 0.691197169 0.500000000
v 0.515625000 0.691197169 0.500000000
vt 0.171875000 0.312500000
vt 0.164062500 0.312500000
vt 0.164062500 0.328125000
vt 0.171875000 0.328125000
f 644/644 643/643 642/642 641/641
v 0.515625000 0.598871442 0.483720483
v 0.484375000 0.598871442 0.483720483
v 0.484375000 0.593444937 0.514495726
v 0.515625000 0.593444937 0.514495726
vt 0.179687500 0.328125000
vt 0.171875000 0.328125000
vt 0.171875000 0.312500000
vt 0.179687500 0.312500000
f 648/648 647/647 646/646 645/645
v 0.515625000 0.691197169 0.500000000
v 0.484375000 0.691197169 0.500000000
v 0.484375000 0.598871442 0.483720483
v 0.515625000 0.598871442 0.483720483
vt 0.171875000 0.328125000
vt 0.164062500 0.328125000
vt 0.164062500 0.375000000
vt 0.171875000 0.375000000
f 652/652 651/651 650/650 649/649
v 0.484375000 0.685770664 0.530775242
v 0.515625000 0.685770664 0.530775242
v 0.515625000 0.593444937 0.514495726
v 0.484375000 0.593444937 0.514495726
vt 0.187500000 0.328125000
vt 0.179687500 0.328125000
vt 0.179687500 0.375000000
vt 0.187500000 0.375000000
f 656/656 655/655 654/654 653/653
